<?xml version="1.0" encoding="UTF-8" standalone="no"?>
<!DOCTYPE svg PUBLIC "-//W3C//DTD SVG 1.1//EN"
 "http://www.w3.org/Graphics/SVG/1.1/DTD/svg11.dtd">
<!-- Generated by graphviz version 8.1.0 (20230707.0739)
 -->
<!-- Title: finite_state_machine Pages: 1 -->
<svg width="529pt" height="301pt"
 viewBox="0.00 0.00 529.25 301.06" xmlns="http://www.w3.org/2000/svg" xmlns:xlink="http://www.w3.org/1999/xlink">
<g id="graph0" class="graph" transform="scale(1 1) rotate(0) translate(4 297.06)">
<title>finite_state_machine</title>
<!-- &#45;1 -->
<!-- 0 -->
<g id="node3" class="node">
<title>0</title>
<ellipse fill="none" stroke="black" cx="109.25" cy="-146.53" rx="18" ry="18"/>
<text text-anchor="middle" x="109.25" y="-141.48" font-family="Times,serif" font-size="14.00">0</text>
</g>
<!-- &#45;1&#45;&gt;0 -->
<g id="edge1" class="edge">
<title>&#45;1&#45;&gt;0</title>
<path fill="none" stroke="black" d="M54.44,-146.53C62.72,-146.53 71.88,-146.53 80.27,-146.53"/>
<polygon fill="black" stroke="black" points="80.08,-150.03 90.08,-146.53 80.08,-143.03 80.08,-150.03"/>
</g>
<!-- 5 -->
<g id="node2" class="node">
<title>5</title>
<ellipse fill="none" stroke="black" cx="499.25" cy="-146.53" rx="18" ry="18"/>
<ellipse fill="none" stroke="black" cx="499.25" cy="-146.53" rx="22" ry="22"/>
<text text-anchor="middle" x="499.25" y="-141.48" font-family="Times,serif" font-size="14.00">5</text>
</g>
<!-- 1 -->
<g id="node4" class="node">
<title>1</title>
<ellipse fill="none" stroke="black" cx="187.25" cy="-146.53" rx="18" ry="18"/>
<text text-anchor="middle" x="187.25" y="-141.48" font-family="Times,serif" font-size="14.00">1</text>
</g>
<!-- 0&#45;&gt;1 -->
<g id="edge2" class="edge">
<title>0&#45;&gt;1</title>
<path fill="none" stroke="black" d="M127.5,-146.53C136.47,-146.53 147.67,-146.53 157.88,-146.53"/>
<polygon fill="black" stroke="black" points="157.81,-150.03 167.81,-146.53 157.81,-143.03 157.81,-150.03"/>
<text text-anchor="middle" x="148.25" y="-149.73" font-family="Times,serif" font-size="14.00">c</text>
</g>
<!-- 2 -->
<g id="node5" class="node">
<title>2</title>
<ellipse fill="none" stroke="black" cx="262.25" cy="-146.53" rx="18" ry="18"/>
<text text-anchor="middle" x="262.25" y="-141.48" font-family="Times,serif" font-size="14.00">2</text>
</g>
<!-- 1&#45;&gt;2 -->
<g id="edge3" class="edge">
<title>1&#45;&gt;2</title>
<path fill="none" stroke="black" d="M205.55,-146.53C213.76,-146.53 223.79,-146.53 233.06,-146.53"/>
<polygon fill="black" stroke="black" points="232.82,-150.03 242.82,-146.53 232.82,-143.03 232.82,-150.03"/>
<text text-anchor="middle" x="225.25" y="-149.73" font-family="Times,serif" font-size="14.00">l</text>
</g>
<!-- 3 -->
<g id="node6" class="node">
<title>3</title>
<ellipse fill="none" stroke="black" cx="340.25" cy="-146.53" rx="18" ry="18"/>
<text text-anchor="middle" x="340.25" y="-141.48" font-family="Times,serif" font-size="14.00">3</text>
</g>
<!-- 2&#45;&gt;3 -->
<g id="edge4" class="edge">
<title>2&#45;&gt;3</title>
<path fill="none" stroke="black" d="M280.5,-146.53C289.47,-146.53 300.67,-146.53 310.88,-146.53"/>
<polygon fill="black" stroke="black" points="310.81,-150.03 320.81,-146.53 310.81,-143.03 310.81,-150.03"/>
<text text-anchor="middle" x="301.25" y="-149.73" font-family="Times,serif" font-size="14.00">a</text>
</g>
<!-- 4 -->
<g id="node7" class="node">
<title>4</title>
<ellipse fill="none" stroke="black" cx="418.25" cy="-146.53" rx="18" ry="18"/>
<text text-anchor="middle" x="418.25" y="-141.48" font-family="Times,serif" font-size="14.00">4</text>
</g>
<!-- 3&#45;&gt;4 -->
<g id="edge5" class="edge">
<title>3&#45;&gt;4</title>
<path fill="none" stroke="black" d="M358.5,-146.53C367.47,-146.53 378.67,-146.53 388.88,-146.53"/>
<polygon fill="black" stroke="black" points="388.81,-150.03 398.81,-146.53 388.81,-143.03 388.81,-150.03"/>
<text text-anchor="middle" x="379.25" y="-149.73" font-family="Times,serif" font-size="14.00">s</text>
</g>
<!-- 4&#45;&gt;5 -->
<g id="edge6" class="edge">
<title>4&#45;&gt;5</title>
<path fill="none" stroke="black" d="M436.39,-146.53C445.03,-146.53 455.8,-146.53 465.91,-146.53"/>
<polygon fill="black" stroke="black" points="465.91,-150.03 475.91,-146.53 465.91,-143.03 465.91,-150.03"/>
<text text-anchor="middle" x="456.25" y="-149.73" font-family="Times,serif" font-size="14.00">s</text>
</g>
</g>
</svg>
