<?xml version="1.0" encoding="UTF-8" standalone="no"?>
<!DOCTYPE svg PUBLIC "-//W3C//DTD SVG 1.1//EN"
 "http://www.w3.org/Graphics/SVG/1.1/DTD/svg11.dtd">
<!-- Generated by graphviz version 8.1.0 (20230707.0739)
 -->
<!-- Title: finite_state_machine Pages: 1 -->
<svg width="532pt" height="302pt"
 viewBox="0.00 0.00 531.50 302.19" xmlns="http://www.w3.org/2000/svg" xmlns:xlink="http://www.w3.org/1999/xlink">
<g id="graph0" class="graph" transform="scale(1 1) rotate(0) translate(4 298.19)">
<title>finite_state_machine</title>
<!-- &#45;1 -->
<!-- 0 -->
<g id="node3" class="node">
<title>0</title>
<ellipse fill="none" stroke="black" cx="108.5" cy="-147.09" rx="18" ry="18"/>
<text text-anchor="middle" x="108.5" y="-142.04" font-family="Times,serif" font-size="14.00">0</text>
</g>
<!-- &#45;1&#45;&gt;0 -->
<g id="edge1" class="edge">
<title>&#45;1&#45;&gt;0</title>
<path fill="none" stroke="black" d="M53.69,-147.09C61.97,-147.09 71.13,-147.09 79.52,-147.09"/>
<polygon fill="black" stroke="black" points="79.33,-150.59 89.33,-147.09 79.33,-143.59 79.33,-150.59"/>
</g>
<!-- 5 -->
<g id="node2" class="node">
<title>5</title>
<ellipse fill="none" stroke="black" cx="501.5" cy="-147.09" rx="18" ry="18"/>
<ellipse fill="none" stroke="black" cx="501.5" cy="-147.09" rx="22" ry="22"/>
<text text-anchor="middle" x="501.5" y="-142.04" font-family="Times,serif" font-size="14.00">5</text>
</g>
<!-- 1 -->
<g id="node4" class="node">
<title>1</title>
<ellipse fill="none" stroke="black" cx="186.5" cy="-147.09" rx="18" ry="18"/>
<text text-anchor="middle" x="186.5" y="-142.04" font-family="Times,serif" font-size="14.00">1</text>
</g>
<!-- 0&#45;&gt;1 -->
<g id="edge2" class="edge">
<title>0&#45;&gt;1</title>
<path fill="none" stroke="black" d="M126.75,-147.09C135.72,-147.09 146.92,-147.09 157.13,-147.09"/>
<polygon fill="black" stroke="black" points="157.06,-150.59 167.06,-147.09 157.06,-143.59 157.06,-150.59"/>
<text text-anchor="middle" x="147.5" y="-150.29" font-family="Times,serif" font-size="14.00">c</text>
</g>
<!-- 2 -->
<g id="node5" class="node">
<title>2</title>
<ellipse fill="none" stroke="black" cx="265.5" cy="-147.09" rx="18" ry="18"/>
<text text-anchor="middle" x="265.5" y="-142.04" font-family="Times,serif" font-size="14.00">2</text>
</g>
<!-- 1&#45;&gt;2 -->
<g id="edge3" class="edge">
<title>1&#45;&gt;2</title>
<path fill="none" stroke="black" d="M204.97,-147.09C214.23,-147.09 225.82,-147.09 236.31,-147.09"/>
<polygon fill="black" stroke="black" points="236.1,-150.59 246.1,-147.09 236.1,-143.59 236.1,-150.59"/>
<text text-anchor="middle" x="226.5" y="-150.29" font-family="Times,serif" font-size="14.00">o</text>
</g>
<!-- 3 -->
<g id="node6" class="node">
<title>3</title>
<ellipse fill="none" stroke="black" cx="344.5" cy="-147.09" rx="18" ry="18"/>
<text text-anchor="middle" x="344.5" y="-142.04" font-family="Times,serif" font-size="14.00">3</text>
</g>
<!-- 2&#45;&gt;3 -->
<g id="edge4" class="edge">
<title>2&#45;&gt;3</title>
<path fill="none" stroke="black" d="M283.97,-147.09C293.23,-147.09 304.82,-147.09 315.31,-147.09"/>
<polygon fill="black" stroke="black" points="315.1,-150.59 325.1,-147.09 315.1,-143.59 315.1,-150.59"/>
<text text-anchor="middle" x="305.5" y="-150.29" font-family="Times,serif" font-size="14.00">n</text>
</g>
<!-- 4 -->
<g id="node7" class="node">
<title>4</title>
<ellipse fill="none" stroke="black" cx="421.5" cy="-147.09" rx="18" ry="18"/>
<text text-anchor="middle" x="421.5" y="-142.04" font-family="Times,serif" font-size="14.00">4</text>
</g>
<!-- 3&#45;&gt;4 -->
<g id="edge5" class="edge">
<title>3&#45;&gt;4</title>
<path fill="none" stroke="black" d="M362.9,-147.09C371.6,-147.09 382.37,-147.09 392.22,-147.09"/>
<polygon fill="black" stroke="black" points="392.2,-150.59 402.2,-147.09 392.2,-143.59 392.2,-150.59"/>
<text text-anchor="middle" x="383.5" y="-150.29" font-family="Times,serif" font-size="14.00">s</text>
</g>
<!-- 4&#45;&gt;5 -->
<g id="edge6" class="edge">
<title>4&#45;&gt;5</title>
<path fill="none" stroke="black" d="M439.81,-147.09C448.13,-147.09 458.39,-147.09 468.08,-147.09"/>
<polygon fill="black" stroke="black" points="468.06,-150.59 478.06,-147.09 468.06,-143.59 468.06,-150.59"/>
<text text-anchor="middle" x="459.5" y="-150.29" font-family="Times,serif" font-size="14.00">t</text>
</g>
</g>
</svg>
