<?xml version="1.0" encoding="UTF-8" standalone="no"?>
<!DOCTYPE svg PUBLIC "-//W3C//DTD SVG 1.1//EN"
 "http://www.w3.org/Graphics/SVG/1.1/DTD/svg11.dtd">
<!-- Generated by graphviz version 8.1.0 (20230707.0739)
 -->
<!-- Title: finite_state_machine Pages: 1 -->
<svg width="766pt" height="434pt"
 viewBox="0.00 0.00 765.50 433.81" xmlns="http://www.w3.org/2000/svg" xmlns:xlink="http://www.w3.org/1999/xlink">
<g id="graph0" class="graph" transform="scale(1 1) rotate(0) translate(4 429.81)">
<title>finite_state_machine</title>
<!-- &#45;1 -->
<!-- 0 -->
<g id="node3" class="node">
<title>0</title>
<ellipse fill="none" stroke="white" cx="108.5" cy="-212.91" rx="18" ry="18"/>
<text text-anchor="middle" x="108.5" y="-207.86" font-family="Times,serif" font-size="14.00" fill="white">0</text>
</g>
<!-- &#45;1&#45;&gt;0 -->
<g id="edge1" class="edge">
<title>&#45;1&#45;&gt;0</title>
<path fill="none" stroke="white" d="M53.69,-212.91C61.97,-212.91 71.13,-212.91 79.52,-212.91"/>
<polygon fill="white" stroke="white" points="79.33,-216.41 89.33,-212.91 79.33,-209.41 79.33,-216.41"/>
</g>
<!-- 8 -->
<g id="node2" class="node">
<title>8</title>
<ellipse fill="none" stroke="white" cx="735.5" cy="-212.91" rx="18" ry="18"/>
<ellipse fill="none" stroke="white" cx="735.5" cy="-212.91" rx="22" ry="22"/>
<text text-anchor="middle" x="735.5" y="-207.86" font-family="Times,serif" font-size="14.00" fill="white">8</text>
</g>
<!-- 1 -->
<g id="node4" class="node">
<title>1</title>
<ellipse fill="none" stroke="white" cx="186.5" cy="-212.91" rx="18" ry="18"/>
<text text-anchor="middle" x="186.5" y="-207.86" font-family="Times,serif" font-size="14.00" fill="white">1</text>
</g>
<!-- 0&#45;&gt;1 -->
<g id="edge2" class="edge">
<title>0&#45;&gt;1</title>
<path fill="none" stroke="white" d="M126.75,-212.91C135.72,-212.91 146.92,-212.91 157.13,-212.91"/>
<polygon fill="white" stroke="white" points="157.06,-216.41 167.06,-212.91 157.06,-209.41 157.06,-216.41"/>
<text text-anchor="middle" x="147.5" y="-216.11" font-family="Times,serif" font-size="14.00" fill="white">c</text>
</g>
<!-- 2 -->
<g id="node5" class="node">
<title>2</title>
<ellipse fill="none" stroke="white" cx="265.5" cy="-212.91" rx="18" ry="18"/>
<text text-anchor="middle" x="265.5" y="-207.86" font-family="Times,serif" font-size="14.00" fill="white">2</text>
</g>
<!-- 1&#45;&gt;2 -->
<g id="edge3" class="edge">
<title>1&#45;&gt;2</title>
<path fill="none" stroke="white" d="M204.97,-212.91C214.23,-212.91 225.82,-212.91 236.31,-212.91"/>
<polygon fill="white" stroke="white" points="236.1,-216.41 246.1,-212.91 236.1,-209.41 236.1,-216.41"/>
<text text-anchor="middle" x="226.5" y="-216.11" font-family="Times,serif" font-size="14.00" fill="white">o</text>
</g>
<!-- 3 -->
<g id="node6" class="node">
<title>3</title>
<ellipse fill="none" stroke="white" cx="344.5" cy="-212.91" rx="18" ry="18"/>
<text text-anchor="middle" x="344.5" y="-207.86" font-family="Times,serif" font-size="14.00" fill="white">3</text>
</g>
<!-- 2&#45;&gt;3 -->
<g id="edge4" class="edge">
<title>2&#45;&gt;3</title>
<path fill="none" stroke="white" d="M283.97,-212.91C293.23,-212.91 304.82,-212.91 315.31,-212.91"/>
<polygon fill="white" stroke="white" points="315.1,-216.41 325.1,-212.91 315.1,-209.41 315.1,-216.41"/>
<text text-anchor="middle" x="305.5" y="-216.11" font-family="Times,serif" font-size="14.00" fill="white">n</text>
</g>
<!-- 4 -->
<g id="node7" class="node">
<title>4</title>
<ellipse fill="none" stroke="white" cx="420.5" cy="-212.91" rx="18" ry="18"/>
<text text-anchor="middle" x="420.5" y="-207.86" font-family="Times,serif" font-size="14.00" fill="white">4</text>
</g>
<!-- 3&#45;&gt;4 -->
<g id="edge5" class="edge">
<title>3&#45;&gt;4</title>
<path fill="none" stroke="white" d="M362.66,-212.91C371.19,-212.91 381.72,-212.91 391.39,-212.91"/>
<polygon fill="white" stroke="white" points="391.17,-216.41 401.17,-212.91 391.17,-209.41 391.17,-216.41"/>
<text text-anchor="middle" x="382.5" y="-216.11" font-family="Times,serif" font-size="14.00" fill="white">t</text>
</g>
<!-- 5 -->
<g id="node8" class="node">
<title>5</title>
<ellipse fill="none" stroke="white" cx="495.5" cy="-212.91" rx="18" ry="18"/>
<text text-anchor="middle" x="495.5" y="-207.86" font-family="Times,serif" font-size="14.00" fill="white">5</text>
</g>
<!-- 4&#45;&gt;5 -->
<g id="edge6" class="edge">
<title>4&#45;&gt;5</title>
<path fill="none" stroke="white" d="M438.8,-212.91C447.01,-212.91 457.04,-212.91 466.31,-212.91"/>
<polygon fill="white" stroke="white" points="466.07,-216.41 476.07,-212.91 466.07,-209.41 466.07,-216.41"/>
<text text-anchor="middle" x="458.5" y="-216.11" font-family="Times,serif" font-size="14.00" fill="white">i</text>
</g>
<!-- 6 -->
<g id="node9" class="node">
<title>6</title>
<ellipse fill="none" stroke="white" cx="574.5" cy="-212.91" rx="18" ry="18"/>
<text text-anchor="middle" x="574.5" y="-207.86" font-family="Times,serif" font-size="14.00" fill="white">6</text>
</g>
<!-- 5&#45;&gt;6 -->
<g id="edge7" class="edge">
<title>5&#45;&gt;6</title>
<path fill="none" stroke="white" d="M513.97,-212.91C523.23,-212.91 534.82,-212.91 545.31,-212.91"/>
<polygon fill="white" stroke="white" points="545.1,-216.41 555.1,-212.91 545.1,-209.41 545.1,-216.41"/>
<text text-anchor="middle" x="535.5" y="-216.11" font-family="Times,serif" font-size="14.00" fill="white">n</text>
</g>
<!-- 7 -->
<g id="node10" class="node">
<title>7</title>
<ellipse fill="none" stroke="white" cx="653.5" cy="-212.91" rx="18" ry="18"/>
<text text-anchor="middle" x="653.5" y="-207.86" font-family="Times,serif" font-size="14.00" fill="white">7</text>
</g>
<!-- 6&#45;&gt;7 -->
<g id="edge8" class="edge">
<title>6&#45;&gt;7</title>
<path fill="none" stroke="white" d="M592.97,-212.91C602.23,-212.91 613.82,-212.91 624.31,-212.91"/>
<polygon fill="white" stroke="white" points="624.1,-216.41 634.1,-212.91 624.1,-209.41 624.1,-216.41"/>
<text text-anchor="middle" x="614.5" y="-216.11" font-family="Times,serif" font-size="14.00" fill="white">u</text>
</g>
<!-- 7&#45;&gt;8 -->
<g id="edge9" class="edge">
<title>7&#45;&gt;8</title>
<path fill="none" stroke="white" d="M671.86,-212.91C680.77,-212.91 691.91,-212.91 702.32,-212.91"/>
<polygon fill="white" stroke="white" points="702.19,-216.41 712.19,-212.91 702.19,-209.41 702.19,-216.41"/>
<text text-anchor="middle" x="692.5" y="-216.11" font-family="Times,serif" font-size="14.00" fill="white">e</text>
</g>
</g>
</svg>
