<?xml version="1.0" encoding="UTF-8" standalone="no"?>
<!DOCTYPE svg PUBLIC "-//W3C//DTD SVG 1.1//EN"
 "http://www.w3.org/Graphics/SVG/1.1/DTD/svg11.dtd">
<!-- Generated by graphviz version 9.0.0 (20230911.1827)
 -->
<!-- Title: finite_state_machine Pages: 1 -->
<svg width="296pt" height="170pt"
 viewBox="0.00 0.00 296.00 170.00" xmlns="http://www.w3.org/2000/svg" xmlns:xlink="http://www.w3.org/1999/xlink">
<g id="graph0" class="graph" transform="scale(1 1) rotate(0) translate(4 166)">
<title>finite_state_machine</title>
<!-- &#45;1 -->
<!-- 0 -->
<g id="node3" class="node">
<title>0</title>
<ellipse fill="none" stroke="white" cx="109" cy="-81" rx="18" ry="18"/>
<text text-anchor="middle" x="109" y="-75.95" font-family="Times,serif" font-size="14.00" fill="white">0</text>
</g>
<!-- &#45;1&#45;&gt;0 -->
<g id="edge1" class="edge">
<title>&#45;1&#45;&gt;0</title>
<path fill="none" stroke="white" d="M54.19,-81C62.28,-81 71.22,-81 79.45,-81"/>
<polygon fill="white" stroke="white" points="79.31,-84.5 89.31,-81 79.31,-77.5 79.31,-84.5"/>
</g>
<!-- 2 -->
<g id="node2" class="node">
<title>2</title>
<ellipse fill="none" stroke="white" cx="266" cy="-81" rx="18" ry="18"/>
<ellipse fill="none" stroke="white" cx="266" cy="-81" rx="22" ry="22"/>
<text text-anchor="middle" x="266" y="-75.95" font-family="Times,serif" font-size="14.00" fill="white">2</text>
</g>
<!-- 1 -->
<g id="node4" class="node">
<title>1</title>
<ellipse fill="none" stroke="white" cx="185" cy="-81" rx="18" ry="18"/>
<text text-anchor="middle" x="185" y="-75.95" font-family="Times,serif" font-size="14.00" fill="white">1</text>
</g>
<!-- 0&#45;&gt;1 -->
<g id="edge2" class="edge">
<title>0&#45;&gt;1</title>
<path fill="none" stroke="white" d="M127.16,-81C135.51,-81 145.77,-81 155.26,-81"/>
<polygon fill="white" stroke="white" points="155.16,-84.5 165.16,-81 155.16,-77.5 155.16,-84.5"/>
<text text-anchor="middle" x="147" y="-84.2" font-family="Times,serif" font-size="14.00" fill="white">&#45;</text>
</g>
<!-- 1&#45;&gt;2 -->
<g id="edge3" class="edge">
<title>1&#45;&gt;2</title>
<path fill="none" stroke="white" d="M203.14,-81C211.69,-81 222.31,-81 232.34,-81"/>
<polygon fill="white" stroke="white" points="232.15,-84.5 242.15,-81 232.15,-77.5 232.15,-84.5"/>
<text text-anchor="middle" x="224" y="-84.2" font-family="Times,serif" font-size="14.00" fill="white">&#45;</text>
</g>
</g>
</svg>
