<?xml version="1.0" encoding="UTF-8" standalone="no"?>
<!DOCTYPE svg PUBLIC "-//W3C//DTD SVG 1.1//EN"
 "http://www.w3.org/Graphics/SVG/1.1/DTD/svg11.dtd">
<!-- Generated by graphviz version 8.1.0 (20230707.0739)
 -->
<!-- Title: finite_state_machine Pages: 1 -->
<svg width="685pt" height="388pt"
 viewBox="0.00 0.00 684.50 388.25" xmlns="http://www.w3.org/2000/svg" xmlns:xlink="http://www.w3.org/1999/xlink">
<g id="graph0" class="graph" transform="scale(1 1) rotate(0) translate(4 384.25)">
<title>finite_state_machine</title>
<!-- &#45;1 -->
<!-- 0 -->
<g id="node3" class="node">
<title>0</title>
<ellipse fill="none" stroke="white" cx="108.5" cy="-190.12" rx="18" ry="18"/>
<text text-anchor="middle" x="108.5" y="-185.07" font-family="Times,serif" font-size="14.00" fill="white">0</text>
</g>
<!-- &#45;1&#45;&gt;0 -->
<g id="edge1" class="edge">
<title>&#45;1&#45;&gt;0</title>
<path fill="none" stroke="white" d="M53.69,-190.12C61.97,-190.12 71.13,-190.12 79.52,-190.12"/>
<polygon fill="white" stroke="white" points="79.33,-193.63 89.33,-190.12 79.33,-186.63 79.33,-193.63"/>
</g>
<!-- 7 -->
<g id="node2" class="node">
<title>7</title>
<ellipse fill="none" stroke="white" cx="654.5" cy="-190.12" rx="18" ry="18"/>
<ellipse fill="none" stroke="white" cx="654.5" cy="-190.12" rx="22" ry="22"/>
<text text-anchor="middle" x="654.5" y="-185.07" font-family="Times,serif" font-size="14.00" fill="white">7</text>
</g>
<!-- 1 -->
<g id="node4" class="node">
<title>1</title>
<ellipse fill="none" stroke="white" cx="187.5" cy="-190.12" rx="18" ry="18"/>
<text text-anchor="middle" x="187.5" y="-185.07" font-family="Times,serif" font-size="14.00" fill="white">1</text>
</g>
<!-- 0&#45;&gt;1 -->
<g id="edge2" class="edge">
<title>0&#45;&gt;1</title>
<path fill="none" stroke="white" d="M126.97,-190.12C136.23,-190.12 147.82,-190.12 158.31,-190.12"/>
<polygon fill="white" stroke="white" points="158.1,-193.63 168.1,-190.12 158.1,-186.63 158.1,-193.63"/>
<text text-anchor="middle" x="148.5" y="-193.32" font-family="Times,serif" font-size="14.00" fill="white">d</text>
</g>
<!-- 2 -->
<g id="node5" class="node">
<title>2</title>
<ellipse fill="none" stroke="white" cx="265.5" cy="-190.12" rx="18" ry="18"/>
<text text-anchor="middle" x="265.5" y="-185.07" font-family="Times,serif" font-size="14.00" fill="white">2</text>
</g>
<!-- 1&#45;&gt;2 -->
<g id="edge3" class="edge">
<title>1&#45;&gt;2</title>
<path fill="none" stroke="white" d="M205.75,-190.12C214.72,-190.12 225.92,-190.12 236.13,-190.12"/>
<polygon fill="white" stroke="white" points="236.06,-193.63 246.06,-190.12 236.06,-186.63 236.06,-193.63"/>
<text text-anchor="middle" x="226.5" y="-193.32" font-family="Times,serif" font-size="14.00" fill="white">e</text>
</g>
<!-- 3 -->
<g id="node6" class="node">
<title>3</title>
<ellipse fill="none" stroke="white" cx="342.5" cy="-190.12" rx="18" ry="18"/>
<text text-anchor="middle" x="342.5" y="-185.07" font-family="Times,serif" font-size="14.00" fill="white">3</text>
</g>
<!-- 2&#45;&gt;3 -->
<g id="edge4" class="edge">
<title>2&#45;&gt;3</title>
<path fill="none" stroke="white" d="M283.9,-190.12C292.6,-190.12 303.37,-190.12 313.22,-190.12"/>
<polygon fill="white" stroke="white" points="313.2,-193.63 323.2,-190.12 313.2,-186.63 313.2,-193.63"/>
<text text-anchor="middle" x="303.5" y="-193.32" font-family="Times,serif" font-size="14.00" fill="white">f</text>
</g>
<!-- 4 -->
<g id="node7" class="node">
<title>4</title>
<ellipse fill="none" stroke="white" cx="420.5" cy="-190.12" rx="18" ry="18"/>
<text text-anchor="middle" x="420.5" y="-185.07" font-family="Times,serif" font-size="14.00" fill="white">4</text>
</g>
<!-- 3&#45;&gt;4 -->
<g id="edge5" class="edge">
<title>3&#45;&gt;4</title>
<path fill="none" stroke="white" d="M360.75,-190.12C369.72,-190.12 380.92,-190.12 391.13,-190.12"/>
<polygon fill="white" stroke="white" points="391.06,-193.63 401.06,-190.12 391.06,-186.63 391.06,-193.63"/>
<text text-anchor="middle" x="381.5" y="-193.32" font-family="Times,serif" font-size="14.00" fill="white">a</text>
</g>
<!-- 5 -->
<g id="node8" class="node">
<title>5</title>
<ellipse fill="none" stroke="white" cx="498.5" cy="-190.12" rx="18" ry="18"/>
<text text-anchor="middle" x="498.5" y="-185.07" font-family="Times,serif" font-size="14.00" fill="white">5</text>
</g>
<!-- 4&#45;&gt;5 -->
<g id="edge6" class="edge">
<title>4&#45;&gt;5</title>
<path fill="none" stroke="white" d="M438.75,-190.12C447.72,-190.12 458.92,-190.12 469.13,-190.12"/>
<polygon fill="white" stroke="white" points="469.06,-193.63 479.06,-190.12 469.06,-186.63 469.06,-193.63"/>
<text text-anchor="middle" x="459.5" y="-193.32" font-family="Times,serif" font-size="14.00" fill="white">u</text>
</g>
<!-- 6 -->
<g id="node9" class="node">
<title>6</title>
<ellipse fill="none" stroke="white" cx="574.5" cy="-190.12" rx="18" ry="18"/>
<text text-anchor="middle" x="574.5" y="-185.07" font-family="Times,serif" font-size="14.00" fill="white">6</text>
</g>
<!-- 5&#45;&gt;6 -->
<g id="edge7" class="edge">
<title>5&#45;&gt;6</title>
<path fill="none" stroke="white" d="M516.66,-190.12C525.19,-190.12 535.72,-190.12 545.39,-190.12"/>
<polygon fill="white" stroke="white" points="545.17,-193.63 555.17,-190.12 545.17,-186.63 545.17,-193.63"/>
<text text-anchor="middle" x="536.5" y="-193.32" font-family="Times,serif" font-size="14.00" fill="white">l</text>
</g>
<!-- 6&#45;&gt;7 -->
<g id="edge8" class="edge">
<title>6&#45;&gt;7</title>
<path fill="none" stroke="white" d="M592.81,-190.12C601.13,-190.12 611.39,-190.12 621.08,-190.12"/>
<polygon fill="white" stroke="white" points="621.06,-193.63 631.06,-190.12 621.06,-186.63 621.06,-193.63"/>
<text text-anchor="middle" x="612.5" y="-193.32" font-family="Times,serif" font-size="14.00" fill="white">t</text>
</g>
</g>
</svg>
