<?xml version="1.0" encoding="UTF-8" standalone="no"?>
<!DOCTYPE svg PUBLIC "-//W3C//DTD SVG 1.1//EN"
 "http://www.w3.org/Graphics/SVG/1.1/DTD/svg11.dtd">
<!-- Generated by graphviz version 9.0.0 (20230911.1827)
 -->
<!-- Title: finite_state_machine Pages: 1 -->
<svg width="564pt" height="320pt"
 viewBox="0.00 0.00 563.75 320.19" xmlns="http://www.w3.org/2000/svg" xmlns:xlink="http://www.w3.org/1999/xlink">
<g id="graph0" class="graph" transform="scale(1 1) rotate(0) translate(4 316.19)">
<title>finite_state_machine</title>
<!-- &#45;1 -->
<!-- 0 -->
<g id="node3" class="node">
<title>0</title>
<ellipse fill="none" stroke="black" cx="108.75" cy="-62.58" rx="18" ry="18"/>
<text text-anchor="middle" x="108.75" y="-57.53" font-family="Times,serif" font-size="14.00">0</text>
</g>
<!-- &#45;1&#45;&gt;0 -->
<g id="edge1" class="edge">
<title>&#45;1&#45;&gt;0</title>
<path fill="none" stroke="black" d="M53.94,-62.58C62.03,-62.58 70.97,-62.58 79.2,-62.58"/>
<polygon fill="black" stroke="black" points="79.06,-66.08 89.06,-62.58 79.06,-59.08 79.06,-66.08"/>
</g>
<!-- 5 -->
<g id="node2" class="node">
<title>5</title>
<ellipse fill="none" stroke="black" cx="533.75" cy="-62.58" rx="18" ry="18"/>
<ellipse fill="none" stroke="black" cx="533.75" cy="-62.58" rx="22" ry="22"/>
<text text-anchor="middle" x="533.75" y="-57.53" font-family="Times,serif" font-size="14.00">5</text>
</g>
<!-- 1 -->
<g id="node4" class="node">
<title>1</title>
<ellipse fill="none" stroke="black" cx="184.75" cy="-62.58" rx="18" ry="18"/>
<text text-anchor="middle" x="184.75" y="-57.53" font-family="Times,serif" font-size="14.00">1</text>
</g>
<!-- 0&#45;&gt;1 -->
<g id="edge2" class="edge">
<title>0&#45;&gt;1</title>
<path fill="none" stroke="black" d="M126.91,-62.58C135.26,-62.58 145.52,-62.58 155.01,-62.58"/>
<polygon fill="black" stroke="black" points="154.91,-66.08 164.91,-62.58 154.91,-59.08 154.91,-66.08"/>
<text text-anchor="middle" x="146.75" y="-65.78" font-family="Times,serif" font-size="14.00">/</text>
</g>
<!-- 2 -->
<g id="node5" class="node">
<title>2</title>
<ellipse fill="none" stroke="black" cx="263.75" cy="-62.58" rx="18" ry="18"/>
<text text-anchor="middle" x="263.75" y="-57.53" font-family="Times,serif" font-size="14.00">2</text>
</g>
<!-- 1&#45;&gt;2 -->
<g id="edge3" class="edge">
<title>1&#45;&gt;2</title>
<path fill="none" stroke="black" d="M203.22,-62.58C212.28,-62.58 223.58,-62.58 233.89,-62.58"/>
<polygon fill="black" stroke="black" points="233.83,-66.08 243.83,-62.58 233.83,-59.08 233.83,-66.08"/>
<text text-anchor="middle" x="223.75" y="-65.78" font-family="Times,serif" font-size="14.00">*</text>
</g>
<!-- 3 -->
<g id="node6" class="node">
<title>3</title>
<ellipse fill="none" stroke="black" cx="341.75" cy="-62.58" rx="18" ry="18"/>
<text text-anchor="middle" x="341.75" y="-57.53" font-family="Times,serif" font-size="14.00">3</text>
</g>
<!-- 2&#45;&gt;3 -->
<g id="edge4" class="edge">
<title>2&#45;&gt;3</title>
<path fill="none" stroke="black" d="M282,-62.58C290.87,-62.58 301.93,-62.58 312.05,-62.58"/>
<polygon fill="black" stroke="black" points="311.8,-66.08 321.8,-62.58 311.8,-59.08 311.8,-66.08"/>
<text text-anchor="middle" x="302.75" y="-65.78" font-family="Times,serif" font-size="14.00">*</text>
</g>
<!-- 3&#45;&gt;3 -->
<g id="edge5" class="edge">
<title>3&#45;&gt;3</title>
<path fill="none" stroke="black" d="M338.22,-80.73C337.68,-90.12 338.86,-98.58 341.75,-98.58 343.33,-98.58 344.4,-96.05 344.96,-92.22"/>
<polygon fill="black" stroke="black" points="348.45,-92.34 345.24,-82.25 341.46,-92.15 348.45,-92.34"/>
<text text-anchor="middle" x="341.75" y="-101.78" font-family="Times,serif" font-size="14.00">\0&#45;)</text>
</g>
<!-- 3&#45;&gt;3 -->
<g id="edge7" class="edge">
<title>3&#45;&gt;3</title>
<path fill="none" stroke="black" d="M335.99,-80C332.71,-97.37 334.63,-116.58 341.75,-116.58 347.37,-116.58 349.75,-104.62 348.89,-91.04"/>
<polygon fill="black" stroke="black" points="352.41,-90.99 347.7,-81.5 345.47,-91.86 352.41,-90.99"/>
<text text-anchor="middle" x="341.75" y="-119.78" font-family="Times,serif" font-size="14.00">+&#45;\uffff</text>
</g>
<!-- 4 -->
<g id="node7" class="node">
<title>4</title>
<ellipse fill="none" stroke="black" cx="453.75" cy="-62.58" rx="18" ry="18"/>
<text text-anchor="middle" x="453.75" y="-57.53" font-family="Times,serif" font-size="14.00">4</text>
</g>
<!-- 3&#45;&gt;4 -->
<g id="edge6" class="edge">
<title>3&#45;&gt;4</title>
<path fill="none" stroke="black" d="M356.64,-73.25C362.8,-77.33 370.34,-81.5 377.88,-83.58 394.9,-88.28 400.6,-88.28 417.62,-83.58 421.51,-82.51 425.4,-80.88 429.1,-79"/>
<polygon fill="black" stroke="black" points="430.71,-82.11 437.55,-74.02 427.16,-76.07 430.71,-82.11"/>
<text text-anchor="middle" x="397.75" y="-89.78" font-family="Times,serif" font-size="14.00">*</text>
</g>
<!-- 4&#45;&gt;5 -->
<g id="edge9" class="edge">
<title>4&#45;&gt;5</title>
<path fill="none" stroke="black" d="M472.06,-62.58C480.29,-62.58 490.42,-62.58 500.02,-62.58"/>
<polygon fill="black" stroke="black" points="499.8,-66.08 509.8,-62.58 499.8,-59.08 499.8,-66.08"/>
<text text-anchor="middle" x="491.75" y="-65.78" font-family="Times,serif" font-size="14.00">/</text>
</g>
<!-- 4&#45;&gt;3 -->
<g id="edge8" class="edge">
<title>4&#45;&gt;3</title>
<path fill="none" stroke="black" d="M435.32,-62.58C418.14,-62.58 391.58,-62.58 371.32,-62.58"/>
<polygon fill="black" stroke="black" points="371.45,-59.08 361.45,-62.58 371.45,-66.08 371.45,-59.08"/>
<text text-anchor="middle" x="397.75" y="-65.78" font-family="Times,serif" font-size="14.00">\0&#45;.</text>
</g>
<!-- 4&#45;&gt;3 -->
<g id="edge10" class="edge">
<title>4&#45;&gt;3</title>
<path fill="none" stroke="black" d="M438.82,-52.16C432.66,-48.18 425.12,-44.11 417.62,-42.08 400.57,-37.47 394.93,-37.47 377.88,-42.08 374.01,-43.13 370.13,-44.72 366.44,-46.56"/>
<polygon fill="black" stroke="black" points="364.92,-43.39 357.99,-51.41 368.4,-49.46 364.92,-43.39"/>
<text text-anchor="middle" x="397.75" y="-44.78" font-family="Times,serif" font-size="14.00">0&#45;\uffff</text>
</g>
</g>
</svg>
