<?xml version="1.0" encoding="UTF-8" standalone="no"?>
<!DOCTYPE svg PUBLIC "-//W3C//DTD SVG 1.1//EN"
 "http://www.w3.org/Graphics/SVG/1.1/DTD/svg11.dtd">
<!-- Generated by graphviz version 8.1.0 (20230707.0739)
 -->
<!-- Title: finite_state_machine Pages: 1 -->
<svg width="452pt" height="258pt"
 viewBox="0.00 0.00 452.00 257.75" xmlns="http://www.w3.org/2000/svg" xmlns:xlink="http://www.w3.org/1999/xlink">
<g id="graph0" class="graph" transform="scale(1 1) rotate(0) translate(4 253.75)">
<title>finite_state_machine</title>
<!-- &#45;1 -->
<!-- 0 -->
<g id="node3" class="node">
<title>0</title>
<ellipse fill="none" stroke="black" cx="109" cy="-124.88" rx="18" ry="18"/>
<text text-anchor="middle" x="109" y="-119.83" font-family="Times,serif" font-size="14.00">0</text>
</g>
<!-- &#45;1&#45;&gt;0 -->
<g id="edge1" class="edge">
<title>&#45;1&#45;&gt;0</title>
<path fill="none" stroke="black" d="M54.19,-124.88C62.47,-124.88 71.63,-124.88 80.02,-124.88"/>
<polygon fill="black" stroke="black" points="79.83,-128.38 89.83,-124.88 79.83,-121.38 79.83,-128.38"/>
</g>
<!-- 4 -->
<g id="node2" class="node">
<title>4</title>
<ellipse fill="none" stroke="black" cx="422" cy="-124.88" rx="18" ry="18"/>
<ellipse fill="none" stroke="black" cx="422" cy="-124.88" rx="22" ry="22"/>
<text text-anchor="middle" x="422" y="-119.83" font-family="Times,serif" font-size="14.00">4</text>
</g>
<!-- 1 -->
<g id="node4" class="node">
<title>1</title>
<ellipse fill="none" stroke="black" cx="187" cy="-124.88" rx="18" ry="18"/>
<text text-anchor="middle" x="187" y="-119.83" font-family="Times,serif" font-size="14.00">1</text>
</g>
<!-- 0&#45;&gt;1 -->
<g id="edge2" class="edge">
<title>0&#45;&gt;1</title>
<path fill="none" stroke="black" d="M127.25,-124.88C136.22,-124.88 147.42,-124.88 157.63,-124.88"/>
<polygon fill="black" stroke="black" points="157.56,-128.38 167.56,-124.88 157.56,-121.38 157.56,-128.38"/>
<text text-anchor="middle" x="148" y="-128.07" font-family="Times,serif" font-size="14.00">e</text>
</g>
<!-- 2 -->
<g id="node5" class="node">
<title>2</title>
<ellipse fill="none" stroke="black" cx="263" cy="-124.88" rx="18" ry="18"/>
<text text-anchor="middle" x="263" y="-119.83" font-family="Times,serif" font-size="14.00">2</text>
</g>
<!-- 1&#45;&gt;2 -->
<g id="edge3" class="edge">
<title>1&#45;&gt;2</title>
<path fill="none" stroke="black" d="M205.16,-124.88C213.69,-124.88 224.22,-124.88 233.89,-124.88"/>
<polygon fill="black" stroke="black" points="233.67,-128.38 243.67,-124.88 233.67,-121.38 233.67,-128.38"/>
<text text-anchor="middle" x="225" y="-128.07" font-family="Times,serif" font-size="14.00">l</text>
</g>
<!-- 3 -->
<g id="node6" class="node">
<title>3</title>
<ellipse fill="none" stroke="black" cx="340" cy="-124.88" rx="18" ry="18"/>
<text text-anchor="middle" x="340" y="-119.83" font-family="Times,serif" font-size="14.00">3</text>
</g>
<!-- 2&#45;&gt;3 -->
<g id="edge4" class="edge">
<title>2&#45;&gt;3</title>
<path fill="none" stroke="black" d="M281.4,-124.88C290.1,-124.88 300.87,-124.88 310.72,-124.88"/>
<polygon fill="black" stroke="black" points="310.7,-128.38 320.7,-124.88 310.7,-121.38 310.7,-128.38"/>
<text text-anchor="middle" x="301" y="-128.07" font-family="Times,serif" font-size="14.00">s</text>
</g>
<!-- 3&#45;&gt;4 -->
<g id="edge5" class="edge">
<title>3&#45;&gt;4</title>
<path fill="none" stroke="black" d="M358.36,-124.88C367.27,-124.88 378.41,-124.88 388.82,-124.88"/>
<polygon fill="black" stroke="black" points="388.69,-128.38 398.69,-124.88 388.69,-121.38 388.69,-128.38"/>
<text text-anchor="middle" x="379" y="-128.07" font-family="Times,serif" font-size="14.00">e</text>
</g>
</g>
</svg>
