<?xml version="1.0" encoding="UTF-8" standalone="no"?>
<!DOCTYPE svg PUBLIC "-//W3C//DTD SVG 1.1//EN"
 "http://www.w3.org/Graphics/SVG/1.1/DTD/svg11.dtd">
<!-- Generated by graphviz version 8.1.0 (20230707.0739)
 -->
<!-- Title: finite_state_machine Pages: 1 -->
<svg width="304pt" height="174pt"
 viewBox="0.00 0.00 303.50 173.94" xmlns="http://www.w3.org/2000/svg" xmlns:xlink="http://www.w3.org/1999/xlink">
<g id="graph0" class="graph" transform="scale(1 1) rotate(0) translate(4 169.94)">
<title>finite_state_machine</title>
<!-- &#45;1 -->
<!-- 0 -->
<g id="node3" class="node">
<title>0</title>
<ellipse fill="none" stroke="white" cx="108.5" cy="-82.97" rx="18" ry="18"/>
<text text-anchor="middle" x="108.5" y="-77.92" font-family="Times,serif" font-size="14.00" fill="white">0</text>
</g>
<!-- &#45;1&#45;&gt;0 -->
<g id="edge1" class="edge">
<title>&#45;1&#45;&gt;0</title>
<path fill="none" stroke="white" d="M53.69,-82.97C61.97,-82.97 71.13,-82.97 79.52,-82.97"/>
<polygon fill="white" stroke="white" points="79.33,-86.47 89.33,-82.97 79.33,-79.47 79.33,-86.47"/>
</g>
<!-- 2 -->
<g id="node2" class="node">
<title>2</title>
<ellipse fill="none" stroke="white" cx="273.5" cy="-82.97" rx="18" ry="18"/>
<ellipse fill="none" stroke="white" cx="273.5" cy="-82.97" rx="22" ry="22"/>
<text text-anchor="middle" x="273.5" y="-77.92" font-family="Times,serif" font-size="14.00" fill="white">2</text>
</g>
<!-- 1 -->
<g id="node4" class="node">
<title>1</title>
<ellipse fill="none" stroke="white" cx="189.5" cy="-82.97" rx="18" ry="18"/>
<text text-anchor="middle" x="189.5" y="-77.92" font-family="Times,serif" font-size="14.00" fill="white">1</text>
</g>
<!-- 0&#45;&gt;1 -->
<g id="edge2" class="edge">
<title>0&#45;&gt;1</title>
<path fill="none" stroke="white" d="M126.64,-82.97C136.51,-82.97 149.16,-82.97 160.44,-82.97"/>
<polygon fill="white" stroke="white" points="160.12,-86.47 170.12,-82.97 160.12,-79.47 160.12,-86.47"/>
<text text-anchor="middle" x="149.5" y="-86.17" font-family="Times,serif" font-size="14.00" fill="white">=</text>
</g>
<!-- 1&#45;&gt;2 -->
<g id="edge3" class="edge">
<title>1&#45;&gt;2</title>
<path fill="none" stroke="white" d="M207.89,-82.97C217.24,-82.97 229.08,-82.97 240.06,-82.97"/>
<polygon fill="white" stroke="white" points="240.05,-86.47 250.05,-82.97 240.05,-79.47 240.05,-86.47"/>
<text text-anchor="middle" x="229.5" y="-86.17" font-family="Times,serif" font-size="14.00" fill="white">=</text>
</g>
</g>
</svg>
