<?xml version="1.0" encoding="UTF-8" standalone="no"?>
<!DOCTYPE svg PUBLIC "-//W3C//DTD SVG 1.1//EN"
 "http://www.w3.org/Graphics/SVG/1.1/DTD/svg11.dtd">
<!-- Generated by graphviz version 8.1.0 (20230707.0739)
 -->
<!-- Title: finite_state_machine Pages: 1 -->
<svg width="610pt" height="346pt"
 viewBox="0.00 0.00 609.50 346.06" xmlns="http://www.w3.org/2000/svg" xmlns:xlink="http://www.w3.org/1999/xlink">
<g id="graph0" class="graph" transform="scale(1 1) rotate(0) translate(4 342.06)">
<title>finite_state_machine</title>
<!-- &#45;1 -->
<!-- 0 -->
<g id="node3" class="node">
<title>0</title>
<ellipse fill="none" stroke="black" cx="108.5" cy="-169.03" rx="18" ry="18"/>
<text text-anchor="middle" x="108.5" y="-163.98" font-family="Times,serif" font-size="14.00">0</text>
</g>
<!-- &#45;1&#45;&gt;0 -->
<g id="edge1" class="edge">
<title>&#45;1&#45;&gt;0</title>
<path fill="none" stroke="black" d="M53.69,-169.03C61.97,-169.03 71.13,-169.03 79.52,-169.03"/>
<polygon fill="black" stroke="black" points="79.33,-172.53 89.33,-169.03 79.33,-165.53 79.33,-172.53"/>
</g>
<!-- 6 -->
<g id="node2" class="node">
<title>6</title>
<ellipse fill="none" stroke="black" cx="579.5" cy="-169.03" rx="18" ry="18"/>
<ellipse fill="none" stroke="black" cx="579.5" cy="-169.03" rx="22" ry="22"/>
<text text-anchor="middle" x="579.5" y="-163.98" font-family="Times,serif" font-size="14.00">6</text>
</g>
<!-- 1 -->
<g id="node4" class="node">
<title>1</title>
<ellipse fill="none" stroke="black" cx="186.5" cy="-169.03" rx="18" ry="18"/>
<text text-anchor="middle" x="186.5" y="-163.98" font-family="Times,serif" font-size="14.00">1</text>
</g>
<!-- 0&#45;&gt;1 -->
<g id="edge2" class="edge">
<title>0&#45;&gt;1</title>
<path fill="none" stroke="black" d="M126.75,-169.03C135.72,-169.03 146.92,-169.03 157.13,-169.03"/>
<polygon fill="black" stroke="black" points="157.06,-172.53 167.06,-169.03 157.06,-165.53 157.06,-172.53"/>
<text text-anchor="middle" x="147.5" y="-172.23" font-family="Times,serif" font-size="14.00">e</text>
</g>
<!-- 2 -->
<g id="node5" class="node">
<title>2</title>
<ellipse fill="none" stroke="black" cx="265.5" cy="-169.03" rx="18" ry="18"/>
<text text-anchor="middle" x="265.5" y="-163.98" font-family="Times,serif" font-size="14.00">2</text>
</g>
<!-- 1&#45;&gt;2 -->
<g id="edge3" class="edge">
<title>1&#45;&gt;2</title>
<path fill="none" stroke="black" d="M204.97,-169.03C214.23,-169.03 225.82,-169.03 236.31,-169.03"/>
<polygon fill="black" stroke="black" points="236.1,-172.53 246.1,-169.03 236.1,-165.53 236.1,-172.53"/>
<text text-anchor="middle" x="226.5" y="-172.23" font-family="Times,serif" font-size="14.00">x</text>
</g>
<!-- 3 -->
<g id="node6" class="node">
<title>3</title>
<ellipse fill="none" stroke="black" cx="344.5" cy="-169.03" rx="18" ry="18"/>
<text text-anchor="middle" x="344.5" y="-163.98" font-family="Times,serif" font-size="14.00">3</text>
</g>
<!-- 2&#45;&gt;3 -->
<g id="edge4" class="edge">
<title>2&#45;&gt;3</title>
<path fill="none" stroke="black" d="M283.97,-169.03C293.23,-169.03 304.82,-169.03 315.31,-169.03"/>
<polygon fill="black" stroke="black" points="315.1,-172.53 325.1,-169.03 315.1,-165.53 315.1,-172.53"/>
<text text-anchor="middle" x="305.5" y="-172.23" font-family="Times,serif" font-size="14.00">p</text>
</g>
<!-- 4 -->
<g id="node7" class="node">
<title>4</title>
<ellipse fill="none" stroke="black" cx="423.5" cy="-169.03" rx="18" ry="18"/>
<text text-anchor="middle" x="423.5" y="-163.98" font-family="Times,serif" font-size="14.00">4</text>
</g>
<!-- 3&#45;&gt;4 -->
<g id="edge5" class="edge">
<title>3&#45;&gt;4</title>
<path fill="none" stroke="black" d="M362.97,-169.03C372.23,-169.03 383.82,-169.03 394.31,-169.03"/>
<polygon fill="black" stroke="black" points="394.1,-172.53 404.1,-169.03 394.1,-165.53 394.1,-172.53"/>
<text text-anchor="middle" x="383.5" y="-172.23" font-family="Times,serif" font-size="14.00">o</text>
</g>
<!-- 5 -->
<g id="node8" class="node">
<title>5</title>
<ellipse fill="none" stroke="black" cx="499.5" cy="-169.03" rx="18" ry="18"/>
<text text-anchor="middle" x="499.5" y="-163.98" font-family="Times,serif" font-size="14.00">5</text>
</g>
<!-- 4&#45;&gt;5 -->
<g id="edge6" class="edge">
<title>4&#45;&gt;5</title>
<path fill="none" stroke="black" d="M441.66,-169.03C450.19,-169.03 460.72,-169.03 470.39,-169.03"/>
<polygon fill="black" stroke="black" points="470.17,-172.53 480.17,-169.03 470.17,-165.53 470.17,-172.53"/>
<text text-anchor="middle" x="461.5" y="-172.23" font-family="Times,serif" font-size="14.00">r</text>
</g>
<!-- 5&#45;&gt;6 -->
<g id="edge7" class="edge">
<title>5&#45;&gt;6</title>
<path fill="none" stroke="black" d="M517.81,-169.03C526.13,-169.03 536.39,-169.03 546.08,-169.03"/>
<polygon fill="black" stroke="black" points="546.06,-172.53 556.06,-169.03 546.06,-165.53 546.06,-172.53"/>
<text text-anchor="middle" x="537.5" y="-172.23" font-family="Times,serif" font-size="14.00">t</text>
</g>
</g>
</svg>
