<?xml version="1.0" encoding="UTF-8" standalone="no"?>
<!DOCTYPE svg PUBLIC "-//W3C//DTD SVG 1.1//EN"
 "http://www.w3.org/Graphics/SVG/1.1/DTD/svg11.dtd">
<!-- Generated by graphviz version 8.1.0 (20230707.0739)
 -->
<!-- Title: finite_state_machine Pages: 1 -->
<svg width="529pt" height="301pt"
 viewBox="0.00 0.00 528.50 300.50" xmlns="http://www.w3.org/2000/svg" xmlns:xlink="http://www.w3.org/1999/xlink">
<g id="graph0" class="graph" transform="scale(1 1) rotate(0) translate(4 296.5)">
<title>finite_state_machine</title>
<!-- &#45;1 -->
<!-- 0 -->
<g id="node3" class="node">
<title>0</title>
<ellipse fill="none" stroke="white" cx="108.5" cy="-146.25" rx="18" ry="18"/>
<text text-anchor="middle" x="108.5" y="-141.2" font-family="Times,serif" font-size="14.00" fill="white">0</text>
</g>
<!-- &#45;1&#45;&gt;0 -->
<g id="edge1" class="edge">
<title>&#45;1&#45;&gt;0</title>
<path fill="none" stroke="white" d="M53.69,-146.25C61.97,-146.25 71.13,-146.25 79.52,-146.25"/>
<polygon fill="white" stroke="white" points="79.33,-149.75 89.33,-146.25 79.33,-142.75 79.33,-149.75"/>
</g>
<!-- 5 -->
<g id="node2" class="node">
<title>5</title>
<ellipse fill="none" stroke="white" cx="498.5" cy="-146.25" rx="18" ry="18"/>
<ellipse fill="none" stroke="white" cx="498.5" cy="-146.25" rx="22" ry="22"/>
<text text-anchor="middle" x="498.5" y="-141.2" font-family="Times,serif" font-size="14.00" fill="white">5</text>
</g>
<!-- 1 -->
<g id="node4" class="node">
<title>1</title>
<ellipse fill="none" stroke="white" cx="185.5" cy="-146.25" rx="18" ry="18"/>
<text text-anchor="middle" x="185.5" y="-141.2" font-family="Times,serif" font-size="14.00" fill="white">1</text>
</g>
<!-- 0&#45;&gt;1 -->
<g id="edge2" class="edge">
<title>0&#45;&gt;1</title>
<path fill="none" stroke="white" d="M126.9,-146.25C135.6,-146.25 146.37,-146.25 156.22,-146.25"/>
<polygon fill="white" stroke="white" points="156.2,-149.75 166.2,-146.25 156.2,-142.75 156.2,-149.75"/>
<text text-anchor="middle" x="147.5" y="-149.45" font-family="Times,serif" font-size="14.00" fill="white">f</text>
</g>
<!-- 2 -->
<g id="node5" class="node">
<title>2</title>
<ellipse fill="none" stroke="white" cx="263.5" cy="-146.25" rx="18" ry="18"/>
<text text-anchor="middle" x="263.5" y="-141.2" font-family="Times,serif" font-size="14.00" fill="white">2</text>
</g>
<!-- 1&#45;&gt;2 -->
<g id="edge3" class="edge">
<title>1&#45;&gt;2</title>
<path fill="none" stroke="white" d="M203.75,-146.25C212.72,-146.25 223.92,-146.25 234.13,-146.25"/>
<polygon fill="white" stroke="white" points="234.06,-149.75 244.06,-146.25 234.06,-142.75 234.06,-149.75"/>
<text text-anchor="middle" x="224.5" y="-149.45" font-family="Times,serif" font-size="14.00" fill="white">a</text>
</g>
<!-- 3 -->
<g id="node6" class="node">
<title>3</title>
<ellipse fill="none" stroke="white" cx="339.5" cy="-146.25" rx="18" ry="18"/>
<text text-anchor="middle" x="339.5" y="-141.2" font-family="Times,serif" font-size="14.00" fill="white">3</text>
</g>
<!-- 2&#45;&gt;3 -->
<g id="edge4" class="edge">
<title>2&#45;&gt;3</title>
<path fill="none" stroke="white" d="M281.66,-146.25C290.19,-146.25 300.72,-146.25 310.39,-146.25"/>
<polygon fill="white" stroke="white" points="310.17,-149.75 320.17,-146.25 310.17,-142.75 310.17,-149.75"/>
<text text-anchor="middle" x="301.5" y="-149.45" font-family="Times,serif" font-size="14.00" fill="white">l</text>
</g>
<!-- 4 -->
<g id="node7" class="node">
<title>4</title>
<ellipse fill="none" stroke="white" cx="416.5" cy="-146.25" rx="18" ry="18"/>
<text text-anchor="middle" x="416.5" y="-141.2" font-family="Times,serif" font-size="14.00" fill="white">4</text>
</g>
<!-- 3&#45;&gt;4 -->
<g id="edge5" class="edge">
<title>3&#45;&gt;4</title>
<path fill="none" stroke="white" d="M357.9,-146.25C366.6,-146.25 377.37,-146.25 387.22,-146.25"/>
<polygon fill="white" stroke="white" points="387.2,-149.75 397.2,-146.25 387.2,-142.75 387.2,-149.75"/>
<text text-anchor="middle" x="377.5" y="-149.45" font-family="Times,serif" font-size="14.00" fill="white">s</text>
</g>
<!-- 4&#45;&gt;5 -->
<g id="edge6" class="edge">
<title>4&#45;&gt;5</title>
<path fill="none" stroke="white" d="M434.86,-146.25C443.77,-146.25 454.91,-146.25 465.32,-146.25"/>
<polygon fill="white" stroke="white" points="465.19,-149.75 475.19,-146.25 465.19,-142.75 465.19,-149.75"/>
<text text-anchor="middle" x="455.5" y="-149.45" font-family="Times,serif" font-size="14.00" fill="white">e</text>
</g>
</g>
</svg>
