<?xml version="1.0" encoding="UTF-8" standalone="no"?>
<!DOCTYPE svg PUBLIC "-//W3C//DTD SVG 1.1//EN"
 "http://www.w3.org/Graphics/SVG/1.1/DTD/svg11.dtd">
<!-- Generated by graphviz version 8.1.0 (20230707.0739)
 -->
<!-- Title: finite_state_machine Pages: 1 -->
<svg width="375pt" height="214pt"
 viewBox="0.00 0.00 374.75 213.88" xmlns="http://www.w3.org/2000/svg" xmlns:xlink="http://www.w3.org/1999/xlink">
<g id="graph0" class="graph" transform="scale(1 1) rotate(0) translate(4 209.88)">
<title>finite_state_machine</title>
<!-- &#45;1 -->
<!-- 0 -->
<g id="node3" class="node">
<title>0</title>
<ellipse fill="none" stroke="black" cx="108.75" cy="-102.94" rx="18" ry="18"/>
<text text-anchor="middle" x="108.75" y="-97.89" font-family="Times,serif" font-size="14.00">0</text>
</g>
<!-- &#45;1&#45;&gt;0 -->
<g id="edge1" class="edge">
<title>&#45;1&#45;&gt;0</title>
<path fill="none" stroke="black" d="M53.94,-102.94C62.22,-102.94 71.38,-102.94 79.77,-102.94"/>
<polygon fill="black" stroke="black" points="79.58,-106.44 89.58,-102.94 79.58,-99.44 79.58,-106.44"/>
</g>
<!-- 3 -->
<g id="node2" class="node">
<title>3</title>
<ellipse fill="none" stroke="black" cx="344.75" cy="-102.94" rx="18" ry="18"/>
<ellipse fill="none" stroke="black" cx="344.75" cy="-102.94" rx="22" ry="22"/>
<text text-anchor="middle" x="344.75" y="-97.89" font-family="Times,serif" font-size="14.00">3</text>
</g>
<!-- 1 -->
<g id="node4" class="node">
<title>1</title>
<ellipse fill="none" stroke="black" cx="185.75" cy="-102.94" rx="18" ry="18"/>
<text text-anchor="middle" x="185.75" y="-97.89" font-family="Times,serif" font-size="14.00">1</text>
</g>
<!-- 0&#45;&gt;1 -->
<g id="edge2" class="edge">
<title>0&#45;&gt;1</title>
<path fill="none" stroke="black" d="M127.15,-102.94C135.85,-102.94 146.62,-102.94 156.47,-102.94"/>
<polygon fill="black" stroke="black" points="156.45,-106.44 166.45,-102.94 156.45,-99.44 156.45,-106.44"/>
<text text-anchor="middle" x="146.75" y="-106.14" font-family="Times,serif" font-size="14.00">f</text>
</g>
<!-- 2 -->
<g id="node5" class="node">
<title>2</title>
<ellipse fill="none" stroke="black" cx="263.75" cy="-102.94" rx="18" ry="18"/>
<text text-anchor="middle" x="263.75" y="-97.89" font-family="Times,serif" font-size="14.00">2</text>
</g>
<!-- 1&#45;&gt;2 -->
<g id="edge3" class="edge">
<title>1&#45;&gt;2</title>
<path fill="none" stroke="black" d="M204,-102.94C212.97,-102.94 224.17,-102.94 234.38,-102.94"/>
<polygon fill="black" stroke="black" points="234.31,-106.44 244.31,-102.94 234.31,-99.44 234.31,-106.44"/>
<text text-anchor="middle" x="224.75" y="-106.14" font-family="Times,serif" font-size="14.00">o</text>
</g>
<!-- 2&#45;&gt;3 -->
<g id="edge4" class="edge">
<title>2&#45;&gt;3</title>
<path fill="none" stroke="black" d="M281.89,-102.94C290.53,-102.94 301.3,-102.94 311.41,-102.94"/>
<polygon fill="black" stroke="black" points="311.41,-106.44 321.41,-102.94 311.41,-99.44 311.41,-106.44"/>
<text text-anchor="middle" x="302.75" y="-106.14" font-family="Times,serif" font-size="14.00">r</text>
</g>
</g>
</svg>
