<?xml version="1.0" encoding="UTF-8" standalone="no"?>
<!DOCTYPE svg PUBLIC "-//W3C//DTD SVG 1.1//EN"
 "http://www.w3.org/Graphics/SVG/1.1/DTD/svg11.dtd">
<!-- Generated by graphviz version 8.1.0 (20230707.0739)
 -->
<!-- Title: finite_state_machine Pages: 1 -->
<svg width="764pt" height="433pt"
 viewBox="0.00 0.00 764.00 433.25" xmlns="http://www.w3.org/2000/svg" xmlns:xlink="http://www.w3.org/1999/xlink">
<g id="graph0" class="graph" transform="scale(1 1) rotate(0) translate(4 429.25)">
<title>finite_state_machine</title>
<!-- &#45;1 -->
<!-- 0 -->
<g id="node3" class="node">
<title>0</title>
<ellipse fill="none" stroke="white" cx="109" cy="-212.63" rx="18" ry="18"/>
<text text-anchor="middle" x="109" y="-207.58" font-family="Times,serif" font-size="14.00" fill="white">0</text>
</g>
<!-- &#45;1&#45;&gt;0 -->
<g id="edge1" class="edge">
<title>&#45;1&#45;&gt;0</title>
<path fill="none" stroke="white" d="M54.19,-212.63C62.47,-212.63 71.63,-212.63 80.02,-212.63"/>
<polygon fill="white" stroke="white" points="79.83,-216.13 89.83,-212.63 79.83,-209.13 79.83,-216.13"/>
</g>
<!-- 8 -->
<g id="node2" class="node">
<title>8</title>
<ellipse fill="none" stroke="white" cx="734" cy="-212.63" rx="18" ry="18"/>
<ellipse fill="none" stroke="white" cx="734" cy="-212.63" rx="22" ry="22"/>
<text text-anchor="middle" x="734" y="-207.58" font-family="Times,serif" font-size="14.00" fill="white">8</text>
</g>
<!-- 1 -->
<g id="node4" class="node">
<title>1</title>
<ellipse fill="none" stroke="white" cx="185" cy="-212.63" rx="18" ry="18"/>
<text text-anchor="middle" x="185" y="-207.58" font-family="Times,serif" font-size="14.00" fill="white">1</text>
</g>
<!-- 0&#45;&gt;1 -->
<g id="edge2" class="edge">
<title>0&#45;&gt;1</title>
<path fill="none" stroke="white" d="M127.16,-212.63C135.69,-212.63 146.22,-212.63 155.89,-212.63"/>
<polygon fill="white" stroke="white" points="155.67,-216.13 165.67,-212.63 155.67,-209.13 155.67,-216.13"/>
<text text-anchor="middle" x="147" y="-215.83" font-family="Times,serif" font-size="14.00" fill="white">f</text>
</g>
<!-- 2 -->
<g id="node5" class="node">
<title>2</title>
<ellipse fill="none" stroke="white" cx="264" cy="-212.63" rx="18" ry="18"/>
<text text-anchor="middle" x="264" y="-207.58" font-family="Times,serif" font-size="14.00" fill="white">2</text>
</g>
<!-- 1&#45;&gt;2 -->
<g id="edge3" class="edge">
<title>1&#45;&gt;2</title>
<path fill="none" stroke="white" d="M203.47,-212.63C212.73,-212.63 224.32,-212.63 234.81,-212.63"/>
<polygon fill="white" stroke="white" points="234.6,-216.13 244.6,-212.63 234.6,-209.13 234.6,-216.13"/>
<text text-anchor="middle" x="225" y="-215.83" font-family="Times,serif" font-size="14.00" fill="white">u</text>
</g>
<!-- 3 -->
<g id="node6" class="node">
<title>3</title>
<ellipse fill="none" stroke="white" cx="343" cy="-212.63" rx="18" ry="18"/>
<text text-anchor="middle" x="343" y="-207.58" font-family="Times,serif" font-size="14.00" fill="white">3</text>
</g>
<!-- 2&#45;&gt;3 -->
<g id="edge4" class="edge">
<title>2&#45;&gt;3</title>
<path fill="none" stroke="white" d="M282.47,-212.63C291.73,-212.63 303.32,-212.63 313.81,-212.63"/>
<polygon fill="white" stroke="white" points="313.6,-216.13 323.6,-212.63 313.6,-209.13 313.6,-216.13"/>
<text text-anchor="middle" x="304" y="-215.83" font-family="Times,serif" font-size="14.00" fill="white">n</text>
</g>
<!-- 4 -->
<g id="node7" class="node">
<title>4</title>
<ellipse fill="none" stroke="white" cx="421" cy="-212.63" rx="18" ry="18"/>
<text text-anchor="middle" x="421" y="-207.58" font-family="Times,serif" font-size="14.00" fill="white">4</text>
</g>
<!-- 3&#45;&gt;4 -->
<g id="edge5" class="edge">
<title>3&#45;&gt;4</title>
<path fill="none" stroke="white" d="M361.25,-212.63C370.22,-212.63 381.42,-212.63 391.63,-212.63"/>
<polygon fill="white" stroke="white" points="391.56,-216.13 401.56,-212.63 391.56,-209.13 391.56,-216.13"/>
<text text-anchor="middle" x="382" y="-215.83" font-family="Times,serif" font-size="14.00" fill="white">c</text>
</g>
<!-- 5 -->
<g id="node8" class="node">
<title>5</title>
<ellipse fill="none" stroke="white" cx="497" cy="-212.63" rx="18" ry="18"/>
<text text-anchor="middle" x="497" y="-207.58" font-family="Times,serif" font-size="14.00" fill="white">5</text>
</g>
<!-- 4&#45;&gt;5 -->
<g id="edge6" class="edge">
<title>4&#45;&gt;5</title>
<path fill="none" stroke="white" d="M439.16,-212.63C447.69,-212.63 458.22,-212.63 467.89,-212.63"/>
<polygon fill="white" stroke="white" points="467.67,-216.13 477.67,-212.63 467.67,-209.13 467.67,-216.13"/>
<text text-anchor="middle" x="459" y="-215.83" font-family="Times,serif" font-size="14.00" fill="white">t</text>
</g>
<!-- 6 -->
<g id="node9" class="node">
<title>6</title>
<ellipse fill="none" stroke="white" cx="572" cy="-212.63" rx="18" ry="18"/>
<text text-anchor="middle" x="572" y="-207.58" font-family="Times,serif" font-size="14.00" fill="white">6</text>
</g>
<!-- 5&#45;&gt;6 -->
<g id="edge7" class="edge">
<title>5&#45;&gt;6</title>
<path fill="none" stroke="white" d="M515.3,-212.63C523.51,-212.63 533.54,-212.63 542.81,-212.63"/>
<polygon fill="white" stroke="white" points="542.57,-216.13 552.57,-212.63 542.57,-209.13 542.57,-216.13"/>
<text text-anchor="middle" x="535" y="-215.83" font-family="Times,serif" font-size="14.00" fill="white">i</text>
</g>
<!-- 7 -->
<g id="node10" class="node">
<title>7</title>
<ellipse fill="none" stroke="white" cx="651" cy="-212.63" rx="18" ry="18"/>
<text text-anchor="middle" x="651" y="-207.58" font-family="Times,serif" font-size="14.00" fill="white">7</text>
</g>
<!-- 6&#45;&gt;7 -->
<g id="edge8" class="edge">
<title>6&#45;&gt;7</title>
<path fill="none" stroke="white" d="M590.47,-212.63C599.73,-212.63 611.32,-212.63 621.81,-212.63"/>
<polygon fill="white" stroke="white" points="621.6,-216.13 631.6,-212.63 621.6,-209.13 621.6,-216.13"/>
<text text-anchor="middle" x="612" y="-215.83" font-family="Times,serif" font-size="14.00" fill="white">o</text>
</g>
<!-- 7&#45;&gt;8 -->
<g id="edge9" class="edge">
<title>7&#45;&gt;8</title>
<path fill="none" stroke="white" d="M669.18,-212.63C678.35,-212.63 689.93,-212.63 700.71,-212.63"/>
<polygon fill="white" stroke="white" points="700.51,-216.13 710.51,-212.63 700.51,-209.13 700.51,-216.13"/>
<text text-anchor="middle" x="691" y="-215.83" font-family="Times,serif" font-size="14.00" fill="white">n</text>
</g>
</g>
</svg>
