<?xml version="1.0" encoding="UTF-8" standalone="no"?>
<!DOCTYPE svg PUBLIC "-//W3C//DTD SVG 1.1//EN"
 "http://www.w3.org/Graphics/SVG/1.1/DTD/svg11.dtd">
<!-- Generated by graphviz version 9.0.0 (20230911.1827)
 -->
<!-- Title: finite_state_machine Pages: 1 -->
<svg width="376pt" height="214pt"
 viewBox="0.00 0.00 375.50 214.44" xmlns="http://www.w3.org/2000/svg" xmlns:xlink="http://www.w3.org/1999/xlink">
<g id="graph0" class="graph" transform="scale(1 1) rotate(0) translate(4 210.44)">
<title>finite_state_machine</title>
<!-- &#45;1 -->
<!-- 0 -->
<g id="node3" class="node">
<title>0</title>
<ellipse fill="none" stroke="white" cx="108.5" cy="-103.22" rx="18" ry="18"/>
<text text-anchor="middle" x="108.5" y="-98.17" font-family="Times,serif" font-size="14.00" fill="white">0</text>
</g>
<!-- &#45;1&#45;&gt;0 -->
<g id="edge1" class="edge">
<title>&#45;1&#45;&gt;0</title>
<path fill="none" stroke="white" d="M53.69,-103.22C61.78,-103.22 70.72,-103.22 78.95,-103.22"/>
<polygon fill="white" stroke="white" points="78.81,-106.72 88.81,-103.22 78.81,-99.72 78.81,-106.72"/>
</g>
<!-- 3 -->
<g id="node2" class="node">
<title>3</title>
<ellipse fill="none" stroke="white" cx="345.5" cy="-103.22" rx="18" ry="18"/>
<ellipse fill="none" stroke="white" cx="345.5" cy="-103.22" rx="22" ry="22"/>
<text text-anchor="middle" x="345.5" y="-98.17" font-family="Times,serif" font-size="14.00" fill="white">3</text>
</g>
<!-- 1 -->
<g id="node4" class="node">
<title>1</title>
<ellipse fill="none" stroke="white" cx="187.5" cy="-103.22" rx="18" ry="18"/>
<text text-anchor="middle" x="187.5" y="-98.17" font-family="Times,serif" font-size="14.00" fill="white">1</text>
</g>
<!-- 0&#45;&gt;1 -->
<g id="edge2" class="edge">
<title>0&#45;&gt;1</title>
<path fill="none" stroke="white" d="M126.97,-103.22C136.03,-103.22 147.33,-103.22 157.64,-103.22"/>
<polygon fill="white" stroke="white" points="157.58,-106.72 167.58,-103.22 157.58,-99.72 157.58,-106.72"/>
<text text-anchor="middle" x="148.5" y="-106.42" font-family="Times,serif" font-size="14.00" fill="white">g</text>
</g>
<!-- 2 -->
<g id="node5" class="node">
<title>2</title>
<ellipse fill="none" stroke="white" cx="265.5" cy="-103.22" rx="18" ry="18"/>
<text text-anchor="middle" x="265.5" y="-98.17" font-family="Times,serif" font-size="14.00" fill="white">2</text>
</g>
<!-- 1&#45;&gt;2 -->
<g id="edge3" class="edge">
<title>1&#45;&gt;2</title>
<path fill="none" stroke="white" d="M205.75,-103.22C214.62,-103.22 225.68,-103.22 235.8,-103.22"/>
<polygon fill="white" stroke="white" points="235.55,-106.72 245.55,-103.22 235.55,-99.72 235.55,-106.72"/>
<text text-anchor="middle" x="226.5" y="-106.42" font-family="Times,serif" font-size="14.00" fill="white">e</text>
</g>
<!-- 2&#45;&gt;3 -->
<g id="edge4" class="edge">
<title>2&#45;&gt;3</title>
<path fill="none" stroke="white" d="M283.81,-103.22C292.04,-103.22 302.17,-103.22 311.77,-103.22"/>
<polygon fill="white" stroke="white" points="311.55,-106.72 321.55,-103.22 311.55,-99.72 311.55,-106.72"/>
<text text-anchor="middle" x="303.5" y="-106.42" font-family="Times,serif" font-size="14.00" fill="white">t</text>
</g>
</g>
</svg>
