<?xml version="1.0" encoding="UTF-8" standalone="no"?>
<!DOCTYPE svg PUBLIC "-//W3C//DTD SVG 1.1//EN"
 "http://www.w3.org/Graphics/SVG/1.1/DTD/svg11.dtd">
<!-- Generated by graphviz version 9.0.0 (20230911.1827)
 -->
<!-- Title: finite_state_machine Pages: 1 -->
<svg width="393pt" height="247pt"
 viewBox="0.00 0.00 392.84 247.32" xmlns="http://www.w3.org/2000/svg" xmlns:xlink="http://www.w3.org/1999/xlink">
<g id="graph0" class="graph" transform="scale(1 1) rotate(0) translate(4 243.32)">
<title>finite_state_machine</title>
<!-- &#45;1 -->
<!-- 0 -->
<g id="node3" class="node">
<title>0</title>
<ellipse fill="none" stroke="black" cx="182.84" cy="-44.82" rx="18" ry="18"/>
<text text-anchor="middle" x="182.84" y="-39.77" font-family="Times,serif" font-size="14.00">0</text>
</g>
<!-- &#45;1&#45;&gt;0 -->
<g id="edge1" class="edge">
<title>&#45;1&#45;&gt;0</title>
<path fill="none" stroke="black" d="M72.06,-44.82C95.44,-44.82 129.56,-44.82 153.55,-44.82"/>
<polygon fill="black" stroke="black" points="153.22,-48.32 163.22,-44.82 153.22,-41.32 153.22,-48.32"/>
</g>
<!-- 1 -->
<g id="node2" class="node">
<title>1</title>
<ellipse fill="none" stroke="black" cx="347.84" cy="-44.82" rx="18" ry="18"/>
<ellipse fill="none" stroke="black" cx="347.84" cy="-44.82" rx="22" ry="22"/>
<text text-anchor="middle" x="347.84" y="-39.77" font-family="Times,serif" font-size="14.00">1</text>
</g>
<!-- 1&#45;&gt;1 -->
<g id="edge6" class="edge">
<title>1&#45;&gt;1</title>
<path fill="none" stroke="black" d="M344.65,-67.03C344.39,-76.61 345.45,-84.82 347.84,-84.82 349.18,-84.82 350.1,-82.22 350.61,-78.25"/>
<polygon fill="black" stroke="black" points="354.09,-78.67 350.97,-68.54 347.1,-78.41 354.09,-78.67"/>
<text text-anchor="middle" x="347.84" y="-88.02" font-family="Times,serif" font-size="14.00">$</text>
</g>
<!-- 1&#45;&gt;1 -->
<g id="edge7" class="edge">
<title>1&#45;&gt;1</title>
<path fill="none" stroke="black" d="M342.33,-66.54C340.06,-84.33 341.89,-102.82 347.84,-102.82 352.53,-102.82 354.66,-91.31 354.23,-77.71"/>
<polygon fill="black" stroke="black" points="357.75,-77.73 353.46,-68.05 350.77,-78.29 357.75,-77.73"/>
<text text-anchor="middle" x="347.84" y="-106.02" font-family="Times,serif" font-size="14.00">0&#45;9</text>
</g>
<!-- 1&#45;&gt;1 -->
<g id="edge8" class="edge">
<title>1&#45;&gt;1</title>
<path fill="none" stroke="black" d="M340.89,-65.83C335.65,-91.12 337.96,-120.82 347.84,-120.82 356.29,-120.82 359.2,-99.08 356.58,-76.97"/>
<polygon fill="black" stroke="black" points="360.08,-76.64 355.02,-67.32 353.17,-77.75 360.08,-76.64"/>
<text text-anchor="middle" x="347.84" y="-124.02" font-family="Times,serif" font-size="14.00">A&#45;Z</text>
</g>
<!-- 1&#45;&gt;1 -->
<g id="edge9" class="edge">
<title>1&#45;&gt;1</title>
<path fill="none" stroke="black" d="M339.85,-65.6C331.27,-97.85 333.93,-138.82 347.84,-138.82 360.17,-138.82 363.66,-106.6 358.31,-76.82"/>
<polygon fill="black" stroke="black" points="361.73,-76.08 356.15,-67.07 354.9,-77.59 361.73,-76.08"/>
<text text-anchor="middle" x="347.84" y="-142.02" font-family="Times,serif" font-size="14.00">_</text>
</g>
<!-- 1&#45;&gt;1 -->
<g id="edge10" class="edge">
<title>1&#45;&gt;1</title>
<path fill="none" stroke="black" d="M339.08,-65.44C326.9,-104.4 329.82,-156.82 347.84,-156.82 364.23,-156.82 368.13,-113.39 359.52,-76.22"/>
<polygon fill="black" stroke="black" points="362.98,-75.64 356.99,-66.9 356.23,-77.47 362.98,-75.64"/>
<text text-anchor="middle" x="347.84" y="-160.02" font-family="Times,serif" font-size="14.00">a&#45;z</text>
</g>
<!-- 0&#45;&gt;1 -->
<g id="edge2" class="edge">
<title>0&#45;&gt;1</title>
<path fill="none" stroke="black" d="M197.73,-55.61C210.61,-64.88 230.74,-77.56 250.59,-82.82 275.03,-89.29 301.68,-77.16 320.73,-64.93"/>
<polygon fill="black" stroke="black" points="322.69,-67.83 328.96,-59.29 318.73,-62.06 322.69,-67.83"/>
<text text-anchor="middle" x="261.84" y="-87.02" font-family="Times,serif" font-size="14.00">$</text>
</g>
<!-- 0&#45;&gt;1 -->
<g id="edge3" class="edge">
<title>0&#45;&gt;1</title>
<path fill="none" stroke="black" d="M201.28,-44.82C228.17,-44.82 280.19,-44.82 314.2,-44.82"/>
<polygon fill="black" stroke="black" points="313.9,-48.32 323.9,-44.82 313.9,-41.32 313.9,-48.32"/>
<text text-anchor="middle" x="261.84" y="-48.02" font-family="Times,serif" font-size="14.00">A&#45;Z</text>
</g>
<!-- 0&#45;&gt;1 -->
<g id="edge4" class="edge">
<title>0&#45;&gt;1</title>
<path fill="none" stroke="black" d="M199.98,-38.37C213.31,-33.42 232.85,-26.98 250.59,-24.32 272.8,-20.99 297.58,-26.48 316.43,-32.62"/>
<polygon fill="black" stroke="black" points="315.04,-35.84 325.63,-35.84 317.35,-29.23 315.04,-35.84"/>
<text text-anchor="middle" x="261.84" y="-27.02" font-family="Times,serif" font-size="14.00">_</text>
</g>
<!-- 0&#45;&gt;1 -->
<g id="edge5" class="edge">
<title>0&#45;&gt;1</title>
<path fill="none" stroke="black" d="M197.02,-33.17C209.73,-22.78 230.01,-8.31 250.59,-2.32 275.79,5.02 303.03,-9.27 322.08,-23.23"/>
<polygon fill="black" stroke="black" points="319.75,-25.85 329.79,-29.23 324.05,-20.33 319.75,-25.85"/>
<text text-anchor="middle" x="261.84" y="-5.02" font-family="Times,serif" font-size="14.00">a&#45;z</text>
</g>
</g>
</svg>
