<?xml version="1.0" encoding="UTF-8" standalone="no"?>
<!DOCTYPE svg PUBLIC "-//W3C//DTD SVG 1.1//EN"
 "http://www.w3.org/Graphics/SVG/1.1/DTD/svg11.dtd">
<!-- Generated by graphviz version 8.1.0 (20230707.0739)
 -->
<!-- Title: finite_state_machine Pages: 1 -->
<svg width="295pt" height="169pt"
 viewBox="0.00 0.00 295.25 169.44" xmlns="http://www.w3.org/2000/svg" xmlns:xlink="http://www.w3.org/1999/xlink">
<g id="graph0" class="graph" transform="scale(1 1) rotate(0) translate(4 165.44)">
<title>finite_state_machine</title>
<!-- &#45;1 -->
<!-- 0 -->
<g id="node3" class="node">
<title>0</title>
<ellipse fill="none" stroke="white" cx="109.25" cy="-80.72" rx="18" ry="18"/>
<text text-anchor="middle" x="109.25" y="-75.67" font-family="Times,serif" font-size="14.00" fill="white">0</text>
</g>
<!-- &#45;1&#45;&gt;0 -->
<g id="edge1" class="edge">
<title>&#45;1&#45;&gt;0</title>
<path fill="none" stroke="white" d="M54.44,-80.72C62.72,-80.72 71.88,-80.72 80.27,-80.72"/>
<polygon fill="white" stroke="white" points="80.08,-84.22 90.08,-80.72 80.08,-77.22 80.08,-84.22"/>
</g>
<!-- 2 -->
<g id="node2" class="node">
<title>2</title>
<ellipse fill="none" stroke="white" cx="265.25" cy="-80.72" rx="18" ry="18"/>
<ellipse fill="none" stroke="white" cx="265.25" cy="-80.72" rx="22" ry="22"/>
<text text-anchor="middle" x="265.25" y="-75.67" font-family="Times,serif" font-size="14.00" fill="white">2</text>
</g>
<!-- 1 -->
<g id="node4" class="node">
<title>1</title>
<ellipse fill="none" stroke="white" cx="184.25" cy="-80.72" rx="18" ry="18"/>
<text text-anchor="middle" x="184.25" y="-75.67" font-family="Times,serif" font-size="14.00" fill="white">1</text>
</g>
<!-- 0&#45;&gt;1 -->
<g id="edge2" class="edge">
<title>0&#45;&gt;1</title>
<path fill="none" stroke="white" d="M127.55,-80.72C135.76,-80.72 145.79,-80.72 155.06,-80.72"/>
<polygon fill="white" stroke="white" points="154.82,-84.22 164.82,-80.72 154.82,-77.22 154.82,-84.22"/>
<text text-anchor="middle" x="147.25" y="-83.92" font-family="Times,serif" font-size="14.00" fill="white">i</text>
</g>
<!-- 1&#45;&gt;2 -->
<g id="edge3" class="edge">
<title>1&#45;&gt;2</title>
<path fill="none" stroke="white" d="M202.39,-80.72C211.03,-80.72 221.8,-80.72 231.91,-80.72"/>
<polygon fill="white" stroke="white" points="231.91,-84.22 241.91,-80.72 231.91,-77.22 231.91,-84.22"/>
<text text-anchor="middle" x="223.25" y="-83.92" font-family="Times,serif" font-size="14.00" fill="white">f</text>
</g>
</g>
</svg>
