<?xml version="1.0" encoding="UTF-8" standalone="no"?>
<!DOCTYPE svg PUBLIC "-//W3C//DTD SVG 1.1//EN"
 "http://www.w3.org/Graphics/SVG/1.1/DTD/svg11.dtd">
<!-- Generated by graphviz version 8.1.0 (20230707.0739)
 -->
<!-- Title: finite_state_machine Pages: 1 -->
<svg width="428pt" height="244pt"
 viewBox="0.00 0.00 428.23 244.00" xmlns="http://www.w3.org/2000/svg" xmlns:xlink="http://www.w3.org/1999/xlink">
<g id="graph0" class="graph" transform="scale(1 1) rotate(0) translate(4 240)">
<title>finite_state_machine</title>
<!-- &#45;1 -->
<!-- 0 -->
<g id="node5" class="node">
<title>0</title>
<ellipse fill="none" stroke="black" cx="146.23" cy="-96" rx="18" ry="18"/>
<text text-anchor="middle" x="146.23" y="-90.95" font-family="Times,serif" font-size="14.00">0</text>
</g>
<!-- &#45;1&#45;&gt;0 -->
<g id="edge1" class="edge">
<title>&#45;1&#45;&gt;0</title>
<path fill="none" stroke="black" d="M63.65,-96C79.88,-96 100.67,-96 117.19,-96"/>
<polygon fill="black" stroke="black" points="116.85,-99.5 126.85,-96 116.85,-92.5 116.85,-99.5"/>
</g>
<!-- 1 -->
<g id="node2" class="node">
<title>1</title>
<ellipse fill="none" stroke="black" cx="269.23" cy="-145" rx="18" ry="18"/>
<ellipse fill="none" stroke="black" cx="269.23" cy="-145" rx="22" ry="22"/>
<text text-anchor="middle" x="269.23" y="-139.95" font-family="Times,serif" font-size="14.00">1</text>
</g>
<!-- 1&#45;&gt;1 -->
<g id="edge6" class="edge">
<title>1&#45;&gt;1</title>
<path fill="none" stroke="black" d="M263.62,-166.4C263.01,-176.33 264.88,-185 269.23,-185 271.81,-185 273.52,-181.94 274.35,-177.38"/>
<polygon fill="black" stroke="black" points="277.89,-177.54 274.83,-167.4 270.9,-177.24 277.89,-177.54"/>
<text text-anchor="middle" x="269.23" y="-188.2" font-family="Times,serif" font-size="14.00">\t</text>
</g>
<!-- 1&#45;&gt;1 -->
<g id="edge7" class="edge">
<title>1&#45;&gt;1</title>
<path fill="none" stroke="black" d="M259.83,-165.21C255.25,-183.46 258.39,-203 269.23,-203 277.95,-203 281.69,-190.35 280.43,-175.9"/>
<polygon fill="black" stroke="black" points="283.74,-175.49 278.63,-166.21 276.84,-176.65 283.74,-175.49"/>
<text text-anchor="middle" x="269.23" y="-206.2" font-family="Times,serif" font-size="14.00">SP</text>
</g>
<!-- 2 -->
<g id="node3" class="node">
<title>2</title>
<ellipse fill="none" stroke="black" cx="390.23" cy="-51" rx="18" ry="18"/>
<ellipse fill="none" stroke="black" cx="390.23" cy="-51" rx="22" ry="22"/>
<text text-anchor="middle" x="390.23" y="-45.95" font-family="Times,serif" font-size="14.00">2</text>
</g>
<!-- 3 -->
<g id="node4" class="node">
<title>3</title>
<ellipse fill="none" stroke="black" cx="269.23" cy="-22" rx="18" ry="18"/>
<ellipse fill="none" stroke="black" cx="269.23" cy="-22" rx="22" ry="22"/>
<text text-anchor="middle" x="269.23" y="-16.95" font-family="Times,serif" font-size="14.00">3</text>
</g>
<!-- 3&#45;&gt;2 -->
<g id="edge8" class="edge">
<title>3&#45;&gt;2</title>
<path fill="none" stroke="black" d="M290.96,-27.05C309.44,-31.56 336.77,-38.22 357.92,-43.37"/>
<polygon fill="black" stroke="black" points="356.79,-46.94 367.34,-45.91 358.45,-40.14 356.79,-46.94"/>
<text text-anchor="middle" x="330.23" y="-41.2" font-family="Times,serif" font-size="14.00">\n</text>
</g>
<!-- 0&#45;&gt;1 -->
<g id="edge2" class="edge">
<title>0&#45;&gt;1</title>
<path fill="none" stroke="black" d="M160.47,-107.46C170.16,-115.25 183.98,-125.17 197.73,-131 209.78,-136.11 223.79,-139.38 236.13,-141.47"/>
<polygon fill="black" stroke="black" points="235.49,-145.06 245.89,-143.06 236.51,-138.13 235.49,-145.06"/>
<text text-anchor="middle" x="205.23" y="-139.2" font-family="Times,serif" font-size="14.00">\t</text>
</g>
<!-- 0&#45;&gt;1 -->
<g id="edge5" class="edge">
<title>0&#45;&gt;1</title>
<path fill="none" stroke="black" d="M164.39,-98.18C177.89,-100.27 196.98,-104.08 212.73,-110.5 222.76,-114.59 233.03,-120.42 241.96,-126.14"/>
<polygon fill="black" stroke="black" points="239.79,-129.57 250.05,-132.2 243.67,-123.74 239.79,-129.57"/>
<text text-anchor="middle" x="205.23" y="-113.2" font-family="Times,serif" font-size="14.00">SP</text>
</g>
<!-- 0&#45;&gt;2 -->
<g id="edge3" class="edge">
<title>0&#45;&gt;2</title>
<path fill="none" stroke="black" d="M164.24,-92.84C204.44,-85.36 305.76,-66.52 357.6,-56.88"/>
<polygon fill="black" stroke="black" points="357.98,-60.18 367.17,-54.92 356.7,-53.3 357.98,-60.18"/>
<text text-anchor="middle" x="269.23" y="-80.2" font-family="Times,serif" font-size="14.00">\n</text>
</g>
<!-- 0&#45;&gt;3 -->
<g id="edge4" class="edge">
<title>0&#45;&gt;3</title>
<path fill="none" stroke="black" d="M159.01,-82.73C168.62,-72.54 182.97,-58.71 197.73,-49.5 209.92,-41.89 224.56,-35.76 237.33,-31.24"/>
<polygon fill="black" stroke="black" points="238.16,-34.32 246.53,-27.82 235.94,-27.68 238.16,-34.32"/>
<text text-anchor="middle" x="205.23" y="-53.2" font-family="Times,serif" font-size="14.00">\r</text>
</g>
</g>
</svg>
