<?xml version="1.0" encoding="UTF-8" standalone="no"?>
<!DOCTYPE svg PUBLIC "-//W3C//DTD SVG 1.1//EN"
 "http://www.w3.org/Graphics/SVG/1.1/DTD/svg11.dtd">
<!-- Generated by graphviz version 8.1.0 (20230707.0739)
 -->
<!-- Title: finite_state_machine Pages: 1 -->
<svg width="612pt" height="347pt"
 viewBox="0.00 0.00 611.75 347.19" xmlns="http://www.w3.org/2000/svg" xmlns:xlink="http://www.w3.org/1999/xlink">
<g id="graph0" class="graph" transform="scale(1 1) rotate(0) translate(4 343.19)">
<title>finite_state_machine</title>
<!-- &#45;1 -->
<!-- 0 -->
<g id="node3" class="node">
<title>0</title>
<ellipse fill="none" stroke="white" cx="108.75" cy="-169.59" rx="18" ry="18"/>
<text text-anchor="middle" x="108.75" y="-164.54" font-family="Times,serif" font-size="14.00" fill="white">0</text>
</g>
<!-- &#45;1&#45;&gt;0 -->
<g id="edge1" class="edge">
<title>&#45;1&#45;&gt;0</title>
<path fill="none" stroke="white" d="M53.94,-169.59C62.22,-169.59 71.38,-169.59 79.77,-169.59"/>
<polygon fill="white" stroke="white" points="79.58,-173.09 89.58,-169.59 79.58,-166.09 79.58,-173.09"/>
</g>
<!-- 6 -->
<g id="node2" class="node">
<title>6</title>
<ellipse fill="none" stroke="white" cx="581.75" cy="-169.59" rx="18" ry="18"/>
<ellipse fill="none" stroke="white" cx="581.75" cy="-169.59" rx="22" ry="22"/>
<text text-anchor="middle" x="581.75" y="-164.54" font-family="Times,serif" font-size="14.00" fill="white">6</text>
</g>
<!-- 1 -->
<g id="node4" class="node">
<title>1</title>
<ellipse fill="none" stroke="white" cx="184.75" cy="-169.59" rx="18" ry="18"/>
<text text-anchor="middle" x="184.75" y="-164.54" font-family="Times,serif" font-size="14.00" fill="white">1</text>
</g>
<!-- 0&#45;&gt;1 -->
<g id="edge2" class="edge">
<title>0&#45;&gt;1</title>
<path fill="none" stroke="white" d="M126.91,-169.59C135.44,-169.59 145.97,-169.59 155.64,-169.59"/>
<polygon fill="white" stroke="white" points="155.42,-173.09 165.42,-169.59 155.42,-166.09 155.42,-173.09"/>
<text text-anchor="middle" x="146.75" y="-172.79" font-family="Times,serif" font-size="14.00" fill="white">i</text>
</g>
<!-- 2 -->
<g id="node5" class="node">
<title>2</title>
<ellipse fill="none" stroke="white" cx="267.75" cy="-169.59" rx="18" ry="18"/>
<text text-anchor="middle" x="267.75" y="-164.54" font-family="Times,serif" font-size="14.00" fill="white">2</text>
</g>
<!-- 1&#45;&gt;2 -->
<g id="edge3" class="edge">
<title>1&#45;&gt;2</title>
<path fill="none" stroke="white" d="M202.93,-169.59C213.27,-169.59 226.7,-169.59 238.57,-169.59"/>
<polygon fill="white" stroke="white" points="238.32,-173.09 248.32,-169.59 238.32,-166.09 238.32,-173.09"/>
<text text-anchor="middle" x="226.75" y="-172.79" font-family="Times,serif" font-size="14.00" fill="white">m</text>
</g>
<!-- 3 -->
<g id="node6" class="node">
<title>3</title>
<ellipse fill="none" stroke="white" cx="346.75" cy="-169.59" rx="18" ry="18"/>
<text text-anchor="middle" x="346.75" y="-164.54" font-family="Times,serif" font-size="14.00" fill="white">3</text>
</g>
<!-- 2&#45;&gt;3 -->
<g id="edge4" class="edge">
<title>2&#45;&gt;3</title>
<path fill="none" stroke="white" d="M286.22,-169.59C295.48,-169.59 307.07,-169.59 317.56,-169.59"/>
<polygon fill="white" stroke="white" points="317.35,-173.09 327.35,-169.59 317.35,-166.09 317.35,-173.09"/>
<text text-anchor="middle" x="307.75" y="-172.79" font-family="Times,serif" font-size="14.00" fill="white">p</text>
</g>
<!-- 4 -->
<g id="node7" class="node">
<title>4</title>
<ellipse fill="none" stroke="white" cx="425.75" cy="-169.59" rx="18" ry="18"/>
<text text-anchor="middle" x="425.75" y="-164.54" font-family="Times,serif" font-size="14.00" fill="white">4</text>
</g>
<!-- 3&#45;&gt;4 -->
<g id="edge5" class="edge">
<title>3&#45;&gt;4</title>
<path fill="none" stroke="white" d="M365.22,-169.59C374.48,-169.59 386.07,-169.59 396.56,-169.59"/>
<polygon fill="white" stroke="white" points="396.35,-173.09 406.35,-169.59 396.35,-166.09 396.35,-173.09"/>
<text text-anchor="middle" x="385.75" y="-172.79" font-family="Times,serif" font-size="14.00" fill="white">o</text>
</g>
<!-- 5 -->
<g id="node8" class="node">
<title>5</title>
<ellipse fill="none" stroke="white" cx="501.75" cy="-169.59" rx="18" ry="18"/>
<text text-anchor="middle" x="501.75" y="-164.54" font-family="Times,serif" font-size="14.00" fill="white">5</text>
</g>
<!-- 4&#45;&gt;5 -->
<g id="edge6" class="edge">
<title>4&#45;&gt;5</title>
<path fill="none" stroke="white" d="M443.91,-169.59C452.44,-169.59 462.97,-169.59 472.64,-169.59"/>
<polygon fill="white" stroke="white" points="472.42,-173.09 482.42,-169.59 472.42,-166.09 472.42,-173.09"/>
<text text-anchor="middle" x="463.75" y="-172.79" font-family="Times,serif" font-size="14.00" fill="white">r</text>
</g>
<!-- 5&#45;&gt;6 -->
<g id="edge7" class="edge">
<title>5&#45;&gt;6</title>
<path fill="none" stroke="white" d="M520.06,-169.59C528.38,-169.59 538.64,-169.59 548.33,-169.59"/>
<polygon fill="white" stroke="white" points="548.31,-173.09 558.31,-169.59 548.31,-166.09 548.31,-173.09"/>
<text text-anchor="middle" x="539.75" y="-172.79" font-family="Times,serif" font-size="14.00" fill="white">t</text>
</g>
</g>
</svg>
