<?xml version="1.0" encoding="UTF-8" standalone="no"?>
<!DOCTYPE svg PUBLIC "-//W3C//DTD SVG 1.1//EN"
 "http://www.w3.org/Graphics/SVG/1.1/DTD/svg11.dtd">
<!-- Generated by graphviz version 8.1.0 (20230707.0739)
 -->
<!-- Title: finite_state_machine Pages: 1 -->
<svg width="373pt" height="213pt"
 viewBox="0.00 0.00 372.50 212.75" xmlns="http://www.w3.org/2000/svg" xmlns:xlink="http://www.w3.org/1999/xlink">
<g id="graph0" class="graph" transform="scale(1 1) rotate(0) translate(4 208.75)">
<title>finite_state_machine</title>
<!-- &#45;1 -->
<!-- 0 -->
<g id="node3" class="node">
<title>0</title>
<ellipse fill="none" stroke="black" cx="108.5" cy="-102.38" rx="18" ry="18"/>
<text text-anchor="middle" x="108.5" y="-97.33" font-family="Times,serif" font-size="14.00">0</text>
</g>
<!-- &#45;1&#45;&gt;0 -->
<g id="edge1" class="edge">
<title>&#45;1&#45;&gt;0</title>
<path fill="none" stroke="black" d="M53.69,-102.38C61.97,-102.38 71.13,-102.38 79.52,-102.38"/>
<polygon fill="black" stroke="black" points="79.33,-105.88 89.33,-102.38 79.33,-98.88 79.33,-105.88"/>
</g>
<!-- 3 -->
<g id="node2" class="node">
<title>3</title>
<ellipse fill="none" stroke="black" cx="342.5" cy="-102.38" rx="18" ry="18"/>
<ellipse fill="none" stroke="black" cx="342.5" cy="-102.38" rx="22" ry="22"/>
<text text-anchor="middle" x="342.5" y="-97.33" font-family="Times,serif" font-size="14.00">3</text>
</g>
<!-- 1 -->
<g id="node4" class="node">
<title>1</title>
<ellipse fill="none" stroke="black" cx="184.5" cy="-102.38" rx="18" ry="18"/>
<text text-anchor="middle" x="184.5" y="-97.33" font-family="Times,serif" font-size="14.00">1</text>
</g>
<!-- 0&#45;&gt;1 -->
<g id="edge2" class="edge">
<title>0&#45;&gt;1</title>
<path fill="none" stroke="black" d="M126.66,-102.38C135.19,-102.38 145.72,-102.38 155.39,-102.38"/>
<polygon fill="black" stroke="black" points="155.17,-105.88 165.17,-102.38 155.17,-98.88 155.17,-105.88"/>
<text text-anchor="middle" x="146.5" y="-105.58" font-family="Times,serif" font-size="14.00">l</text>
</g>
<!-- 2 -->
<g id="node5" class="node">
<title>2</title>
<ellipse fill="none" stroke="black" cx="262.5" cy="-102.38" rx="18" ry="18"/>
<text text-anchor="middle" x="262.5" y="-97.33" font-family="Times,serif" font-size="14.00">2</text>
</g>
<!-- 1&#45;&gt;2 -->
<g id="edge3" class="edge">
<title>1&#45;&gt;2</title>
<path fill="none" stroke="black" d="M202.75,-102.38C211.72,-102.38 222.92,-102.38 233.13,-102.38"/>
<polygon fill="black" stroke="black" points="233.06,-105.88 243.06,-102.38 233.06,-98.88 233.06,-105.88"/>
<text text-anchor="middle" x="223.5" y="-105.58" font-family="Times,serif" font-size="14.00">e</text>
</g>
<!-- 2&#45;&gt;3 -->
<g id="edge4" class="edge">
<title>2&#45;&gt;3</title>
<path fill="none" stroke="black" d="M280.81,-102.38C289.13,-102.38 299.39,-102.38 309.08,-102.38"/>
<polygon fill="black" stroke="black" points="309.06,-105.88 319.06,-102.38 309.06,-98.88 309.06,-105.88"/>
<text text-anchor="middle" x="300.5" y="-105.58" font-family="Times,serif" font-size="14.00">t</text>
</g>
</g>
</svg>
