<?xml version="1.0" encoding="UTF-8" standalone="no"?>
<!DOCTYPE svg PUBLIC "-//W3C//DTD SVG 1.1//EN"
 "http://www.w3.org/Graphics/SVG/1.1/DTD/svg11.dtd">
<!-- Generated by graphviz version 9.0.0 (20230911.1827)
 -->
<!-- Title: finite_state_machine Pages: 1 -->
<svg width="685pt" height="405pt"
 viewBox="0.00 0.00 684.75 405.13" xmlns="http://www.w3.org/2000/svg" xmlns:xlink="http://www.w3.org/1999/xlink">
<g id="graph0" class="graph" transform="scale(1 1) rotate(0) translate(4 401.13)">
<title>finite_state_machine</title>
<!-- &#45;1 -->
<!-- 0 -->
<g id="node6" class="node">
<title>0</title>
<ellipse fill="none" stroke="black" cx="108.75" cy="-143.63" rx="18" ry="18"/>
<text text-anchor="middle" x="108.75" y="-138.58" font-family="Times,serif" font-size="14.00">0</text>
</g>
<!-- &#45;1&#45;&gt;0 -->
<g id="edge1" class="edge">
<title>&#45;1&#45;&gt;0</title>
<path fill="none" stroke="black" d="M53.94,-143.63C62.03,-143.63 70.97,-143.63 79.2,-143.63"/>
<polygon fill="black" stroke="black" points="79.06,-147.13 89.06,-143.63 79.06,-140.13 79.06,-147.13"/>
</g>
<!-- 2 -->
<g id="node2" class="node">
<title>2</title>
<ellipse fill="none" stroke="black" cx="264.75" cy="-143.63" rx="18" ry="18"/>
<ellipse fill="none" stroke="black" cx="264.75" cy="-143.63" rx="22" ry="22"/>
<text text-anchor="middle" x="264.75" y="-138.58" font-family="Times,serif" font-size="14.00">2</text>
</g>
<!-- 2&#45;&gt;2 -->
<g id="edge4" class="edge">
<title>2&#45;&gt;2</title>
<path fill="none" stroke="black" d="M262.8,-165.84C262.65,-175.43 263.29,-183.63 264.75,-183.63 265.57,-183.63 266.13,-181.03 266.44,-177.06"/>
<polygon fill="black" stroke="black" points="269.93,-177.43 266.66,-167.36 262.93,-177.27 269.93,-177.43"/>
<text text-anchor="middle" x="264.75" y="-186.83" font-family="Times,serif" font-size="14.00">\0&#45;\t</text>
</g>
<!-- 2&#45;&gt;2 -->
<g id="edge5" class="edge">
<title>2&#45;&gt;2</title>
<path fill="none" stroke="black" d="M261.37,-165.65C260.01,-183.35 261.14,-201.63 264.75,-201.63 267.6,-201.63 268.9,-190.25 268.66,-176.75"/>
<polygon fill="black" stroke="black" points="272.17,-176.98 268.21,-167.16 265.18,-177.32 272.17,-176.98"/>
<text text-anchor="middle" x="264.75" y="-204.83" font-family="Times,serif" font-size="14.00">\v&#45;\f</text>
</g>
<!-- 2&#45;&gt;2 -->
<g id="edge6" class="edge">
<title>2&#45;&gt;2</title>
<path fill="none" stroke="black" d="M260.41,-165.41C257.34,-190.53 258.78,-219.63 264.75,-219.63 269.83,-219.63 271.63,-198.53 270.16,-176.76"/>
<polygon fill="black" stroke="black" points="273.65,-176.55 269.23,-166.92 266.68,-177.21 273.65,-176.55"/>
<text text-anchor="middle" x="264.75" y="-222.83" font-family="Times,serif" font-size="14.00">\u000e&#45;&gt;</text>
</g>
<!-- 2&#45;&gt;2 -->
<g id="edge8" class="edge">
<title>2&#45;&gt;2</title>
<path fill="none" stroke="black" d="M259.72,-165.34C254.67,-197.45 256.34,-237.63 264.75,-237.63 272.21,-237.63 274.37,-206.03 271.23,-176.49"/>
<polygon fill="black" stroke="black" points="274.74,-176.31 269.97,-166.85 267.8,-177.21 274.74,-176.31"/>
<text text-anchor="middle" x="264.75" y="-240.83" font-family="Times,serif" font-size="14.00">@&#45;\uffff</text>
</g>
<!-- 3 -->
<g id="node3" class="node">
<title>3</title>
<ellipse fill="none" stroke="black" cx="394.75" cy="-230.63" rx="18" ry="18"/>
<ellipse fill="none" stroke="black" cx="394.75" cy="-230.63" rx="22" ry="22"/>
<text text-anchor="middle" x="394.75" y="-225.58" font-family="Times,serif" font-size="14.00">3</text>
</g>
<!-- 2&#45;&gt;3 -->
<g id="edge7" class="edge">
<title>2&#45;&gt;3</title>
<path fill="none" stroke="black" d="M266.08,-165.91C267.36,-218.01 273.67,-345.41 304.75,-371.63 321.06,-385.38 335.69,-384.44 352.75,-371.63 370.03,-358.66 382.4,-301.07 388.79,-263.62"/>
<polygon fill="black" stroke="black" points="392.16,-264.65 390.33,-254.21 385.26,-263.51 392.16,-264.65"/>
<text text-anchor="middle" x="328.75" y="-383.83" font-family="Times,serif" font-size="14.00">?</text>
</g>
<!-- 3&#45;&gt;2 -->
<g id="edge9" class="edge">
<title>3&#45;&gt;2</title>
<path fill="none" stroke="black" d="M389.54,-252.42C384.48,-271.98 373.87,-299.58 352.75,-312.63 334.6,-323.85 321.45,-325.91 304.75,-312.63 283.87,-296.02 273.21,-221.39 268.62,-177.05"/>
<polygon fill="black" stroke="black" points="272.12,-176.81 267.66,-167.19 265.15,-177.49 272.12,-176.81"/>
<text text-anchor="middle" x="328.75" y="-324.83" font-family="Times,serif" font-size="14.00">\0&#45;\t</text>
</g>
<!-- 3&#45;&gt;2 -->
<g id="edge10" class="edge">
<title>3&#45;&gt;2</title>
<path fill="none" stroke="black" d="M376.16,-243.04C357.01,-254.88 326.26,-268.82 304.75,-253.63 280.35,-236.4 271.12,-202.53 267.68,-176.91"/>
<polygon fill="black" stroke="black" points="271.2,-176.87 266.64,-167.31 264.24,-177.63 271.2,-176.87"/>
<text text-anchor="middle" x="328.75" y="-262.83" font-family="Times,serif" font-size="14.00">\v&#45;\f</text>
</g>
<!-- 3&#45;&gt;2 -->
<g id="edge11" class="edge">
<title>3&#45;&gt;2</title>
<path fill="none" stroke="black" d="M373.12,-225.35C354.02,-219.73 325.51,-209.45 304.75,-193.63 296.69,-187.49 289.39,-179.31 283.34,-171.34"/>
<polygon fill="black" stroke="black" points="286.38,-169.57 277.72,-163.46 280.68,-173.63 286.38,-169.57"/>
<text text-anchor="middle" x="328.75" y="-220.83" font-family="Times,serif" font-size="14.00">\u000e&#45;9</text>
</g>
<!-- 3&#45;&gt;2 -->
<g id="edge13" class="edge">
<title>3&#45;&gt;2</title>
<path fill="none" stroke="black" d="M383.99,-211.13C376.87,-198.68 366.13,-183.08 352.75,-173.13 336.58,-161.11 315.18,-153.77 297.66,-149.42"/>
<polygon fill="black" stroke="black" points="298.79,-146.09 288.27,-147.3 297.25,-152.92 298.79,-146.09"/>
<text text-anchor="middle" x="328.75" y="-175.83" font-family="Times,serif" font-size="14.00">;&#45;&gt;</text>
</g>
<!-- 3&#45;&gt;2 -->
<g id="edge15" class="edge">
<title>3&#45;&gt;2</title>
<path fill="none" stroke="black" d="M391.6,-208.35C387.99,-184.66 378.37,-148.28 352.75,-131.13 335.95,-119.88 313.23,-123.63 295.23,-129.86"/>
<polygon fill="black" stroke="black" points="294.18,-126.51 286.13,-133.4 296.72,-133.03 294.18,-126.51"/>
<text text-anchor="middle" x="328.75" y="-134.83" font-family="Times,serif" font-size="14.00">@&#45;\uffff</text>
</g>
<!-- 3&#45;&gt;3 -->
<g id="edge14" class="edge">
<title>3&#45;&gt;3</title>
<path fill="none" stroke="black" d="M386.38,-251.21C385.22,-261.48 388.01,-270.63 394.75,-270.63 398.75,-270.63 401.36,-267.4 402.58,-262.63"/>
<polygon fill="black" stroke="black" points="406.07,-262.88 403.05,-252.72 399.08,-262.55 406.07,-262.88"/>
<text text-anchor="middle" x="394.75" y="-273.83" font-family="Times,serif" font-size="14.00">?</text>
</g>
<!-- 4 -->
<g id="node4" class="node">
<title>4</title>
<ellipse fill="none" stroke="black" cx="483.75" cy="-66.63" rx="18" ry="18"/>
<ellipse fill="none" stroke="black" cx="483.75" cy="-66.63" rx="22" ry="22"/>
<text text-anchor="middle" x="483.75" y="-61.58" font-family="Times,serif" font-size="14.00">4</text>
</g>
<!-- 3&#45;&gt;4 -->
<g id="edge12" class="edge">
<title>3&#45;&gt;4</title>
<path fill="none" stroke="black" d="M412.92,-218.14C423.14,-209.91 435.65,-198.35 443.75,-185.63 460.69,-159.04 470.95,-124.38 476.67,-99.33"/>
<polygon fill="black" stroke="black" points="480.06,-100.22 478.73,-89.71 473.21,-98.75 480.06,-100.22"/>
<text text-anchor="middle" x="440.75" y="-195.83" font-family="Times,serif" font-size="14.00">:</text>
</g>
<!-- 4&#45;&gt;2 -->
<g id="edge16" class="edge">
<title>4&#45;&gt;2</title>
<path fill="none" stroke="black" d="M461.89,-71.25C428.05,-79.11 359.45,-96.61 304.75,-120.63 300.93,-122.31 297.01,-124.28 293.2,-126.35"/>
<polygon fill="black" stroke="black" points="291.75,-123.15 284.84,-131.18 295.25,-129.21 291.75,-123.15"/>
<text text-anchor="middle" x="394.75" y="-99.83" font-family="Times,serif" font-size="14.00">\0&#45;\t</text>
</g>
<!-- 4&#45;&gt;2 -->
<g id="edge18" class="edge">
<title>4&#45;&gt;2</title>
<path fill="none" stroke="black" d="M461.99,-62.24C439.08,-58.2 401.28,-53.98 370,-62.13 337.85,-70.51 330.52,-77.65 304.75,-98.63 298.03,-104.11 291.52,-110.82 285.81,-117.38"/>
<polygon fill="black" stroke="black" points="283.24,-115 279.55,-124.93 288.63,-119.47 283.24,-115"/>
<text text-anchor="middle" x="394.75" y="-65.83" font-family="Times,serif" font-size="14.00">\v&#45;\f</text>
</g>
<!-- 4&#45;&gt;2 -->
<g id="edge20" class="edge">
<title>4&#45;&gt;2</title>
<path fill="none" stroke="black" d="M464.42,-55.46C452.19,-48.68 435.47,-40.67 419.5,-37.13 398.02,-32.37 391.59,-32.91 370,-37.13 339.28,-43.13 327.62,-42.26 304.75,-63.63 290.9,-76.57 281.37,-95.48 275.19,-111.67"/>
<polygon fill="black" stroke="black" points="271.96,-110.31 271.95,-120.91 278.57,-112.63 271.96,-110.31"/>
<text text-anchor="middle" x="394.75" y="-40.83" font-family="Times,serif" font-size="14.00">\u000e&#45;&gt;</text>
</g>
<!-- 4&#45;&gt;2 -->
<g id="edge22" class="edge">
<title>4&#45;&gt;2</title>
<path fill="none" stroke="black" d="M468.85,-50.06C457.16,-37.51 439.23,-21.25 419.5,-14.13 370.62,3.51 341.82,-0.2 304.75,-36.63 284.72,-56.31 274.91,-87.08 270.15,-110.58"/>
<polygon fill="black" stroke="black" points="266.73,-109.83 268.41,-120.29 273.62,-111.07 266.73,-109.83"/>
<text text-anchor="middle" x="394.75" y="-17.83" font-family="Times,serif" font-size="14.00">@&#45;\uffff</text>
</g>
<!-- 4&#45;&gt;3 -->
<g id="edge21" class="edge">
<title>4&#45;&gt;3</title>
<path fill="none" stroke="black" d="M472.53,-85.9C457.4,-114.41 428.94,-168.07 411.24,-201.43"/>
<polygon fill="black" stroke="black" points="408.2,-199.69 406.61,-210.16 414.39,-202.97 408.2,-199.69"/>
<text text-anchor="middle" x="440.75" y="-151.83" font-family="Times,serif" font-size="14.00">?</text>
</g>
<!-- 5 -->
<g id="node5" class="node">
<title>5</title>
<ellipse fill="none" stroke="black" cx="654.75" cy="-66.63" rx="18" ry="18"/>
<ellipse fill="none" stroke="black" cx="654.75" cy="-66.63" rx="22" ry="22"/>
<text text-anchor="middle" x="654.75" y="-61.58" font-family="Times,serif" font-size="14.00">5</text>
</g>
<!-- 4&#45;&gt;5 -->
<g id="edge17" class="edge">
<title>4&#45;&gt;5</title>
<path fill="none" stroke="black" d="M505.96,-67.49C531.74,-68.41 576.57,-69.62 615,-68.63 616.94,-68.58 618.94,-68.52 620.96,-68.44"/>
<polygon fill="black" stroke="black" points="621.09,-71.94 630.93,-68 620.78,-64.95 621.09,-71.94"/>
<text text-anchor="middle" x="567.75" y="-72.83" font-family="Times,serif" font-size="14.00">\n</text>
</g>
<!-- 6 -->
<g id="node8" class="node">
<title>6</title>
<ellipse fill="none" stroke="black" cx="567.75" cy="-26.63" rx="18" ry="18"/>
<text text-anchor="middle" x="567.75" y="-21.58" font-family="Times,serif" font-size="14.00">6</text>
</g>
<!-- 4&#45;&gt;6 -->
<g id="edge19" class="edge">
<title>4&#45;&gt;6</title>
<path fill="none" stroke="black" d="M503.77,-57.35C514.78,-51.98 528.8,-45.14 540.81,-39.28"/>
<polygon fill="black" stroke="black" points="542.32,-42.44 549.77,-34.91 539.25,-36.15 542.32,-42.44"/>
<text text-anchor="middle" x="527.75" y="-49.83" font-family="Times,serif" font-size="14.00">\r</text>
</g>
<!-- 1 -->
<g id="node7" class="node">
<title>1</title>
<ellipse fill="none" stroke="black" cx="184.75" cy="-143.63" rx="18" ry="18"/>
<text text-anchor="middle" x="184.75" y="-138.58" font-family="Times,serif" font-size="14.00">1</text>
</g>
<!-- 0&#45;&gt;1 -->
<g id="edge2" class="edge">
<title>0&#45;&gt;1</title>
<path fill="none" stroke="black" d="M126.91,-143.63C135.26,-143.63 145.52,-143.63 155.01,-143.63"/>
<polygon fill="black" stroke="black" points="154.91,-147.13 164.91,-143.63 154.91,-140.13 154.91,-147.13"/>
<text text-anchor="middle" x="146.75" y="-146.83" font-family="Times,serif" font-size="14.00">/</text>
</g>
<!-- 1&#45;&gt;2 -->
<g id="edge3" class="edge">
<title>1&#45;&gt;2</title>
<path fill="none" stroke="black" d="M203.06,-143.63C211.29,-143.63 221.42,-143.63 231.02,-143.63"/>
<polygon fill="black" stroke="black" points="230.8,-147.13 240.8,-143.63 230.8,-140.13 230.8,-147.13"/>
<text text-anchor="middle" x="222.75" y="-146.83" font-family="Times,serif" font-size="14.00">/</text>
</g>
<!-- 6&#45;&gt;5 -->
<g id="edge23" class="edge">
<title>6&#45;&gt;5</title>
<path fill="none" stroke="black" d="M584.34,-33.97C595.46,-39.2 610.75,-46.4 624.15,-52.7"/>
<polygon fill="black" stroke="black" points="622.47,-55.78 633.01,-56.87 625.45,-49.45 622.47,-55.78"/>
<text text-anchor="middle" x="609.75" y="-51.83" font-family="Times,serif" font-size="14.00">\n</text>
</g>
</g>
</svg>
