<?xml version="1.0" encoding="UTF-8" standalone="no"?>
<!DOCTYPE svg PUBLIC "-//W3C//DTD SVG 1.1//EN"
 "http://www.w3.org/Graphics/SVG/1.1/DTD/svg11.dtd">
<!-- Generated by graphviz version 8.1.0 (20230707.0739)
 -->
<!-- Title: finite_state_machine Pages: 1 -->
<svg width="314pt" height="180pt"
 viewBox="0.00 0.00 313.75 179.56" xmlns="http://www.w3.org/2000/svg" xmlns:xlink="http://www.w3.org/1999/xlink">
<g id="graph0" class="graph" transform="scale(1 1) rotate(0) translate(4 175.56)">
<title>finite_state_machine</title>
<!-- &#45;1 -->
<!-- 0 -->
<g id="node4" class="node">
<title>0</title>
<ellipse fill="none" stroke="white" cx="108.75" cy="-119.56" rx="18" ry="18"/>
<text text-anchor="middle" x="108.75" y="-114.51" font-family="Times,serif" font-size="14.00" fill="white">0</text>
</g>
<!-- &#45;1&#45;&gt;0 -->
<g id="edge1" class="edge">
<title>&#45;1&#45;&gt;0</title>
<path fill="none" stroke="white" d="M53.94,-119.56C62.22,-119.56 71.38,-119.56 79.77,-119.56"/>
<polygon fill="white" stroke="white" points="79.58,-123.06 89.58,-119.56 79.58,-116.06 79.58,-123.06"/>
</g>
<!-- 1 -->
<g id="node2" class="node">
<title>1</title>
<ellipse fill="none" stroke="white" cx="283.75" cy="-119.56" rx="18" ry="18"/>
<ellipse fill="none" stroke="white" cx="283.75" cy="-119.56" rx="22" ry="22"/>
<text text-anchor="middle" x="283.75" y="-114.51" font-family="Times,serif" font-size="14.00" fill="white">1</text>
</g>
<!-- 2 -->
<g id="node3" class="node">
<title>2</title>
<ellipse fill="none" stroke="white" cx="192.75" cy="-51.56" rx="18" ry="18"/>
<ellipse fill="none" stroke="white" cx="192.75" cy="-51.56" rx="22" ry="22"/>
<text text-anchor="middle" x="192.75" y="-46.51" font-family="Times,serif" font-size="14.00" fill="white">2</text>
</g>
<!-- 2&#45;&gt;1 -->
<g id="edge4" class="edge">
<title>2&#45;&gt;1</title>
<path fill="none" stroke="white" d="M210.91,-64.67C223.96,-74.64 242.13,-88.53 256.94,-99.84"/>
<polygon fill="white" stroke="white" points="254.57,-103.2 264.64,-106.49 258.82,-97.64 254.57,-103.2"/>
<text text-anchor="middle" x="238.75" y="-93.76" font-family="Times,serif" font-size="14.00" fill="white">\n</text>
</g>
<!-- 0&#45;&gt;1 -->
<g id="edge2" class="edge">
<title>0&#45;&gt;1</title>
<path fill="none" stroke="white" d="M126.97,-119.56C155.78,-119.56 214.19,-119.56 250.73,-119.56"/>
<polygon fill="white" stroke="white" points="250.31,-123.06 260.31,-119.56 250.31,-116.06 250.31,-123.06"/>
<text text-anchor="middle" x="192.75" y="-122.76" font-family="Times,serif" font-size="14.00" fill="white">\n</text>
</g>
<!-- 0&#45;&gt;2 -->
<g id="edge3" class="edge">
<title>0&#45;&gt;2</title>
<path fill="none" stroke="white" d="M123.29,-108.33C135.04,-98.58 152.37,-84.22 166.65,-72.37"/>
<polygon fill="white" stroke="white" points="168.61,-74.47 174.07,-65.39 164.14,-69.08 168.61,-74.47"/>
<text text-anchor="middle" x="148.75" y="-93.76" font-family="Times,serif" font-size="14.00" fill="white">\r</text>
</g>
</g>
</svg>
