<?xml version="1.0" encoding="UTF-8" standalone="no"?>
<!DOCTYPE svg PUBLIC "-//W3C//DTD SVG 1.1//EN"
 "http://www.w3.org/Graphics/SVG/1.1/DTD/svg11.dtd">
<!-- Generated by graphviz version 8.1.0 (20230707.0739)
 -->
<!-- Title: finite_state_machine Pages: 1 -->
<svg width="310pt" height="177pt"
 viewBox="0.00 0.00 309.50 177.31" xmlns="http://www.w3.org/2000/svg" xmlns:xlink="http://www.w3.org/1999/xlink">
<g id="graph0" class="graph" transform="scale(1 1) rotate(0) translate(4 173.31)">
<title>finite_state_machine</title>
<!-- &#45;1 -->
<!-- 0 -->
<g id="node3" class="node">
<title>0</title>
<ellipse fill="none" stroke="black" cx="108.5" cy="-84.66" rx="18" ry="18"/>
<text text-anchor="middle" x="108.5" y="-79.61" font-family="Times,serif" font-size="14.00">0</text>
</g>
<!-- &#45;1&#45;&gt;0 -->
<g id="edge1" class="edge">
<title>&#45;1&#45;&gt;0</title>
<path fill="none" stroke="black" d="M53.69,-84.66C61.97,-84.66 71.13,-84.66 79.52,-84.66"/>
<polygon fill="black" stroke="black" points="79.33,-88.16 89.33,-84.66 79.33,-81.16 79.33,-88.16"/>
</g>
<!-- 2 -->
<g id="node2" class="node">
<title>2</title>
<ellipse fill="none" stroke="black" cx="279.5" cy="-84.66" rx="18" ry="18"/>
<ellipse fill="none" stroke="black" cx="279.5" cy="-84.66" rx="22" ry="22"/>
<text text-anchor="middle" x="279.5" y="-79.61" font-family="Times,serif" font-size="14.00">2</text>
</g>
<!-- 1 -->
<g id="node4" class="node">
<title>1</title>
<ellipse fill="none" stroke="black" cx="192.5" cy="-84.66" rx="18" ry="18"/>
<text text-anchor="middle" x="192.5" y="-79.61" font-family="Times,serif" font-size="14.00">1</text>
</g>
<!-- 0&#45;&gt;1 -->
<g id="edge2" class="edge">
<title>0&#45;&gt;1</title>
<path fill="none" stroke="black" d="M126.89,-84.66C137.44,-84.66 151.14,-84.66 163.22,-84.66"/>
<polygon fill="black" stroke="black" points="163.14,-88.16 173.13,-84.66 163.13,-81.16 163.14,-88.16"/>
<text text-anchor="middle" x="150.5" y="-87.86" font-family="Times,serif" font-size="14.00">&amp;</text>
</g>
<!-- 1&#45;&gt;2 -->
<g id="edge3" class="edge">
<title>1&#45;&gt;2</title>
<path fill="none" stroke="black" d="M210.7,-84.66C220.95,-84.66 234.29,-84.66 246.42,-84.66"/>
<polygon fill="black" stroke="black" points="246.1,-88.16 256.1,-84.66 246.1,-81.16 246.1,-88.16"/>
<text text-anchor="middle" x="233.5" y="-87.86" font-family="Times,serif" font-size="14.00">&amp;</text>
</g>
</g>
</svg>
