<?xml version="1.0" encoding="UTF-8" standalone="no"?>
<!DOCTYPE svg PUBLIC "-//W3C//DTD SVG 1.1//EN"
 "http://www.w3.org/Graphics/SVG/1.1/DTD/svg11.dtd">
<!-- Generated by graphviz version 8.1.0 (20230707.0739)
 -->
<!-- Title: finite_state_machine Pages: 1 -->
<svg width="293pt" height="168pt"
 viewBox="0.00 0.00 293.00 168.31" xmlns="http://www.w3.org/2000/svg" xmlns:xlink="http://www.w3.org/1999/xlink">
<g id="graph0" class="graph" transform="scale(1 1) rotate(0) translate(4 164.31)">
<title>finite_state_machine</title>
<!-- &#45;1 -->
<!-- 0 -->
<g id="node3" class="node">
<title>0</title>
<ellipse fill="none" stroke="black" cx="109" cy="-80.16" rx="18" ry="18"/>
<text text-anchor="middle" x="109" y="-75.11" font-family="Times,serif" font-size="14.00">0</text>
</g>
<!-- &#45;1&#45;&gt;0 -->
<g id="edge1" class="edge">
<title>&#45;1&#45;&gt;0</title>
<path fill="none" stroke="black" d="M54.19,-80.16C62.47,-80.16 71.63,-80.16 80.02,-80.16"/>
<polygon fill="black" stroke="black" points="79.83,-83.66 89.83,-80.16 79.83,-76.66 79.83,-83.66"/>
</g>
<!-- 2 -->
<g id="node2" class="node">
<title>2</title>
<ellipse fill="none" stroke="black" cx="263" cy="-80.16" rx="18" ry="18"/>
<ellipse fill="none" stroke="black" cx="263" cy="-80.16" rx="22" ry="22"/>
<text text-anchor="middle" x="263" y="-75.11" font-family="Times,serif" font-size="14.00">2</text>
</g>
<!-- 1 -->
<g id="node4" class="node">
<title>1</title>
<ellipse fill="none" stroke="black" cx="184" cy="-80.16" rx="18" ry="18"/>
<text text-anchor="middle" x="184" y="-75.11" font-family="Times,serif" font-size="14.00">1</text>
</g>
<!-- 0&#45;&gt;1 -->
<g id="edge2" class="edge">
<title>0&#45;&gt;1</title>
<path fill="none" stroke="black" d="M127.3,-80.16C135.51,-80.16 145.54,-80.16 154.81,-80.16"/>
<polygon fill="black" stroke="black" points="154.57,-83.66 164.57,-80.16 154.57,-76.66 154.57,-83.66"/>
<text text-anchor="middle" x="146" y="-83.36" font-family="Times,serif" font-size="14.00">|</text>
</g>
<!-- 1&#45;&gt;2 -->
<g id="edge3" class="edge">
<title>1&#45;&gt;2</title>
<path fill="none" stroke="black" d="M202.47,-80.16C210.64,-80.16 220.62,-80.16 230.06,-80.16"/>
<polygon fill="black" stroke="black" points="229.76,-83.66 239.76,-80.16 229.76,-76.66 229.76,-83.66"/>
<text text-anchor="middle" x="221" y="-83.36" font-family="Times,serif" font-size="14.00">|</text>
</g>
</g>
</svg>
