<?xml version="1.0" encoding="UTF-8" standalone="no"?>
<!DOCTYPE svg PUBLIC "-//W3C//DTD SVG 1.1//EN"
 "http://www.w3.org/Graphics/SVG/1.1/DTD/svg11.dtd">
<!-- Generated by graphviz version 8.1.0 (20230707.0739)
 -->
<!-- Title: finite_state_machine Pages: 1 -->
<svg width="382pt" height="218pt"
 viewBox="0.00 0.00 381.50 217.81" xmlns="http://www.w3.org/2000/svg" xmlns:xlink="http://www.w3.org/1999/xlink">
<g id="graph0" class="graph" transform="scale(1 1) rotate(0) translate(4 213.81)">
<title>finite_state_machine</title>
<!-- &#45;1 -->
<!-- 0 -->
<g id="node3" class="node">
<title>0</title>
<ellipse fill="none" stroke="white" cx="108.5" cy="-104.91" rx="18" ry="18"/>
<text text-anchor="middle" x="108.5" y="-99.86" font-family="Times,serif" font-size="14.00" fill="white">0</text>
</g>
<!-- &#45;1&#45;&gt;0 -->
<g id="edge1" class="edge">
<title>&#45;1&#45;&gt;0</title>
<path fill="none" stroke="white" d="M53.69,-104.91C61.97,-104.91 71.13,-104.91 79.52,-104.91"/>
<polygon fill="white" stroke="white" points="79.33,-108.41 89.33,-104.91 79.33,-101.41 79.33,-108.41"/>
</g>
<!-- 3 -->
<g id="node2" class="node">
<title>3</title>
<ellipse fill="none" stroke="white" cx="351.5" cy="-104.91" rx="18" ry="18"/>
<ellipse fill="none" stroke="white" cx="351.5" cy="-104.91" rx="22" ry="22"/>
<text text-anchor="middle" x="351.5" y="-99.86" font-family="Times,serif" font-size="14.00" fill="white">3</text>
</g>
<!-- 1 -->
<g id="node4" class="node">
<title>1</title>
<ellipse fill="none" stroke="white" cx="187.5" cy="-104.91" rx="18" ry="18"/>
<text text-anchor="middle" x="187.5" y="-99.86" font-family="Times,serif" font-size="14.00" fill="white">1</text>
</g>
<!-- 0&#45;&gt;1 -->
<g id="edge2" class="edge">
<title>0&#45;&gt;1</title>
<path fill="none" stroke="white" d="M126.97,-104.91C136.23,-104.91 147.82,-104.91 158.31,-104.91"/>
<polygon fill="white" stroke="white" points="158.1,-108.41 168.1,-104.91 158.1,-101.41 158.1,-108.41"/>
<text text-anchor="middle" x="148.5" y="-108.11" font-family="Times,serif" font-size="14.00" fill="white">n</text>
</g>
<!-- 2 -->
<g id="node5" class="node">
<title>2</title>
<ellipse fill="none" stroke="white" cx="265.5" cy="-104.91" rx="18" ry="18"/>
<text text-anchor="middle" x="265.5" y="-99.86" font-family="Times,serif" font-size="14.00" fill="white">2</text>
</g>
<!-- 1&#45;&gt;2 -->
<g id="edge3" class="edge">
<title>1&#45;&gt;2</title>
<path fill="none" stroke="white" d="M205.75,-104.91C214.72,-104.91 225.92,-104.91 236.13,-104.91"/>
<polygon fill="white" stroke="white" points="236.06,-108.41 246.06,-104.91 236.06,-101.41 236.06,-108.41"/>
<text text-anchor="middle" x="226.5" y="-108.11" font-family="Times,serif" font-size="14.00" fill="white">e</text>
</g>
<!-- 2&#45;&gt;3 -->
<g id="edge4" class="edge">
<title>2&#45;&gt;3</title>
<path fill="none" stroke="white" d="M283.9,-104.91C293.88,-104.91 306.72,-104.91 318.46,-104.91"/>
<polygon fill="white" stroke="white" points="318.24,-108.41 328.24,-104.91 318.24,-101.41 318.24,-108.41"/>
<text text-anchor="middle" x="306.5" y="-108.11" font-family="Times,serif" font-size="14.00" fill="white">w</text>
</g>
</g>
</svg>
