<?xml version="1.0" encoding="UTF-8" standalone="no"?>
<!DOCTYPE svg PUBLIC "-//W3C//DTD SVG 1.1//EN"
 "http://www.w3.org/Graphics/SVG/1.1/DTD/svg11.dtd">
<!-- Generated by graphviz version 8.1.0 (20230707.0739)
 -->
<!-- Title: finite_state_machine Pages: 1 -->
<svg width="483pt" height="275pt"
 viewBox="0.00 0.00 483.25 275.19" xmlns="http://www.w3.org/2000/svg" xmlns:xlink="http://www.w3.org/1999/xlink">
<g id="graph0" class="graph" transform="scale(1 1) rotate(0) translate(4 271.19)">
<title>finite_state_machine</title>
<!-- &#45;1 -->
<!-- 0 -->
<g id="node5" class="node">
<title>0</title>
<ellipse fill="none" stroke="black" cx="109.25" cy="-132.55" rx="18" ry="18"/>
<text text-anchor="middle" x="109.25" y="-127.5" font-family="Times,serif" font-size="14.00">0</text>
</g>
<!-- &#45;1&#45;&gt;0 -->
<g id="edge1" class="edge">
<title>&#45;1&#45;&gt;0</title>
<path fill="none" stroke="black" d="M54.44,-132.55C62.72,-132.55 71.88,-132.55 80.27,-132.55"/>
<polygon fill="black" stroke="black" points="80.08,-136.05 90.08,-132.55 80.08,-129.05 80.08,-136.05"/>
</g>
<!-- 2 -->
<g id="node2" class="node">
<title>2</title>
<ellipse fill="none" stroke="black" cx="279.25" cy="-225.55" rx="18" ry="18"/>
<ellipse fill="none" stroke="black" cx="279.25" cy="-225.55" rx="22" ry="22"/>
<text text-anchor="middle" x="279.25" y="-220.5" font-family="Times,serif" font-size="14.00">2</text>
</g>
<!-- 4 -->
<g id="node7" class="node">
<title>4</title>
<ellipse fill="none" stroke="black" cx="359.25" cy="-132.55" rx="18" ry="18"/>
<text text-anchor="middle" x="359.25" y="-127.5" font-family="Times,serif" font-size="14.00">4</text>
</g>
<!-- 2&#45;&gt;4 -->
<g id="edge7" class="edge">
<title>2&#45;&gt;4</title>
<path fill="none" stroke="black" d="M294.19,-208.92C307.03,-193.62 326.15,-170.83 340.16,-154.12"/>
<polygon fill="black" stroke="black" points="343.21,-156.93 346.96,-147.02 337.85,-152.43 343.21,-156.93"/>
<text text-anchor="middle" x="321.25" y="-179.75" font-family="Times,serif" font-size="14.00">.</text>
</g>
<!-- 3 -->
<g id="node3" class="node">
<title>3</title>
<ellipse fill="none" stroke="black" cx="279.25" cy="-41.55" rx="18" ry="18"/>
<ellipse fill="none" stroke="black" cx="279.25" cy="-41.55" rx="22" ry="22"/>
<text text-anchor="middle" x="279.25" y="-36.5" font-family="Times,serif" font-size="14.00">3</text>
</g>
<!-- 3&#45;&gt;3 -->
<g id="edge9" class="edge">
<title>3&#45;&gt;3</title>
<path fill="none" stroke="black" d="M271.57,-62.54C270.62,-72.64 273.18,-81.55 279.25,-81.55 282.95,-81.55 285.35,-78.24 286.44,-73.37"/>
<polygon fill="black" stroke="black" points="289.97,-73.69 286.93,-63.54 282.98,-73.37 289.97,-73.69"/>
<text text-anchor="middle" x="279.25" y="-84.75" font-family="Times,serif" font-size="14.00">0&#45;9</text>
</g>
<!-- 3&#45;&gt;4 -->
<g id="edge8" class="edge">
<title>3&#45;&gt;4</title>
<path fill="none" stroke="black" d="M294.19,-57.82C306.96,-72.71 325.93,-94.84 339.91,-111.15"/>
<polygon fill="black" stroke="black" points="337.55,-112.77 346.71,-118.09 342.86,-108.22 337.55,-112.77"/>
<text text-anchor="middle" x="321.25" y="-93.75" font-family="Times,serif" font-size="14.00">.</text>
</g>
<!-- 5 -->
<g id="node4" class="node">
<title>5</title>
<ellipse fill="none" stroke="black" cx="453.25" cy="-132.55" rx="18" ry="18"/>
<ellipse fill="none" stroke="black" cx="453.25" cy="-132.55" rx="22" ry="22"/>
<text text-anchor="middle" x="453.25" y="-127.5" font-family="Times,serif" font-size="14.00">5</text>
</g>
<!-- 5&#45;&gt;5 -->
<g id="edge11" class="edge">
<title>5&#45;&gt;5</title>
<path fill="none" stroke="black" d="M444.33,-153.13C443.1,-163.39 446.07,-172.55 453.25,-172.55 457.74,-172.55 460.58,-168.97 461.78,-163.78"/>
<polygon fill="black" stroke="black" points="465.3,-164.25 462.17,-154.13 458.31,-164 465.3,-164.25"/>
<text text-anchor="middle" x="453.25" y="-175.75" font-family="Times,serif" font-size="14.00">0&#45;9</text>
</g>
<!-- 0&#45;&gt;2 -->
<g id="edge3" class="edge">
<title>0&#45;&gt;2</title>
<path fill="none" stroke="black" d="M123.95,-143.16C144.28,-158.52 184.04,-187.13 221.25,-205.55 229.44,-209.61 238.67,-213.22 247.27,-216.22"/>
<polygon fill="black" stroke="black" points="246.12,-219.86 256.71,-219.68 248.32,-213.21 246.12,-219.86"/>
<text text-anchor="middle" x="185.25" y="-198.75" font-family="Times,serif" font-size="14.00">0</text>
</g>
<!-- 0&#45;&gt;3 -->
<g id="edge4" class="edge">
<title>0&#45;&gt;3</title>
<path fill="none" stroke="black" d="M123.18,-121.19C134.32,-111.78 151.12,-98.46 167.25,-89.05 193.2,-73.91 224.88,-60.84 247.74,-52.26"/>
<polygon fill="black" stroke="black" points="248.7,-55.27 256.88,-48.53 246.29,-48.7 248.7,-55.27"/>
<text text-anchor="middle" x="185.25" y="-92.75" font-family="Times,serif" font-size="14.00">1&#45;9</text>
</g>
<!-- 1 -->
<g id="node6" class="node">
<title>1</title>
<ellipse fill="none" stroke="black" cx="185.25" cy="-132.55" rx="18" ry="18"/>
<text text-anchor="middle" x="185.25" y="-127.5" font-family="Times,serif" font-size="14.00">1</text>
</g>
<!-- 0&#45;&gt;1 -->
<g id="edge2" class="edge">
<title>0&#45;&gt;1</title>
<path fill="none" stroke="black" d="M127.41,-132.55C135.94,-132.55 146.47,-132.55 156.14,-132.55"/>
<polygon fill="black" stroke="black" points="155.92,-136.05 165.92,-132.55 155.92,-129.05 155.92,-136.05"/>
<text text-anchor="middle" x="147.25" y="-135.75" font-family="Times,serif" font-size="14.00">&#45;</text>
</g>
<!-- 1&#45;&gt;2 -->
<g id="edge5" class="edge">
<title>1&#45;&gt;2</title>
<path fill="none" stroke="black" d="M198.66,-145.09C213.25,-159.84 237.76,-184.62 255.73,-202.78"/>
<polygon fill="black" stroke="black" points="252.46,-204.47 261.98,-209.12 257.44,-199.55 252.46,-204.47"/>
<text text-anchor="middle" x="230.25" y="-188.75" font-family="Times,serif" font-size="14.00">0</text>
</g>
<!-- 1&#45;&gt;3 -->
<g id="edge6" class="edge">
<title>1&#45;&gt;3</title>
<path fill="none" stroke="black" d="M198.66,-120.28C213.12,-105.97 237.32,-82.04 255.25,-64.3"/>
<polygon fill="black" stroke="black" points="257.34,-67.17 261.98,-57.65 252.41,-62.19 257.34,-67.17"/>
<text text-anchor="middle" x="230.25" y="-101.75" font-family="Times,serif" font-size="14.00">1&#45;9</text>
</g>
<!-- 4&#45;&gt;5 -->
<g id="edge10" class="edge">
<title>4&#45;&gt;5</title>
<path fill="none" stroke="black" d="M377.55,-132.55C389.47,-132.55 405.65,-132.55 419.91,-132.55"/>
<polygon fill="black" stroke="black" points="419.81,-136.05 429.81,-132.55 419.81,-129.05 419.81,-136.05"/>
<text text-anchor="middle" x="404.25" y="-135.75" font-family="Times,serif" font-size="14.00">0&#45;9</text>
</g>
</g>
</svg>
