<?xml version="1.0" encoding="UTF-8" standalone="no"?>
<!DOCTYPE svg PUBLIC "-//W3C//DTD SVG 1.1//EN"
 "http://www.w3.org/Graphics/SVG/1.1/DTD/svg11.dtd">
<!-- Generated by graphviz version 8.1.0 (20230707.0739)
 -->
<!-- Title: finite_state_machine Pages: 1 -->
<svg width="370pt" height="212pt"
 viewBox="0.00 0.00 370.25 211.62" xmlns="http://www.w3.org/2000/svg" xmlns:xlink="http://www.w3.org/1999/xlink">
<g id="graph0" class="graph" transform="scale(1 1) rotate(0) translate(4 207.62)">
<title>finite_state_machine</title>
<!-- &#45;1 -->
<!-- 0 -->
<g id="node3" class="node">
<title>0</title>
<ellipse fill="none" stroke="white" cx="109.25" cy="-101.81" rx="18" ry="18"/>
<text text-anchor="middle" x="109.25" y="-96.76" font-family="Times,serif" font-size="14.00" fill="white">0</text>
</g>
<!-- &#45;1&#45;&gt;0 -->
<g id="edge1" class="edge">
<title>&#45;1&#45;&gt;0</title>
<path fill="none" stroke="white" d="M54.44,-101.81C62.72,-101.81 71.88,-101.81 80.27,-101.81"/>
<polygon fill="white" stroke="white" points="80.08,-105.31 90.08,-101.81 80.08,-98.31 80.08,-105.31"/>
</g>
<!-- 3 -->
<g id="node2" class="node">
<title>3</title>
<ellipse fill="none" stroke="white" cx="340.25" cy="-101.81" rx="18" ry="18"/>
<ellipse fill="none" stroke="white" cx="340.25" cy="-101.81" rx="22" ry="22"/>
<text text-anchor="middle" x="340.25" y="-96.76" font-family="Times,serif" font-size="14.00" fill="white">3</text>
</g>
<!-- 1 -->
<g id="node4" class="node">
<title>1</title>
<ellipse fill="none" stroke="white" cx="184.25" cy="-101.81" rx="18" ry="18"/>
<text text-anchor="middle" x="184.25" y="-96.76" font-family="Times,serif" font-size="14.00" fill="white">1</text>
</g>
<!-- 0&#45;&gt;1 -->
<g id="edge2" class="edge">
<title>0&#45;&gt;1</title>
<path fill="none" stroke="white" d="M127.55,-101.81C135.76,-101.81 145.79,-101.81 155.06,-101.81"/>
<polygon fill="white" stroke="white" points="154.82,-105.31 164.82,-101.81 154.82,-98.31 154.82,-105.31"/>
<text text-anchor="middle" x="147.25" y="-105.01" font-family="Times,serif" font-size="14.00" fill="white">.</text>
</g>
<!-- 2 -->
<g id="node5" class="node">
<title>2</title>
<ellipse fill="none" stroke="white" cx="260.25" cy="-101.81" rx="18" ry="18"/>
<text text-anchor="middle" x="260.25" y="-96.76" font-family="Times,serif" font-size="14.00" fill="white">2</text>
</g>
<!-- 1&#45;&gt;2 -->
<g id="edge3" class="edge">
<title>1&#45;&gt;2</title>
<path fill="none" stroke="white" d="M202.41,-101.81C210.94,-101.81 221.47,-101.81 231.14,-101.81"/>
<polygon fill="white" stroke="white" points="230.92,-105.31 240.92,-101.81 230.92,-98.31 230.92,-105.31"/>
<text text-anchor="middle" x="222.25" y="-105.01" font-family="Times,serif" font-size="14.00" fill="white">.</text>
</g>
<!-- 2&#45;&gt;3 -->
<g id="edge4" class="edge">
<title>2&#45;&gt;3</title>
<path fill="none" stroke="white" d="M278.56,-101.81C286.88,-101.81 297.14,-101.81 306.83,-101.81"/>
<polygon fill="white" stroke="white" points="306.81,-105.31 316.81,-101.81 306.81,-98.31 306.81,-105.31"/>
<text text-anchor="middle" x="298.25" y="-105.01" font-family="Times,serif" font-size="14.00" fill="white">.</text>
</g>
</g>
</svg>
