<?xml version="1.0" encoding="UTF-8" standalone="no"?>
<!DOCTYPE svg PUBLIC "-//W3C//DTD SVG 1.1//EN"
 "http://www.w3.org/Graphics/SVG/1.1/DTD/svg11.dtd">
<!-- Generated by graphviz version 8.1.0 (20230707.0739)
 -->
<!-- Title: finite_state_machine Pages: 1 -->
<svg width="607pt" height="345pt"
 viewBox="0.00 0.00 607.25 344.94" xmlns="http://www.w3.org/2000/svg" xmlns:xlink="http://www.w3.org/1999/xlink">
<g id="graph0" class="graph" transform="scale(1 1) rotate(0) translate(4 340.94)">
<title>finite_state_machine</title>
<!-- &#45;1 -->
<!-- 0 -->
<g id="node3" class="node">
<title>0</title>
<ellipse fill="none" stroke="black" cx="109.25" cy="-168.47" rx="18" ry="18"/>
<text text-anchor="middle" x="109.25" y="-163.42" font-family="Times,serif" font-size="14.00">0</text>
</g>
<!-- &#45;1&#45;&gt;0 -->
<g id="edge1" class="edge">
<title>&#45;1&#45;&gt;0</title>
<path fill="none" stroke="black" d="M54.44,-168.47C62.72,-168.47 71.88,-168.47 80.27,-168.47"/>
<polygon fill="black" stroke="black" points="80.08,-171.97 90.08,-168.47 80.08,-164.97 80.08,-171.97"/>
</g>
<!-- 6 -->
<g id="node2" class="node">
<title>6</title>
<ellipse fill="none" stroke="black" cx="577.25" cy="-168.47" rx="18" ry="18"/>
<ellipse fill="none" stroke="black" cx="577.25" cy="-168.47" rx="22" ry="22"/>
<text text-anchor="middle" x="577.25" y="-163.42" font-family="Times,serif" font-size="14.00">6</text>
</g>
<!-- 1 -->
<g id="node4" class="node">
<title>1</title>
<ellipse fill="none" stroke="black" cx="185.25" cy="-168.47" rx="18" ry="18"/>
<text text-anchor="middle" x="185.25" y="-163.42" font-family="Times,serif" font-size="14.00">1</text>
</g>
<!-- 0&#45;&gt;1 -->
<g id="edge2" class="edge">
<title>0&#45;&gt;1</title>
<path fill="none" stroke="black" d="M127.41,-168.47C135.94,-168.47 146.47,-168.47 156.14,-168.47"/>
<polygon fill="black" stroke="black" points="155.92,-171.97 165.92,-168.47 155.92,-164.97 155.92,-171.97"/>
<text text-anchor="middle" x="147.25" y="-171.67" font-family="Times,serif" font-size="14.00">r</text>
</g>
<!-- 2 -->
<g id="node5" class="node">
<title>2</title>
<ellipse fill="none" stroke="black" cx="263.25" cy="-168.47" rx="18" ry="18"/>
<text text-anchor="middle" x="263.25" y="-163.42" font-family="Times,serif" font-size="14.00">2</text>
</g>
<!-- 1&#45;&gt;2 -->
<g id="edge3" class="edge">
<title>1&#45;&gt;2</title>
<path fill="none" stroke="black" d="M203.5,-168.47C212.47,-168.47 223.67,-168.47 233.88,-168.47"/>
<polygon fill="black" stroke="black" points="233.81,-171.97 243.81,-168.47 233.81,-164.97 233.81,-171.97"/>
<text text-anchor="middle" x="224.25" y="-171.67" font-family="Times,serif" font-size="14.00">e</text>
</g>
<!-- 3 -->
<g id="node6" class="node">
<title>3</title>
<ellipse fill="none" stroke="black" cx="339.25" cy="-168.47" rx="18" ry="18"/>
<text text-anchor="middle" x="339.25" y="-163.42" font-family="Times,serif" font-size="14.00">3</text>
</g>
<!-- 2&#45;&gt;3 -->
<g id="edge4" class="edge">
<title>2&#45;&gt;3</title>
<path fill="none" stroke="black" d="M281.41,-168.47C289.94,-168.47 300.47,-168.47 310.14,-168.47"/>
<polygon fill="black" stroke="black" points="309.92,-171.97 319.92,-168.47 309.92,-164.97 309.92,-171.97"/>
<text text-anchor="middle" x="301.25" y="-171.67" font-family="Times,serif" font-size="14.00">t</text>
</g>
<!-- 4 -->
<g id="node7" class="node">
<title>4</title>
<ellipse fill="none" stroke="black" cx="418.25" cy="-168.47" rx="18" ry="18"/>
<text text-anchor="middle" x="418.25" y="-163.42" font-family="Times,serif" font-size="14.00">4</text>
</g>
<!-- 3&#45;&gt;4 -->
<g id="edge5" class="edge">
<title>3&#45;&gt;4</title>
<path fill="none" stroke="black" d="M357.72,-168.47C366.98,-168.47 378.57,-168.47 389.06,-168.47"/>
<polygon fill="black" stroke="black" points="388.85,-171.97 398.85,-168.47 388.85,-164.97 388.85,-171.97"/>
<text text-anchor="middle" x="378.25" y="-171.67" font-family="Times,serif" font-size="14.00">u</text>
</g>
<!-- 5 -->
<g id="node8" class="node">
<title>5</title>
<ellipse fill="none" stroke="black" cx="494.25" cy="-168.47" rx="18" ry="18"/>
<text text-anchor="middle" x="494.25" y="-163.42" font-family="Times,serif" font-size="14.00">5</text>
</g>
<!-- 4&#45;&gt;5 -->
<g id="edge6" class="edge">
<title>4&#45;&gt;5</title>
<path fill="none" stroke="black" d="M436.41,-168.47C444.94,-168.47 455.47,-168.47 465.14,-168.47"/>
<polygon fill="black" stroke="black" points="464.92,-171.97 474.92,-168.47 464.92,-164.97 464.92,-171.97"/>
<text text-anchor="middle" x="456.25" y="-171.67" font-family="Times,serif" font-size="14.00">r</text>
</g>
<!-- 5&#45;&gt;6 -->
<g id="edge7" class="edge">
<title>5&#45;&gt;6</title>
<path fill="none" stroke="black" d="M512.43,-168.47C521.6,-168.47 533.18,-168.47 543.96,-168.47"/>
<polygon fill="black" stroke="black" points="543.76,-171.97 553.76,-168.47 543.76,-164.97 543.76,-171.97"/>
<text text-anchor="middle" x="534.25" y="-171.67" font-family="Times,serif" font-size="14.00">n</text>
</g>
</g>
</svg>
