<?xml version="1.0" encoding="UTF-8" standalone="no"?>
<!DOCTYPE svg PUBLIC "-//W3C//DTD SVG 1.1//EN"
 "http://www.w3.org/Graphics/SVG/1.1/DTD/svg11.dtd">
<!-- Generated by graphviz version 8.1.0 (20230707.0739)
 -->
<!-- Title: finite_state_machine Pages: 1 -->
<svg width="384pt" height="219pt"
 viewBox="0.00 0.00 383.75 218.94" xmlns="http://www.w3.org/2000/svg" xmlns:xlink="http://www.w3.org/1999/xlink">
<g id="graph0" class="graph" transform="scale(1 1) rotate(0) translate(4 214.94)">
<title>finite_state_machine</title>
<!-- &#45;1 -->
<!-- 0 -->
<g id="node3" class="node">
<title>0</title>
<ellipse fill="none" stroke="black" cx="108.75" cy="-105.47" rx="18" ry="18"/>
<text text-anchor="middle" x="108.75" y="-100.42" font-family="Times,serif" font-size="14.00">0</text>
</g>
<!-- &#45;1&#45;&gt;0 -->
<g id="edge1" class="edge">
<title>&#45;1&#45;&gt;0</title>
<path fill="none" stroke="black" d="M53.94,-105.47C62.22,-105.47 71.38,-105.47 79.77,-105.47"/>
<polygon fill="black" stroke="black" points="79.58,-108.97 89.58,-105.47 79.58,-101.97 79.58,-108.97"/>
</g>
<!-- 3 -->
<g id="node2" class="node">
<title>3</title>
<ellipse fill="none" stroke="black" cx="353.75" cy="-105.47" rx="18" ry="18"/>
<ellipse fill="none" stroke="black" cx="353.75" cy="-105.47" rx="22" ry="22"/>
<text text-anchor="middle" x="353.75" y="-100.42" font-family="Times,serif" font-size="14.00">3</text>
</g>
<!-- 1 -->
<g id="node4" class="node">
<title>1</title>
<ellipse fill="none" stroke="black" cx="188.75" cy="-105.47" rx="18" ry="18"/>
<text text-anchor="middle" x="188.75" y="-100.42" font-family="Times,serif" font-size="14.00">1</text>
</g>
<!-- 0&#45;&gt;1 -->
<g id="edge2" class="edge">
<title>0&#45;&gt;1</title>
<path fill="none" stroke="black" d="M127.06,-105.47C136.65,-105.47 148.82,-105.47 159.73,-105.47"/>
<polygon fill="black" stroke="black" points="159.49,-108.97 169.49,-105.47 159.49,-101.97 159.49,-108.97"/>
<text text-anchor="middle" x="148.75" y="-108.67" font-family="Times,serif" font-size="14.00">=</text>
</g>
<!-- 2 -->
<g id="node5" class="node">
<title>2</title>
<ellipse fill="none" stroke="black" cx="269.75" cy="-105.47" rx="18" ry="18"/>
<text text-anchor="middle" x="269.75" y="-100.42" font-family="Times,serif" font-size="14.00">2</text>
</g>
<!-- 1&#45;&gt;2 -->
<g id="edge3" class="edge">
<title>1&#45;&gt;2</title>
<path fill="none" stroke="black" d="M206.89,-105.47C216.76,-105.47 229.41,-105.47 240.69,-105.47"/>
<polygon fill="black" stroke="black" points="240.37,-108.97 250.37,-105.47 240.37,-101.97 240.37,-108.97"/>
<text text-anchor="middle" x="229.75" y="-108.67" font-family="Times,serif" font-size="14.00">=</text>
</g>
<!-- 2&#45;&gt;3 -->
<g id="edge4" class="edge">
<title>2&#45;&gt;3</title>
<path fill="none" stroke="black" d="M288.14,-105.47C297.49,-105.47 309.33,-105.47 320.31,-105.47"/>
<polygon fill="black" stroke="black" points="320.3,-108.97 330.3,-105.47 320.3,-101.97 320.3,-108.97"/>
<text text-anchor="middle" x="309.75" y="-108.67" font-family="Times,serif" font-size="14.00">=</text>
</g>
</g>
</svg>
