<?xml version="1.0" encoding="UTF-8" standalone="no"?>
<!DOCTYPE svg PUBLIC "-//W3C//DTD SVG 1.1//EN"
 "http://www.w3.org/Graphics/SVG/1.1/DTD/svg11.dtd">
<!-- Generated by graphviz version 9.0.0 (20230911.1827)
 -->
<!-- Title: finite_state_machine Pages: 1 -->
<svg width="822pt" height="484pt"
 viewBox="0.00 0.00 822.22 484.12" xmlns="http://www.w3.org/2000/svg" xmlns:xlink="http://www.w3.org/1999/xlink">
<g id="graph0" class="graph" transform="scale(1 1) rotate(0) translate(4 480.12)">
<title>finite_state_machine</title>
<!-- &#45;1 -->
<!-- 0 -->
<g id="node3" class="node">
<title>0</title>
<ellipse fill="none" stroke="black" cx="221.22" cy="-207.62" rx="18" ry="18"/>
<text text-anchor="middle" x="221.22" y="-202.57" font-family="Times,serif" font-size="14.00">0</text>
</g>
<!-- &#45;1&#45;&gt;0 -->
<g id="edge1" class="edge">
<title>&#45;1&#45;&gt;0</title>
<path fill="none" stroke="black" d="M81.37,-207.62C111.37,-207.62 160.42,-207.62 191.48,-207.62"/>
<polygon fill="black" stroke="black" points="191.29,-211.12 201.29,-207.62 191.29,-204.12 191.29,-211.12"/>
</g>
<!-- 3 -->
<g id="node2" class="node">
<title>3</title>
<ellipse fill="none" stroke="black" cx="608.22" cy="-216.62" rx="18" ry="18"/>
<ellipse fill="none" stroke="black" cx="608.22" cy="-216.62" rx="22" ry="22"/>
<text text-anchor="middle" x="608.22" y="-211.57" font-family="Times,serif" font-size="14.00">3</text>
</g>
<!-- 1 -->
<g id="node4" class="node">
<title>1</title>
<ellipse fill="none" stroke="black" cx="379.22" cy="-107.62" rx="18" ry="18"/>
<text text-anchor="middle" x="379.22" y="-102.57" font-family="Times,serif" font-size="14.00">1</text>
</g>
<!-- 0&#45;&gt;1 -->
<g id="edge2" class="edge">
<title>0&#45;&gt;1</title>
<path fill="none" stroke="black" d="M236.9,-198.21C263.84,-180.94 321.43,-144.02 354.17,-123.04"/>
<polygon fill="black" stroke="black" points="355.67,-126.24 362.2,-117.89 351.89,-120.34 355.67,-126.24"/>
<text text-anchor="middle" x="300.22" y="-160.82" font-family="Times,serif" font-size="14.00">&quot;</text>
</g>
<!-- 2 -->
<g id="node5" class="node">
<title>2</title>
<ellipse fill="none" stroke="black" cx="379.22" cy="-343.62" rx="18" ry="18"/>
<text text-anchor="middle" x="379.22" y="-338.57" font-family="Times,serif" font-size="14.00">2</text>
</g>
<!-- 0&#45;&gt;2 -->
<g id="edge3" class="edge">
<title>0&#45;&gt;2</title>
<path fill="none" stroke="black" d="M235.52,-219.22C262.46,-242.7 323.7,-296.09 356.51,-324.69"/>
<polygon fill="black" stroke="black" points="353.98,-327.13 363.81,-331.06 358.58,-321.85 353.98,-327.13"/>
<text text-anchor="middle" x="300.22" y="-278.82" font-family="Times,serif" font-size="14.00">&#39;</text>
</g>
<!-- 1&#45;&gt;3 -->
<g id="edge5" class="edge">
<title>1&#45;&gt;3</title>
<path fill="none" stroke="black" d="M393.37,-119.41C410.18,-133.94 440.68,-158.56 470.47,-173.62 504.63,-190.89 547.11,-202.93 575.58,-209.79"/>
<polygon fill="black" stroke="black" points="574.48,-213.13 585.01,-211.99 576.07,-206.31 574.48,-213.13"/>
<text text-anchor="middle" x="489.22" y="-191.82" font-family="Times,serif" font-size="14.00">&quot;</text>
</g>
<!-- 1&#45;&gt;1 -->
<g id="edge4" class="edge">
<title>1&#45;&gt;1</title>
<path fill="none" stroke="black" d="M374.49,-125.4C373.68,-134.94 375.26,-143.62 379.22,-143.62 381.45,-143.62 382.92,-140.87 383.64,-136.77"/>
<polygon fill="black" stroke="black" points="387.14,-137.01 383.91,-126.92 380.14,-136.82 387.14,-137.01"/>
<text text-anchor="middle" x="379.22" y="-146.82" font-family="Times,serif" font-size="14.00">\0&#45;!</text>
</g>
<!-- 1&#45;&gt;1 -->
<g id="edge6" class="edge">
<title>1&#45;&gt;1</title>
<path fill="none" stroke="black" d="M371.66,-124.21C366.93,-141.79 369.45,-161.62 379.22,-161.62 386.93,-161.62 390.13,-149.27 388.81,-135.43"/>
<polygon fill="black" stroke="black" points="392.27,-134.91 387.05,-125.7 385.38,-136.16 392.27,-134.91"/>
<text text-anchor="middle" x="379.22" y="-164.82" font-family="Times,serif" font-size="14.00">#&#45;[</text>
</g>
<!-- 1&#45;&gt;1 -->
<g id="edge8" class="edge">
<title>1&#45;&gt;1</title>
<path fill="none" stroke="black" d="M370.05,-123.54C360.2,-148.24 363.25,-179.62 379.22,-179.62 392.95,-179.62 397.13,-156.44 391.78,-134.25"/>
<polygon fill="black" stroke="black" points="395.2,-133.46 388.85,-124.98 388.53,-135.57 395.2,-133.46"/>
<text text-anchor="middle" x="379.22" y="-182.82" font-family="Times,serif" font-size="14.00">]&#45;\uffff</text>
</g>
<!-- 4 -->
<g id="node6" class="node">
<title>4</title>
<ellipse fill="none" stroke="black" cx="608.22" cy="-78.62" rx="18" ry="18"/>
<text text-anchor="middle" x="608.22" y="-73.57" font-family="Times,serif" font-size="14.00">4</text>
</g>
<!-- 1&#45;&gt;4 -->
<g id="edge7" class="edge">
<title>1&#45;&gt;4</title>
<path fill="none" stroke="black" d="M397.69,-108.72C422.39,-109.96 468.88,-111.16 507.97,-105.62 532.83,-102.1 560.33,-94.3 580.06,-87.99"/>
<polygon fill="black" stroke="black" points="581.14,-91.32 589.54,-84.86 578.95,-84.67 581.14,-91.32"/>
<text text-anchor="middle" x="489.22" y="-111.82" font-family="Times,serif" font-size="14.00">\\</text>
</g>
<!-- 2&#45;&gt;3 -->
<g id="edge10" class="edge">
<title>2&#45;&gt;3</title>
<path fill="none" stroke="black" d="M389.47,-328.37C403.85,-306.07 433.76,-264.96 470.47,-244.12 502.86,-225.73 545.7,-219.51 574.73,-217.48"/>
<polygon fill="black" stroke="black" points="574.58,-220.99 584.37,-216.94 574.19,-214 574.58,-220.99"/>
<text text-anchor="middle" x="489.22" y="-246.82" font-family="Times,serif" font-size="14.00">&#39;</text>
</g>
<!-- 2&#45;&gt;2 -->
<g id="edge9" class="edge">
<title>2&#45;&gt;2</title>
<path fill="none" stroke="black" d="M374.49,-361.4C373.68,-370.94 375.26,-379.62 379.22,-379.62 381.45,-379.62 382.92,-376.87 383.64,-372.77"/>
<polygon fill="black" stroke="black" points="387.14,-373.01 383.91,-362.92 380.14,-372.82 387.14,-373.01"/>
<text text-anchor="middle" x="379.22" y="-382.82" font-family="Times,serif" font-size="14.00">\0&#45;&amp;</text>
</g>
<!-- 2&#45;&gt;2 -->
<g id="edge11" class="edge">
<title>2&#45;&gt;2</title>
<path fill="none" stroke="black" d="M371.66,-360.21C366.93,-377.79 369.45,-397.62 379.22,-397.62 386.93,-397.62 390.13,-385.27 388.81,-371.43"/>
<polygon fill="black" stroke="black" points="392.27,-370.91 387.05,-361.7 385.38,-372.16 392.27,-370.91"/>
<text text-anchor="middle" x="379.22" y="-400.82" font-family="Times,serif" font-size="14.00">(&#45;[</text>
</g>
<!-- 2&#45;&gt;2 -->
<g id="edge13" class="edge">
<title>2&#45;&gt;2</title>
<path fill="none" stroke="black" d="M370.05,-359.54C360.2,-384.24 363.25,-415.62 379.22,-415.62 392.95,-415.62 397.13,-392.44 391.78,-370.25"/>
<polygon fill="black" stroke="black" points="395.2,-369.46 388.85,-360.98 388.53,-371.57 395.2,-369.46"/>
<text text-anchor="middle" x="379.22" y="-418.82" font-family="Times,serif" font-size="14.00">]&#45;\uffff</text>
</g>
<!-- 5 -->
<g id="node7" class="node">
<title>5</title>
<ellipse fill="none" stroke="black" cx="608.22" cy="-433.62" rx="18" ry="18"/>
<text text-anchor="middle" x="608.22" y="-428.57" font-family="Times,serif" font-size="14.00">5</text>
</g>
<!-- 2&#45;&gt;5 -->
<g id="edge12" class="edge">
<title>2&#45;&gt;5</title>
<path fill="none" stroke="black" d="M387.96,-359.93C400.94,-385.12 429.74,-432.58 470.47,-451.62 506.28,-468.36 552.78,-456.03 581.28,-445.15"/>
<polygon fill="black" stroke="black" points="582.25,-448.54 590.21,-441.54 579.63,-442.05 582.25,-448.54"/>
<text text-anchor="middle" x="489.22" y="-462.82" font-family="Times,serif" font-size="14.00">\\</text>
</g>
<!-- 4&#45;&gt;1 -->
<g id="edge14" class="edge">
<title>4&#45;&gt;1</title>
<path fill="none" stroke="black" d="M589.85,-78.36C563.77,-78.21 513.04,-78.87 470.47,-85.12 449.08,-88.26 425.38,-94.27 407.63,-99.29"/>
<polygon fill="black" stroke="black" points="406.74,-95.91 398.11,-102.06 408.69,-102.63 406.74,-95.91"/>
<text text-anchor="middle" x="489.22" y="-88.82" font-family="Times,serif" font-size="14.00">\0&#45;[</text>
</g>
<!-- 4&#45;&gt;1 -->
<g id="edge16" class="edge">
<title>4&#45;&gt;1</title>
<path fill="none" stroke="black" d="M591.01,-72.78C565.19,-64.32 513.27,-50.74 470.47,-61.12 446.27,-66.99 421.3,-80.54 403.77,-91.51"/>
<polygon fill="black" stroke="black" points="402.14,-88.4 395.65,-96.77 405.94,-94.27 402.14,-88.4"/>
<text text-anchor="middle" x="489.22" y="-64.82" font-family="Times,serif" font-size="14.00">]&#45;\uffff</text>
</g>
<!-- 6 -->
<g id="node8" class="node">
<title>6</title>
<ellipse fill="none" stroke="black" cx="778.22" cy="-24.62" rx="18" ry="18"/>
<text text-anchor="middle" x="778.22" y="-19.57" font-family="Times,serif" font-size="14.00">6</text>
</g>
<!-- 4&#45;&gt;6 -->
<g id="edge15" class="edge">
<title>4&#45;&gt;6</title>
<path fill="none" stroke="black" d="M625.64,-73.35C654.57,-64.05 714.89,-44.66 750.1,-33.34"/>
<polygon fill="black" stroke="black" points="751.1,-36.69 759.55,-30.3 748.96,-30.03 751.1,-36.69"/>
<text text-anchor="middle" x="697.22" y="-53.82" font-family="Times,serif" font-size="14.00">\\</text>
</g>
<!-- 5&#45;&gt;2 -->
<g id="edge17" class="edge">
<title>5&#45;&gt;2</title>
<path fill="none" stroke="black" d="M590.08,-433.48C563.44,-432.7 510.96,-428.86 470.47,-411.62 443.88,-400.3 418.01,-379.49 400.83,-363.86"/>
<polygon fill="black" stroke="black" points="403.48,-361.55 393.79,-357.27 398.7,-366.66 403.48,-361.55"/>
<text text-anchor="middle" x="489.22" y="-425.82" font-family="Times,serif" font-size="14.00">\0&#45;[</text>
</g>
<!-- 5&#45;&gt;2 -->
<g id="edge19" class="edge">
<title>5&#45;&gt;2</title>
<path fill="none" stroke="black" d="M591.51,-426.61C572.02,-417.98 537.73,-403.02 507.97,-391.12 473.33,-377.27 432.9,-362.47 406.95,-353.13"/>
<polygon fill="black" stroke="black" points="408.47,-349.96 397.88,-349.88 406.11,-356.55 408.47,-349.96"/>
<text text-anchor="middle" x="489.22" y="-393.82" font-family="Times,serif" font-size="14.00">]&#45;\uffff</text>
</g>
<!-- 7 -->
<g id="node9" class="node">
<title>7</title>
<ellipse fill="none" stroke="black" cx="778.22" cy="-353.62" rx="18" ry="18"/>
<text text-anchor="middle" x="778.22" y="-348.57" font-family="Times,serif" font-size="14.00">7</text>
</g>
<!-- 5&#45;&gt;7 -->
<g id="edge18" class="edge">
<title>5&#45;&gt;7</title>
<path fill="none" stroke="black" d="M625.33,-427.29C643.81,-419.92 674.92,-407.13 700.97,-394.62 718.31,-386.3 737.36,-376.05 752.09,-367.89"/>
<polygon fill="black" stroke="black" points="753.62,-371.04 760.63,-363.1 750.2,-364.93 753.62,-371.04"/>
<text text-anchor="middle" x="697.22" y="-400.82" font-family="Times,serif" font-size="14.00">\\</text>
</g>
<!-- 6&#45;&gt;1 -->
<g id="edge20" class="edge">
<title>6&#45;&gt;1</title>
<path fill="none" stroke="black" d="M759.94,-23.29C712.19,-20.22 575.04,-15.59 470.47,-53.62 445.86,-62.57 420.49,-78.45 402.95,-90.67"/>
<polygon fill="black" stroke="black" points="401.39,-87.48 395.29,-96.15 405.46,-93.18 401.39,-87.48"/>
<text text-anchor="middle" x="608.22" y="-30.82" font-family="Times,serif" font-size="14.00">\0&#45;!</text>
</g>
<!-- 6&#45;&gt;1 -->
<g id="edge21" class="edge">
<title>6&#45;&gt;1</title>
<path fill="none" stroke="black" d="M760.56,-19.83C727.32,-10.91 650.41,6.5 586.22,-3.12 533.01,-11.1 518.32,-14 470.47,-38.62 444.64,-51.91 418.65,-72.76 401.24,-88.06"/>
<polygon fill="black" stroke="black" points="399.19,-85.19 394.09,-94.48 403.87,-90.4 399.19,-85.19"/>
<text text-anchor="middle" x="608.22" y="-6.82" font-family="Times,serif" font-size="14.00">#&#45;[</text>
</g>
<!-- 6&#45;&gt;1 -->
<g id="edge23" class="edge">
<title>6&#45;&gt;1</title>
<path fill="none" stroke="black" d="M762.53,-33.98C747.33,-43.55 722.8,-58.66 700.97,-70.62 670.2,-87.47 663.45,-94.37 630.22,-105.62 577.78,-123.39 563.08,-124.26 507.97,-129.62 491.38,-131.23 487.02,-131.61 470.47,-129.62 449.03,-127.05 425.33,-121.15 407.6,-116.1"/>
<polygon fill="black" stroke="black" points="408.67,-112.77 398.09,-113.31 406.7,-119.49 408.67,-112.77"/>
<text text-anchor="middle" x="608.22" y="-121.82" font-family="Times,serif" font-size="14.00">]&#45;\uffff</text>
</g>
<!-- 6&#45;&gt;6 -->
<g id="edge22" class="edge">
<title>6&#45;&gt;6</title>
<path fill="none" stroke="black" d="M765.54,-37.54C759.76,-48.76 763.98,-60.62 778.22,-60.62 787.79,-60.62 792.84,-55.27 793.36,-48.35"/>
<polygon fill="black" stroke="black" points="796.87,-47.99 791.24,-39.02 790.05,-49.54 796.87,-47.99"/>
<text text-anchor="middle" x="778.22" y="-63.82" font-family="Times,serif" font-size="14.00">\\</text>
</g>
<!-- 7&#45;&gt;2 -->
<g id="edge24" class="edge">
<title>7&#45;&gt;2</title>
<path fill="none" stroke="black" d="M759.82,-353.18C697.62,-351.62 485.98,-346.29 408.74,-344.34"/>
<polygon fill="black" stroke="black" points="409.13,-340.85 399.05,-344.1 408.96,-347.85 409.13,-340.85"/>
<text text-anchor="middle" x="608.22" y="-352.82" font-family="Times,serif" font-size="14.00">\0&#45;&amp;</text>
</g>
<!-- 7&#45;&gt;2 -->
<g id="edge25" class="edge">
<title>7&#45;&gt;2</title>
<path fill="none" stroke="black" d="M760.59,-349.77C733.47,-343.72 677.96,-332.23 630.22,-328.12 549.88,-321.2 454.76,-332.44 408.43,-339.16"/>
<polygon fill="black" stroke="black" points="408.09,-335.67 398.72,-340.61 409.12,-342.6 408.09,-335.67"/>
<text text-anchor="middle" x="608.22" y="-330.82" font-family="Times,serif" font-size="14.00">(&#45;[</text>
</g>
<!-- 7&#45;&gt;2 -->
<g id="edge27" class="edge">
<title>7&#45;&gt;2</title>
<path fill="none" stroke="black" d="M761.33,-346.5C734.81,-335.06 679.57,-313.05 630.22,-305.12 549.25,-292.11 453.38,-318.57 407.44,-333.84"/>
<polygon fill="black" stroke="black" points="406.38,-330.5 398.05,-337.05 408.64,-337.12 406.38,-330.5"/>
<text text-anchor="middle" x="608.22" y="-307.82" font-family="Times,serif" font-size="14.00">]&#45;\uffff</text>
</g>
<!-- 7&#45;&gt;7 -->
<g id="edge26" class="edge">
<title>7&#45;&gt;7</title>
<path fill="none" stroke="black" d="M765.54,-366.54C759.76,-377.76 763.98,-389.62 778.22,-389.62 787.79,-389.62 792.84,-384.27 793.36,-377.35"/>
<polygon fill="black" stroke="black" points="796.87,-376.99 791.24,-368.02 790.05,-378.54 796.87,-376.99"/>
<text text-anchor="middle" x="778.22" y="-392.82" font-family="Times,serif" font-size="14.00">\\</text>
</g>
</g>
</svg>
