<?xml version="1.0" encoding="UTF-8" standalone="no"?>
<!DOCTYPE svg PUBLIC "-//W3C//DTD SVG 1.1//EN"
 "http://www.w3.org/Graphics/SVG/1.1/DTD/svg11.dtd">
<!-- Generated by graphviz version 8.1.0 (20230707.0739)
 -->
<!-- Title: finite_state_machine Pages: 1 -->
<svg width="451pt" height="257pt"
 viewBox="0.00 0.00 450.50 256.62" xmlns="http://www.w3.org/2000/svg" xmlns:xlink="http://www.w3.org/1999/xlink">
<g id="graph0" class="graph" transform="scale(1 1) rotate(0) translate(4 252.62)">
<title>finite_state_machine</title>
<!-- &#45;1 -->
<!-- 0 -->
<g id="node3" class="node">
<title>0</title>
<ellipse fill="none" stroke="black" cx="108.5" cy="-124.31" rx="18" ry="18"/>
<text text-anchor="middle" x="108.5" y="-119.26" font-family="Times,serif" font-size="14.00">0</text>
</g>
<!-- &#45;1&#45;&gt;0 -->
<g id="edge1" class="edge">
<title>&#45;1&#45;&gt;0</title>
<path fill="none" stroke="black" d="M53.69,-124.31C61.97,-124.31 71.13,-124.31 79.52,-124.31"/>
<polygon fill="black" stroke="black" points="79.33,-127.81 89.33,-124.31 79.33,-120.81 79.33,-127.81"/>
</g>
<!-- 4 -->
<g id="node2" class="node">
<title>4</title>
<ellipse fill="none" stroke="black" cx="420.5" cy="-124.31" rx="18" ry="18"/>
<ellipse fill="none" stroke="black" cx="420.5" cy="-124.31" rx="22" ry="22"/>
<text text-anchor="middle" x="420.5" y="-119.26" font-family="Times,serif" font-size="14.00">4</text>
</g>
<!-- 1 -->
<g id="node4" class="node">
<title>1</title>
<ellipse fill="none" stroke="black" cx="184.5" cy="-124.31" rx="18" ry="18"/>
<text text-anchor="middle" x="184.5" y="-119.26" font-family="Times,serif" font-size="14.00">1</text>
</g>
<!-- 0&#45;&gt;1 -->
<g id="edge2" class="edge">
<title>0&#45;&gt;1</title>
<path fill="none" stroke="black" d="M126.66,-124.31C135.19,-124.31 145.72,-124.31 155.39,-124.31"/>
<polygon fill="black" stroke="black" points="155.17,-127.81 165.17,-124.31 155.17,-120.81 155.17,-127.81"/>
<text text-anchor="middle" x="146.5" y="-127.51" font-family="Times,serif" font-size="14.00">t</text>
</g>
<!-- 2 -->
<g id="node5" class="node">
<title>2</title>
<ellipse fill="none" stroke="black" cx="263.5" cy="-124.31" rx="18" ry="18"/>
<text text-anchor="middle" x="263.5" y="-119.26" font-family="Times,serif" font-size="14.00">2</text>
</g>
<!-- 1&#45;&gt;2 -->
<g id="edge3" class="edge">
<title>1&#45;&gt;2</title>
<path fill="none" stroke="black" d="M202.97,-124.31C212.23,-124.31 223.82,-124.31 234.31,-124.31"/>
<polygon fill="black" stroke="black" points="234.1,-127.81 244.1,-124.31 234.1,-120.81 234.1,-127.81"/>
<text text-anchor="middle" x="224.5" y="-127.51" font-family="Times,serif" font-size="14.00">h</text>
</g>
<!-- 3 -->
<g id="node6" class="node">
<title>3</title>
<ellipse fill="none" stroke="black" cx="339.5" cy="-124.31" rx="18" ry="18"/>
<text text-anchor="middle" x="339.5" y="-119.26" font-family="Times,serif" font-size="14.00">3</text>
</g>
<!-- 2&#45;&gt;3 -->
<g id="edge4" class="edge">
<title>2&#45;&gt;3</title>
<path fill="none" stroke="black" d="M281.66,-124.31C290.19,-124.31 300.72,-124.31 310.39,-124.31"/>
<polygon fill="black" stroke="black" points="310.17,-127.81 320.17,-124.31 310.17,-120.81 310.17,-127.81"/>
<text text-anchor="middle" x="301.5" y="-127.51" font-family="Times,serif" font-size="14.00">i</text>
</g>
<!-- 3&#45;&gt;4 -->
<g id="edge5" class="edge">
<title>3&#45;&gt;4</title>
<path fill="none" stroke="black" d="M357.64,-124.31C366.28,-124.31 377.05,-124.31 387.16,-124.31"/>
<polygon fill="black" stroke="black" points="387.16,-127.81 397.16,-124.31 387.16,-120.81 387.16,-127.81"/>
<text text-anchor="middle" x="377.5" y="-127.51" font-family="Times,serif" font-size="14.00">s</text>
</g>
</g>
</svg>
