<?xml version="1.0" encoding="UTF-8" standalone="no"?>
<!DOCTYPE svg PUBLIC "-//W3C//DTD SVG 1.1//EN"
 "http://www.w3.org/Graphics/SVG/1.1/DTD/svg11.dtd">
<!-- Generated by graphviz version 9.0.0 (20230911.1827)
 -->
<!-- Title: finite_state_machine Pages: 1 -->
<svg width="535pt" height="304pt"
 viewBox="0.00 0.00 534.50 303.88" xmlns="http://www.w3.org/2000/svg" xmlns:xlink="http://www.w3.org/1999/xlink">
<g id="graph0" class="graph" transform="scale(1 1) rotate(0) translate(4 299.88)">
<title>finite_state_machine</title>
<!-- &#45;1 -->
<!-- 0 -->
<g id="node3" class="node">
<title>0</title>
<ellipse fill="none" stroke="black" cx="108.5" cy="-147.94" rx="18" ry="18"/>
<text text-anchor="middle" x="108.5" y="-142.89" font-family="Times,serif" font-size="14.00">0</text>
</g>
<!-- &#45;1&#45;&gt;0 -->
<g id="edge1" class="edge">
<title>&#45;1&#45;&gt;0</title>
<path fill="none" stroke="black" d="M53.69,-147.94C61.78,-147.94 70.72,-147.94 78.95,-147.94"/>
<polygon fill="black" stroke="black" points="78.81,-151.44 88.81,-147.94 78.81,-144.44 78.81,-151.44"/>
</g>
<!-- 5 -->
<g id="node2" class="node">
<title>5</title>
<ellipse fill="none" stroke="black" cx="504.5" cy="-147.94" rx="18" ry="18"/>
<ellipse fill="none" stroke="black" cx="504.5" cy="-147.94" rx="22" ry="22"/>
<text text-anchor="middle" x="504.5" y="-142.89" font-family="Times,serif" font-size="14.00">5</text>
</g>
<!-- 1 -->
<g id="node4" class="node">
<title>1</title>
<ellipse fill="none" stroke="black" cx="184.5" cy="-147.94" rx="18" ry="18"/>
<text text-anchor="middle" x="184.5" y="-142.89" font-family="Times,serif" font-size="14.00">1</text>
</g>
<!-- 0&#45;&gt;1 -->
<g id="edge2" class="edge">
<title>0&#45;&gt;1</title>
<path fill="none" stroke="black" d="M126.66,-147.94C135.01,-147.94 145.27,-147.94 154.76,-147.94"/>
<polygon fill="black" stroke="black" points="154.66,-151.44 164.66,-147.94 154.66,-144.44 154.66,-151.44"/>
<text text-anchor="middle" x="146.5" y="-151.14" font-family="Times,serif" font-size="14.00">t</text>
</g>
<!-- 2 -->
<g id="node5" class="node">
<title>2</title>
<ellipse fill="none" stroke="black" cx="263.5" cy="-147.94" rx="18" ry="18"/>
<text text-anchor="middle" x="263.5" y="-142.89" font-family="Times,serif" font-size="14.00">2</text>
</g>
<!-- 1&#45;&gt;2 -->
<g id="edge3" class="edge">
<title>1&#45;&gt;2</title>
<path fill="none" stroke="black" d="M202.97,-147.94C212.03,-147.94 223.33,-147.94 233.64,-147.94"/>
<polygon fill="black" stroke="black" points="233.58,-151.44 243.58,-147.94 233.58,-144.44 233.58,-151.44"/>
<text text-anchor="middle" x="224.5" y="-151.14" font-family="Times,serif" font-size="14.00">h</text>
</g>
<!-- 3 -->
<g id="node6" class="node">
<title>3</title>
<ellipse fill="none" stroke="black" cx="339.5" cy="-147.94" rx="18" ry="18"/>
<text text-anchor="middle" x="339.5" y="-142.89" font-family="Times,serif" font-size="14.00">3</text>
</g>
<!-- 2&#45;&gt;3 -->
<g id="edge4" class="edge">
<title>2&#45;&gt;3</title>
<path fill="none" stroke="black" d="M281.66,-147.94C290.01,-147.94 300.27,-147.94 309.76,-147.94"/>
<polygon fill="black" stroke="black" points="309.66,-151.44 319.66,-147.94 309.66,-144.44 309.66,-151.44"/>
<text text-anchor="middle" x="301.5" y="-151.14" font-family="Times,serif" font-size="14.00">r</text>
</g>
<!-- 4 -->
<g id="node7" class="node">
<title>4</title>
<ellipse fill="none" stroke="black" cx="418.5" cy="-147.94" rx="18" ry="18"/>
<text text-anchor="middle" x="418.5" y="-142.89" font-family="Times,serif" font-size="14.00">4</text>
</g>
<!-- 3&#45;&gt;4 -->
<g id="edge5" class="edge">
<title>3&#45;&gt;4</title>
<path fill="none" stroke="black" d="M357.97,-147.94C367.03,-147.94 378.33,-147.94 388.64,-147.94"/>
<polygon fill="black" stroke="black" points="388.58,-151.44 398.58,-147.94 388.58,-144.44 388.58,-151.44"/>
<text text-anchor="middle" x="379.5" y="-151.14" font-family="Times,serif" font-size="14.00">o</text>
</g>
<!-- 4&#45;&gt;5 -->
<g id="edge6" class="edge">
<title>4&#45;&gt;5</title>
<path fill="none" stroke="black" d="M436.9,-147.94C446.78,-147.94 459.46,-147.94 471.09,-147.94"/>
<polygon fill="black" stroke="black" points="470.73,-151.44 480.73,-147.94 470.73,-144.44 470.73,-151.44"/>
<text text-anchor="middle" x="459.5" y="-151.14" font-family="Times,serif" font-size="14.00">w</text>
</g>
</g>
</svg>
