<?xml version="1.0" encoding="UTF-8" standalone="no"?>
<!DOCTYPE svg PUBLIC "-//W3C//DTD SVG 1.1//EN"
 "http://www.w3.org/Graphics/SVG/1.1/DTD/svg11.dtd">
<!-- Generated by graphviz version 8.1.0 (20230707.0739)
 -->
<!-- Title: finite_state_machine Pages: 1 -->
<svg width="452pt" height="258pt"
 viewBox="0.00 0.00 452.00 257.75" xmlns="http://www.w3.org/2000/svg" xmlns:xlink="http://www.w3.org/1999/xlink">
<g id="graph0" class="graph" transform="scale(1 1) rotate(0) translate(4 253.75)">
<title>finite_state_machine</title>
<!-- &#45;1 -->
<!-- 0 -->
<g id="node3" class="node">
<title>0</title>
<ellipse fill="none" stroke="black" cx="109" cy="-124.88" rx="18" ry="18"/>
<text text-anchor="middle" x="109" y="-119.83" font-family="Times,serif" font-size="14.00">0</text>
</g>
<!-- &#45;1&#45;&gt;0 -->
<g id="edge1" class="edge">
<title>&#45;1&#45;&gt;0</title>
<path fill="none" stroke="black" d="M54.19,-124.88C62.47,-124.88 71.63,-124.88 80.02,-124.88"/>
<polygon fill="black" stroke="black" points="79.83,-128.38 89.83,-124.88 79.83,-121.38 79.83,-128.38"/>
</g>
<!-- 4 -->
<g id="node2" class="node">
<title>4</title>
<ellipse fill="none" stroke="black" cx="422" cy="-124.88" rx="18" ry="18"/>
<ellipse fill="none" stroke="black" cx="422" cy="-124.88" rx="22" ry="22"/>
<text text-anchor="middle" x="422" y="-119.83" font-family="Times,serif" font-size="14.00">4</text>
</g>
<!-- 1 -->
<g id="node4" class="node">
<title>1</title>
<ellipse fill="none" stroke="black" cx="185" cy="-124.88" rx="18" ry="18"/>
<text text-anchor="middle" x="185" y="-119.83" font-family="Times,serif" font-size="14.00">1</text>
</g>
<!-- 0&#45;&gt;1 -->
<g id="edge2" class="edge">
<title>0&#45;&gt;1</title>
<path fill="none" stroke="black" d="M127.16,-124.88C135.69,-124.88 146.22,-124.88 155.89,-124.88"/>
<polygon fill="black" stroke="black" points="155.67,-128.38 165.67,-124.88 155.67,-121.38 155.67,-128.38"/>
<text text-anchor="middle" x="147" y="-128.07" font-family="Times,serif" font-size="14.00">t</text>
</g>
<!-- 2 -->
<g id="node5" class="node">
<title>2</title>
<ellipse fill="none" stroke="black" cx="261" cy="-124.88" rx="18" ry="18"/>
<text text-anchor="middle" x="261" y="-119.83" font-family="Times,serif" font-size="14.00">2</text>
</g>
<!-- 1&#45;&gt;2 -->
<g id="edge3" class="edge">
<title>1&#45;&gt;2</title>
<path fill="none" stroke="black" d="M203.16,-124.88C211.69,-124.88 222.22,-124.88 231.89,-124.88"/>
<polygon fill="black" stroke="black" points="231.67,-128.38 241.67,-124.88 231.67,-121.38 231.67,-128.38"/>
<text text-anchor="middle" x="223" y="-128.07" font-family="Times,serif" font-size="14.00">r</text>
</g>
<!-- 3 -->
<g id="node6" class="node">
<title>3</title>
<ellipse fill="none" stroke="black" cx="340" cy="-124.88" rx="18" ry="18"/>
<text text-anchor="middle" x="340" y="-119.83" font-family="Times,serif" font-size="14.00">3</text>
</g>
<!-- 2&#45;&gt;3 -->
<g id="edge4" class="edge">
<title>2&#45;&gt;3</title>
<path fill="none" stroke="black" d="M279.47,-124.88C288.73,-124.88 300.32,-124.88 310.81,-124.88"/>
<polygon fill="black" stroke="black" points="310.6,-128.38 320.6,-124.88 310.6,-121.38 310.6,-128.38"/>
<text text-anchor="middle" x="301" y="-128.07" font-family="Times,serif" font-size="14.00">u</text>
</g>
<!-- 3&#45;&gt;4 -->
<g id="edge5" class="edge">
<title>3&#45;&gt;4</title>
<path fill="none" stroke="black" d="M358.36,-124.88C367.27,-124.88 378.41,-124.88 388.82,-124.88"/>
<polygon fill="black" stroke="black" points="388.69,-128.38 398.69,-124.88 388.69,-121.38 388.69,-128.38"/>
<text text-anchor="middle" x="379" y="-128.07" font-family="Times,serif" font-size="14.00">e</text>
</g>
</g>
</svg>
