<?xml version="1.0" encoding="UTF-8" standalone="no"?>
<!DOCTYPE svg PUBLIC "-//W3C//DTD SVG 1.1//EN"
 "http://www.w3.org/Graphics/SVG/1.1/DTD/svg11.dtd">
<!-- Generated by graphviz version 8.1.0 (20230707.0739)
 -->
<!-- Title: finite_state_machine Pages: 1 -->
<svg width="533pt" height="303pt"
 viewBox="0.00 0.00 533.00 303.31" xmlns="http://www.w3.org/2000/svg" xmlns:xlink="http://www.w3.org/1999/xlink">
<g id="graph0" class="graph" transform="scale(1 1) rotate(0) translate(4 299.31)">
<title>finite_state_machine</title>
<!-- &#45;1 -->
<!-- 0 -->
<g id="node3" class="node">
<title>0</title>
<ellipse fill="none" stroke="white" cx="109" cy="-147.66" rx="18" ry="18"/>
<text text-anchor="middle" x="109" y="-142.61" font-family="Times,serif" font-size="14.00" fill="white">0</text>
</g>
<!-- &#45;1&#45;&gt;0 -->
<g id="edge1" class="edge">
<title>&#45;1&#45;&gt;0</title>
<path fill="none" stroke="white" d="M54.19,-147.66C62.47,-147.66 71.63,-147.66 80.02,-147.66"/>
<polygon fill="white" stroke="white" points="79.83,-151.16 89.83,-147.66 79.83,-144.16 79.83,-151.16"/>
</g>
<!-- 5 -->
<g id="node2" class="node">
<title>5</title>
<ellipse fill="none" stroke="white" cx="503" cy="-147.66" rx="18" ry="18"/>
<ellipse fill="none" stroke="white" cx="503" cy="-147.66" rx="22" ry="22"/>
<text text-anchor="middle" x="503" y="-142.61" font-family="Times,serif" font-size="14.00" fill="white">5</text>
</g>
<!-- 1 -->
<g id="node4" class="node">
<title>1</title>
<ellipse fill="none" stroke="white" cx="191" cy="-147.66" rx="18" ry="18"/>
<text text-anchor="middle" x="191" y="-142.61" font-family="Times,serif" font-size="14.00" fill="white">1</text>
</g>
<!-- 0&#45;&gt;1 -->
<g id="edge2" class="edge">
<title>0&#45;&gt;1</title>
<path fill="none" stroke="white" d="M127.36,-147.66C137.42,-147.66 150.34,-147.66 161.82,-147.66"/>
<polygon fill="white" stroke="white" points="161.68,-151.16 171.68,-147.66 161.68,-144.16 161.68,-151.16"/>
<text text-anchor="middle" x="150" y="-150.86" font-family="Times,serif" font-size="14.00" fill="white">w</text>
</g>
<!-- 2 -->
<g id="node5" class="node">
<title>2</title>
<ellipse fill="none" stroke="white" cx="269" cy="-147.66" rx="18" ry="18"/>
<text text-anchor="middle" x="269" y="-142.61" font-family="Times,serif" font-size="14.00" fill="white">2</text>
</g>
<!-- 1&#45;&gt;2 -->
<g id="edge3" class="edge">
<title>1&#45;&gt;2</title>
<path fill="none" stroke="white" d="M209.25,-147.66C218.22,-147.66 229.42,-147.66 239.63,-147.66"/>
<polygon fill="white" stroke="white" points="239.56,-151.16 249.56,-147.66 239.56,-144.16 239.56,-151.16"/>
<text text-anchor="middle" x="230" y="-150.86" font-family="Times,serif" font-size="14.00" fill="white">h</text>
</g>
<!-- 3 -->
<g id="node6" class="node">
<title>3</title>
<ellipse fill="none" stroke="white" cx="345" cy="-147.66" rx="18" ry="18"/>
<text text-anchor="middle" x="345" y="-142.61" font-family="Times,serif" font-size="14.00" fill="white">3</text>
</g>
<!-- 2&#45;&gt;3 -->
<g id="edge4" class="edge">
<title>2&#45;&gt;3</title>
<path fill="none" stroke="white" d="M287.16,-147.66C295.69,-147.66 306.22,-147.66 315.89,-147.66"/>
<polygon fill="white" stroke="white" points="315.67,-151.16 325.67,-147.66 315.67,-144.16 315.67,-151.16"/>
<text text-anchor="middle" x="307" y="-150.86" font-family="Times,serif" font-size="14.00" fill="white">i</text>
</g>
<!-- 4 -->
<g id="node7" class="node">
<title>4</title>
<ellipse fill="none" stroke="white" cx="421" cy="-147.66" rx="18" ry="18"/>
<text text-anchor="middle" x="421" y="-142.61" font-family="Times,serif" font-size="14.00" fill="white">4</text>
</g>
<!-- 3&#45;&gt;4 -->
<g id="edge5" class="edge">
<title>3&#45;&gt;4</title>
<path fill="none" stroke="white" d="M363.16,-147.66C371.69,-147.66 382.22,-147.66 391.89,-147.66"/>
<polygon fill="white" stroke="white" points="391.67,-151.16 401.67,-147.66 391.67,-144.16 391.67,-151.16"/>
<text text-anchor="middle" x="383" y="-150.86" font-family="Times,serif" font-size="14.00" fill="white">l</text>
</g>
<!-- 4&#45;&gt;5 -->
<g id="edge6" class="edge">
<title>4&#45;&gt;5</title>
<path fill="none" stroke="white" d="M439.36,-147.66C448.27,-147.66 459.41,-147.66 469.82,-147.66"/>
<polygon fill="white" stroke="white" points="469.69,-151.16 479.69,-147.66 469.69,-144.16 469.69,-151.16"/>
<text text-anchor="middle" x="460" y="-150.86" font-family="Times,serif" font-size="14.00" fill="white">e</text>
</g>
</g>
</svg>
