<?xml version="1.0" encoding="UTF-8" standalone="no"?>
<!DOCTYPE svg PUBLIC "-//W3C//DTD SVG 1.1//EN"
 "http://www.w3.org/Graphics/SVG/1.1/DTD/svg11.dtd">
<!-- Generated by graphviz version 8.1.0 (20230707.0739)
 -->
<!-- Title: finite_state_machine Pages: 1 -->
<svg width="530pt" height="302pt"
 viewBox="0.00 0.00 530.00 301.62" xmlns="http://www.w3.org/2000/svg" xmlns:xlink="http://www.w3.org/1999/xlink">
<g id="graph0" class="graph" transform="scale(1 1) rotate(0) translate(4 297.62)">
<title>finite_state_machine</title>
<!-- &#45;1 -->
<!-- 0 -->
<g id="node3" class="node">
<title>0</title>
<ellipse fill="none" stroke="black" cx="109" cy="-146.81" rx="18" ry="18"/>
<text text-anchor="middle" x="109" y="-141.76" font-family="Times,serif" font-size="14.00">0</text>
</g>
<!-- &#45;1&#45;&gt;0 -->
<g id="edge1" class="edge">
<title>&#45;1&#45;&gt;0</title>
<path fill="none" stroke="black" d="M54.19,-146.81C62.47,-146.81 71.63,-146.81 80.02,-146.81"/>
<polygon fill="black" stroke="black" points="79.83,-150.31 89.83,-146.81 79.83,-143.31 79.83,-150.31"/>
</g>
<!-- 5 -->
<g id="node2" class="node">
<title>5</title>
<ellipse fill="none" stroke="black" cx="500" cy="-146.81" rx="18" ry="18"/>
<ellipse fill="none" stroke="black" cx="500" cy="-146.81" rx="22" ry="22"/>
<text text-anchor="middle" x="500" y="-141.76" font-family="Times,serif" font-size="14.00">5</text>
</g>
<!-- 1 -->
<g id="node4" class="node">
<title>1</title>
<ellipse fill="none" stroke="black" cx="188" cy="-146.81" rx="18" ry="18"/>
<text text-anchor="middle" x="188" y="-141.76" font-family="Times,serif" font-size="14.00">1</text>
</g>
<!-- 0&#45;&gt;1 -->
<g id="edge2" class="edge">
<title>0&#45;&gt;1</title>
<path fill="none" stroke="black" d="M127.47,-146.81C136.73,-146.81 148.32,-146.81 158.81,-146.81"/>
<polygon fill="black" stroke="black" points="158.6,-150.31 168.6,-146.81 158.6,-143.31 158.6,-150.31"/>
<text text-anchor="middle" x="148" y="-150.01" font-family="Times,serif" font-size="14.00">y</text>
</g>
<!-- 2 -->
<g id="node5" class="node">
<title>2</title>
<ellipse fill="none" stroke="black" cx="263" cy="-146.81" rx="18" ry="18"/>
<text text-anchor="middle" x="263" y="-141.76" font-family="Times,serif" font-size="14.00">2</text>
</g>
<!-- 1&#45;&gt;2 -->
<g id="edge3" class="edge">
<title>1&#45;&gt;2</title>
<path fill="none" stroke="black" d="M206.3,-146.81C214.51,-146.81 224.54,-146.81 233.81,-146.81"/>
<polygon fill="black" stroke="black" points="233.57,-150.31 243.57,-146.81 233.57,-143.31 233.57,-150.31"/>
<text text-anchor="middle" x="226" y="-150.01" font-family="Times,serif" font-size="14.00">i</text>
</g>
<!-- 3 -->
<g id="node6" class="node">
<title>3</title>
<ellipse fill="none" stroke="black" cx="341" cy="-146.81" rx="18" ry="18"/>
<text text-anchor="middle" x="341" y="-141.76" font-family="Times,serif" font-size="14.00">3</text>
</g>
<!-- 2&#45;&gt;3 -->
<g id="edge4" class="edge">
<title>2&#45;&gt;3</title>
<path fill="none" stroke="black" d="M281.25,-146.81C290.22,-146.81 301.42,-146.81 311.63,-146.81"/>
<polygon fill="black" stroke="black" points="311.56,-150.31 321.56,-146.81 311.56,-143.31 311.56,-150.31"/>
<text text-anchor="middle" x="302" y="-150.01" font-family="Times,serif" font-size="14.00">e</text>
</g>
<!-- 4 -->
<g id="node7" class="node">
<title>4</title>
<ellipse fill="none" stroke="black" cx="417" cy="-146.81" rx="18" ry="18"/>
<text text-anchor="middle" x="417" y="-141.76" font-family="Times,serif" font-size="14.00">4</text>
</g>
<!-- 3&#45;&gt;4 -->
<g id="edge5" class="edge">
<title>3&#45;&gt;4</title>
<path fill="none" stroke="black" d="M359.16,-146.81C367.69,-146.81 378.22,-146.81 387.89,-146.81"/>
<polygon fill="black" stroke="black" points="387.67,-150.31 397.67,-146.81 387.67,-143.31 387.67,-150.31"/>
<text text-anchor="middle" x="379" y="-150.01" font-family="Times,serif" font-size="14.00">l</text>
</g>
<!-- 4&#45;&gt;5 -->
<g id="edge6" class="edge">
<title>4&#45;&gt;5</title>
<path fill="none" stroke="black" d="M435.18,-146.81C444.35,-146.81 455.93,-146.81 466.71,-146.81"/>
<polygon fill="black" stroke="black" points="466.51,-150.31 476.51,-146.81 466.51,-143.31 466.51,-150.31"/>
<text text-anchor="middle" x="457" y="-150.01" font-family="Times,serif" font-size="14.00">d</text>
</g>
</g>
</svg>
