<?xml version="1.0" encoding="UTF-8" standalone="no"?>
<!DOCTYPE svg PUBLIC "-//W3C//DTD SVG 1.1//EN"
 "http://www.w3.org/Graphics/SVG/1.1/DTD/svg11.dtd">
<!-- Generated by graphviz version 8.1.0 (20230707.0739)
 -->
<!-- Title: finite_state_machine Pages: 1 -->
<svg width="1526pt" height="1296pt"
 viewBox="0.00 0.00 1526.22 1295.50" xmlns="http://www.w3.org/2000/svg" xmlns:xlink="http://www.w3.org/1999/xlink">
<g id="graph0" class="graph" transform="scale(1 1) rotate(0) translate(4 1291.5)">
<title>finite_state_machine</title>
<!-- &#45;1 -->
<!-- 0 -->
<g id="node3" class="node">
<title>0</title>
<ellipse fill="none" stroke="white" cx="193.22" cy="-679" rx="18" ry="18"/>
<text text-anchor="middle" x="193.22" y="-673.95" font-family="Times,serif" font-size="14.00" fill="white">0</text>
</g>
<!-- &#45;1&#45;&gt;0 -->
<g id="edge1" class="edge">
<title>&#45;1&#45;&gt;0</title>
<path fill="none" stroke="white" d="M75.45,-679C100.62,-679 138.51,-679 164.25,-679"/>
<polygon fill="white" stroke="white" points="164.13,-682.5 174.13,-679 164.13,-675.5 164.13,-682.5"/>
</g>
<!-- 6 -->
<g id="node2" class="node">
<title>6</title>
<ellipse fill="none" stroke="white" cx="1200.22" cy="-749" rx="18" ry="18"/>
<ellipse fill="none" stroke="white" cx="1200.22" cy="-749" rx="22" ry="22"/>
<text text-anchor="middle" x="1200.22" y="-743.95" font-family="Times,serif" font-size="14.00" fill="white">6</text>
</g>
<!-- 1 -->
<g id="node4" class="node">
<title>1</title>
<ellipse fill="none" stroke="white" cx="331.22" cy="-679" rx="18" ry="18"/>
<text text-anchor="middle" x="331.22" y="-673.95" font-family="Times,serif" font-size="14.00" fill="white">1</text>
</g>
<!-- 0&#45;&gt;1 -->
<g id="edge2" class="edge">
<title>0&#45;&gt;1</title>
<path fill="none" stroke="white" d="M211.45,-679C234.34,-679 275.06,-679 302.35,-679"/>
<polygon fill="white" stroke="white" points="302.14,-682.5 312.14,-679 302.14,-675.5 302.14,-682.5"/>
<text text-anchor="middle" x="262.22" y="-682.2" font-family="Times,serif" font-size="14.00" fill="white">&quot;</text>
</g>
<!-- 2 -->
<g id="node5" class="node">
<title>2</title>
<ellipse fill="none" stroke="white" cx="469.22" cy="-679" rx="18" ry="18"/>
<text text-anchor="middle" x="469.22" y="-673.95" font-family="Times,serif" font-size="14.00" fill="white">2</text>
</g>
<!-- 1&#45;&gt;2 -->
<g id="edge3" class="edge">
<title>1&#45;&gt;2</title>
<path fill="none" stroke="white" d="M349.45,-679C372.34,-679 413.06,-679 440.35,-679"/>
<polygon fill="white" stroke="white" points="440.14,-682.5 450.14,-679 440.14,-675.5 440.14,-682.5"/>
<text text-anchor="middle" x="400.22" y="-682.2" font-family="Times,serif" font-size="14.00" fill="white">&quot;</text>
</g>
<!-- 3 -->
<g id="node6" class="node">
<title>3</title>
<ellipse fill="none" stroke="white" cx="607.22" cy="-679" rx="18" ry="18"/>
<text text-anchor="middle" x="607.22" y="-673.95" font-family="Times,serif" font-size="14.00" fill="white">3</text>
</g>
<!-- 2&#45;&gt;3 -->
<g id="edge4" class="edge">
<title>2&#45;&gt;3</title>
<path fill="none" stroke="white" d="M487.45,-679C510.34,-679 551.06,-679 578.35,-679"/>
<polygon fill="white" stroke="white" points="578.14,-682.5 588.14,-679 578.14,-675.5 578.14,-682.5"/>
<text text-anchor="middle" x="538.22" y="-682.2" font-family="Times,serif" font-size="14.00" fill="white">&quot;</text>
</g>
<!-- 3&#45;&gt;3 -->
<g id="edge6" class="edge">
<title>3&#45;&gt;3</title>
<path fill="none" stroke="white" d="M605.14,-697.15C604.82,-706.54 605.52,-715 607.22,-715 608.21,-715 608.86,-712.17 609.17,-707.97"/>
<polygon fill="white" stroke="white" points="612.68,-708.2 609.3,-698.15 605.68,-708.11 612.68,-708.2"/>
<text text-anchor="middle" x="607.22" y="-718.2" font-family="Times,serif" font-size="14.00" fill="white">\t</text>
</g>
<!-- 3&#45;&gt;3 -->
<g id="edge7" class="edge">
<title>3&#45;&gt;3</title>
<path fill="none" stroke="white" d="M603.76,-696.98C601.91,-714.2 603.07,-733 607.22,-733 610.5,-733 611.91,-721.29 611.45,-707.9"/>
<polygon fill="white" stroke="white" points="614.87,-707.71 610.68,-697.98 607.89,-708.2 614.87,-707.71"/>
<text text-anchor="middle" x="607.22" y="-736.2" font-family="Times,serif" font-size="14.00" fill="white">\n</text>
</g>
<!-- 3&#45;&gt;3 -->
<g id="edge8" class="edge">
<title>3&#45;&gt;3</title>
<path fill="none" stroke="white" d="M602.92,-696.72C598.98,-721.11 600.42,-751 607.22,-751 613.04,-751 614.94,-729.13 612.9,-707.53"/>
<polygon fill="white" stroke="white" points="616.26,-707.2 611.53,-697.72 609.31,-708.08 616.26,-707.2"/>
<text text-anchor="middle" x="607.22" y="-754.2" font-family="Times,serif" font-size="14.00" fill="white">\r</text>
</g>
<!-- 3&#45;&gt;3 -->
<g id="edge9" class="edge">
<title>3&#45;&gt;3</title>
<path fill="none" stroke="white" d="M602.31,-696.67C596.06,-727.85 597.7,-769 607.22,-769 615.7,-769 617.93,-736.36 613.9,-707.19"/>
<polygon fill="white" stroke="white" points="617.24,-706.95 612.13,-697.67 610.34,-708.11 617.24,-706.95"/>
<text text-anchor="middle" x="607.22" y="-772.2" font-family="Times,serif" font-size="14.00" fill="white">SP&#45;!</text>
</g>
<!-- 3&#45;&gt;3 -->
<g id="edge10" class="edge">
<title>3&#45;&gt;3</title>
<path fill="none" stroke="white" d="M601.89,-696.54C593.15,-734.31 594.92,-787 607.22,-787 618.41,-787 620.89,-743.35 614.66,-707.03"/>
<polygon fill="white" stroke="white" points="617.95,-706.66 612.55,-697.54 611.09,-708.03 617.95,-706.66"/>
<text text-anchor="middle" x="607.22" y="-790.2" font-family="Times,serif" font-size="14.00" fill="white">#&#45;[</text>
</g>
<!-- 3&#45;&gt;3 -->
<g id="edge12" class="edge">
<title>3&#45;&gt;3</title>
<path fill="none" stroke="white" d="M601.56,-696.47C590.24,-740.69 592.13,-805 607.22,-805 621.14,-805 623.83,-750.34 615.29,-707.16"/>
<polygon fill="white" stroke="white" points="618.5,-706.46 612.88,-697.47 611.67,-708 618.5,-706.46"/>
<text text-anchor="middle" x="607.22" y="-808.2" font-family="Times,serif" font-size="14.00" fill="white">]&#45;\uffff</text>
</g>
<!-- 4 -->
<g id="node7" class="node">
<title>4</title>
<ellipse fill="none" stroke="white" cx="802.22" cy="-920" rx="18" ry="18"/>
<text text-anchor="middle" x="802.22" y="-914.95" font-family="Times,serif" font-size="14.00" fill="white">4</text>
</g>
<!-- 3&#45;&gt;4 -->
<g id="edge5" class="edge">
<title>3&#45;&gt;4</title>
<path fill="none" stroke="white" d="M609.46,-696.92C614.28,-760.98 634.16,-977.06 685.47,-1018 723.55,-1048.37 767.03,-983.69 788.23,-945.46"/>
<polygon fill="white" stroke="white" points="791.7,-947.4 793.36,-936.93 785.54,-944.08 791.7,-947.4"/>
<text text-anchor="middle" x="704.22" y="-1028.2" font-family="Times,serif" font-size="14.00" fill="white">&quot;</text>
</g>
<!-- 7 -->
<g id="node8" class="node">
<title>7</title>
<ellipse fill="none" stroke="white" cx="1200.22" cy="-924" rx="18" ry="18"/>
<text text-anchor="middle" x="1200.22" y="-918.95" font-family="Times,serif" font-size="14.00" fill="white">7</text>
</g>
<!-- 3&#45;&gt;7 -->
<g id="edge11" class="edge">
<title>3&#45;&gt;7</title>
<path fill="none" stroke="white" d="M608.77,-697.26C611.33,-769.36 624.8,-1032.83 685.47,-1083 690.12,-1086.85 1050.52,-1100.47 1114.97,-1062 1156.12,-1037.44 1179.85,-984.28 1191.1,-951.57"/>
<polygon fill="white" stroke="white" points="1194.66,-952.93 1194.44,-942.34 1188.01,-950.76 1194.66,-952.93"/>
<text text-anchor="middle" x="900.22" y="-1091.2" font-family="Times,serif" font-size="14.00" fill="white">\\</text>
</g>
<!-- 4&#45;&gt;3 -->
<g id="edge14" class="edge">
<title>4&#45;&gt;3</title>
<path fill="none" stroke="white" d="M789.87,-933.64C768.14,-958.11 719.77,-1004.56 685.47,-978 642.5,-944.72 619.14,-776.57 611.28,-708.09"/>
<polygon fill="white" stroke="white" points="614.66,-707.8 610.07,-698.25 607.7,-708.58 614.66,-707.8"/>
<text text-anchor="middle" x="704.22" y="-988.2" font-family="Times,serif" font-size="14.00" fill="white">\t</text>
</g>
<!-- 4&#45;&gt;3 -->
<g id="edge15" class="edge">
<title>4&#45;&gt;3</title>
<path fill="none" stroke="white" d="M786.02,-928.78C762.15,-941.28 715.48,-960.36 685.47,-938 648.09,-910.14 622.2,-769.5 612.48,-707.94"/>
<polygon fill="white" stroke="white" points="615.79,-707.42 610.81,-698.07 608.87,-708.49 615.79,-707.42"/>
<text text-anchor="middle" x="704.22" y="-951.2" font-family="Times,serif" font-size="14.00" fill="white">\n</text>
</g>
<!-- 4&#45;&gt;3 -->
<g id="edge16" class="edge">
<title>4&#45;&gt;3</title>
<path fill="none" stroke="white" d="M784.06,-921.68C759.28,-923.12 713.4,-921.99 685.47,-898 628.54,-849.09 613.56,-755.52 609.62,-708.09"/>
<polygon fill="white" stroke="white" points="613.06,-708.08 608.86,-698.35 606.08,-708.58 613.06,-708.08"/>
<text text-anchor="middle" x="704.22" y="-919.2" font-family="Times,serif" font-size="14.00" fill="white">\r</text>
</g>
<!-- 4&#45;&gt;3 -->
<g id="edge17" class="edge">
<title>4&#45;&gt;3</title>
<path fill="none" stroke="white" d="M785.97,-911.61C770.23,-902.98 744.95,-889.18 722.97,-877.5 706.38,-868.68 698.27,-871.75 685.47,-858 644.66,-814.13 623.35,-745.34 614.09,-707.07"/>
<polygon fill="white" stroke="white" points="617.35,-706.64 611.69,-697.68 610.53,-708.21 617.35,-706.64"/>
<text text-anchor="middle" x="704.22" y="-880.2" font-family="Times,serif" font-size="14.00" fill="white">SP&#45;!</text>
</g>
<!-- 4&#45;&gt;3 -->
<g id="edge18" class="edge">
<title>4&#45;&gt;3</title>
<path fill="none" stroke="white" d="M790.48,-906.09C776.39,-888.5 750.25,-858.05 722.97,-837.5 707.97,-826.2 698.94,-831.1 685.47,-818 652.37,-785.8 629.54,-736.33 617.7,-705.91"/>
<polygon fill="white" stroke="white" points="620.77,-705.13 613.97,-697.01 614.22,-707.6 620.77,-705.13"/>
<text text-anchor="middle" x="704.22" y="-841.2" font-family="Times,serif" font-size="14.00" fill="white">#&#45;[</text>
</g>
<!-- 4&#45;&gt;3 -->
<g id="edge20" class="edge">
<title>4&#45;&gt;3</title>
<path fill="none" stroke="white" d="M792.6,-904.38C776.29,-875.22 740.94,-813.94 722.97,-797.5 709.11,-784.82 699.91,-790.01 685.47,-778 659.75,-756.6 637.1,-725.27 623.09,-703.61"/>
<polygon fill="white" stroke="white" points="625.58,-702 617.28,-695.41 619.66,-705.74 625.58,-702"/>
<text text-anchor="middle" x="704.22" y="-801.2" font-family="Times,serif" font-size="14.00" fill="white">]&#45;\uffff</text>
</g>
<!-- 4&#45;&gt;7 -->
<g id="edge19" class="edge">
<title>4&#45;&gt;7</title>
<path fill="none" stroke="white" d="M820.26,-922.81C836.07,-925.27 860.29,-928.65 881.47,-930 988.4,-936.8 1115.94,-929.83 1171.29,-926.07"/>
<polygon fill="white" stroke="white" points="1171.25,-929.51 1180.98,-925.32 1170.76,-922.53 1171.25,-929.51"/>
<text text-anchor="middle" x="998.22" y="-935.2" font-family="Times,serif" font-size="14.00" fill="white">\\</text>
</g>
<!-- 5 -->
<g id="node9" class="node">
<title>5</title>
<ellipse fill="none" stroke="white" cx="998.22" cy="-749" rx="18" ry="18"/>
<text text-anchor="middle" x="998.22" y="-743.95" font-family="Times,serif" font-size="14.00" fill="white">5</text>
</g>
<!-- 4&#45;&gt;5 -->
<g id="edge13" class="edge">
<title>4&#45;&gt;5</title>
<path fill="none" stroke="white" d="M820.36,-919.85C844.71,-918.79 889.59,-913.63 918.97,-891 956.84,-861.83 978.9,-808.88 989.46,-776.53"/>
<polygon fill="white" stroke="white" points="992.98,-778.01 992.61,-767.42 986.3,-775.93 992.98,-778.01"/>
<text text-anchor="middle" x="900.22" y="-912.2" font-family="Times,serif" font-size="14.00" fill="white">&quot;</text>
</g>
<!-- 7&#45;&gt;3 -->
<g id="edge30" class="edge">
<title>7&#45;&gt;3</title>
<path fill="none" stroke="white" d="M1183.28,-931.21C1105.47,-965.9 766,-1111.34 685.47,-1046 632.7,-1003.18 614.63,-786.2 609.75,-707.53"/>
<polygon fill="white" stroke="white" points="613.21,-707.74 609.13,-697.97 606.23,-708.16 613.21,-707.74"/>
<text text-anchor="middle" x="900.22" y="-1043.2" font-family="Times,serif" font-size="14.00" fill="white">\t</text>
</g>
<!-- 7&#45;&gt;3 -->
<g id="edge31" class="edge">
<title>7&#45;&gt;3</title>
<path fill="none" stroke="white" d="M1181.89,-921.81C1123.53,-913.97 929.62,-884.27 783.47,-819 771.49,-813.65 695.69,-761.24 685.47,-753 664.54,-736.13 642.58,-714.68 627.44,-699.22"/>
<polygon fill="white" stroke="white" points="630.67,-697.48 621.2,-692.74 625.64,-702.35 630.67,-697.48"/>
<text text-anchor="middle" x="900.22" y="-869.2" font-family="Times,serif" font-size="14.00" fill="white">\n</text>
</g>
<!-- 7&#45;&gt;3 -->
<g id="edge32" class="edge">
<title>7&#45;&gt;3</title>
<path fill="none" stroke="white" d="M1194.96,-906.34C1185.77,-871.54 1161.11,-793.31 1114.97,-745 1046.93,-673.76 1013.75,-668.35 918.97,-641.5 819.12,-613.22 785.78,-614.41 685.47,-641 666.69,-645.98 647.06,-655.7 632.29,-664.06"/>
<polygon fill="white" stroke="white" points="630.77,-661.49 623.91,-669.56 634.31,-667.52 630.77,-661.49"/>
<text text-anchor="middle" x="900.22" y="-645.2" font-family="Times,serif" font-size="14.00" fill="white">\r</text>
</g>
<!-- 7&#45;&gt;3 -->
<g id="edge33" class="edge">
<title>7&#45;&gt;3</title>
<path fill="none" stroke="white" d="M1199.76,-942.36C1200.06,-991.08 1193.34,-1123.92 1114.97,-1182 961.61,-1295.66 829.06,-1307.78 685.47,-1182 613.87,-1119.27 608.07,-805.74 608.03,-708.09"/>
<polygon fill="white" stroke="white" points="611.54,-708.29 608.05,-698.28 604.54,-708.27 611.54,-708.29"/>
<text text-anchor="middle" x="900.22" y="-1274.2" font-family="Times,serif" font-size="14.00" fill="white">SP&#45;!</text>
</g>
<!-- 7&#45;&gt;3 -->
<g id="edge34" class="edge">
<title>7&#45;&gt;3</title>
<path fill="none" stroke="white" d="M1198.54,-942.41C1195.81,-985.89 1182.26,-1094.85 1114.97,-1142 958.64,-1251.54 829.87,-1266.85 685.47,-1142 619.63,-1085.07 609.88,-800.77 608.46,-708.19"/>
<polygon fill="white" stroke="white" points="611.95,-708.35 608.32,-698.4 604.95,-708.44 611.95,-708.35"/>
<text text-anchor="middle" x="900.22" y="-1232.2" font-family="Times,serif" font-size="14.00" fill="white">#&#45;[</text>
</g>
<!-- 7&#45;&gt;3 -->
<g id="edge36" class="edge">
<title>7&#45;&gt;3</title>
<path fill="none" stroke="white" d="M1195.19,-941.8C1186.65,-975.06 1163.43,-1046.4 1114.97,-1081 959.5,-1192.01 829.77,-1223.2 685.47,-1098 626.45,-1046.79 612.23,-794.69 609.07,-708.19"/>
<polygon fill="white" stroke="white" points="612.54,-708.23 608.7,-698.35 605.54,-708.46 612.54,-708.23"/>
<text text-anchor="middle" x="900.22" y="-1181.2" font-family="Times,serif" font-size="14.00" fill="white">]&#45;\uffff</text>
</g>
<!-- 7&#45;&gt;7 -->
<g id="edge35" class="edge">
<title>7&#45;&gt;7</title>
<path fill="none" stroke="white" d="M1187.83,-937.29C1182.53,-948.4 1186.66,-960 1200.22,-960 1209.33,-960 1214.19,-954.76 1214.78,-947.96"/>
<polygon fill="white" stroke="white" points="1218.04,-947.39 1212.62,-938.29 1211.18,-948.79 1218.04,-947.39"/>
<text text-anchor="middle" x="1200.22" y="-963.2" font-family="Times,serif" font-size="14.00" fill="white">\\</text>
</g>
<!-- 8 -->
<g id="node10" class="node">
<title>8</title>
<ellipse fill="none" stroke="white" cx="1348.22" cy="-403" rx="18" ry="18"/>
<text text-anchor="middle" x="1348.22" y="-397.95" font-family="Times,serif" font-size="14.00" fill="white">8</text>
</g>
<!-- 7&#45;&gt;8 -->
<g id="edge29" class="edge">
<title>7&#45;&gt;8</title>
<path fill="none" stroke="white" d="M1206.08,-906.67C1227.43,-830.48 1313.03,-525.03 1339.43,-430.81"/>
<polygon fill="white" stroke="white" points="1343.02,-431.97 1342.35,-421.4 1336.28,-430.08 1343.02,-431.97"/>
<text text-anchor="middle" x="1278.22" y="-651.2" font-family="Times,serif" font-size="14.00" fill="white">&quot;</text>
</g>
<!-- 5&#45;&gt;6 -->
<g id="edge21" class="edge">
<title>5&#45;&gt;6</title>
<path fill="none" stroke="white" d="M1016.62,-749C1050.14,-749 1124.12,-749 1166.91,-749"/>
<polygon fill="white" stroke="white" points="1166.84,-752.5 1176.84,-749 1166.84,-745.5 1166.84,-752.5"/>
<text text-anchor="middle" x="1096.22" y="-752.2" font-family="Times,serif" font-size="14.00" fill="white">&quot;</text>
</g>
<!-- 5&#45;&gt;3 -->
<g id="edge22" class="edge">
<title>5&#45;&gt;3</title>
<path fill="none" stroke="white" d="M982.68,-758.76C967.51,-768.37 942.67,-782.52 918.97,-789 883.39,-798.73 807.26,-802.16 783.47,-795 779.19,-793.71 678.68,-726.36 631.85,-694.89"/>
<polygon fill="white" stroke="white" points="633.97,-691.43 623.72,-688.76 630.07,-697.24 633.97,-691.43"/>
<text text-anchor="middle" x="802.22" y="-802.2" font-family="Times,serif" font-size="14.00" fill="white">\t</text>
</g>
<!-- 5&#45;&gt;3 -->
<g id="edge23" class="edge">
<title>5&#45;&gt;3</title>
<path fill="none" stroke="white" d="M979.84,-750.24C943.17,-752.48 855.32,-755.74 783.47,-742 728.17,-731.43 667.01,-706.08 633.55,-690.96"/>
<polygon fill="white" stroke="white" points="635.25,-687.43 624.7,-686.44 632.33,-693.79 635.25,-687.43"/>
<text text-anchor="middle" x="802.22" y="-751.2" font-family="Times,serif" font-size="14.00" fill="white">\n</text>
</g>
<!-- 5&#45;&gt;3 -->
<g id="edge24" class="edge">
<title>5&#45;&gt;3</title>
<path fill="none" stroke="white" d="M980.2,-745.94C919.26,-734.97 711.55,-697.59 635.99,-684"/>
<polygon fill="white" stroke="white" points="636.9,-680.42 626.44,-682.1 635.66,-687.31 636.9,-680.42"/>
<text text-anchor="middle" x="802.22" y="-720.2" font-family="Times,serif" font-size="14.00" fill="white">\r</text>
</g>
<!-- 5&#45;&gt;3 -->
<g id="edge25" class="edge">
<title>5&#45;&gt;3</title>
<path fill="none" stroke="white" d="M981.07,-742.17C950.47,-729.59 881.69,-702.99 820.97,-691.5 755.65,-679.14 677.21,-677.97 636.25,-678.37"/>
<polygon fill="white" stroke="white" points="636.45,-674.89 626.5,-678.53 636.55,-681.88 636.45,-674.89"/>
<text text-anchor="middle" x="802.22" y="-695.2" font-family="Times,serif" font-size="14.00" fill="white">SP&#45;!</text>
</g>
<!-- 5&#45;&gt;3 -->
<g id="edge26" class="edge">
<title>5&#45;&gt;3</title>
<path fill="none" stroke="white" d="M983,-739.22C954.11,-720.07 885.76,-678.47 820.97,-666.5 755.43,-654.39 676.78,-665.51 635.93,-673.17"/>
<polygon fill="white" stroke="white" points="635.36,-669.91 626.22,-675.26 636.7,-676.78 635.36,-669.91"/>
<text text-anchor="middle" x="802.22" y="-670.2" font-family="Times,serif" font-size="14.00" fill="white">#&#45;[</text>
</g>
<!-- 5&#45;&gt;3 -->
<g id="edge28" class="edge">
<title>5&#45;&gt;3</title>
<path fill="none" stroke="white" d="M984.94,-736.22C970.33,-721.57 944.66,-697.59 918.97,-682 878.83,-657.63 867.07,-651.44 820.97,-642.5 753.91,-629.49 674.48,-653.52 634.3,-668.43"/>
<polygon fill="white" stroke="white" points="633.37,-665.42 625.28,-672.27 635.87,-671.96 633.37,-665.42"/>
<text text-anchor="middle" x="802.22" y="-646.2" font-family="Times,serif" font-size="14.00" fill="white">]&#45;\uffff</text>
</g>
<!-- 5&#45;&gt;7 -->
<g id="edge27" class="edge">
<title>5&#45;&gt;7</title>
<path fill="none" stroke="white" d="M1013.09,-759.56C1035.15,-776.48 1079.37,-811.01 1114.97,-842.5 1137.77,-862.66 1162.68,-887.07 1179.45,-903.9"/>
<polygon fill="white" stroke="white" points="1176.46,-905.86 1185.99,-910.49 1181.43,-900.93 1176.46,-905.86"/>
<text text-anchor="middle" x="1096.22" y="-845.2" font-family="Times,serif" font-size="14.00" fill="white">\\</text>
</g>
<!-- 8&#45;&gt;3 -->
<g id="edge38" class="edge">
<title>8&#45;&gt;3</title>
<path fill="none" stroke="white" d="M1336.91,-417.54C1325.28,-432.85 1304.96,-456.57 1281.97,-470 1045.18,-608.36 935.75,-515.86 685.47,-628 665.68,-636.87 645.28,-650.57 630.42,-661.53"/>
<polygon fill="white" stroke="white" points="628.8,-659.12 622.94,-667.94 633.02,-664.7 628.8,-659.12"/>
<text text-anchor="middle" x="998.22" y="-563.2" font-family="Times,serif" font-size="14.00" fill="white">\t</text>
</g>
<!-- 8&#45;&gt;3 -->
<g id="edge39" class="edge">
<title>8&#45;&gt;3</title>
<path fill="none" stroke="white" d="M1330.59,-408.07C1262.62,-428.79 999.28,-509.28 783.47,-578 739.81,-591.9 725.18,-587.14 685.47,-610 663.25,-622.79 641.82,-642.74 627.19,-657.91"/>
<polygon fill="white" stroke="white" points="625.1,-655.08 620.8,-664.76 630.2,-659.88 625.1,-655.08"/>
<text text-anchor="middle" x="998.22" y="-518.2" font-family="Times,serif" font-size="14.00" fill="white">\n</text>
</g>
<!-- 8&#45;&gt;3 -->
<g id="edge40" class="edge">
<title>8&#45;&gt;3</title>
<path fill="none" stroke="white" d="M1330.14,-403C1302.88,-403 1247.86,-403 1201.22,-403 801.22,-403 801.22,-403 801.22,-403 681.31,-403 629.66,-580.13 613.86,-650.59"/>
<polygon fill="white" stroke="white" points="610.23,-649.8 611.55,-660.32 617.08,-651.28 610.23,-649.8"/>
<text text-anchor="middle" x="998.22" y="-406.2" font-family="Times,serif" font-size="14.00" fill="white">\r</text>
</g>
<!-- 8&#45;&gt;3 -->
<g id="edge41" class="edge">
<title>8&#45;&gt;3</title>
<path fill="none" stroke="white" d="M1332.52,-393.77C1306.89,-378.58 1251.92,-350 1201.22,-350 801.22,-350 801.22,-350 801.22,-350 662.68,-350 621.68,-569.73 611.32,-650.05"/>
<polygon fill="white" stroke="white" points="607.74,-649.49 610.01,-659.84 614.69,-650.34 607.74,-649.49"/>
<text text-anchor="middle" x="998.22" y="-353.2" font-family="Times,serif" font-size="14.00" fill="white">SP&#45;!</text>
</g>
<!-- 8&#45;&gt;3 -->
<g id="edge42" class="edge">
<title>8&#45;&gt;3</title>
<path fill="none" stroke="white" d="M1337.36,-388.7C1316.12,-359.77 1262.93,-297 1201.22,-297 801.22,-297 801.22,-297 801.22,-297 643.36,-297 614.59,-560.11 609.37,-649.61"/>
<polygon fill="white" stroke="white" points="605.83,-649.41 608.8,-659.58 612.82,-649.77 605.83,-649.41"/>
<text text-anchor="middle" x="998.22" y="-300.2" font-family="Times,serif" font-size="14.00" fill="white">#&#45;[</text>
</g>
<!-- 8&#45;&gt;3 -->
<g id="edge44" class="edge">
<title>8&#45;&gt;3</title>
<path fill="none" stroke="white" d="M1341.06,-385.98C1324.99,-344.97 1277.67,-244 1201.22,-244 801.22,-244 801.22,-244 801.22,-244 623.18,-244 608.12,-552.22 607.82,-649.77"/>
<polygon fill="white" stroke="white" points="604.32,-649.59 607.84,-659.59 611.32,-649.58 604.32,-649.59"/>
<text text-anchor="middle" x="998.22" y="-247.2" font-family="Times,serif" font-size="14.00" fill="white">]&#45;\uffff</text>
</g>
<!-- 8&#45;&gt;7 -->
<g id="edge43" class="edge">
<title>8&#45;&gt;7</title>
<path fill="none" stroke="white" d="M1343.26,-420.78C1333.63,-463.58 1307.89,-575.62 1281.97,-668 1258.38,-752.12 1226.03,-850.32 1210.41,-896.87"/>
<polygon fill="white" stroke="white" points="1206.86,-895.44 1206.99,-906.04 1213.5,-897.68 1206.86,-895.44"/>
<text text-anchor="middle" x="1278.22" y="-692.2" font-family="Times,serif" font-size="14.00" fill="white">\\</text>
</g>
<!-- 9 -->
<g id="node11" class="node">
<title>9</title>
<ellipse fill="none" stroke="white" cx="1486.22" cy="-140" rx="18" ry="18"/>
<text text-anchor="middle" x="1486.22" y="-134.95" font-family="Times,serif" font-size="14.00" fill="white">9</text>
</g>
<!-- 8&#45;&gt;9 -->
<g id="edge37" class="edge">
<title>8&#45;&gt;9</title>
<path fill="none" stroke="white" d="M1357.32,-387.34C1379.99,-343.49 1444.24,-219.25 1472.08,-165.41"/>
<polygon fill="white" stroke="white" points="1475.51,-167.41 1476.99,-156.91 1469.29,-164.19 1475.51,-167.41"/>
<text text-anchor="middle" x="1417.22" y="-275.2" font-family="Times,serif" font-size="14.00" fill="white">&quot;</text>
</g>
<!-- 9&#45;&gt;3 -->
<g id="edge45" class="edge">
<title>9&#45;&gt;3</title>
<path fill="none" stroke="white" d="M1470.68,-149.67C1457.94,-157.62 1438.64,-168.45 1420.22,-174 1284.01,-215.03 922.89,-211.71 783.47,-240 738.83,-249.06 715.86,-236.06 685.47,-270 634.77,-326.63 615.23,-566.4 609.88,-650.06"/>
<polygon fill="white" stroke="white" points="606.32,-649.81 609.2,-660.01 613.31,-650.25 606.32,-649.81"/>
<text text-anchor="middle" x="1096.22" y="-217.2" font-family="Times,serif" font-size="14.00" fill="white">&quot;</text>
</g>
<!-- 9&#45;&gt;3 -->
<g id="edge46" class="edge">
<title>9&#45;&gt;3</title>
<path fill="none" stroke="white" d="M1468.59,-144.05C1443.07,-149.89 1392.66,-160 1349.22,-160 801.22,-160 801.22,-160 801.22,-160 737.92,-160 719.21,-189.43 685.47,-243 642.19,-311.72 617.73,-564 610.51,-650.03"/>
<polygon fill="white" stroke="white" points="606.95,-649.56 609.62,-659.81 613.93,-650.13 606.95,-649.56"/>
<text text-anchor="middle" x="1096.22" y="-163.2" font-family="Times,serif" font-size="14.00" fill="white">\n</text>
</g>
<!-- 9&#45;&gt;3 -->
<g id="edge47" class="edge">
<title>9&#45;&gt;3</title>
<path fill="none" stroke="white" d="M1468.59,-135.95C1443.07,-130.11 1392.66,-120 1349.22,-120 801.22,-120 801.22,-120 801.22,-120 741.78,-120 719.08,-137.97 685.47,-187 633.14,-263.34 614.31,-556.1 609.55,-649.9"/>
<polygon fill="white" stroke="white" points="606.01,-649.65 609.01,-659.81 613,-650 606.01,-649.65"/>
<text text-anchor="middle" x="1096.22" y="-123.2" font-family="Times,serif" font-size="14.00" fill="white">\r</text>
</g>
<!-- 9&#45;&gt;3 -->
<g id="edge48" class="edge">
<title>9&#45;&gt;3</title>
<path fill="none" stroke="white" d="M1471.43,-129.27C1447.8,-112.02 1397.48,-80 1349.22,-80 801.22,-80 801.22,-80 801.22,-80 743.28,-80 719.02,-92.75 685.47,-140 626.31,-223.32 611.98,-550.31 608.95,-650"/>
<polygon fill="white" stroke="white" points="605.43,-649.64 608.65,-659.74 612.43,-649.84 605.43,-649.64"/>
<text text-anchor="middle" x="1096.22" y="-83.2" font-family="Times,serif" font-size="14.00" fill="white">SP&#45;!</text>
</g>
<!-- 9&#45;&gt;3 -->
<g id="edge49" class="edge">
<title>9&#45;&gt;3</title>
<path fill="none" stroke="white" d="M1475.16,-125.24C1454.86,-97.43 1406.08,-40 1349.22,-40 801.22,-40 801.22,-40 801.22,-40 744.07,-40 718.95,-49.69 685.47,-96 620.32,-186.12 610.11,-545 608.52,-650"/>
<polygon fill="white" stroke="white" points="605.01,-649.66 608.37,-659.71 612.01,-649.76 605.01,-649.66"/>
<text text-anchor="middle" x="1096.22" y="-43.2" font-family="Times,serif" font-size="14.00" fill="white">#&#45;[</text>
</g>
<!-- 9&#45;&gt;3 -->
<g id="edge51" class="edge">
<title>9&#45;&gt;3</title>
<path fill="none" stroke="white" d="M1478.52,-123.39C1462.33,-86.31 1417.33,0 1349.22,0 801.22,0 801.22,0 801.22,0 744.45,0 718.85,-8.08 685.47,-54 615.07,-150.84 608.59,-539.45 608.18,-649.7"/>
<polygon fill="white" stroke="white" points="604.68,-649.61 608.16,-659.62 611.68,-649.63 604.68,-649.61"/>
<text text-anchor="middle" x="1096.22" y="-3.2" font-family="Times,serif" font-size="14.00" fill="white">]&#45;\uffff</text>
</g>
<!-- 9&#45;&gt;7 -->
<g id="edge50" class="edge">
<title>9&#45;&gt;7</title>
<path fill="none" stroke="white" d="M1479.34,-156.79C1455.25,-225.43 1361.72,-491.32 1281.97,-709 1257.09,-776.9 1226.94,-856.51 1211.47,-897.15"/>
<polygon fill="white" stroke="white" points="1207.89,-895.72 1207.6,-906.31 1214.43,-898.21 1207.89,-895.72"/>
<text text-anchor="middle" x="1348.22" y="-574.2" font-family="Times,serif" font-size="14.00" fill="white">\\</text>
</g>
</g>
</svg>
