<?xml version="1.0" encoding="UTF-8" standalone="no"?>
<!DOCTYPE svg PUBLIC "-//W3C//DTD SVG 1.1//EN"
 "http://www.w3.org/Graphics/SVG/1.1/DTD/svg11.dtd">
<!-- Generated by graphviz version 8.1.0 (20230707.0739)
 -->
<!-- Title: finite_state_machine Pages: 1 -->
<svg width="224pt" height="128pt"
 viewBox="0.00 0.00 223.75 127.81" xmlns="http://www.w3.org/2000/svg" xmlns:xlink="http://www.w3.org/1999/xlink">
<g id="graph0" class="graph" transform="scale(1 1) rotate(0) translate(4 123.81)">
<title>finite_state_machine</title>
<!-- &#45;1 -->
<!-- 0 -->
<g id="node3" class="node">
<title>0</title>
<ellipse fill="none" stroke="black" cx="108.75" cy="-23.33" rx="18" ry="18"/>
<text text-anchor="middle" x="108.75" y="-18.28" font-family="Times,serif" font-size="14.00">0</text>
</g>
<!-- &#45;1&#45;&gt;0 -->
<g id="edge1" class="edge">
<title>&#45;1&#45;&gt;0</title>
<path fill="none" stroke="black" d="M53.94,-23.33C62.22,-23.33 71.38,-23.33 79.77,-23.33"/>
<polygon fill="black" stroke="black" points="79.58,-26.83 89.58,-23.33 79.58,-19.83 79.58,-26.83"/>
</g>
<!-- 1 -->
<g id="node2" class="node">
<title>1</title>
<ellipse fill="none" stroke="black" cx="191.75" cy="-23.33" rx="18" ry="18"/>
<ellipse fill="none" stroke="black" cx="191.75" cy="-23.33" rx="22" ry="22"/>
<text text-anchor="middle" x="191.75" y="-18.28" font-family="Times,serif" font-size="14.00">1</text>
</g>
<!-- 1&#45;&gt;1 -->
<g id="edge3" class="edge">
<title>1&#45;&gt;1</title>
<path fill="none" stroke="black" d="M187.78,-45.13C187.4,-54.89 188.73,-63.33 191.75,-63.33 193.55,-63.33 194.74,-60.35 195.34,-55.89"/>
<polygon fill="black" stroke="black" points="198.86,-56.25 195.72,-46.13 191.87,-56 198.86,-56.25"/>
<text text-anchor="middle" x="191.75" y="-66.53" font-family="Times,serif" font-size="14.00">\t</text>
</g>
<!-- 1&#45;&gt;1 -->
<g id="edge4" class="edge">
<title>1&#45;&gt;1</title>
<path fill="none" stroke="black" d="M184.92,-44.74C182,-62.63 184.28,-81.33 191.75,-81.33 197.71,-81.33 200.36,-69.46 199.72,-55.58"/>
<polygon fill="black" stroke="black" points="203.11,-55.32 198.58,-45.74 196.14,-56.05 203.11,-55.32"/>
<text text-anchor="middle" x="191.75" y="-84.53" font-family="Times,serif" font-size="14.00">SP&#45;\uffff</text>
</g>
<!-- 0&#45;&gt;1 -->
<g id="edge2" class="edge">
<title>0&#45;&gt;1</title>
<path fill="none" stroke="black" d="M126.93,-23.33C136.1,-23.33 147.68,-23.33 158.46,-23.33"/>
<polygon fill="black" stroke="black" points="158.26,-26.83 168.26,-23.33 158.26,-19.83 158.26,-26.83"/>
<text text-anchor="middle" x="148.75" y="-26.53" font-family="Times,serif" font-size="14.00">#</text>
</g>
</g>
</svg>
