<?xml version="1.0" encoding="UTF-8" standalone="no"?>
<!DOCTYPE svg PUBLIC "-//W3C//DTD SVG 1.1//EN"
 "http://www.w3.org/Graphics/SVG/1.1/DTD/svg11.dtd">
<!-- Generated by graphviz version 8.1.0 (20230707.0739)
 -->
<!-- Title: finite_state_machine Pages: 1 -->
<svg width="302pt" height="514pt"
 viewBox="0.00 0.00 302.00 513.77" xmlns="http://www.w3.org/2000/svg" xmlns:xlink="http://www.w3.org/1999/xlink">
<g id="graph0" class="graph" transform="scale(1 1) rotate(0) translate(4 509.77)">
<title>finite_state_machine</title>
<!-- &#45;1 -->
<!-- 0 -->
<g id="node3" class="node">
<title>0</title>
<ellipse fill="none" stroke="black" cx="109" cy="-91.27" rx="18" ry="18"/>
<text text-anchor="middle" x="109" y="-86.22" font-family="Times,serif" font-size="14.00">0</text>
</g>
<!-- &#45;1&#45;&gt;0 -->
<g id="edge1" class="edge">
<title>&#45;1&#45;&gt;0</title>
<path fill="none" stroke="black" d="M54.19,-91.27C62.47,-91.27 71.63,-91.27 80.02,-91.27"/>
<polygon fill="black" stroke="black" points="79.83,-94.77 89.83,-91.27 79.83,-87.77 79.83,-94.77"/>
</g>
<!-- 2 -->
<g id="node2" class="node">
<title>2</title>
<ellipse fill="none" stroke="black" cx="272" cy="-91.27" rx="18" ry="18"/>
<ellipse fill="none" stroke="black" cx="272" cy="-91.27" rx="22" ry="22"/>
<text text-anchor="middle" x="272" y="-86.22" font-family="Times,serif" font-size="14.00">2</text>
</g>
<!-- 1 -->
<g id="node4" class="node">
<title>1</title>
<ellipse fill="none" stroke="black" cx="188" cy="-91.27" rx="18" ry="18"/>
<text text-anchor="middle" x="188" y="-86.22" font-family="Times,serif" font-size="14.00">1</text>
</g>
<!-- 0&#45;&gt;1 -->
<g id="edge2" class="edge">
<title>0&#45;&gt;1</title>
<path fill="none" stroke="black" d="M127.47,-91.27C136.73,-91.27 148.32,-91.27 158.81,-91.27"/>
<polygon fill="black" stroke="black" points="158.6,-94.77 168.6,-91.27 158.6,-87.77 158.6,-94.77"/>
<text text-anchor="middle" x="149" y="-94.47" font-family="Times,serif" font-size="14.00">\\</text>
</g>
<!-- 1&#45;&gt;2 -->
<g id="edge3" class="edge">
<title>1&#45;&gt;2</title>
<path fill="none" stroke="black" d="M189.21,-109.55C190.24,-184.09 195.98,-462.4 224.25,-488.27 226.71,-490.52 229.28,-490.51 231.75,-488.27 258.54,-464 267.74,-215.17 270.22,-124.28"/>
<polygon fill="black" stroke="black" points="273.74,-124.6 270.5,-114.52 266.74,-124.42 273.74,-124.6"/>
<text text-anchor="middle" x="228" y="-492.47" font-family="Times,serif" font-size="14.00">&quot;</text>
</g>
<!-- 1&#45;&gt;2 -->
<g id="edge4" class="edge">
<title>1&#45;&gt;2</title>
<path fill="none" stroke="black" d="M188.69,-109.74C188.24,-161.77 190.1,-307.67 224.25,-337.27 257.3,-365.92 267.28,-197.53 270.03,-124.16"/>
<polygon fill="black" stroke="black" points="273.56,-124.37 270.42,-114.25 266.57,-124.12 273.56,-124.37"/>
<text text-anchor="middle" x="228" y="-343.47" font-family="Times,serif" font-size="14.00">/</text>
</g>
<!-- 1&#45;&gt;2 -->
<g id="edge5" class="edge">
<title>1&#45;&gt;2</title>
<path fill="none" stroke="black" d="M189.77,-109.46C191.82,-132.03 199.06,-169.69 224.25,-187.27 249.76,-205.08 261.92,-158.28 267.26,-123.92"/>
<polygon fill="black" stroke="black" points="270.83,-124.7 268.77,-114.31 263.9,-123.72 270.83,-124.7"/>
<text text-anchor="middle" x="228" y="-193.47" font-family="Times,serif" font-size="14.00">\\</text>
</g>
<!-- 1&#45;&gt;2 -->
<g id="edge6" class="edge">
<title>1&#45;&gt;2</title>
<path fill="none" stroke="black" d="M206.39,-91.27C215.74,-91.27 227.58,-91.27 238.56,-91.27"/>
<polygon fill="black" stroke="black" points="238.55,-94.77 248.55,-91.27 238.55,-87.77 238.55,-94.77"/>
<text text-anchor="middle" x="228" y="-94.47" font-family="Times,serif" font-size="14.00">b</text>
</g>
<!-- 1&#45;&gt;2 -->
<g id="edge7" class="edge">
<title>1&#45;&gt;2</title>
<path fill="none" stroke="black" d="M202.98,-80.85C209.17,-76.87 216.73,-72.8 224.25,-70.77 230.99,-68.96 238.01,-70.2 244.49,-72.79"/>
<polygon fill="black" stroke="black" points="242.63,-76.28 253.13,-77.72 245.82,-70.05 242.63,-76.28"/>
<text text-anchor="middle" x="228" y="-73.47" font-family="Times,serif" font-size="14.00">f</text>
</g>
<!-- 1&#45;&gt;2 -->
<g id="edge8" class="edge">
<title>1&#45;&gt;2</title>
<path fill="none" stroke="black" d="M196.2,-74.72C203.71,-60.11 216.51,-42.1 231.75,-48.77 239.77,-52.28 246.88,-58.33 252.77,-64.78"/>
<polygon fill="black" stroke="black" points="250.49,-66.52 259.56,-72.01 255.89,-62.07 250.49,-66.52"/>
<text text-anchor="middle" x="228" y="-51.47" font-family="Times,serif" font-size="14.00">n</text>
</g>
<!-- 1&#45;&gt;2 -->
<g id="edge9" class="edge">
<title>1&#45;&gt;2</title>
<path fill="none" stroke="black" d="M193.19,-73.79C197.9,-58.38 207.24,-36.86 224.25,-26.77 241.45,-16.57 254.13,-38.46 261.91,-59.45"/>
<polygon fill="black" stroke="black" points="258.91,-60.51 265.44,-68.86 265.54,-58.26 258.91,-60.51"/>
<text text-anchor="middle" x="228" y="-29.47" font-family="Times,serif" font-size="14.00">r</text>
</g>
<!-- 1&#45;&gt;2 -->
<g id="edge10" class="edge">
<title>1&#45;&gt;2</title>
<path fill="none" stroke="black" d="M190.5,-73.19C193.3,-52.43 201.31,-19.26 224.25,-3.77 247.49,11.92 260.08,-27.74 266.16,-58.69"/>
<polygon fill="black" stroke="black" points="262.83,-58.95 268.05,-68.17 269.72,-57.71 262.83,-58.95"/>
<text text-anchor="middle" x="228" y="-6.47" font-family="Times,serif" font-size="14.00">t</text>
</g>
</g>
</svg>
