<?xml version="1.0" encoding="UTF-8" standalone="no"?>
<!DOCTYPE svg PUBLIC "-//W3C//DTD SVG 1.1//EN"
 "http://www.w3.org/Graphics/SVG/1.1/DTD/svg11.dtd">
<!-- Generated by graphviz version 8.1.0 (20230707.0739)
 -->
<!-- Title: finite_state_machine Pages: 1 -->
<svg width="676pt" height="384pt"
 viewBox="0.00 0.00 676.25 383.75" xmlns="http://www.w3.org/2000/svg" xmlns:xlink="http://www.w3.org/1999/xlink">
<g id="graph0" class="graph" transform="scale(1 1) rotate(0) translate(4 379.75)">
<title>finite_state_machine</title>
<!-- &#45;1 -->
<!-- 0 -->
<g id="node3" class="node">
<title>0</title>
<ellipse fill="none" stroke="black" cx="109.25" cy="-187.74" rx="18" ry="18"/>
<text text-anchor="middle" x="109.25" y="-182.69" font-family="Times,serif" font-size="14.00">0</text>
</g>
<!-- &#45;1&#45;&gt;0 -->
<g id="edge1" class="edge">
<title>&#45;1&#45;&gt;0</title>
<path fill="none" stroke="black" d="M54.44,-187.74C62.72,-187.74 71.88,-187.74 80.27,-187.74"/>
<polygon fill="black" stroke="black" points="80.08,-191.24 90.08,-187.74 80.08,-184.24 80.08,-191.24"/>
</g>
<!-- 6 -->
<g id="node2" class="node">
<title>6</title>
<ellipse fill="none" stroke="black" cx="646.25" cy="-187.74" rx="18" ry="18"/>
<ellipse fill="none" stroke="black" cx="646.25" cy="-187.74" rx="22" ry="22"/>
<text text-anchor="middle" x="646.25" y="-182.69" font-family="Times,serif" font-size="14.00">6</text>
</g>
<!-- 1 -->
<g id="node4" class="node">
<title>1</title>
<ellipse fill="none" stroke="black" cx="188.25" cy="-187.74" rx="18" ry="18"/>
<text text-anchor="middle" x="188.25" y="-182.69" font-family="Times,serif" font-size="14.00">1</text>
</g>
<!-- 0&#45;&gt;1 -->
<g id="edge2" class="edge">
<title>0&#45;&gt;1</title>
<path fill="none" stroke="black" d="M127.72,-187.74C136.98,-187.74 148.57,-187.74 159.06,-187.74"/>
<polygon fill="black" stroke="black" points="158.85,-191.24 168.85,-187.74 158.85,-184.24 158.85,-191.24"/>
<text text-anchor="middle" x="148.25" y="-190.94" font-family="Times,serif" font-size="14.00">\\</text>
</g>
<!-- 2 -->
<g id="node5" class="node">
<title>2</title>
<ellipse fill="none" stroke="black" cx="267.25" cy="-187.74" rx="18" ry="18"/>
<text text-anchor="middle" x="267.25" y="-182.69" font-family="Times,serif" font-size="14.00">2</text>
</g>
<!-- 1&#45;&gt;2 -->
<g id="edge3" class="edge">
<title>1&#45;&gt;2</title>
<path fill="none" stroke="black" d="M206.72,-187.74C215.98,-187.74 227.57,-187.74 238.06,-187.74"/>
<polygon fill="black" stroke="black" points="237.85,-191.24 247.85,-187.74 237.85,-184.24 237.85,-191.24"/>
<text text-anchor="middle" x="228.25" y="-190.94" font-family="Times,serif" font-size="14.00">u</text>
</g>
<!-- 3 -->
<g id="node6" class="node">
<title>3</title>
<ellipse fill="none" stroke="black" cx="361.25" cy="-187.74" rx="18" ry="18"/>
<text text-anchor="middle" x="361.25" y="-182.69" font-family="Times,serif" font-size="14.00">3</text>
</g>
<!-- 2&#45;&gt;3 -->
<g id="edge4" class="edge">
<title>2&#45;&gt;3</title>
<path fill="none" stroke="black" d="M282.14,-198.41C288.3,-202.49 295.84,-206.66 303.38,-208.74 312.69,-211.32 315.81,-211.32 325.12,-208.74 329.13,-207.64 333.13,-205.94 336.93,-203.99"/>
<polygon fill="black" stroke="black" points="338.53,-206.52 345.36,-198.41 334.97,-200.49 338.53,-206.52"/>
<text text-anchor="middle" x="314.25" y="-212.94" font-family="Times,serif" font-size="14.00">0&#45;9</text>
</g>
<!-- 2&#45;&gt;3 -->
<g id="edge5" class="edge">
<title>2&#45;&gt;3</title>
<path fill="none" stroke="black" d="M285.55,-187.74C298.66,-187.74 316.94,-187.74 332.14,-187.74"/>
<polygon fill="black" stroke="black" points="332.02,-191.24 342.02,-187.74 332.02,-184.24 332.02,-191.24"/>
<text text-anchor="middle" x="314.25" y="-190.94" font-family="Times,serif" font-size="14.00">A&#45;F</text>
</g>
<!-- 2&#45;&gt;3 -->
<g id="edge6" class="edge">
<title>2&#45;&gt;3</title>
<path fill="none" stroke="black" d="M282.18,-177.33C288.34,-173.34 295.88,-169.27 303.38,-167.24 312.71,-164.72 315.79,-164.72 325.12,-167.24 329.11,-168.32 333.1,-169.98 336.9,-171.89"/>
<polygon fill="black" stroke="black" points="334.91,-175.36 345.32,-177.33 338.41,-169.3 334.91,-175.36"/>
<text text-anchor="middle" x="314.25" y="-169.94" font-family="Times,serif" font-size="14.00">a&#45;f</text>
</g>
<!-- 4 -->
<g id="node7" class="node">
<title>4</title>
<ellipse fill="none" stroke="black" cx="454.25" cy="-187.74" rx="18" ry="18"/>
<text text-anchor="middle" x="454.25" y="-182.69" font-family="Times,serif" font-size="14.00">4</text>
</g>
<!-- 3&#45;&gt;4 -->
<g id="edge7" class="edge">
<title>3&#45;&gt;4</title>
<path fill="none" stroke="black" d="M376.14,-198.41C382.3,-202.49 389.84,-206.66 397.38,-208.74 406.69,-211.32 409.82,-211.38 419.12,-208.74 422.85,-207.69 426.57,-206.1 430.11,-204.26"/>
<polygon fill="black" stroke="black" points="431.7,-206.79 438.47,-198.63 428.1,-200.79 431.7,-206.79"/>
<text text-anchor="middle" x="408.25" y="-212.94" font-family="Times,serif" font-size="14.00">0&#45;9</text>
</g>
<!-- 3&#45;&gt;4 -->
<g id="edge8" class="edge">
<title>3&#45;&gt;4</title>
<path fill="none" stroke="black" d="M379.37,-187.74C392.25,-187.74 410.19,-187.74 425.16,-187.74"/>
<polygon fill="black" stroke="black" points="424.9,-191.24 434.9,-187.74 424.9,-184.24 424.9,-191.24"/>
<text text-anchor="middle" x="408.25" y="-190.94" font-family="Times,serif" font-size="14.00">A&#45;F</text>
</g>
<!-- 3&#45;&gt;4 -->
<g id="edge9" class="edge">
<title>3&#45;&gt;4</title>
<path fill="none" stroke="black" d="M376.18,-177.33C382.34,-173.34 389.88,-169.27 397.38,-167.24 406.71,-164.72 409.81,-164.66 419.12,-167.24 422.83,-168.27 426.54,-169.82 430.08,-171.62"/>
<polygon fill="black" stroke="black" points="428.04,-175.07 438.43,-177.11 431.58,-169.03 428.04,-175.07"/>
<text text-anchor="middle" x="408.25" y="-169.94" font-family="Times,serif" font-size="14.00">a&#45;f</text>
</g>
<!-- 5 -->
<g id="node8" class="node">
<title>5</title>
<ellipse fill="none" stroke="black" cx="548.25" cy="-187.74" rx="18" ry="18"/>
<text text-anchor="middle" x="548.25" y="-182.69" font-family="Times,serif" font-size="14.00">5</text>
</g>
<!-- 4&#45;&gt;5 -->
<g id="edge10" class="edge">
<title>4&#45;&gt;5</title>
<path fill="none" stroke="black" d="M469.14,-198.41C475.3,-202.49 482.84,-206.66 490.38,-208.74 499.69,-211.32 502.81,-211.32 512.12,-208.74 516.13,-207.64 520.13,-205.94 523.93,-203.99"/>
<polygon fill="black" stroke="black" points="525.53,-206.52 532.36,-198.41 521.97,-200.49 525.53,-206.52"/>
<text text-anchor="middle" x="501.25" y="-212.94" font-family="Times,serif" font-size="14.00">0&#45;9</text>
</g>
<!-- 4&#45;&gt;5 -->
<g id="edge11" class="edge">
<title>4&#45;&gt;5</title>
<path fill="none" stroke="black" d="M472.55,-187.74C485.66,-187.74 503.94,-187.74 519.14,-187.74"/>
<polygon fill="black" stroke="black" points="519.02,-191.24 529.02,-187.74 519.02,-184.24 519.02,-191.24"/>
<text text-anchor="middle" x="501.25" y="-190.94" font-family="Times,serif" font-size="14.00">A&#45;F</text>
</g>
<!-- 4&#45;&gt;5 -->
<g id="edge12" class="edge">
<title>4&#45;&gt;5</title>
<path fill="none" stroke="black" d="M469.18,-177.33C475.34,-173.34 482.88,-169.27 490.38,-167.24 499.71,-164.72 502.79,-164.72 512.12,-167.24 516.11,-168.32 520.1,-169.98 523.9,-171.89"/>
<polygon fill="black" stroke="black" points="521.91,-175.36 532.32,-177.33 525.41,-169.3 521.91,-175.36"/>
<text text-anchor="middle" x="501.25" y="-169.94" font-family="Times,serif" font-size="14.00">a&#45;f</text>
</g>
<!-- 5&#45;&gt;6 -->
<g id="edge13" class="edge">
<title>5&#45;&gt;6</title>
<path fill="none" stroke="black" d="M563.14,-198.41C569.3,-202.49 576.84,-206.66 584.38,-208.74 593.69,-211.32 596.75,-211.1 606.12,-208.74 610.02,-207.77 613.94,-206.32 617.73,-204.63"/>
<polygon fill="black" stroke="black" points="618.98,-207.41 626.31,-199.76 615.81,-201.17 618.98,-207.41"/>
<text text-anchor="middle" x="595.25" y="-212.94" font-family="Times,serif" font-size="14.00">0&#45;9</text>
</g>
<!-- 5&#45;&gt;6 -->
<g id="edge14" class="edge">
<title>5&#45;&gt;6</title>
<path fill="none" stroke="black" d="M566.41,-187.74C579.35,-187.74 597.46,-187.74 613.06,-187.74"/>
<polygon fill="black" stroke="black" points="612.87,-191.24 622.87,-187.74 612.87,-184.24 612.87,-191.24"/>
<text text-anchor="middle" x="595.25" y="-190.94" font-family="Times,serif" font-size="14.00">A&#45;F</text>
</g>
<!-- 5&#45;&gt;6 -->
<g id="edge15" class="edge">
<title>5&#45;&gt;6</title>
<path fill="none" stroke="black" d="M563.18,-177.33C569.34,-173.34 576.88,-169.27 584.38,-167.24 593.71,-164.72 596.74,-164.93 606.12,-167.24 610,-168.2 613.92,-169.61 617.7,-171.26"/>
<polygon fill="black" stroke="black" points="615.76,-174.7 626.28,-176.01 618.87,-168.43 615.76,-174.7"/>
<text text-anchor="middle" x="595.25" y="-169.94" font-family="Times,serif" font-size="14.00">a&#45;f</text>
</g>
</g>
</svg>
