<?xml version="1.0" encoding="UTF-8" standalone="no"?>
<!DOCTYPE svg PUBLIC "-//W3C//DTD SVG 1.1//EN"
 "http://www.w3.org/Graphics/SVG/1.1/DTD/svg11.dtd">
<!-- Generated by graphviz version 8.1.0 (20230707.0739)
 -->
<!-- Title: finite_state_machine Pages: 1 -->
<svg width="394pt" height="226pt"
 viewBox="0.00 0.00 393.50 225.63" xmlns="http://www.w3.org/2000/svg" xmlns:xlink="http://www.w3.org/1999/xlink">
<g id="graph0" class="graph" transform="scale(1 1) rotate(0) translate(4 221.63)">
<title>finite_state_machine</title>
<!-- &#45;1 -->
<!-- 0 -->
<g id="node3" class="node">
<title>0</title>
<ellipse fill="none" stroke="white" cx="108.5" cy="-85.35" rx="18" ry="18"/>
<text text-anchor="middle" x="108.5" y="-80.3" font-family="Times,serif" font-size="14.00" fill="white">0</text>
</g>
<!-- &#45;1&#45;&gt;0 -->
<g id="edge1" class="edge">
<title>&#45;1&#45;&gt;0</title>
<path fill="none" stroke="white" d="M53.69,-85.35C61.97,-85.35 71.13,-85.35 79.52,-85.35"/>
<polygon fill="white" stroke="white" points="79.33,-88.85 89.33,-85.35 79.33,-81.85 79.33,-88.85"/>
</g>
<!-- 3 -->
<g id="node2" class="node">
<title>3</title>
<ellipse fill="none" stroke="white" cx="363.5" cy="-96.35" rx="18" ry="18"/>
<ellipse fill="none" stroke="white" cx="363.5" cy="-96.35" rx="22" ry="22"/>
<text text-anchor="middle" x="363.5" y="-91.3" font-family="Times,serif" font-size="14.00" fill="white">3</text>
</g>
<!-- 3&#45;&gt;3 -->
<g id="edge8" class="edge">
<title>3&#45;&gt;3</title>
<path fill="none" stroke="white" d="M354.58,-116.93C353.35,-127.2 356.32,-136.35 363.5,-136.35 367.99,-136.35 370.83,-132.78 372.03,-127.59"/>
<polygon fill="white" stroke="white" points="375.55,-128.05 372.42,-117.93 368.56,-127.8 375.55,-128.05"/>
<text text-anchor="middle" x="363.5" y="-139.55" font-family="Times,serif" font-size="14.00" fill="white">0&#45;9</text>
</g>
<!-- 1 -->
<g id="node4" class="node">
<title>1</title>
<ellipse fill="none" stroke="white" cx="189.5" cy="-85.35" rx="18" ry="18"/>
<text text-anchor="middle" x="189.5" y="-80.3" font-family="Times,serif" font-size="14.00" fill="white">1</text>
</g>
<!-- 0&#45;&gt;1 -->
<g id="edge2" class="edge">
<title>0&#45;&gt;1</title>
<path fill="none" stroke="white" d="M126.64,-85.35C136.51,-85.35 149.16,-85.35 160.44,-85.35"/>
<polygon fill="white" stroke="white" points="160.12,-88.85 170.12,-85.35 160.12,-81.85 160.12,-88.85"/>
<text text-anchor="middle" x="149.5" y="-88.55" font-family="Times,serif" font-size="14.00" fill="white">E</text>
</g>
<!-- 0&#45;&gt;1 -->
<g id="edge3" class="edge">
<title>0&#45;&gt;1</title>
<path fill="none" stroke="white" d="M122.57,-73.8C131.13,-67.64 142.7,-61.88 153.62,-64.85 157.59,-65.93 161.55,-67.58 165.32,-69.5"/>
<polygon fill="white" stroke="white" points="163.28,-72.94 173.68,-74.93 166.79,-66.88 163.28,-72.94"/>
<text text-anchor="middle" x="149.5" y="-68.55" font-family="Times,serif" font-size="14.00" fill="white">e</text>
</g>
<!-- 1&#45;&gt;3 -->
<g id="edge6" class="edge">
<title>1&#45;&gt;3</title>
<path fill="none" stroke="white" d="M207.94,-86.47C236.61,-88.3 294.12,-91.98 330.33,-94.3"/>
<polygon fill="white" stroke="white" points="330.07,-97.85 340.28,-95 330.52,-90.86 330.07,-97.85"/>
<text text-anchor="middle" x="269.5" y="-95.55" font-family="Times,serif" font-size="14.00" fill="white">0&#45;9</text>
</g>
<!-- 2 -->
<g id="node5" class="node">
<title>2</title>
<ellipse fill="none" stroke="white" cx="269.5" cy="-38.35" rx="18" ry="18"/>
<text text-anchor="middle" x="269.5" y="-33.3" font-family="Times,serif" font-size="14.00" fill="white">2</text>
</g>
<!-- 1&#45;&gt;2 -->
<g id="edge4" class="edge">
<title>1&#45;&gt;2</title>
<path fill="none" stroke="white" d="M205.54,-76.29C216.55,-69.66 231.71,-60.52 244.4,-52.88"/>
<polygon fill="white" stroke="white" points="245.75,-55.55 252.51,-47.39 242.14,-49.55 245.75,-55.55"/>
<text text-anchor="middle" x="229.5" y="-66.55" font-family="Times,serif" font-size="14.00" fill="white">+</text>
</g>
<!-- 1&#45;&gt;2 -->
<g id="edge5" class="edge">
<title>1&#45;&gt;2</title>
<path fill="none" stroke="white" d="M198.51,-69.27C204.44,-59.21 213.55,-47.04 225.38,-40.85 230.03,-38.42 235.37,-37.13 240.67,-36.54"/>
<polygon fill="white" stroke="white" points="240.38,-40.02 250.25,-36.17 240.14,-33.02 240.38,-40.02"/>
<text text-anchor="middle" x="229.5" y="-44.55" font-family="Times,serif" font-size="14.00" fill="white">&#45;</text>
</g>
<!-- 2&#45;&gt;3 -->
<g id="edge7" class="edge">
<title>2&#45;&gt;3</title>
<path fill="none" stroke="white" d="M285.28,-47.67C298.7,-56.13 318.83,-68.82 335.17,-79.12"/>
<polygon fill="white" stroke="white" points="332.95,-82.49 343.27,-84.86 336.68,-76.57 332.95,-82.49"/>
<text text-anchor="middle" x="314.5" y="-74.55" font-family="Times,serif" font-size="14.00" fill="white">0&#45;9</text>
</g>
</g>
</svg>
