<?xml version="1.0" encoding="UTF-8" standalone="no"?>
<!DOCTYPE svg PUBLIC "-//W3C//DTD SVG 1.1//EN"
 "http://www.w3.org/Graphics/SVG/1.1/DTD/svg11.dtd">
<!-- Generated by graphviz version 8.1.0 (20230707.0739)
 -->
<!-- Title: finite_state_machine Pages: 1 -->
<svg width="309pt" height="178pt"
 viewBox="0.00 0.00 308.75 177.83" xmlns="http://www.w3.org/2000/svg" xmlns:xlink="http://www.w3.org/1999/xlink">
<g id="graph0" class="graph" transform="scale(1 1) rotate(0) translate(4 173.83)">
<title>finite_state_machine</title>
<!-- &#45;1 -->
<!-- 0 -->
<g id="node3" class="node">
<title>0</title>
<ellipse fill="none" stroke="white" cx="108.75" cy="-47.6" rx="18" ry="18"/>
<text text-anchor="middle" x="108.75" y="-42.55" font-family="Times,serif" font-size="14.00" fill="white">0</text>
</g>
<!-- &#45;1&#45;&gt;0 -->
<g id="edge1" class="edge">
<title>&#45;1&#45;&gt;0</title>
<path fill="none" stroke="white" d="M53.94,-47.6C62.22,-47.6 71.38,-47.6 79.77,-47.6"/>
<polygon fill="white" stroke="white" points="79.58,-51.1 89.58,-47.6 79.58,-44.1 79.58,-51.1"/>
</g>
<!-- 2 -->
<g id="node2" class="node">
<title>2</title>
<ellipse fill="none" stroke="white" cx="278.75" cy="-47.6" rx="18" ry="18"/>
<ellipse fill="none" stroke="white" cx="278.75" cy="-47.6" rx="22" ry="22"/>
<text text-anchor="middle" x="278.75" y="-42.55" font-family="Times,serif" font-size="14.00" fill="white">2</text>
</g>
<!-- 2&#45;&gt;2 -->
<g id="edge4" class="edge">
<title>2&#45;&gt;2</title>
<path fill="none" stroke="white" d="M269.83,-68.18C268.6,-78.44 271.57,-87.6 278.75,-87.6 283.24,-87.6 286.08,-84.02 287.28,-78.83"/>
<polygon fill="white" stroke="white" points="290.8,-79.3 287.67,-69.18 283.81,-79.04 290.8,-79.3"/>
<text text-anchor="middle" x="278.75" y="-90.8" font-family="Times,serif" font-size="14.00" fill="white">0&#45;9</text>
</g>
<!-- 1 -->
<g id="node4" class="node">
<title>1</title>
<ellipse fill="none" stroke="white" cx="184.75" cy="-47.6" rx="18" ry="18"/>
<text text-anchor="middle" x="184.75" y="-42.55" font-family="Times,serif" font-size="14.00" fill="white">1</text>
</g>
<!-- 0&#45;&gt;1 -->
<g id="edge2" class="edge">
<title>0&#45;&gt;1</title>
<path fill="none" stroke="white" d="M126.91,-47.6C135.44,-47.6 145.97,-47.6 155.64,-47.6"/>
<polygon fill="white" stroke="white" points="155.42,-51.1 165.42,-47.6 155.42,-44.1 155.42,-51.1"/>
<text text-anchor="middle" x="146.75" y="-50.8" font-family="Times,serif" font-size="14.00" fill="white">.</text>
</g>
<!-- 1&#45;&gt;2 -->
<g id="edge3" class="edge">
<title>1&#45;&gt;2</title>
<path fill="none" stroke="white" d="M203.05,-47.6C214.97,-47.6 231.15,-47.6 245.41,-47.6"/>
<polygon fill="white" stroke="white" points="245.31,-51.1 255.31,-47.6 245.31,-44.1 245.31,-51.1"/>
<text text-anchor="middle" x="229.75" y="-50.8" font-family="Times,serif" font-size="14.00" fill="white">0&#45;9</text>
</g>
</g>
</svg>
