<?xml version="1.0" encoding="UTF-8" standalone="no"?>
<!DOCTYPE svg PUBLIC "-//W3C//DTD SVG 1.1//EN"
 "http://www.w3.org/Graphics/SVG/1.1/DTD/svg11.dtd">
<!-- Generated by graphviz version 8.1.0 (20230707.0739)
 -->
<!-- Title: finite_state_machine Pages: 1 -->
<svg width="850pt" height="481pt"
 viewBox="0.00 0.00 850.24 481.00" xmlns="http://www.w3.org/2000/svg" xmlns:xlink="http://www.w3.org/1999/xlink">
<g id="graph0" class="graph" transform="scale(1 1) rotate(0) translate(4 477)">
<title>finite_state_machine</title>
<!-- &#45;1 -->
<!-- 0 -->
<g id="node6" class="node">
<title>0</title>
<ellipse fill="none" stroke="white" cx="294.24" cy="-264" rx="18" ry="18"/>
<text text-anchor="middle" x="294.24" y="-258.95" font-family="Times,serif" font-size="14.00" fill="white">0</text>
</g>
<!-- &#45;1&#45;&gt;0 -->
<g id="edge1" class="edge">
<title>&#45;1&#45;&gt;0</title>
<path fill="none" stroke="white" d="M100.65,-264C142.14,-264 222.24,-264 264.89,-264"/>
<polygon fill="white" stroke="white" points="264.87,-267.5 274.87,-264 264.87,-260.5 264.87,-267.5"/>
</g>
<!-- 1 -->
<g id="node2" class="node">
<title>1</title>
<ellipse fill="none" stroke="white" cx="539.24" cy="-382" rx="18" ry="18"/>
<ellipse fill="none" stroke="white" cx="539.24" cy="-382" rx="22" ry="22"/>
<text text-anchor="middle" x="539.24" y="-376.95" font-family="Times,serif" font-size="14.00" fill="white">1</text>
</g>
<!-- 1&#45;&gt;1 -->
<g id="edge9" class="edge">
<title>1&#45;&gt;1</title>
<path fill="none" stroke="white" d="M528.35,-401.34C526.31,-412.1 529.94,-422 539.24,-422 545.19,-422 548.82,-417.94 550.12,-412.19"/>
<polygon fill="white" stroke="white" points="553.62,-412.35 550.13,-402.34 546.62,-412.34 553.62,-412.35"/>
<text text-anchor="middle" x="539.24" y="-425.2" font-family="Times,serif" font-size="14.00" fill="white">\t</text>
</g>
<!-- 1&#45;&gt;1 -->
<g id="edge10" class="edge">
<title>1&#45;&gt;1</title>
<path fill="none" stroke="white" d="M523.2,-397.44C510.3,-416.87 515.65,-440 539.24,-440 558.96,-440 565.93,-423.84 560.15,-407.19"/>
<polygon fill="white" stroke="white" points="562.88,-405.82 555.27,-398.44 556.62,-408.95 562.88,-405.82"/>
<text text-anchor="middle" x="539.24" y="-443.2" font-family="Times,serif" font-size="14.00" fill="white">SP</text>
</g>
<!-- 2 -->
<g id="node3" class="node">
<title>2</title>
<ellipse fill="none" stroke="white" cx="783.24" cy="-237" rx="18" ry="18"/>
<ellipse fill="none" stroke="white" cx="783.24" cy="-237" rx="22" ry="22"/>
<text text-anchor="middle" x="783.24" y="-231.95" font-family="Times,serif" font-size="14.00" fill="white">2</text>
</g>
<!-- 3 -->
<g id="node4" class="node">
<title>3</title>
<ellipse fill="none" stroke="white" cx="539.24" cy="-153" rx="18" ry="18"/>
<ellipse fill="none" stroke="white" cx="539.24" cy="-153" rx="22" ry="22"/>
<text text-anchor="middle" x="539.24" y="-147.95" font-family="Times,serif" font-size="14.00" fill="white">3</text>
</g>
<!-- 3&#45;&gt;2 -->
<g id="edge11" class="edge">
<title>3&#45;&gt;2</title>
<path fill="none" stroke="white" d="M561.21,-155.99C586.61,-159.97 630.46,-167.99 666.49,-180.5 697.58,-191.3 731.19,-208.36 754.14,-220.91"/>
<polygon fill="white" stroke="white" points="752.14,-224.36 762.59,-226.16 755.54,-218.24 752.14,-224.36"/>
<text text-anchor="middle" x="661.24" y="-183.2" font-family="Times,serif" font-size="14.00" fill="white">\n</text>
</g>
<!-- 4 -->
<g id="node5" class="node">
<title>4</title>
<ellipse fill="none" stroke="white" cx="539.24" cy="-22" rx="18" ry="18"/>
<ellipse fill="none" stroke="white" cx="539.24" cy="-22" rx="22" ry="22"/>
<text text-anchor="middle" x="539.24" y="-16.95" font-family="Times,serif" font-size="14.00" fill="white">4</text>
</g>
<!-- 4&#45;&gt;4 -->
<g id="edge12" class="edge">
<title>4&#45;&gt;4</title>
<path fill="none" stroke="white" d="M528.35,-41.34C526.31,-52.1 529.94,-62 539.24,-62 545.19,-62 548.82,-57.94 550.12,-52.19"/>
<polygon fill="white" stroke="white" points="553.62,-52.35 550.13,-42.34 546.62,-52.34 553.62,-52.35"/>
<text text-anchor="middle" x="539.24" y="-65.2" font-family="Times,serif" font-size="14.00" fill="white">\t</text>
</g>
<!-- 4&#45;&gt;4 -->
<g id="edge13" class="edge">
<title>4&#45;&gt;4</title>
<path fill="none" stroke="white" d="M523.2,-37.44C510.3,-56.87 515.65,-80 539.24,-80 558.96,-80 565.93,-63.84 560.15,-47.19"/>
<polygon fill="white" stroke="white" points="562.88,-45.82 555.27,-38.44 556.62,-48.95 562.88,-45.82"/>
<text text-anchor="middle" x="539.24" y="-83.2" font-family="Times,serif" font-size="14.00" fill="white">SP&#45;\uffff</text>
</g>
<!-- 0&#45;&gt;1 -->
<g id="edge2" class="edge">
<title>0&#45;&gt;1</title>
<path fill="none" stroke="white" d="M305.26,-278.5C322.38,-301.94 359.7,-347.59 403.74,-368 436.31,-383.1 477.97,-385.15 506.23,-384.36"/>
<polygon fill="white" stroke="white" points="506.24,-387.82 516.09,-383.9 505.95,-380.83 506.24,-387.82"/>
<text text-anchor="middle" x="411.24" y="-376.2" font-family="Times,serif" font-size="14.00" fill="white">\t</text>
</g>
<!-- 0&#45;&gt;1 -->
<g id="edge5" class="edge">
<title>0&#45;&gt;1</title>
<path fill="none" stroke="white" d="M309.93,-273.64C330.43,-286.86 369.01,-310.91 403.74,-328 438.61,-345.17 480.38,-361.28 508.02,-371.36"/>
<polygon fill="white" stroke="white" points="506.63,-374.94 517.23,-375.04 509.01,-368.36 506.63,-374.94"/>
<text text-anchor="middle" x="411.24" y="-337.2" font-family="Times,serif" font-size="14.00" fill="white">SP</text>
</g>
<!-- 0&#45;&gt;2 -->
<g id="edge3" class="edge">
<title>0&#45;&gt;2</title>
<path fill="none" stroke="white" d="M312.12,-267.47C365.07,-277.76 532.25,-305.69 666.49,-278 696.59,-271.79 729.5,-259.57 752.5,-250.08"/>
<polygon fill="white" stroke="white" points="753.78,-252.92 761.64,-245.81 751.06,-246.47 753.78,-252.92"/>
<text text-anchor="middle" x="539.24" y="-292.2" font-family="Times,serif" font-size="14.00" fill="white">\n</text>
</g>
<!-- 0&#45;&gt;2 -->
<g id="edge7" class="edge">
<title>0&#45;&gt;2</title>
<path fill="none" stroke="white" d="M312.57,-263.04C383.98,-259.08 656.02,-244 750.04,-238.78"/>
<polygon fill="white" stroke="white" points="750.06,-242.23 759.85,-238.19 749.67,-235.24 750.06,-242.23"/>
<text text-anchor="middle" x="539.24" y="-254.2" font-family="Times,serif" font-size="14.00" fill="white">,</text>
</g>
<!-- 0&#45;&gt;2 -->
<g id="edge8" class="edge">
<title>0&#45;&gt;2</title>
<path fill="none" stroke="white" d="M312.12,-260.36C349.07,-252.6 440,-234.64 517.24,-228.5 601.1,-221.84 700.29,-229.02 750.17,-233.68"/>
<polygon fill="white" stroke="white" points="749.61,-237.23 759.9,-234.71 750.28,-230.27 749.61,-237.23"/>
<text text-anchor="middle" x="539.24" y="-231.2" font-family="Times,serif" font-size="14.00" fill="white">\ufeff</text>
</g>
<!-- 0&#45;&gt;3 -->
<g id="edge4" class="edge">
<title>0&#45;&gt;3</title>
<path fill="none" stroke="white" d="M307.64,-251.3C326.57,-232.72 364.61,-198.39 403.74,-180.5 436.69,-165.43 477.95,-158.56 506.02,-155.47"/>
<polygon fill="white" stroke="white" points="506.21,-158.87 515.81,-154.39 505.52,-151.9 506.21,-158.87"/>
<text text-anchor="middle" x="411.24" y="-183.2" font-family="Times,serif" font-size="14.00" fill="white">\r</text>
</g>
<!-- 0&#45;&gt;4 -->
<g id="edge6" class="edge">
<title>0&#45;&gt;4</title>
<path fill="none" stroke="white" d="M307.52,-251.32C327.54,-230.69 368.53,-188.63 403.74,-153.5 442.49,-114.83 488.17,-70.41 515.09,-44.36"/>
<polygon fill="white" stroke="white" points="517.05,-47.36 521.81,-37.89 512.19,-42.32 517.05,-47.36"/>
<text text-anchor="middle" x="411.24" y="-156.2" font-family="Times,serif" font-size="14.00" fill="white">#</text>
</g>
</g>
</svg>
