<?xml version="1.0" encoding="UTF-8" standalone="no"?>
<!DOCTYPE svg PUBLIC "-//W3C//DTD SVG 1.1//EN"
 "http://www.w3.org/Graphics/SVG/1.1/DTD/svg11.dtd">
<!-- Generated by graphviz version 8.1.0 (20230707.0739)
 -->
<!-- Title: finite_state_machine Pages: 1 -->
<svg width="310pt" height="177pt"
 viewBox="0.00 0.00 309.50 177.31" xmlns="http://www.w3.org/2000/svg" xmlns:xlink="http://www.w3.org/1999/xlink">
<g id="graph0" class="graph" transform="scale(1 1) rotate(0) translate(4 173.31)">
<title>finite_state_machine</title>
<!-- &#45;1 -->
<!-- 0 -->
<g id="node4" class="node">
<title>0</title>
<ellipse fill="none" stroke="black" cx="108.5" cy="-82.62" rx="18" ry="18"/>
<text text-anchor="middle" x="108.5" y="-77.57" font-family="Times,serif" font-size="14.00">0</text>
</g>
<!-- &#45;1&#45;&gt;0 -->
<g id="edge1" class="edge">
<title>&#45;1&#45;&gt;0</title>
<path fill="none" stroke="black" d="M53.69,-82.62C61.97,-82.62 71.13,-82.62 79.52,-82.62"/>
<polygon fill="black" stroke="black" points="79.33,-86.12 89.33,-82.62 79.33,-79.12 79.33,-86.12"/>
</g>
<!-- 2 -->
<g id="node2" class="node">
<title>2</title>
<ellipse fill="none" stroke="black" cx="279.5" cy="-143.62" rx="18" ry="18"/>
<ellipse fill="none" stroke="black" cx="279.5" cy="-143.62" rx="22" ry="22"/>
<text text-anchor="middle" x="279.5" y="-138.57" font-family="Times,serif" font-size="14.00">2</text>
</g>
<!-- 3 -->
<g id="node3" class="node">
<title>3</title>
<ellipse fill="none" stroke="black" cx="279.5" cy="-25.62" rx="18" ry="18"/>
<ellipse fill="none" stroke="black" cx="279.5" cy="-25.62" rx="22" ry="22"/>
<text text-anchor="middle" x="279.5" y="-20.57" font-family="Times,serif" font-size="14.00">3</text>
</g>
<!-- 3&#45;&gt;3 -->
<g id="edge7" class="edge">
<title>3&#45;&gt;3</title>
<path fill="none" stroke="black" d="M270.58,-46.2C269.35,-56.47 272.32,-65.62 279.5,-65.62 283.99,-65.62 286.83,-62.05 288.03,-56.86"/>
<polygon fill="black" stroke="black" points="291.55,-57.33 288.42,-47.2 284.56,-57.07 291.55,-57.33"/>
<text text-anchor="middle" x="279.5" y="-68.82" font-family="Times,serif" font-size="14.00">0&#45;9</text>
</g>
<!-- 0&#45;&gt;2 -->
<g id="edge3" class="edge">
<title>0&#45;&gt;2</title>
<path fill="none" stroke="black" d="M124.15,-91.98C130.51,-95.84 138.11,-100.2 145.25,-103.62 177.94,-119.31 186.63,-122.71 221.5,-132.62 229.56,-134.92 238.41,-136.88 246.67,-138.49"/>
<polygon fill="black" stroke="black" points="245.98,-142.1 256.45,-140.46 247.24,-135.22 245.98,-142.1"/>
<text text-anchor="middle" x="185.5" y="-129.82" font-family="Times,serif" font-size="14.00">0</text>
</g>
<!-- 0&#45;&gt;3 -->
<g id="edge4" class="edge">
<title>0&#45;&gt;3</title>
<path fill="none" stroke="black" d="M121.65,-70.45C132.63,-60.26 149.75,-46.26 167.5,-39.12 192.77,-28.96 223.68,-25.89 246.46,-25.18"/>
<polygon fill="black" stroke="black" points="246.3,-28.67 256.24,-25 246.19,-21.67 246.3,-28.67"/>
<text text-anchor="middle" x="185.5" y="-42.82" font-family="Times,serif" font-size="14.00">1&#45;9</text>
</g>
<!-- 1 -->
<g id="node5" class="node">
<title>1</title>
<ellipse fill="none" stroke="black" cx="185.5" cy="-82.62" rx="18" ry="18"/>
<text text-anchor="middle" x="185.5" y="-77.57" font-family="Times,serif" font-size="14.00">1</text>
</g>
<!-- 0&#45;&gt;1 -->
<g id="edge2" class="edge">
<title>0&#45;&gt;1</title>
<path fill="none" stroke="black" d="M126.9,-82.62C135.6,-82.62 146.37,-82.62 156.22,-82.62"/>
<polygon fill="black" stroke="black" points="156.2,-86.12 166.2,-82.62 156.2,-79.12 156.2,-86.12"/>
<text text-anchor="middle" x="147.5" y="-85.82" font-family="Times,serif" font-size="14.00">&#45;</text>
</g>
<!-- 1&#45;&gt;2 -->
<g id="edge5" class="edge">
<title>1&#45;&gt;2</title>
<path fill="none" stroke="black" d="M201.48,-91.81C212.16,-98.43 226.83,-107.66 239.5,-116.12 243.64,-118.89 247.99,-121.88 252.22,-124.82"/>
<polygon fill="black" stroke="black" points="249.97,-128.22 260.16,-131.11 253.99,-122.5 249.97,-128.22"/>
<text text-anchor="middle" x="230.5" y="-118.82" font-family="Times,serif" font-size="14.00">0</text>
</g>
<!-- 1&#45;&gt;3 -->
<g id="edge6" class="edge">
<title>1&#45;&gt;3</title>
<path fill="none" stroke="black" d="M201.28,-73.47C214.7,-65.15 234.83,-52.68 251.17,-42.56"/>
<polygon fill="black" stroke="black" points="252.61,-45.16 259.27,-36.92 248.93,-39.21 252.61,-45.16"/>
<text text-anchor="middle" x="230.5" y="-63.82" font-family="Times,serif" font-size="14.00">1&#45;9</text>
</g>
</g>
</svg>
