<?xml version="1.0" encoding="UTF-8" standalone="no"?>
<!DOCTYPE svg PUBLIC "-//W3C//DTD SVG 1.1//EN"
 "http://www.w3.org/Graphics/SVG/1.1/DTD/svg11.dtd">
<!-- Generated by graphviz version 8.1.0 (20230707.0739)
 -->
<!-- Title: finite_state_machine Pages: 1 -->
<svg width="332pt" height="193pt"
 viewBox="0.00 0.00 332.26 193.36" xmlns="http://www.w3.org/2000/svg" xmlns:xlink="http://www.w3.org/1999/xlink">
<g id="graph0" class="graph" transform="scale(1 1) rotate(0) translate(4 189.36)">
<title>finite_state_machine</title>
<!-- &#45;1 -->
<!-- 0 -->
<g id="node3" class="node">
<title>0</title>
<ellipse fill="none" stroke="black" cx="154.26" cy="-25.36" rx="18" ry="18"/>
<text text-anchor="middle" x="154.26" y="-20.31" font-family="Times,serif" font-size="14.00">0</text>
</g>
<!-- &#45;1&#45;&gt;0 -->
<g id="edge1" class="edge">
<title>&#45;1&#45;&gt;0</title>
<path fill="none" stroke="black" d="M65.7,-25.36C83.48,-25.36 106.9,-25.36 125.04,-25.36"/>
<polygon fill="black" stroke="black" points="124.82,-28.86 134.82,-25.36 124.82,-21.86 124.82,-28.86"/>
</g>
<!-- 1 -->
<g id="node2" class="node">
<title>1</title>
<ellipse fill="none" stroke="black" cx="293.26" cy="-25.36" rx="18" ry="18"/>
<ellipse fill="none" stroke="black" cx="293.26" cy="-25.36" rx="22" ry="22"/>
<text text-anchor="middle" x="293.26" y="-20.31" font-family="Times,serif" font-size="14.00">1</text>
</g>
<!-- 1&#45;&gt;1 -->
<g id="edge5" class="edge">
<title>1&#45;&gt;1</title>
<path fill="none" stroke="black" d="M289.93,-47.58C289.65,-57.16 290.77,-65.36 293.26,-65.36 294.71,-65.36 295.69,-62.62 296.2,-58.46"/>
<polygon fill="black" stroke="black" points="299.73,-58.7 296.6,-48.58 292.74,-58.44 299.73,-58.7"/>
<text text-anchor="middle" x="293.26" y="-68.56" font-family="Times,serif" font-size="14.00">0&#45;9</text>
</g>
<!-- 1&#45;&gt;1 -->
<g id="edge6" class="edge">
<title>1&#45;&gt;1</title>
<path fill="none" stroke="black" d="M287.5,-47.08C285.12,-64.88 287.04,-83.36 293.26,-83.36 298.22,-83.36 300.45,-71.63 299.94,-57.85"/>
<polygon fill="black" stroke="black" points="303.36,-57.75 299.02,-48.08 296.39,-58.34 303.36,-57.75"/>
<text text-anchor="middle" x="293.26" y="-86.56" font-family="Times,serif" font-size="14.00">A&#45;Z</text>
</g>
<!-- 1&#45;&gt;1 -->
<g id="edge7" class="edge">
<title>1&#45;&gt;1</title>
<path fill="none" stroke="black" d="M285.99,-46.37C280.5,-71.66 282.93,-101.36 293.26,-101.36 302.14,-101.36 305.18,-79.43 302.38,-57.21"/>
<polygon fill="black" stroke="black" points="305.66,-56.64 300.53,-47.37 298.76,-57.82 305.66,-56.64"/>
<text text-anchor="middle" x="293.26" y="-104.56" font-family="Times,serif" font-size="14.00">_</text>
</g>
<!-- 1&#45;&gt;1 -->
<g id="edge8" class="edge">
<title>1&#45;&gt;1</title>
<path fill="none" stroke="black" d="M284.9,-46.14C275.92,-78.39 278.71,-119.36 293.26,-119.36 306.28,-119.36 309.88,-86.58 304.07,-56.58"/>
<polygon fill="black" stroke="black" points="307.31,-56.08 301.62,-47.14 300.5,-57.68 307.31,-56.08"/>
<text text-anchor="middle" x="293.26" y="-122.56" font-family="Times,serif" font-size="14.00">a&#45;z</text>
</g>
<!-- 0&#45;&gt;1 -->
<g id="edge2" class="edge">
<title>0&#45;&gt;1</title>
<path fill="none" stroke="black" d="M171.22,-32.1C181.96,-36.27 196.58,-41.21 210.01,-43.36 227.6,-46.18 247.09,-42.24 262.67,-37.33"/>
<polygon fill="black" stroke="black" points="263.46,-40.42 271.77,-33.85 261.18,-33.8 263.46,-40.42"/>
<text text-anchor="middle" x="221.26" y="-46.56" font-family="Times,serif" font-size="14.00">A&#45;Z</text>
</g>
<!-- 0&#45;&gt;1 -->
<g id="edge3" class="edge">
<title>0&#45;&gt;1</title>
<path fill="none" stroke="black" d="M172.52,-24.37C183.29,-23.81 197.46,-23.15 210.01,-22.86 226.51,-22.49 244.88,-22.96 260.06,-23.59"/>
<polygon fill="black" stroke="black" points="259.81,-27.13 269.96,-24.1 260.13,-20.14 259.81,-27.13"/>
<text text-anchor="middle" x="221.26" y="-25.56" font-family="Times,serif" font-size="14.00">_</text>
</g>
<!-- 0&#45;&gt;1 -->
<g id="edge4" class="edge">
<title>0&#45;&gt;1</title>
<path fill="none" stroke="black" d="M170.52,-16.82C181.21,-11.34 196.03,-4.74 210.01,-1.86 228.15,1.86 248.13,-3.61 263.86,-10.22"/>
<polygon fill="black" stroke="black" points="261.97,-13.66 272.52,-14.63 264.88,-7.29 261.97,-13.66"/>
<text text-anchor="middle" x="221.26" y="-4.56" font-family="Times,serif" font-size="14.00">a&#45;z</text>
</g>
</g>
</svg>
