<?xml version="1.0" encoding="UTF-8" standalone="no"?>
<!DOCTYPE svg PUBLIC "-//W3C//DTD SVG 1.1//EN"
 "http://www.w3.org/Graphics/SVG/1.1/DTD/svg11.dtd">
<!-- Generated by graphviz version 8.1.0 (20230707.0739)
 -->
<!-- Title: finite_state_machine Pages: 1 -->
<svg width="742pt" height="496pt"
 viewBox="0.00 0.00 741.75 495.79" xmlns="http://www.w3.org/2000/svg" xmlns:xlink="http://www.w3.org/1999/xlink">
<g id="graph0" class="graph" transform="scale(1 1) rotate(0) translate(4 491.79)">
<title>finite_state_machine</title>
<!-- &#45;1 -->
<!-- 0 -->
<g id="node6" class="node">
<title>0</title>
<ellipse fill="none" stroke="black" cx="108.75" cy="-237.29" rx="18" ry="18"/>
<text text-anchor="middle" x="108.75" y="-232.24" font-family="Times,serif" font-size="14.00">0</text>
</g>
<!-- &#45;1&#45;&gt;0 -->
<g id="edge1" class="edge">
<title>&#45;1&#45;&gt;0</title>
<path fill="none" stroke="black" d="M53.94,-237.29C62.22,-237.29 71.38,-237.29 79.77,-237.29"/>
<polygon fill="black" stroke="black" points="79.58,-240.79 89.58,-237.29 79.58,-233.79 79.58,-240.79"/>
</g>
<!-- 2 -->
<g id="node2" class="node">
<title>2</title>
<ellipse fill="none" stroke="black" cx="279.75" cy="-384.29" rx="18" ry="18"/>
<ellipse fill="none" stroke="black" cx="279.75" cy="-384.29" rx="22" ry="22"/>
<text text-anchor="middle" x="279.75" y="-379.24" font-family="Times,serif" font-size="14.00">2</text>
</g>
<!-- 4 -->
<g id="node8" class="node">
<title>4</title>
<ellipse fill="none" stroke="black" cx="358.75" cy="-190.29" rx="18" ry="18"/>
<text text-anchor="middle" x="358.75" y="-185.24" font-family="Times,serif" font-size="14.00">4</text>
</g>
<!-- 2&#45;&gt;4 -->
<g id="edge7" class="edge">
<title>2&#45;&gt;4</title>
<path fill="none" stroke="black" d="M288.84,-363.9C302.82,-328.68 331.48,-256.49 347.07,-217.2"/>
<polygon fill="black" stroke="black" points="350.66,-218.64 351.1,-208.05 344.15,-216.06 350.66,-218.64"/>
<text text-anchor="middle" x="321.75" y="-284.49" font-family="Times,serif" font-size="14.00">.</text>
</g>
<!-- 5 -->
<g id="node9" class="node">
<title>5</title>
<ellipse fill="none" stroke="black" cx="537.75" cy="-220.29" rx="18" ry="18"/>
<text text-anchor="middle" x="537.75" y="-215.24" font-family="Times,serif" font-size="14.00">5</text>
</g>
<!-- 2&#45;&gt;5 -->
<g id="edge8" class="edge">
<title>2&#45;&gt;5</title>
<path fill="none" stroke="black" d="M290.23,-403.95C296.86,-415.42 306.86,-429.02 319.88,-436.29 390.49,-475.74 442.39,-491.1 501.88,-436.29 528.75,-411.53 534.93,-302 536.34,-249.09"/>
<polygon fill="black" stroke="black" points="539.85,-249.49 536.58,-239.41 532.85,-249.33 539.85,-249.49"/>
<text text-anchor="middle" x="403.75" y="-474.49" font-family="Times,serif" font-size="14.00">E</text>
</g>
<!-- 2&#45;&gt;5 -->
<g id="edge9" class="edge">
<title>2&#45;&gt;5</title>
<path fill="none" stroke="black" d="M298.75,-372.76C343.88,-343.85 461.88,-268.25 512.79,-235.64"/>
<polygon fill="black" stroke="black" points="514.51,-238.06 521.04,-229.71 510.73,-232.16 514.51,-238.06"/>
<text text-anchor="middle" x="403.75" y="-312.49" font-family="Times,serif" font-size="14.00">e</text>
</g>
<!-- 3 -->
<g id="node3" class="node">
<title>3</title>
<ellipse fill="none" stroke="black" cx="279.75" cy="-92.29" rx="18" ry="18"/>
<ellipse fill="none" stroke="black" cx="279.75" cy="-92.29" rx="22" ry="22"/>
<text text-anchor="middle" x="279.75" y="-87.24" font-family="Times,serif" font-size="14.00">3</text>
</g>
<!-- 3&#45;&gt;3 -->
<g id="edge11" class="edge">
<title>3&#45;&gt;3</title>
<path fill="none" stroke="black" d="M272.07,-113.28C271.12,-123.38 273.68,-132.29 279.75,-132.29 283.45,-132.29 285.85,-128.98 286.94,-124.11"/>
<polygon fill="black" stroke="black" points="290.47,-124.43 287.43,-114.28 283.48,-124.11 290.47,-124.43"/>
<text text-anchor="middle" x="279.75" y="-135.49" font-family="Times,serif" font-size="14.00">0&#45;9</text>
</g>
<!-- 3&#45;&gt;4 -->
<g id="edge10" class="edge">
<title>3&#45;&gt;4</title>
<path fill="none" stroke="black" d="M294.16,-109.36C306.86,-125.52 326,-149.88 339.96,-167.65"/>
<polygon fill="black" stroke="black" points="337.8,-169.57 346.73,-175.27 343.31,-165.24 337.8,-169.57"/>
<text text-anchor="middle" x="321.75" y="-147.49" font-family="Times,serif" font-size="14.00">.</text>
</g>
<!-- 3&#45;&gt;5 -->
<g id="edge12" class="edge">
<title>3&#45;&gt;5</title>
<path fill="none" stroke="black" d="M291.17,-73.11C298.03,-62.11 307.93,-48.84 319.88,-40.29 385.66,6.77 446.92,19.06 501.88,-40.29 521.87,-61.88 531.17,-146.19 534.8,-191.35"/>
<polygon fill="black" stroke="black" points="531.38,-191.48 535.62,-201.19 538.36,-190.95 531.38,-191.48"/>
<text text-anchor="middle" x="403.75" y="-6.49" font-family="Times,serif" font-size="14.00">E</text>
</g>
<!-- 3&#45;&gt;5 -->
<g id="edge13" class="edge">
<title>3&#45;&gt;5</title>
<path fill="none" stroke="black" d="M301.41,-97.22C337.81,-106.37 415.14,-127.96 474.75,-159.29 492.4,-168.57 508.34,-184.51 519.64,-197.77"/>
<polygon fill="black" stroke="black" points="517.33,-199.47 526.36,-205 522.75,-195.04 517.33,-199.47"/>
<text text-anchor="middle" x="403.75" y="-135.49" font-family="Times,serif" font-size="14.00">e</text>
</g>
<!-- 6 -->
<g id="node4" class="node">
<title>6</title>
<ellipse fill="none" stroke="black" cx="452.75" cy="-190.29" rx="18" ry="18"/>
<ellipse fill="none" stroke="black" cx="452.75" cy="-190.29" rx="22" ry="22"/>
<text text-anchor="middle" x="452.75" y="-185.24" font-family="Times,serif" font-size="14.00">6</text>
</g>
<!-- 6&#45;&gt;6 -->
<g id="edge18" class="edge">
<title>6&#45;&gt;6</title>
<path fill="none" stroke="black" d="M444.56,-210.87C443.43,-221.14 446.16,-230.29 452.75,-230.29 456.87,-230.29 459.48,-226.71 460.58,-221.53"/>
<polygon fill="black" stroke="black" points="464.1,-221.98 460.94,-211.87 457.11,-221.75 464.1,-221.98"/>
<text text-anchor="middle" x="452.75" y="-233.49" font-family="Times,serif" font-size="14.00">0&#45;9</text>
</g>
<!-- 6&#45;&gt;5 -->
<g id="edge19" class="edge">
<title>6&#45;&gt;5</title>
<path fill="none" stroke="black" d="M473.84,-197.55C484.79,-201.51 498.47,-206.45 510.28,-210.72"/>
<polygon fill="black" stroke="black" points="508.87,-214.3 519.46,-214.4 511.25,-207.71 508.87,-214.3"/>
<text text-anchor="middle" x="497.75" y="-210.49" font-family="Times,serif" font-size="14.00">E</text>
</g>
<!-- 6&#45;&gt;5 -->
<g id="edge20" class="edge">
<title>6&#45;&gt;5</title>
<path fill="none" stroke="black" d="M474.06,-183.57C482.89,-181.75 493.19,-181.15 501.88,-184.79 508.57,-187.6 514.62,-192.38 519.74,-197.55"/>
<polygon fill="black" stroke="black" points="516.72,-199.56 525.96,-204.75 521.98,-194.93 516.72,-199.56"/>
<text text-anchor="middle" x="497.75" y="-188.49" font-family="Times,serif" font-size="14.00">e</text>
</g>
<!-- 8 -->
<g id="node5" class="node">
<title>8</title>
<ellipse fill="none" stroke="black" cx="711.75" cy="-234.29" rx="18" ry="18"/>
<ellipse fill="none" stroke="black" cx="711.75" cy="-234.29" rx="22" ry="22"/>
<text text-anchor="middle" x="711.75" y="-229.24" font-family="Times,serif" font-size="14.00">8</text>
</g>
<!-- 8&#45;&gt;8 -->
<g id="edge22" class="edge">
<title>8&#45;&gt;8</title>
<path fill="none" stroke="black" d="M702.83,-254.87C701.6,-265.14 704.57,-274.29 711.75,-274.29 716.24,-274.29 719.08,-270.71 720.28,-265.53"/>
<polygon fill="black" stroke="black" points="723.8,-265.99 720.67,-255.87 716.81,-265.74 723.8,-265.99"/>
<text text-anchor="middle" x="711.75" y="-277.49" font-family="Times,serif" font-size="14.00">0&#45;9</text>
</g>
<!-- 0&#45;&gt;2 -->
<g id="edge3" class="edge">
<title>0&#45;&gt;2</title>
<path fill="none" stroke="black" d="M122.19,-249.4C142.53,-269.03 184.39,-308.79 221.75,-340.29 231.7,-348.68 242.99,-357.53 252.88,-365.07"/>
<polygon fill="black" stroke="black" points="250.4,-368.34 260.49,-371.57 254.62,-362.75 250.4,-368.34"/>
<text text-anchor="middle" x="185.75" y="-326.49" font-family="Times,serif" font-size="14.00">0</text>
</g>
<!-- 0&#45;&gt;3 -->
<g id="edge4" class="edge">
<title>0&#45;&gt;3</title>
<path fill="none" stroke="black" d="M123.01,-225.91C151.32,-201.62 218.04,-144.38 254.28,-113.28"/>
<polygon fill="black" stroke="black" points="256.07,-115.51 261.38,-106.34 251.51,-110.19 256.07,-115.51"/>
<text text-anchor="middle" x="185.75" y="-189.49" font-family="Times,serif" font-size="14.00">1&#45;9</text>
</g>
<!-- 1 -->
<g id="node7" class="node">
<title>1</title>
<ellipse fill="none" stroke="black" cx="185.75" cy="-237.29" rx="18" ry="18"/>
<text text-anchor="middle" x="185.75" y="-232.24" font-family="Times,serif" font-size="14.00">1</text>
</g>
<!-- 0&#45;&gt;1 -->
<g id="edge2" class="edge">
<title>0&#45;&gt;1</title>
<path fill="none" stroke="black" d="M127.15,-237.29C135.85,-237.29 146.62,-237.29 156.47,-237.29"/>
<polygon fill="black" stroke="black" points="156.45,-240.79 166.45,-237.29 156.45,-233.79 156.45,-240.79"/>
<text text-anchor="middle" x="146.75" y="-240.49" font-family="Times,serif" font-size="14.00">&#45;</text>
</g>
<!-- 1&#45;&gt;2 -->
<g id="edge5" class="edge">
<title>1&#45;&gt;2</title>
<path fill="none" stroke="black" d="M196.25,-252.47C211.64,-277.07 242.26,-325.98 261.56,-356.82"/>
<polygon fill="black" stroke="black" points="258.88,-358.14 267.15,-364.76 264.81,-354.43 258.88,-358.14"/>
<text text-anchor="middle" x="230.75" y="-322.49" font-family="Times,serif" font-size="14.00">0</text>
</g>
<!-- 1&#45;&gt;3 -->
<g id="edge6" class="edge">
<title>1&#45;&gt;3</title>
<path fill="none" stroke="black" d="M196.25,-222.32C211.58,-198.16 242,-150.22 261.31,-119.78"/>
<polygon fill="black" stroke="black" points="264.75,-121.89 267.15,-111.57 258.84,-118.14 264.75,-121.89"/>
<text text-anchor="middle" x="230.75" y="-185.49" font-family="Times,serif" font-size="14.00">1&#45;9</text>
</g>
<!-- 4&#45;&gt;6 -->
<g id="edge14" class="edge">
<title>4&#45;&gt;6</title>
<path fill="none" stroke="black" d="M377.05,-190.29C388.97,-190.29 405.15,-190.29 419.41,-190.29"/>
<polygon fill="black" stroke="black" points="419.31,-193.79 429.31,-190.29 419.31,-186.79 419.31,-193.79"/>
<text text-anchor="middle" x="403.75" y="-193.49" font-family="Times,serif" font-size="14.00">0&#45;9</text>
</g>
<!-- 5&#45;&gt;8 -->
<g id="edge17" class="edge">
<title>5&#45;&gt;8</title>
<path fill="none" stroke="black" d="M556.19,-221.71C584.86,-224.04 642.37,-228.72 678.58,-231.67"/>
<polygon fill="black" stroke="black" points="678.28,-235.24 688.53,-232.56 678.84,-228.26 678.28,-235.24"/>
<text text-anchor="middle" x="617.75" y="-231.49" font-family="Times,serif" font-size="14.00">0&#45;9</text>
</g>
<!-- 7 -->
<g id="node10" class="node">
<title>7</title>
<ellipse fill="none" stroke="black" cx="617.75" cy="-160.29" rx="18" ry="18"/>
<text text-anchor="middle" x="617.75" y="-155.24" font-family="Times,serif" font-size="14.00">7</text>
</g>
<!-- 5&#45;&gt;7 -->
<g id="edge15" class="edge">
<title>5&#45;&gt;7</title>
<path fill="none" stroke="black" d="M552.69,-209.56C564.23,-200.69 580.84,-187.92 594.25,-177.6"/>
<polygon fill="black" stroke="black" points="596.13,-179.8 601.93,-170.92 591.87,-174.25 596.13,-179.8"/>
<text text-anchor="middle" x="577.75" y="-195.49" font-family="Times,serif" font-size="14.00">+</text>
</g>
<!-- 5&#45;&gt;7 -->
<g id="edge16" class="edge">
<title>5&#45;&gt;7</title>
<path fill="none" stroke="black" d="M545.73,-203.79C551.51,-192.18 560.84,-177.26 573.62,-168.79 578.16,-165.79 583.51,-163.8 588.87,-162.49"/>
<polygon fill="black" stroke="black" points="589.36,-165.79 598.63,-160.66 588.19,-158.89 589.36,-165.79"/>
<text text-anchor="middle" x="577.75" y="-172.49" font-family="Times,serif" font-size="14.00">&#45;</text>
</g>
<!-- 7&#45;&gt;8 -->
<g id="edge21" class="edge">
<title>7&#45;&gt;8</title>
<path fill="none" stroke="black" d="M632.32,-171.21C646.29,-182.44 668.35,-200.19 685.53,-214"/>
<polygon fill="black" stroke="black" points="683.01,-217.27 693,-220.81 687.4,-211.82 683.01,-217.27"/>
<text text-anchor="middle" x="662.75" y="-205.49" font-family="Times,serif" font-size="14.00">0&#45;9</text>
</g>
</g>
</svg>
