<?xml version="1.0" encoding="UTF-8" standalone="no"?>
<!DOCTYPE svg PUBLIC "-//W3C//DTD SVG 1.1//EN"
 "http://www.w3.org/Graphics/SVG/1.1/DTD/svg11.dtd">
<!-- Generated by graphviz version 8.1.0 (20230707.0739)
 -->
<!-- Title: finite_state_machine Pages: 1 -->
<svg width="263pt" height="151pt"
 viewBox="0.00 0.00 263.00 151.44" xmlns="http://www.w3.org/2000/svg" xmlns:xlink="http://www.w3.org/1999/xlink">
<g id="graph0" class="graph" transform="scale(1 1) rotate(0) translate(4 147.44)">
<title>finite_state_machine</title>
<!-- &#45;1 -->
<!-- 0 -->
<g id="node3" class="node">
<title>0</title>
<ellipse fill="none" stroke="black" cx="109" cy="-72.06" rx="18" ry="18"/>
<text text-anchor="middle" x="109" y="-67.01" font-family="Times,serif" font-size="14.00">0</text>
</g>
<!-- &#45;1&#45;&gt;0 -->
<g id="edge1" class="edge">
<title>&#45;1&#45;&gt;0</title>
<path fill="none" stroke="black" d="M54.19,-72.06C62.47,-72.06 71.63,-72.06 80.02,-72.06"/>
<polygon fill="black" stroke="black" points="79.83,-75.56 89.83,-72.06 79.83,-68.56 79.83,-75.56"/>
</g>
<!-- 1 -->
<g id="node2" class="node">
<title>1</title>
<ellipse fill="none" stroke="black" cx="233" cy="-72.06" rx="18" ry="18"/>
<ellipse fill="none" stroke="black" cx="233" cy="-72.06" rx="22" ry="22"/>
<text text-anchor="middle" x="233" y="-67.01" font-family="Times,serif" font-size="14.00">1</text>
</g>
<!-- 0&#45;&gt;1 -->
<g id="edge2" class="edge">
<title>0&#45;&gt;1</title>
<path fill="none" stroke="black" d="M123.84,-82.73C129.97,-86.81 137.49,-90.98 145,-93.06 165.56,-98.76 172.31,-98.28 193,-93.06 196.88,-92.08 200.8,-90.63 204.57,-88.95"/>
<polygon fill="black" stroke="black" points="205.8,-91.74 213.12,-84.08 202.62,-85.5 205.8,-91.74"/>
<text text-anchor="middle" x="169" y="-100.26" font-family="Times,serif" font-size="14.00">\t&#45;\n</text>
</g>
<!-- 0&#45;&gt;1 -->
<g id="edge3" class="edge">
<title>0&#45;&gt;1</title>
<path fill="none" stroke="black" d="M127.48,-72.06C146.39,-72.06 176.95,-72.06 200.15,-72.06"/>
<polygon fill="black" stroke="black" points="199.86,-75.56 209.86,-72.06 199.86,-68.56 199.86,-75.56"/>
<text text-anchor="middle" x="169" y="-75.26" font-family="Times,serif" font-size="14.00">\r</text>
</g>
<!-- 0&#45;&gt;1 -->
<g id="edge4" class="edge">
<title>0&#45;&gt;1</title>
<path fill="none" stroke="black" d="M123.87,-61.64C130.01,-57.66 137.52,-53.59 145,-51.56 165.59,-45.98 172.29,-46.45 193,-51.56 196.87,-52.52 200.77,-53.93 204.54,-55.58"/>
<polygon fill="black" stroke="black" points="202.57,-59 213.09,-60.33 205.69,-52.74 202.57,-59"/>
<text text-anchor="middle" x="169" y="-54.26" font-family="Times,serif" font-size="14.00">SP&#45;\uffff</text>
</g>
</g>
</svg>
