<?xml version="1.0" encoding="UTF-8" standalone="no"?>
<!DOCTYPE svg PUBLIC "-//W3C//DTD SVG 1.1//EN"
 "http://www.w3.org/Graphics/SVG/1.1/DTD/svg11.dtd">
<!-- Generated by graphviz version 8.1.0 (20230707.0739)
 -->
<!-- Title: finite_state_machine Pages: 1 -->
<svg width="882pt" height="613pt"
 viewBox="0.00 0.00 881.87 612.91" xmlns="http://www.w3.org/2000/svg" xmlns:xlink="http://www.w3.org/1999/xlink">
<g id="graph0" class="graph" transform="scale(1 1) rotate(0) translate(4 608.91)">
<title>finite_state_machine</title>
<!-- &#45;1 -->
<!-- 0 -->
<g id="node3" class="node">
<title>0</title>
<ellipse fill="none" stroke="white" cx="141.87" cy="-482.41" rx="18" ry="18"/>
<text text-anchor="middle" x="141.87" y="-477.36" font-family="Times,serif" font-size="14.00" fill="white">0</text>
</g>
<!-- &#45;1&#45;&gt;0 -->
<g id="edge1" class="edge">
<title>&#45;1&#45;&gt;0</title>
<path fill="none" stroke="white" d="M62.36,-482.41C77.81,-482.41 97.28,-482.41 112.96,-482.41"/>
<polygon fill="white" stroke="white" points="112.6,-485.91 122.6,-482.41 112.6,-478.91 112.6,-485.91"/>
</g>
<!-- 1 -->
<g id="node2" class="node">
<title>1</title>
<ellipse fill="none" stroke="white" cx="844.87" cy="-265.41" rx="18" ry="18"/>
<ellipse fill="none" stroke="white" cx="844.87" cy="-265.41" rx="22" ry="22"/>
<text text-anchor="middle" x="844.87" y="-260.36" font-family="Times,serif" font-size="14.00" fill="white">1</text>
</g>
<!-- 0&#45;&gt;1 -->
<g id="edge2" class="edge">
<title>0&#45;&gt;1</title>
<path fill="none" stroke="white" d="M149.61,-498.97C162.97,-528.79 195.83,-588.41 244.87,-588.41 244.87,-588.41 244.87,-588.41 718.87,-588.41 754.82,-588.41 768.62,-578.5 789.74,-549.41 818.67,-509.58 835.04,-364.05 841.12,-298.19"/>
<polygon fill="white" stroke="white" points="844.66,-298.86 842.07,-288.59 837.69,-298.24 844.66,-298.86"/>
<text text-anchor="middle" x="471.87" y="-591.61" font-family="Times,serif" font-size="14.00" fill="white">\t</text>
</g>
<!-- 0&#45;&gt;1 -->
<g id="edge3" class="edge">
<title>0&#45;&gt;1</title>
<path fill="none" stroke="white" d="M155.92,-494.44C174.31,-510.07 209.54,-535.41 244.87,-535.41 244.87,-535.41 244.87,-535.41 718.87,-535.41 822.32,-535.41 840.41,-370.15 843.38,-298.21"/>
<polygon fill="white" stroke="white" points="846.91,-298.62 843.74,-288.51 839.91,-298.38 846.91,-298.62"/>
<text text-anchor="middle" x="471.87" y="-538.61" font-family="Times,serif" font-size="14.00" fill="white">SP&#45;!</text>
</g>
<!-- 0&#45;&gt;1 -->
<g id="edge4" class="edge">
<title>0&#45;&gt;1</title>
<path fill="none" stroke="white" d="M160.19,-482.41C180.49,-482.41 215.12,-482.41 244.87,-482.41 244.87,-482.41 244.87,-482.41 718.87,-482.41 754.82,-482.41 767.09,-471.33 789.74,-443.41 824.19,-400.94 836.75,-336.8 841.3,-298.22"/>
<polygon fill="white" stroke="white" points="844.85,-298.91 842.43,-288.59 837.89,-298.17 844.85,-298.91"/>
<text text-anchor="middle" x="471.87" y="-485.61" font-family="Times,serif" font-size="14.00" fill="white">#&#45;[</text>
</g>
<!-- 0&#45;&gt;1 -->
<g id="edge6" class="edge">
<title>0&#45;&gt;1</title>
<path fill="none" stroke="white" d="M155.92,-470.38C174.31,-454.75 209.54,-429.41 244.87,-429.41 244.87,-429.41 244.87,-429.41 718.87,-429.41 784.63,-429.41 820.38,-344.97 835.32,-297.27"/>
<polygon fill="white" stroke="white" points="838.93,-298.43 838.44,-287.85 832.22,-296.43 838.93,-298.43"/>
<text text-anchor="middle" x="471.87" y="-432.61" font-family="Times,serif" font-size="14.00" fill="white">]&#45;\uffff</text>
</g>
<!-- 2 -->
<g id="node4" class="node">
<title>2</title>
<ellipse fill="none" stroke="white" cx="245.87" cy="-245.41" rx="18" ry="18"/>
<text text-anchor="middle" x="245.87" y="-240.36" font-family="Times,serif" font-size="14.00" fill="white">2</text>
</g>
<!-- 0&#45;&gt;2 -->
<g id="edge5" class="edge">
<title>0&#45;&gt;2</title>
<path fill="none" stroke="white" d="M149.88,-466.12C167.24,-425.78 212.35,-320.97 233.55,-271.71"/>
<polygon fill="white" stroke="white" points="237.07,-273.38 237.81,-262.81 230.64,-270.62 237.07,-273.38"/>
<text text-anchor="middle" x="193.87" y="-373.61" font-family="Times,serif" font-size="14.00" fill="white">\\</text>
</g>
<!-- 2&#45;&gt;1 -->
<g id="edge7" class="edge">
<title>2&#45;&gt;1</title>
<path fill="none" stroke="white" d="M248.3,-263.4C251.47,-289.62 261.55,-337.56 293.49,-359.41 339,-390.54 742.23,-387.4 789.74,-359.41 812.75,-345.86 826.88,-318.48 834.9,-296.75"/>
<polygon fill="white" stroke="white" points="838.44,-298.22 838.36,-287.62 831.82,-295.95 838.44,-298.22"/>
<text text-anchor="middle" x="533.87" y="-384.61" font-family="Times,serif" font-size="14.00" fill="white">&quot;</text>
</g>
<!-- 2&#45;&gt;1 -->
<g id="edge8" class="edge">
<title>2&#45;&gt;1</title>
<path fill="none" stroke="white" d="M253.96,-262.01C261.67,-278.39 275.34,-303.26 293.49,-319.41 313.5,-337.22 321.08,-345.41 347.87,-345.41 347.87,-345.41 347.87,-345.41 718.87,-345.41 752.42,-345.41 761.46,-337.46 789.74,-319.41 801.98,-311.6 813.64,-300.61 822.98,-290.58"/>
<polygon fill="white" stroke="white" points="825.18,-293.25 829.25,-283.47 819.97,-288.58 825.18,-293.25"/>
<text text-anchor="middle" x="533.87" y="-348.61" font-family="Times,serif" font-size="14.00" fill="white">/</text>
</g>
<!-- 2&#45;&gt;1 -->
<g id="edge9" class="edge">
<title>2&#45;&gt;1</title>
<path fill="none" stroke="white" d="M258.87,-258.43C276.53,-276.08 311.36,-305.41 347.87,-305.41 347.87,-305.41 347.87,-305.41 718.87,-305.41 753.16,-305.41 790.33,-291.59 815.15,-280.19"/>
<polygon fill="white" stroke="white" points="816.46,-282.97 823.98,-275.5 813.45,-276.65 816.46,-282.97"/>
<text text-anchor="middle" x="533.87" y="-308.61" font-family="Times,serif" font-size="14.00" fill="white">\\</text>
</g>
<!-- 2&#45;&gt;1 -->
<g id="edge10" class="edge">
<title>2&#45;&gt;1</title>
<path fill="none" stroke="white" d="M263.47,-250.77C283.32,-256.69 317.66,-265.41 347.87,-265.41 347.87,-265.41 347.87,-265.41 718.87,-265.41 750.48,-265.41 786.6,-265.41 811.85,-265.41"/>
<polygon fill="white" stroke="white" points="811.63,-268.91 821.63,-265.41 811.63,-261.91 811.63,-268.91"/>
<text text-anchor="middle" x="533.87" y="-268.61" font-family="Times,serif" font-size="14.00" fill="white">b</text>
</g>
<!-- 2&#45;&gt;1 -->
<g id="edge11" class="edge">
<title>2&#45;&gt;1</title>
<path fill="none" stroke="white" d="M263.47,-240.05C283.32,-234.13 317.66,-225.41 347.87,-225.41 347.87,-225.41 347.87,-225.41 718.87,-225.41 753.16,-225.41 790.33,-239.23 815.15,-250.63"/>
<polygon fill="white" stroke="white" points="813.45,-254.17 823.98,-255.32 816.46,-247.85 813.45,-254.17"/>
<text text-anchor="middle" x="533.87" y="-228.61" font-family="Times,serif" font-size="14.00" fill="white">f</text>
</g>
<!-- 2&#45;&gt;1 -->
<g id="edge12" class="edge">
<title>2&#45;&gt;1</title>
<path fill="none" stroke="white" d="M258.87,-232.39C276.53,-214.74 311.36,-185.41 347.87,-185.41 347.87,-185.41 347.87,-185.41 718.87,-185.41 760.58,-185.41 799.53,-217.41 822.53,-240.93"/>
<polygon fill="white" stroke="white" points="819.57,-242.96 828.98,-247.83 824.66,-238.16 819.57,-242.96"/>
<text text-anchor="middle" x="533.87" y="-188.61" font-family="Times,serif" font-size="14.00" fill="white">n</text>
</g>
<!-- 2&#45;&gt;1 -->
<g id="edge13" class="edge">
<title>2&#45;&gt;1</title>
<path fill="none" stroke="white" d="M254.2,-228.9C268.06,-200.49 300.98,-145.41 347.87,-145.41 347.87,-145.41 347.87,-145.41 718.87,-145.41 771.11,-145.41 810,-200.64 829.61,-236.16"/>
<polygon fill="white" stroke="white" points="826.84,-237.41 834.62,-244.59 833.02,-234.12 826.84,-237.41"/>
<text text-anchor="middle" x="533.87" y="-148.61" font-family="Times,serif" font-size="14.00" fill="white">r</text>
</g>
<!-- 2&#45;&gt;1 -->
<g id="edge14" class="edge">
<title>2&#45;&gt;1</title>
<path fill="none" stroke="white" d="M250.79,-227.68C260.28,-190.01 288.23,-105.41 347.87,-105.41 347.87,-105.41 347.87,-105.41 718.87,-105.41 783.32,-105.41 819.47,-187.03 834.87,-233.68"/>
<polygon fill="white" stroke="white" points="831.83,-234.68 838.17,-243.16 838.5,-232.57 831.83,-234.68"/>
<text text-anchor="middle" x="533.87" y="-108.61" font-family="Times,serif" font-size="14.00" fill="white">t</text>
</g>
<!-- 3 -->
<g id="node5" class="node">
<title>3</title>
<ellipse fill="none" stroke="white" cx="348.87" cy="-45.41" rx="18" ry="18"/>
<text text-anchor="middle" x="348.87" y="-40.36" font-family="Times,serif" font-size="14.00" fill="white">3</text>
</g>
<!-- 2&#45;&gt;3 -->
<g id="edge15" class="edge">
<title>2&#45;&gt;3</title>
<path fill="none" stroke="white" d="M247.3,-227.16C249.01,-193.52 256.98,-120.96 293.49,-74.91 300.62,-65.92 311.28,-59.29 321.27,-54.62"/>
<polygon fill="white" stroke="white" points="322.39,-57.53 330.27,-50.45 319.69,-51.07 322.39,-57.53"/>
<text text-anchor="middle" x="296.87" y="-78.61" font-family="Times,serif" font-size="14.00" fill="white">u</text>
</g>
<!-- 4 -->
<g id="node6" class="node">
<title>4</title>
<ellipse fill="none" stroke="white" cx="471.87" cy="-29.41" rx="18" ry="18"/>
<text text-anchor="middle" x="471.87" y="-24.36" font-family="Times,serif" font-size="14.00" fill="white">4</text>
</g>
<!-- 3&#45;&gt;4 -->
<g id="edge16" class="edge">
<title>3&#45;&gt;4</title>
<path fill="none" stroke="white" d="M366.92,-48.69C381.38,-50.93 402.59,-52.9 420.74,-49.41 429.09,-47.81 437.82,-44.83 445.61,-41.65"/>
<polygon fill="white" stroke="white" points="446.77,-44.52 454.53,-37.3 443.96,-38.11 446.77,-44.52"/>
<text text-anchor="middle" x="409.87" y="-54.61" font-family="Times,serif" font-size="14.00" fill="white">0&#45;9</text>
</g>
<!-- 3&#45;&gt;4 -->
<g id="edge17" class="edge">
<title>3&#45;&gt;4</title>
<path fill="none" stroke="white" d="M365.91,-38.55C375.35,-34.89 387.63,-30.77 398.99,-28.91 413.28,-26.57 429.38,-26.46 442.71,-27.03"/>
<polygon fill="white" stroke="white" points="442.42,-30.58 452.61,-27.67 442.83,-23.59 442.42,-30.58"/>
<text text-anchor="middle" x="409.87" y="-32.61" font-family="Times,serif" font-size="14.00" fill="white">A&#45;F</text>
</g>
<!-- 3&#45;&gt;4 -->
<g id="edge18" class="edge">
<title>3&#45;&gt;4</title>
<path fill="none" stroke="white" d="M361.76,-32.29C370.92,-23.23 384.45,-11.93 398.99,-6.91 414.91,-1.42 432.99,-7.14 447.04,-14.19"/>
<polygon fill="white" stroke="white" points="445.03,-17.63 455.47,-19.41 448.42,-11.5 445.03,-17.63"/>
<text text-anchor="middle" x="409.87" y="-10.61" font-family="Times,serif" font-size="14.00" fill="white">a&#45;f</text>
</g>
<!-- 5 -->
<g id="node7" class="node">
<title>5</title>
<ellipse fill="none" stroke="white" cx="594.87" cy="-27.41" rx="18" ry="18"/>
<text text-anchor="middle" x="594.87" y="-22.36" font-family="Times,serif" font-size="14.00" fill="white">5</text>
</g>
<!-- 4&#45;&gt;5 -->
<g id="edge19" class="edge">
<title>4&#45;&gt;5</title>
<path fill="none" stroke="white" d="M489.08,-35.87C503.61,-40.86 525.53,-46.46 544.74,-43.41 552.27,-42.21 560.22,-40.05 567.47,-37.69"/>
<polygon fill="white" stroke="white" points="568.53,-40.68 576.81,-34.06 566.21,-34.07 568.53,-40.68"/>
<text text-anchor="middle" x="533.87" y="-47.61" font-family="Times,serif" font-size="14.00" fill="white">0&#45;9</text>
</g>
<!-- 4&#45;&gt;5 -->
<g id="edge20" class="edge">
<title>4&#45;&gt;5</title>
<path fill="none" stroke="white" d="M489.98,-26.64C499.64,-25.21 511.96,-23.62 522.99,-22.91 532.64,-22.29 535.09,-22.47 544.74,-22.91 551.54,-23.22 558.85,-23.77 565.7,-24.38"/>
<polygon fill="white" stroke="white" points="565.32,-27.96 575.62,-25.44 566,-20.99 565.32,-27.96"/>
<text text-anchor="middle" x="533.87" y="-26.61" font-family="Times,serif" font-size="14.00" fill="white">A&#45;F</text>
</g>
<!-- 4&#45;&gt;5 -->
<g id="edge21" class="edge">
<title>4&#45;&gt;5</title>
<path fill="none" stroke="white" d="M487.02,-19.53C496.66,-13.41 510,-6.13 522.99,-2.91 538.9,1.04 556.31,-4.83 569.89,-11.8"/>
<polygon fill="white" stroke="white" points="568.01,-15.33 578.44,-17.21 571.46,-9.24 568.01,-15.33"/>
<text text-anchor="middle" x="533.87" y="-6.61" font-family="Times,serif" font-size="14.00" fill="white">a&#45;f</text>
</g>
<!-- 6 -->
<g id="node8" class="node">
<title>6</title>
<ellipse fill="none" stroke="white" cx="717.87" cy="-29.41" rx="18" ry="18"/>
<text text-anchor="middle" x="717.87" y="-24.36" font-family="Times,serif" font-size="14.00" fill="white">6</text>
</g>
<!-- 5&#45;&gt;6 -->
<g id="edge22" class="edge">
<title>5&#45;&gt;6</title>
<path fill="none" stroke="white" d="M611.21,-35.3C620.9,-39.83 633.85,-45.08 645.99,-47.41 661.14,-50.32 677.88,-46.41 691.28,-41.5"/>
<polygon fill="white" stroke="white" points="692.28,-44.47 700.22,-37.46 689.64,-37.99 692.28,-44.47"/>
<text text-anchor="middle" x="656.87" y="-51.61" font-family="Times,serif" font-size="14.00" fill="white">0&#45;9</text>
</g>
<!-- 5&#45;&gt;6 -->
<g id="edge23" class="edge">
<title>5&#45;&gt;6</title>
<path fill="none" stroke="white" d="M613.3,-26.97C627.86,-26.68 649.16,-26.44 667.74,-26.91 674.52,-27.08 681.83,-27.39 688.67,-27.73"/>
<polygon fill="white" stroke="white" points="688.42,-31.27 698.6,-28.32 688.8,-24.28 688.42,-31.27"/>
<text text-anchor="middle" x="656.87" y="-30.61" font-family="Times,serif" font-size="14.00" fill="white">A&#45;F</text>
</g>
<!-- 5&#45;&gt;6 -->
<g id="edge24" class="edge">
<title>5&#45;&gt;6</title>
<path fill="none" stroke="white" d="M610.87,-18.64C625.31,-11.26 647.84,-2.57 667.74,-6.91 676.06,-8.72 684.65,-12.08 692.28,-15.66"/>
<polygon fill="white" stroke="white" points="690.47,-19.16 700.97,-20.54 693.62,-12.91 690.47,-19.16"/>
<text text-anchor="middle" x="656.87" y="-10.61" font-family="Times,serif" font-size="14.00" fill="white">a&#45;f</text>
</g>
<!-- 6&#45;&gt;1 -->
<g id="edge25" class="edge">
<title>6&#45;&gt;1</title>
<path fill="none" stroke="white" d="M735.11,-35.75C751.3,-42.88 775.71,-56.01 789.74,-74.91 824.88,-122.25 837.23,-191.65 841.55,-232.31"/>
<polygon fill="white" stroke="white" points="838.16,-232.59 842.59,-242.21 845.13,-231.93 838.16,-232.59"/>
<text text-anchor="middle" x="778.87" y="-78.61" font-family="Times,serif" font-size="14.00" fill="white">0&#45;9</text>
</g>
<!-- 6&#45;&gt;1 -->
<g id="edge26" class="edge">
<title>6&#45;&gt;1</title>
<path fill="none" stroke="white" d="M735.87,-25.58C751.71,-23.09 775.03,-22.3 789.74,-34.91 819.44,-60.37 834.89,-175.36 840.87,-232.7"/>
<polygon fill="white" stroke="white" points="837.46,-232.75 841.94,-242.35 844.42,-232.05 837.46,-232.75"/>
<text text-anchor="middle" x="778.87" y="-38.61" font-family="Times,serif" font-size="14.00" fill="white">A&#45;F</text>
</g>
<!-- 6&#45;&gt;1 -->
<g id="edge27" class="edge">
<title>6&#45;&gt;1</title>
<path fill="none" stroke="white" d="M732.24,-18.12C747.6,-6.59 772.84,7.83 789.74,-5.91 824.45,-34.13 837.66,-169.13 842,-232.47"/>
<polygon fill="white" stroke="white" points="838.57,-232.67 842.71,-242.42 845.56,-232.21 838.57,-232.67"/>
<text text-anchor="middle" x="778.87" y="-9.61" font-family="Times,serif" font-size="14.00" fill="white">a&#45;f</text>
</g>
</g>
</svg>
