<?xml version="1.0" encoding="UTF-8" standalone="no"?>
<!DOCTYPE svg PUBLIC "-//W3C//DTD SVG 1.1//EN"
 "http://www.w3.org/Graphics/SVG/1.1/DTD/svg11.dtd">
<!-- Generated by graphviz version 8.1.0 (20230707.0739)
 -->
<!-- Title: finite_state_machine Pages: 1 -->
<svg width="1132pt" height="744pt"
 viewBox="0.00 0.00 1131.56 744.00" xmlns="http://www.w3.org/2000/svg" xmlns:xlink="http://www.w3.org/1999/xlink">
<g id="graph0" class="graph" transform="scale(1 1) rotate(0) translate(4 740)">
<title>finite_state_machine</title>
<!-- &#45;1 -->
<!-- 0 -->
<g id="node3" class="node">
<title>0</title>
<ellipse fill="none" stroke="white" cx="167.56" cy="-377" rx="18" ry="18"/>
<text text-anchor="middle" x="167.56" y="-371.95" font-family="Times,serif" font-size="14.00" fill="white">0</text>
</g>
<!-- &#45;1&#45;&gt;0 -->
<g id="edge1" class="edge">
<title>&#45;1&#45;&gt;0</title>
<path fill="none" stroke="white" d="M68.85,-377C89.25,-377 117.46,-377 138.33,-377"/>
<polygon fill="white" stroke="white" points="138.07,-380.5 148.07,-377 138.07,-373.5 138.07,-380.5"/>
</g>
<!-- 2 -->
<g id="node2" class="node">
<title>2</title>
<ellipse fill="none" stroke="white" cx="415.56" cy="-714" rx="18" ry="18"/>
<ellipse fill="none" stroke="white" cx="415.56" cy="-714" rx="22" ry="22"/>
<text text-anchor="middle" x="415.56" y="-708.95" font-family="Times,serif" font-size="14.00" fill="white">2</text>
</g>
<!-- 1 -->
<g id="node4" class="node">
<title>1</title>
<ellipse fill="none" stroke="white" cx="286.56" cy="-377" rx="18" ry="18"/>
<text text-anchor="middle" x="286.56" y="-371.95" font-family="Times,serif" font-size="14.00" fill="white">1</text>
</g>
<!-- 0&#45;&gt;1 -->
<g id="edge2" class="edge">
<title>0&#45;&gt;1</title>
<path fill="none" stroke="white" d="M185.82,-377C204.66,-377 235.1,-377 257.4,-377"/>
<polygon fill="white" stroke="white" points="257.22,-380.5 267.22,-377 257.22,-373.5 257.22,-380.5"/>
<text text-anchor="middle" x="227.56" y="-380.2" font-family="Times,serif" font-size="14.00" fill="white">&quot;</text>
</g>
<!-- 1&#45;&gt;2 -->
<g id="edge5" class="edge">
<title>1&#45;&gt;2</title>
<path fill="none" stroke="white" d="M288.91,-395.3C293.51,-453.24 310.15,-631.53 343.81,-677 353.63,-690.27 369.62,-699.2 383.92,-704.96"/>
<polygon fill="white" stroke="white" points="382.33,-708.47 392.92,-708.61 384.73,-701.89 382.33,-708.47"/>
<text text-anchor="middle" x="347.56" y="-687.2" font-family="Times,serif" font-size="14.00" fill="white">&quot;</text>
</g>
<!-- 1&#45;&gt;1 -->
<g id="edge3" class="edge">
<title>1&#45;&gt;1</title>
<path fill="none" stroke="white" d="M283.89,-395.15C283.48,-404.54 284.37,-413 286.56,-413 287.82,-413 288.65,-410.17 289.05,-405.97"/>
<polygon fill="white" stroke="white" points="292.56,-406.21 289.22,-396.15 285.56,-406.09 292.56,-406.21"/>
<text text-anchor="middle" x="286.56" y="-416.2" font-family="Times,serif" font-size="14.00" fill="white">\t</text>
</g>
<!-- 1&#45;&gt;1 -->
<g id="edge4" class="edge">
<title>1&#45;&gt;1</title>
<path fill="none" stroke="white" d="M282.16,-394.7C279.73,-412 281.2,-431 286.56,-431 290.83,-431 292.62,-418.93 291.95,-405.28"/>
<polygon fill="white" stroke="white" points="295.37,-405.33 290.95,-395.7 288.41,-405.98 295.37,-405.33"/>
<text text-anchor="middle" x="286.56" y="-434.2" font-family="Times,serif" font-size="14.00" fill="white">SP&#45;!</text>
</g>
<!-- 1&#45;&gt;1 -->
<g id="edge6" class="edge">
<title>1&#45;&gt;1</title>
<path fill="none" stroke="white" d="M281.11,-394.35C275.97,-418.82 277.78,-449 286.56,-449 294.09,-449 296.5,-426.71 293.76,-404.91"/>
<polygon fill="white" stroke="white" points="297.1,-404.64 292,-395.35 290.19,-405.79 297.1,-404.64"/>
<text text-anchor="middle" x="286.56" y="-452.2" font-family="Times,serif" font-size="14.00" fill="white">#&#45;[</text>
</g>
<!-- 1&#45;&gt;1 -->
<g id="edge8" class="edge">
<title>1&#45;&gt;1</title>
<path fill="none" stroke="white" d="M280.37,-394.23C272.22,-425.46 274.28,-467 286.56,-467 297.49,-467 300.32,-434.05 295.05,-404.78"/>
<polygon fill="white" stroke="white" points="298.3,-404.25 292.74,-395.23 291.46,-405.75 298.3,-404.25"/>
<text text-anchor="middle" x="286.56" y="-470.2" font-family="Times,serif" font-size="14.00" fill="white">]&#45;\uffff</text>
</g>
<!-- 3 -->
<g id="node5" class="node">
<title>3</title>
<ellipse fill="none" stroke="white" cx="415.56" cy="-510" rx="18" ry="18"/>
<text text-anchor="middle" x="415.56" y="-504.95" font-family="Times,serif" font-size="14.00" fill="white">3</text>
</g>
<!-- 1&#45;&gt;3 -->
<g id="edge7" class="edge">
<title>1&#45;&gt;3</title>
<path fill="none" stroke="white" d="M288.4,-395.29C291.42,-451.39 303.69,-619.26 343.81,-652 384.67,-685.35 403.99,-589.33 411.13,-538.84"/>
<polygon fill="white" stroke="white" points="414.69,-539.62 412.54,-529.24 407.75,-538.69 414.69,-539.62"/>
<text text-anchor="middle" x="347.56" y="-659.2" font-family="Times,serif" font-size="14.00" fill="white">\\</text>
</g>
<!-- 3&#45;&gt;1 -->
<g id="edge9" class="edge">
<title>3&#45;&gt;1</title>
<path fill="none" stroke="white" d="M410.4,-527.67C401.19,-563.34 377.22,-638.36 343.81,-612 311.61,-586.6 295.78,-462.91 290.1,-405.89"/>
<polygon fill="white" stroke="white" points="293.5,-405.73 289.07,-396.11 286.54,-406.4 293.5,-405.73"/>
<text text-anchor="middle" x="347.56" y="-618.2" font-family="Times,serif" font-size="14.00" fill="white">&quot;</text>
</g>
<!-- 3&#45;&gt;1 -->
<g id="edge10" class="edge">
<title>3&#45;&gt;1</title>
<path fill="none" stroke="white" d="M406.82,-525.85C394.15,-549.7 367.95,-590.16 343.81,-572 317.15,-551.95 299.16,-454.91 291.59,-405.71"/>
<polygon fill="white" stroke="white" points="294.91,-405.24 289.97,-395.87 287.99,-406.28 294.91,-405.24"/>
<text text-anchor="middle" x="347.56" y="-578.2" font-family="Times,serif" font-size="14.00" fill="white">/</text>
</g>
<!-- 3&#45;&gt;1 -->
<g id="edge12" class="edge">
<title>3&#45;&gt;1</title>
<path fill="none" stroke="white" d="M400.68,-520.98C385.55,-531.52 361.19,-544.18 343.81,-532 303.19,-503.53 291.79,-442.61 288.66,-406.19"/>
<polygon fill="white" stroke="white" points="292.09,-406.04 287.91,-396.3 285.1,-406.52 292.09,-406.04"/>
<text text-anchor="middle" x="347.56" y="-538.2" font-family="Times,serif" font-size="14.00" fill="white">b</text>
</g>
<!-- 3&#45;&gt;1 -->
<g id="edge13" class="edge">
<title>3&#45;&gt;1</title>
<path fill="none" stroke="white" d="M397.33,-509.59C381.77,-508.38 359.05,-504.39 343.81,-492 316.64,-469.92 301.61,-431.48 294.07,-405.17"/>
<polygon fill="white" stroke="white" points="297.24,-404.48 291.28,-395.72 290.47,-406.28 297.24,-404.48"/>
<text text-anchor="middle" x="347.56" y="-499.2" font-family="Times,serif" font-size="14.00" fill="white">f</text>
</g>
<!-- 3&#45;&gt;1 -->
<g id="edge14" class="edge">
<title>3&#45;&gt;1</title>
<path fill="none" stroke="white" d="M400.14,-499.8C385.21,-488.87 361.6,-470.58 343.81,-452 328.61,-436.13 313.8,-416.15 303.19,-400.8"/>
<polygon fill="white" stroke="white" points="305.68,-399.23 297.17,-392.92 299.89,-403.16 305.68,-399.23"/>
<text text-anchor="middle" x="347.56" y="-462.2" font-family="Times,serif" font-size="14.00" fill="white">n</text>
</g>
<!-- 3&#45;&gt;1 -->
<g id="edge15" class="edge">
<title>3&#45;&gt;1</title>
<path fill="none" stroke="white" d="M404.32,-495.74C392.38,-479.48 371.67,-452.47 351.31,-431.5 338.41,-418.22 322.6,-404.69 309.95,-394.43"/>
<polygon fill="white" stroke="white" points="312.38,-391.1 302.38,-387.59 308.01,-396.57 312.38,-391.1"/>
<text text-anchor="middle" x="347.56" y="-435.2" font-family="Times,serif" font-size="14.00" fill="white">r</text>
</g>
<!-- 3&#45;&gt;1 -->
<g id="edge16" class="edge">
<title>3&#45;&gt;1</title>
<path fill="none" stroke="white" d="M408.24,-493.39C398.91,-470.79 379.44,-430.35 351.31,-405.5 340.76,-396.19 326.68,-389.46 314.44,-384.89"/>
<polygon fill="white" stroke="white" points="315.88,-381.35 305.28,-381.42 313.61,-387.97 315.88,-381.35"/>
<text text-anchor="middle" x="347.56" y="-409.2" font-family="Times,serif" font-size="14.00" fill="white">t</text>
</g>
<!-- 4 -->
<g id="node6" class="node">
<title>4</title>
<ellipse fill="none" stroke="white" cx="543.56" cy="-311" rx="18" ry="18"/>
<text text-anchor="middle" x="543.56" y="-305.95" font-family="Times,serif" font-size="14.00" fill="white">4</text>
</g>
<!-- 3&#45;&gt;4 -->
<g id="edge11" class="edge">
<title>3&#45;&gt;4</title>
<path fill="none" stroke="white" d="M429.37,-497.79C444.38,-483 469.34,-456.85 486.31,-431 505.99,-401.01 522.56,-363.03 532.51,-337.93"/>
<polygon fill="white" stroke="white" points="536.13,-339.28 536.48,-328.69 529.6,-336.75 536.13,-339.28"/>
<text text-anchor="middle" x="482.56" y="-443.2" font-family="Times,serif" font-size="14.00" fill="white">\\</text>
</g>
<!-- 5 -->
<g id="node7" class="node">
<title>5</title>
<ellipse fill="none" stroke="white" cx="664.56" cy="-311" rx="18" ry="18"/>
<text text-anchor="middle" x="664.56" y="-305.95" font-family="Times,serif" font-size="14.00" fill="white">5</text>
</g>
<!-- 3&#45;&gt;5 -->
<g id="edge17" class="edge">
<title>3&#45;&gt;5</title>
<path fill="none" stroke="white" d="M431.26,-500.24C445.57,-490.6 467.8,-475.29 486.31,-461 544.6,-416 609.95,-358.84 642.61,-329.79"/>
<polygon fill="white" stroke="white" points="644.42,-332.98 649.55,-323.71 639.76,-327.75 644.42,-332.98"/>
<text text-anchor="middle" x="543.56" y="-431.2" font-family="Times,serif" font-size="14.00" fill="white">u</text>
</g>
<!-- 4&#45;&gt;1 -->
<g id="edge18" class="edge">
<title>4&#45;&gt;1</title>
<path fill="none" stroke="white" d="M534.12,-326.72C524.71,-342.55 507.93,-366.26 486.31,-378 431.54,-407.74 355.13,-395.02 314.87,-384.95"/>
<polygon fill="white" stroke="white" points="315.86,-381.32 305.29,-382.15 314.07,-388.09 315.86,-381.32"/>
<text text-anchor="middle" x="415.56" y="-400.2" font-family="Times,serif" font-size="14.00" fill="white">/</text>
</g>
<!-- 4&#45;&gt;1 -->
<g id="edge20" class="edge">
<title>4&#45;&gt;1</title>
<path fill="none" stroke="white" d="M525.76,-315.35C482.65,-326.51 367.74,-356.25 314.87,-369.93"/>
<polygon fill="white" stroke="white" points="314.09,-366.78 305.29,-372.67 315.84,-373.55 314.09,-366.78"/>
<text text-anchor="middle" x="415.56" y="-353.2" font-family="Times,serif" font-size="14.00" fill="white">b</text>
</g>
<!-- 4&#45;&gt;1 -->
<g id="edge21" class="edge">
<title>4&#45;&gt;1</title>
<path fill="none" stroke="white" d="M525.16,-309.38C496.93,-307.31 439.64,-305.38 393.56,-318.5 362.84,-327.24 331.25,-346.21 310.64,-360.19"/>
<polygon fill="white" stroke="white" points="308.93,-357.81 302.72,-366.4 312.92,-363.56 308.93,-357.81"/>
<text text-anchor="middle" x="415.56" y="-322.2" font-family="Times,serif" font-size="14.00" fill="white">f</text>
</g>
<!-- 4&#45;&gt;1 -->
<g id="edge22" class="edge">
<title>4&#45;&gt;1</title>
<path fill="none" stroke="white" d="M526.83,-304.12C499.1,-293 440.04,-273.94 393.56,-290.5 357.76,-303.25 325.31,-333.84 306.01,-355"/>
<polygon fill="white" stroke="white" points="303.81,-352.33 299.8,-362.13 309.05,-356.97 303.81,-352.33"/>
<text text-anchor="middle" x="415.56" y="-294.2" font-family="Times,serif" font-size="14.00" fill="white">n</text>
</g>
<!-- 4&#45;&gt;1 -->
<g id="edge23" class="edge">
<title>4&#45;&gt;1</title>
<path fill="none" stroke="white" d="M528.76,-300.45C502.19,-281.48 442.21,-245.3 393.56,-264.5 351.58,-281.06 319.01,-324.41 301.6,-352.21"/>
<polygon fill="white" stroke="white" points="298.27,-349.96 296.09,-360.32 304.26,-353.58 298.27,-349.96"/>
<text text-anchor="middle" x="415.56" y="-268.2" font-family="Times,serif" font-size="14.00" fill="white">r</text>
</g>
<!-- 4&#45;&gt;1 -->
<g id="edge24" class="edge">
<title>4&#45;&gt;1</title>
<path fill="none" stroke="white" d="M530.8,-297.96C505.92,-272.02 445.91,-218.2 393.56,-239.5 344.72,-259.36 313.14,-316.27 298.03,-350.33"/>
<polygon fill="white" stroke="white" points="294.56,-348.53 293.86,-359.1 301,-351.27 294.56,-348.53"/>
<text text-anchor="middle" x="415.56" y="-243.2" font-family="Times,serif" font-size="14.00" fill="white">t</text>
</g>
<!-- 4&#45;&gt;4 -->
<g id="edge19" class="edge">
<title>4&#45;&gt;4</title>
<path fill="none" stroke="white" d="M533.4,-326.17C530.33,-336.66 533.71,-347 543.56,-347 549.86,-347 553.52,-342.76 554.52,-336.95"/>
<polygon fill="white" stroke="white" points="557.95,-336.87 553.71,-327.17 550.97,-337.4 557.95,-336.87"/>
<text text-anchor="middle" x="543.56" y="-350.2" font-family="Times,serif" font-size="14.00" fill="white">\\</text>
</g>
<!-- 4&#45;&gt;5 -->
<g id="edge25" class="edge">
<title>4&#45;&gt;5</title>
<path fill="none" stroke="white" d="M561.86,-311C581.16,-311 612.67,-311 635.5,-311"/>
<polygon fill="white" stroke="white" points="635.23,-314.5 645.23,-311 635.23,-307.5 635.23,-314.5"/>
<text text-anchor="middle" x="603.56" y="-314.2" font-family="Times,serif" font-size="14.00" fill="white">u</text>
</g>
<!-- 6 -->
<g id="node8" class="node">
<title>6</title>
<ellipse fill="none" stroke="white" cx="808.56" cy="-256" rx="18" ry="18"/>
<text text-anchor="middle" x="808.56" y="-250.95" font-family="Times,serif" font-size="14.00" fill="white">6</text>
</g>
<!-- 5&#45;&gt;6 -->
<g id="edge26" class="edge">
<title>5&#45;&gt;6</title>
<path fill="none" stroke="white" d="M682.83,-312.06C699.87,-312.48 726.35,-311.43 747.43,-303 762.38,-297.02 776.68,-286.13 787.59,-276.33"/>
<polygon fill="white" stroke="white" points="789.67,-279.24 794.55,-269.83 784.87,-274.14 789.67,-279.24"/>
<text text-anchor="middle" x="736.56" y="-313.2" font-family="Times,serif" font-size="14.00" fill="white">0&#45;9</text>
</g>
<!-- 5&#45;&gt;6 -->
<g id="edge27" class="edge">
<title>5&#45;&gt;6</title>
<path fill="none" stroke="white" d="M681.13,-302.93C693.13,-296.89 710.22,-288.64 725.68,-282.5 743.62,-275.38 764.3,-268.7 780.39,-263.82"/>
<polygon fill="white" stroke="white" points="781.12,-266.96 789.71,-260.76 779.13,-260.25 781.12,-266.96"/>
<text text-anchor="middle" x="736.56" y="-286.2" font-family="Times,serif" font-size="14.00" fill="white">A&#45;F</text>
</g>
<!-- 5&#45;&gt;6 -->
<g id="edge28" class="edge">
<title>5&#45;&gt;6</title>
<path fill="none" stroke="white" d="M675.85,-296.68C686.55,-283.14 704.64,-263.72 725.68,-255.5 742.89,-248.77 763.74,-249.01 780.09,-250.87"/>
<polygon fill="white" stroke="white" points="779.19,-254.42 789.59,-252.35 780.17,-247.48 779.19,-254.42"/>
<text text-anchor="middle" x="736.56" y="-259.2" font-family="Times,serif" font-size="14.00" fill="white">a&#45;f</text>
</g>
<!-- 7 -->
<g id="node9" class="node">
<title>7</title>
<ellipse fill="none" stroke="white" cx="951.56" cy="-195" rx="18" ry="18"/>
<text text-anchor="middle" x="951.56" y="-189.95" font-family="Times,serif" font-size="14.00" fill="white">7</text>
</g>
<!-- 6&#45;&gt;7 -->
<g id="edge29" class="edge">
<title>6&#45;&gt;7</title>
<path fill="none" stroke="white" d="M826.88,-255.22C843.96,-253.91 870.46,-250.39 891.43,-241 905.67,-234.62 919.54,-224.12 930.27,-214.77"/>
<polygon fill="white" stroke="white" points="932.1,-217.92 937.14,-208.61 927.39,-212.74 932.1,-217.92"/>
<text text-anchor="middle" x="880.56" y="-252.2" font-family="Times,serif" font-size="14.00" fill="white">0&#45;9</text>
</g>
<!-- 6&#45;&gt;7 -->
<g id="edge30" class="edge">
<title>6&#45;&gt;7</title>
<path fill="none" stroke="white" d="M823.88,-246.28C835.76,-238.53 853.29,-227.81 869.68,-220.5 887.05,-212.76 907.49,-206.33 923.47,-201.87"/>
<polygon fill="white" stroke="white" points="923.99,-205.09 932.73,-199.1 922.16,-198.33 923.99,-205.09"/>
<text text-anchor="middle" x="880.56" y="-224.2" font-family="Times,serif" font-size="14.00" fill="white">A&#45;F</text>
</g>
<!-- 6&#45;&gt;7 -->
<g id="edge31" class="edge">
<title>6&#45;&gt;7</title>
<path fill="none" stroke="white" d="M818.54,-240.59C828.68,-224.88 846.8,-201.45 869.68,-191.5 886.54,-184.17 907.29,-185.24 923.55,-188.05"/>
<polygon fill="white" stroke="white" points="922.48,-191.61 932.98,-190.18 923.89,-184.75 922.48,-191.61"/>
<text text-anchor="middle" x="880.56" y="-195.2" font-family="Times,serif" font-size="14.00" fill="white">a&#45;f</text>
</g>
<!-- 8 -->
<g id="node10" class="node">
<title>8</title>
<ellipse fill="none" stroke="white" cx="1095.56" cy="-122" rx="18" ry="18"/>
<text text-anchor="middle" x="1095.56" y="-116.95" font-family="Times,serif" font-size="14.00" fill="white">8</text>
</g>
<!-- 7&#45;&gt;8 -->
<g id="edge32" class="edge">
<title>7&#45;&gt;8</title>
<path fill="none" stroke="white" d="M969.17,-199.64C986.39,-203.52 1013.66,-206.97 1034.43,-197 1055.76,-186.76 1071.9,-164.87 1082.06,-147.36"/>
<polygon fill="white" stroke="white" points="1085.35,-149.65 1087.09,-139.19 1079.21,-146.28 1085.35,-149.65"/>
<text text-anchor="middle" x="1023.56" y="-206.2" font-family="Times,serif" font-size="14.00" fill="white">0&#45;9</text>
</g>
<!-- 7&#45;&gt;8 -->
<g id="edge33" class="edge">
<title>7&#45;&gt;8</title>
<path fill="none" stroke="white" d="M968.46,-188.14C985.11,-180.84 1011.92,-168.74 1034.43,-157 1046.56,-150.67 1059.74,-143.09 1070.65,-136.6"/>
<polygon fill="white" stroke="white" points="1072.17,-139.17 1078.94,-131.02 1068.57,-133.17 1072.17,-139.17"/>
<text text-anchor="middle" x="1023.56" y="-170.2" font-family="Times,serif" font-size="14.00" fill="white">A&#45;F</text>
</g>
<!-- 7&#45;&gt;8 -->
<g id="edge34" class="edge">
<title>7&#45;&gt;8</title>
<path fill="none" stroke="white" d="M963.03,-180.72C973.87,-167.07 992.07,-147.06 1012.68,-136.5 1029.38,-127.94 1050.23,-124.34 1066.72,-122.86"/>
<polygon fill="white" stroke="white" points="1066.58,-126.31 1076.32,-122.14 1066.11,-119.33 1066.58,-126.31"/>
<text text-anchor="middle" x="1023.56" y="-140.2" font-family="Times,serif" font-size="14.00" fill="white">a&#45;f</text>
</g>
<!-- 8&#45;&gt;1 -->
<g id="edge35" class="edge">
<title>8&#45;&gt;1</title>
<path fill="none" stroke="white" d="M1077.58,-118.84C1051.01,-114.18 997.96,-106 952.56,-106 414.56,-106 414.56,-106 414.56,-106 308.49,-106 290.82,-278.32 288.02,-348.14"/>
<polygon fill="white" stroke="white" points="284.5,-347.69 287.68,-357.8 291.5,-347.92 284.5,-347.69"/>
<text text-anchor="middle" x="664.56" y="-109.2" font-family="Times,serif" font-size="14.00" fill="white">0&#45;9</text>
</g>
<!-- 8&#45;&gt;1 -->
<g id="edge36" class="edge">
<title>8&#45;&gt;1</title>
<path fill="none" stroke="white" d="M1081.49,-110.61C1057.63,-91.01 1004.63,-53 952.56,-53 414.56,-53 414.56,-53 414.56,-53 367.75,-53 365.45,-89.5 343.81,-131 306.19,-203.13 293.55,-300.05 289.44,-347.85"/>
<polygon fill="white" stroke="white" points="285.89,-347.38 288.59,-357.63 292.87,-347.93 285.89,-347.38"/>
<text text-anchor="middle" x="664.56" y="-56.2" font-family="Times,serif" font-size="14.00" fill="white">A&#45;F</text>
</g>
<!-- 8&#45;&gt;1 -->
<g id="edge37" class="edge">
<title>8&#45;&gt;1</title>
<path fill="none" stroke="white" d="M1086.19,-106.55C1067.16,-73.72 1017.23,0 952.56,0 414.56,0 414.56,0 414.56,0 341.19,0 302.12,-259.67 290.96,-347.99"/>
<polygon fill="white" stroke="white" points="287.38,-347.46 289.62,-357.82 294.32,-348.32 287.38,-347.46"/>
<text text-anchor="middle" x="664.56" y="-3.2" font-family="Times,serif" font-size="14.00" fill="white">a&#45;f</text>
</g>
</g>
</svg>
