<?xml version="1.0" encoding="UTF-8" standalone="no"?>
<!DOCTYPE svg PUBLIC "-//W3C//DTD SVG 1.1//EN"
 "http://www.w3.org/Graphics/SVG/1.1/DTD/svg11.dtd">
<!-- Generated by graphviz version 8.1.0 (20230707.0739)
 -->
<!-- Title: finite_state_machine Pages: 1 -->
<svg width="230pt" height="133pt"
 viewBox="0.00 0.00 230.00 132.88" xmlns="http://www.w3.org/2000/svg" xmlns:xlink="http://www.w3.org/1999/xlink">
<g id="graph0" class="graph" transform="scale(1 1) rotate(0) translate(4 128.88)">
<title>finite_state_machine</title>
<!-- &#45;1 -->
<!-- 0 -->
<g id="node3" class="node">
<title>0</title>
<ellipse fill="none" stroke="black" cx="109" cy="-24.11" rx="18" ry="18"/>
<text text-anchor="middle" x="109" y="-19.06" font-family="Times,serif" font-size="14.00">0</text>
</g>
<!-- &#45;1&#45;&gt;0 -->
<g id="edge1" class="edge">
<title>&#45;1&#45;&gt;0</title>
<path fill="none" stroke="black" d="M54.19,-24.11C62.47,-24.11 71.63,-24.11 80.02,-24.11"/>
<polygon fill="black" stroke="black" points="79.83,-27.61 89.83,-24.11 79.83,-20.61 79.83,-27.61"/>
</g>
<!-- 1 -->
<g id="node2" class="node">
<title>1</title>
<ellipse fill="none" stroke="black" cx="200" cy="-24.11" rx="18" ry="18"/>
<ellipse fill="none" stroke="black" cx="200" cy="-24.11" rx="22" ry="22"/>
<text text-anchor="middle" x="200" y="-19.06" font-family="Times,serif" font-size="14.00">1</text>
</g>
<!-- 1&#45;&gt;1 -->
<g id="edge4" class="edge">
<title>1&#45;&gt;1</title>
<path fill="none" stroke="black" d="M195.57,-45.91C195.15,-55.67 196.62,-64.11 200,-64.11 202,-64.11 203.34,-61.13 204,-56.67"/>
<polygon fill="black" stroke="black" points="207.53,-57.04 204.43,-46.91 200.54,-56.77 207.53,-57.04"/>
<text text-anchor="middle" x="200" y="-67.31" font-family="Times,serif" font-size="14.00">\t</text>
</g>
<!-- 1&#45;&gt;1 -->
<g id="edge5" class="edge">
<title>1&#45;&gt;1</title>
<path fill="none" stroke="black" d="M192.43,-45.22C189.09,-63.2 191.61,-82.11 200,-82.11 206.69,-82.11 209.65,-70.1 208.88,-56.12"/>
<polygon fill="black" stroke="black" points="212.24,-55.73 207.57,-46.22 205.29,-56.57 212.24,-55.73"/>
<text text-anchor="middle" x="200" y="-85.31" font-family="Times,serif" font-size="14.00">SP</text>
</g>
<!-- 0&#45;&gt;1 -->
<g id="edge2" class="edge">
<title>0&#45;&gt;1</title>
<path fill="none" stroke="black" d="M127.16,-24.11C138.45,-24.11 153.56,-24.11 167.02,-24.11"/>
<polygon fill="black" stroke="black" points="166.81,-27.61 176.81,-24.11 166.81,-20.61 166.81,-27.61"/>
<text text-anchor="middle" x="152" y="-27.31" font-family="Times,serif" font-size="14.00">\t</text>
</g>
<!-- 0&#45;&gt;1 -->
<g id="edge3" class="edge">
<title>0&#45;&gt;1</title>
<path fill="none" stroke="black" d="M123.98,-13.47C129.97,-9.56 137.24,-5.6 144.5,-3.61 153.61,-1.1 163.33,-3.16 172,-6.78"/>
<polygon fill="black" stroke="black" points="170.09,-10.23 180.6,-11.57 173.21,-3.97 170.09,-10.23"/>
<text text-anchor="middle" x="152" y="-6.31" font-family="Times,serif" font-size="14.00">SP</text>
</g>
</g>
</svg>
