<?xml version="1.0" encoding="UTF-8" standalone="no"?>
<!DOCTYPE svg PUBLIC "-//W3C//DTD SVG 1.1//EN"
 "http://www.w3.org/Graphics/SVG/1.1/DTD/svg11.dtd">
<!-- Generated by graphviz version 9.0.0 (20230911.1827)
 -->
<!-- Title: dependency_graph Pages: 1 -->
<svg width="756pt" height="404pt"
 viewBox="0.00 0.00 755.88 404.00" xmlns="http://www.w3.org/2000/svg" xmlns:xlink="http://www.w3.org/1999/xlink">
<g id="graph0" class="graph" transform="scale(1 1) rotate(0) translate(4 400)">
<title>dependency_graph</title>
<!-- @masochist/benchmark -->
<g id="node1" class="node">
<title>@masochist/benchmark</title>
<ellipse fill="none" stroke="black" cx="336" cy="-378" rx="101" ry="18"/>
<text text-anchor="middle" x="336" y="-372.95" font-family="Times,serif" font-size="14.00">@masochist/benchmark</text>
</g>
<!-- @masochist/graphql -->
<g id="node4" class="node">
<title>@masochist/graphql</title>
<ellipse fill="none" stroke="black" cx="278" cy="-306" rx="87.69" ry="18"/>
<text text-anchor="middle" x="278" y="-300.95" font-family="Times,serif" font-size="14.00">@masochist/graphql</text>
</g>
<!-- @masochist/benchmark&#45;&gt;@masochist/graphql -->
<g id="edge2" class="edge">
<title>@masochist/benchmark&#45;&gt;@masochist/graphql</title>
<path fill="none" stroke="black" d="M321.66,-359.7C314.92,-351.56 306.74,-341.69 299.3,-332.7"/>
<polygon fill="black" stroke="black" points="302.21,-330.74 293.14,-325.27 296.82,-335.2 302.21,-330.74"/>
</g>
<!-- @masochist/legacy -->
<g id="node5" class="node">
<title>@masochist/legacy</title>
<ellipse fill="none" stroke="black" cx="130" cy="-90" rx="83.6" ry="18"/>
<text text-anchor="middle" x="130" y="-84.95" font-family="Times,serif" font-size="14.00">@masochist/legacy</text>
</g>
<!-- @masochist/benchmark&#45;&gt;@masochist/legacy -->
<g id="edge3" class="edge">
<title>@masochist/benchmark&#45;&gt;@masochist/legacy</title>
<path fill="none" stroke="black" d="M272.91,-363.58C243.31,-355.31 208.56,-342.64 181,-324 111.04,-276.68 86.39,-259.18 57,-180 51.43,-165 49.73,-158.25 57,-144 63.51,-131.23 74.7,-120.81 86.38,-112.7"/>
<polygon fill="black" stroke="black" points="87.97,-115.84 94.51,-107.51 84.2,-109.95 87.97,-115.84"/>
</g>
<!-- @masochist/lexer -->
<g id="node6" class="node">
<title>@masochist/lexer</title>
<ellipse fill="none" stroke="black" cx="424" cy="-162" rx="77.97" ry="18"/>
<text text-anchor="middle" x="424" y="-156.95" font-family="Times,serif" font-size="14.00">@masochist/lexer</text>
</g>
<!-- @masochist/benchmark&#45;&gt;@masochist/lexer -->
<g id="edge4" class="edge">
<title>@masochist/benchmark&#45;&gt;@masochist/lexer</title>
<path fill="none" stroke="black" d="M350.96,-359.83C359,-349.91 368.55,-336.87 375,-324 397.05,-280.04 411.29,-224.28 418.45,-191.25"/>
<polygon fill="black" stroke="black" points="421.84,-192.16 420.46,-181.65 414.99,-190.72 421.84,-192.16"/>
</g>
<!-- @masochist/parser -->
<g id="node7" class="node">
<title>@masochist/parser</title>
<ellipse fill="none" stroke="black" cx="542" cy="-234" rx="82.06" ry="18"/>
<text text-anchor="middle" x="542" y="-228.95" font-family="Times,serif" font-size="14.00">@masochist/parser</text>
</g>
<!-- @masochist/benchmark&#45;&gt;@masochist/parser -->
<g id="edge5" class="edge">
<title>@masochist/benchmark&#45;&gt;@masochist/parser</title>
<path fill="none" stroke="black" d="M418.75,-367.48C450.32,-360.11 484.56,-347.07 509,-324 525.77,-308.17 534.07,-283.05 538.14,-263.53"/>
<polygon fill="black" stroke="black" points="541.58,-264.18 539.91,-253.72 534.69,-262.94 541.58,-264.18"/>
</g>
<!-- @masochist/common -->
<g id="node9" class="node">
<title>@masochist/common</title>
<ellipse fill="none" stroke="black" cx="299" cy="-18" rx="92.81" ry="18"/>
<text text-anchor="middle" x="299" y="-12.95" font-family="Times,serif" font-size="14.00">@masochist/common</text>
</g>
<!-- @masochist/benchmark&#45;&gt;@masochist/common -->
<g id="edge1" class="edge">
<title>@masochist/benchmark&#45;&gt;@masochist/common</title>
<path fill="none" stroke="black" d="M235.64,-375.3C136.64,-367.66 0,-338.38 0,-235 0,-235 0,-235 0,-161 0,-118.16 3.91,-99.21 37,-72 62.75,-50.82 142.14,-36.72 206.83,-28.42"/>
<polygon fill="black" stroke="black" points="206.91,-31.94 216.4,-27.23 206.04,-25 206.91,-31.94"/>
</g>
<!-- graphql -->
<g id="node10" class="node">
<title>graphql</title>
<ellipse fill="none" stroke="black" cx="461" cy="-306" rx="39.07" ry="18"/>
<text text-anchor="middle" x="461" y="-300.95" font-family="Times,serif" font-size="14.00">graphql</text>
</g>
<!-- @masochist/benchmark&#45;&gt;graphql -->
<g id="edge6" class="edge">
<title>@masochist/benchmark&#45;&gt;graphql</title>
<path fill="none" stroke="black" d="M365.62,-360.41C384.1,-350.06 407.95,-336.71 427.17,-325.94"/>
<polygon fill="black" stroke="black" points="428.69,-329.1 435.71,-321.16 425.27,-322.99 428.69,-329.1"/>
</g>
<!-- @masochist/codegen -->
<g id="node2" class="node">
<title>@masochist/codegen</title>
<ellipse fill="none" stroke="black" cx="436" cy="-90" rx="90.25" ry="18"/>
<text text-anchor="middle" x="436" y="-84.95" font-family="Times,serif" font-size="14.00">@masochist/codegen</text>
</g>
<!-- @masochist/codegen&#45;&gt;@masochist/common -->
<g id="edge7" class="edge">
<title>@masochist/codegen&#45;&gt;@masochist/common</title>
<path fill="none" stroke="black" d="M404.23,-72.76C385.29,-63.09 361.04,-50.7 340.6,-40.25"/>
<polygon fill="black" stroke="black" points="342.45,-37.27 331.95,-35.84 339.26,-43.5 342.45,-37.27"/>
</g>
<!-- @masochist/compiler -->
<g id="node3" class="node">
<title>@masochist/compiler</title>
<ellipse fill="none" stroke="black" cx="159" cy="-162" rx="92.81" ry="18"/>
<text text-anchor="middle" x="159" y="-156.95" font-family="Times,serif" font-size="14.00">@masochist/compiler</text>
</g>
<!-- @masochist/compiler&#45;&gt;@masochist/legacy -->
<g id="edge9" class="edge">
<title>@masochist/compiler&#45;&gt;@masochist/legacy</title>
<path fill="none" stroke="black" d="M151.83,-143.7C148.71,-136.15 144.96,-127.12 141.47,-118.68"/>
<polygon fill="black" stroke="black" points="144.73,-117.4 137.67,-109.5 138.26,-120.08 144.73,-117.4"/>
</g>
<!-- @masochist/compiler&#45;&gt;@masochist/common -->
<g id="edge8" class="edge">
<title>@masochist/compiler&#45;&gt;@masochist/common</title>
<path fill="none" stroke="black" d="M181.13,-144.22C193.84,-134.21 209.84,-120.96 223,-108 243.22,-88.09 263.99,-63.41 278.7,-45.1"/>
<polygon fill="black" stroke="black" points="281.38,-47.35 284.86,-37.35 275.9,-43 281.38,-47.35"/>
</g>
<!-- @masochist/graphql&#45;&gt;@masochist/codegen -->
<g id="edge10" class="edge">
<title>@masochist/graphql&#45;&gt;@masochist/codegen</title>
<path fill="none" stroke="black" d="M283.55,-287.76C296.26,-248.57 327.17,-155.32 337,-144 349.18,-129.98 365.99,-119.06 382.31,-110.87"/>
<polygon fill="black" stroke="black" points="383.45,-114.2 391,-106.77 380.46,-107.88 383.45,-114.2"/>
</g>
<!-- @masochist/graphql&#45;&gt;@masochist/lexer -->
<g id="edge12" class="edge">
<title>@masochist/graphql&#45;&gt;@masochist/lexer</title>
<path fill="none" stroke="black" d="M295.32,-288.15C320.9,-263.28 368.92,-216.57 398.51,-187.79"/>
<polygon fill="black" stroke="black" points="400.89,-190.36 405.62,-180.88 396.01,-185.34 400.89,-190.36"/>
</g>
<!-- @masochist/graphql&#45;&gt;@masochist/parser -->
<g id="edge13" class="edge">
<title>@masochist/graphql&#45;&gt;@masochist/parser</title>
<path fill="none" stroke="black" d="M330.16,-291.17C373.33,-279.72 434.76,-263.44 480.36,-251.34"/>
<polygon fill="black" stroke="black" points="481.06,-254.78 489.83,-248.83 479.27,-248.01 481.06,-254.78"/>
</g>
<!-- @masochist/graphql&#45;&gt;@masochist/common -->
<g id="edge11" class="edge">
<title>@masochist/graphql&#45;&gt;@masochist/common</title>
<path fill="none" stroke="black" d="M279.28,-287.54C282.79,-239.76 292.57,-106.51 296.9,-47.61"/>
<polygon fill="black" stroke="black" points="300.38,-47.97 297.62,-37.74 293.4,-47.46 300.38,-47.97"/>
</g>
<!-- @masochist/legacy&#45;&gt;@masochist/common -->
<g id="edge14" class="edge">
<title>@masochist/legacy&#45;&gt;@masochist/common</title>
<path fill="none" stroke="black" d="M167.51,-73.46C191.86,-63.38 223.86,-50.12 250.19,-39.22"/>
<polygon fill="black" stroke="black" points="251.42,-42.49 259.32,-35.43 248.74,-36.03 251.42,-42.49"/>
</g>
<!-- @masochist/lexer&#45;&gt;@masochist/codegen -->
<g id="edge15" class="edge">
<title>@masochist/lexer&#45;&gt;@masochist/codegen</title>
<path fill="none" stroke="black" d="M426.97,-143.7C428.23,-136.32 429.74,-127.52 431.16,-119.25"/>
<polygon fill="black" stroke="black" points="434.57,-120.04 432.81,-109.6 427.67,-118.86 434.57,-120.04"/>
</g>
<!-- @masochist/lexer&#45;&gt;@masochist/common -->
<g id="edge16" class="edge">
<title>@masochist/lexer&#45;&gt;@masochist/common</title>
<path fill="none" stroke="black" d="M388.19,-145.6C370.88,-136.69 350.89,-124.05 337,-108 321.88,-90.54 312.04,-66.17 306.17,-47.34"/>
<polygon fill="black" stroke="black" points="309.58,-46.53 303.44,-37.9 302.86,-48.48 309.58,-46.53"/>
</g>
<!-- @masochist/parser&#45;&gt;@masochist/codegen -->
<g id="edge17" class="edge">
<title>@masochist/parser&#45;&gt;@masochist/codegen</title>
<path fill="none" stroke="black" d="M539.26,-215.78C535.52,-196.68 527.34,-165.7 511,-144 501.99,-132.04 489.51,-121.72 477.3,-113.45"/>
<polygon fill="black" stroke="black" points="479.23,-110.53 468.92,-108.08 475.45,-116.43 479.23,-110.53"/>
</g>
<!-- @masochist/parser&#45;&gt;@masochist/lexer -->
<g id="edge19" class="edge">
<title>@masochist/parser&#45;&gt;@masochist/lexer</title>
<path fill="none" stroke="black" d="M514.33,-216.59C498.5,-207.2 478.43,-195.29 461.23,-185.09"/>
<polygon fill="black" stroke="black" points="463.18,-182.17 452.79,-180.08 459.61,-188.19 463.18,-182.17"/>
</g>
<!-- @masochist/parser&#45;&gt;@masochist/common -->
<g id="edge18" class="edge">
<title>@masochist/parser&#45;&gt;@masochist/common</title>
<path fill="none" stroke="black" d="M547.37,-215.57C556.17,-183.16 569.47,-113.2 535,-72 516.5,-49.88 449.92,-36.24 392.18,-28.35"/>
<polygon fill="black" stroke="black" points="392.63,-24.88 382.26,-27.04 391.72,-31.82 392.63,-24.88"/>
</g>
<!-- @masochist/typescript -->
<g id="node8" class="node">
<title>@masochist/typescript</title>
<ellipse fill="none" stroke="black" cx="652" cy="-306" rx="95.88" ry="18"/>
<text text-anchor="middle" x="652" y="-300.95" font-family="Times,serif" font-size="14.00">@masochist/typescript</text>
</g>
<!-- @masochist/typescript&#45;&gt;@masochist/codegen -->
<g id="edge20" class="edge">
<title>@masochist/typescript&#45;&gt;@masochist/codegen</title>
<path fill="none" stroke="black" d="M651.89,-287.54C650.99,-268.51 647.2,-237.86 633,-216 599.32,-164.16 535.79,-129.71 489.96,-110.33"/>
<polygon fill="black" stroke="black" points="491.58,-107.21 481,-106.65 488.92,-113.69 491.58,-107.21"/>
</g>
<!-- @masochist/typescript&#45;&gt;@masochist/lexer -->
<g id="edge22" class="edge">
<title>@masochist/typescript&#45;&gt;@masochist/lexer</title>
<path fill="none" stroke="black" d="M560.63,-300.23C522.4,-293.76 480.17,-280.11 451,-252 434.73,-236.32 428.18,-211.18 425.58,-191.62"/>
<polygon fill="black" stroke="black" points="429.08,-191.39 424.58,-181.79 422.12,-192.1 429.08,-191.39"/>
</g>
<!-- @masochist/typescript&#45;&gt;@masochist/parser -->
<g id="edge23" class="edge">
<title>@masochist/typescript&#45;&gt;@masochist/parser</title>
<path fill="none" stroke="black" d="M625.65,-288.23C611.12,-278.99 592.9,-267.39 577.17,-257.38"/>
<polygon fill="black" stroke="black" points="579.35,-254.62 569.03,-252.2 575.59,-260.52 579.35,-254.62"/>
</g>
<!-- @masochist/typescript&#45;&gt;@masochist/common -->
<g id="edge21" class="edge">
<title>@masochist/typescript&#45;&gt;@masochist/common</title>
<path fill="none" stroke="black" d="M655.81,-287.84C659.13,-269.59 662.36,-240.1 655,-216 632.46,-142.2 622.12,-114.93 558,-72 512.35,-41.44 452.76,-27.87 402.26,-22.08"/>
<polygon fill="black" stroke="black" points="402.78,-18.62 392.47,-21.06 402.05,-25.58 402.78,-18.62"/>
</g>
</g>
</svg>
