<?xml version="1.0" encoding="UTF-8" standalone="no"?>
<!DOCTYPE svg PUBLIC "-//W3C//DTD SVG 1.1//EN"
 "http://www.w3.org/Graphics/SVG/1.1/DTD/svg11.dtd">
<!-- Generated by graphviz version 9.0.0 (20230911.1827)
 -->
<!-- Title: dependency_graph Pages: 1 -->
<svg width="936pt" height="404pt"
 viewBox="0.00 0.00 936.49 404.00" xmlns="http://www.w3.org/2000/svg" xmlns:xlink="http://www.w3.org/1999/xlink">
<g id="graph0" class="graph" transform="scale(1 1) rotate(0) translate(4 400)">
<title>dependency_graph</title>
<!-- @masochist/benchmark -->
<g id="node1" class="node">
<title>@masochist/benchmark</title>
<ellipse fill="none" stroke="black" cx="263.43" cy="-378" rx="101" ry="18"/>
<text text-anchor="middle" x="263.43" y="-372.95" font-family="Times,serif" font-size="14.00">@masochist/benchmark</text>
</g>
<!-- @masochist/common -->
<g id="node4" class="node">
<title>@masochist/common</title>
<ellipse fill="none" stroke="black" cx="429.43" cy="-18" rx="92.81" ry="18"/>
<text text-anchor="middle" x="429.43" y="-12.95" font-family="Times,serif" font-size="14.00">@masochist/common</text>
</g>
<!-- @masochist/benchmark&#45;&gt;@masochist/common -->
<g id="edge1" class="edge">
<title>@masochist/benchmark&#45;&gt;@masochist/common</title>
<path fill="none" stroke="black" d="M338.24,-365.54C420.75,-352.63 544.67,-332.37 565.43,-324 629.03,-298.38 691.43,-303.56 691.43,-235 691.43,-235 691.43,-235 691.43,-161 691.43,-80.37 594.35,-45.29 518.38,-30.18"/>
<polygon fill="black" stroke="black" points="519.3,-26.79 508.82,-28.37 518,-33.67 519.3,-26.79"/>
</g>
<!-- @masochist/graphql -->
<g id="node6" class="node">
<title>@masochist/graphql</title>
<ellipse fill="none" stroke="black" cx="441.43" cy="-306" rx="87.69" ry="18"/>
<text text-anchor="middle" x="441.43" y="-300.95" font-family="Times,serif" font-size="14.00">@masochist/graphql</text>
</g>
<!-- @masochist/benchmark&#45;&gt;@masochist/graphql -->
<g id="edge2" class="edge">
<title>@masochist/benchmark&#45;&gt;@masochist/graphql</title>
<path fill="none" stroke="black" d="M303.83,-361.12C329.81,-350.9 363.78,-337.54 391.46,-326.65"/>
<polygon fill="black" stroke="black" points="392.69,-329.93 400.71,-323.01 390.13,-323.42 392.69,-329.93"/>
</g>
<!-- @masochist/legacy -->
<g id="node7" class="node">
<title>@masochist/legacy</title>
<ellipse fill="none" stroke="black" cx="579.43" cy="-234" rx="83.6" ry="18"/>
<text text-anchor="middle" x="579.43" y="-228.95" font-family="Times,serif" font-size="14.00">@masochist/legacy</text>
</g>
<!-- @masochist/benchmark&#45;&gt;@masochist/legacy -->
<g id="edge3" class="edge">
<title>@masochist/benchmark&#45;&gt;@masochist/legacy</title>
<path fill="none" stroke="black" d="M334.68,-364.93C413.44,-351.34 530.36,-330.33 538.43,-324 557.46,-309.09 568,-283.31 573.61,-263.32"/>
<polygon fill="black" stroke="black" points="576.95,-264.36 576,-253.81 570.17,-262.66 576.95,-264.36"/>
</g>
<!-- @masochist/lexer -->
<g id="node8" class="node">
<title>@masochist/lexer</title>
<ellipse fill="none" stroke="black" cx="129.43" cy="-162" rx="77.97" ry="18"/>
<text text-anchor="middle" x="129.43" y="-156.95" font-family="Times,serif" font-size="14.00">@masochist/lexer</text>
</g>
<!-- @masochist/benchmark&#45;&gt;@masochist/lexer -->
<g id="edge4" class="edge">
<title>@masochist/benchmark&#45;&gt;@masochist/lexer</title>
<path fill="none" stroke="black" d="M176.17,-368.63C117.25,-360.96 46.98,-347.19 28.43,-324 -1.54,-286.51 3.6,-257.08 28.43,-216 37.94,-200.28 53.81,-189 70.19,-181"/>
<polygon fill="black" stroke="black" points="71.33,-184.32 79.02,-177.05 68.47,-177.93 71.33,-184.32"/>
</g>
<!-- @masochist/parser -->
<g id="node9" class="node">
<title>@masochist/parser</title>
<ellipse fill="none" stroke="black" cx="129.43" cy="-234" rx="82.06" ry="18"/>
<text text-anchor="middle" x="129.43" y="-228.95" font-family="Times,serif" font-size="14.00">@masochist/parser</text>
</g>
<!-- @masochist/benchmark&#45;&gt;@masochist/parser -->
<g id="edge5" class="edge">
<title>@masochist/benchmark&#45;&gt;@masochist/parser</title>
<path fill="none" stroke="black" d="M178.65,-367.95C122.47,-360.01 56,-346.18 38.43,-324 28.5,-311.46 30.46,-301.87 38.43,-288 46.73,-273.58 60.62,-262.71 75.09,-254.69"/>
<polygon fill="black" stroke="black" points="76.45,-257.93 83.78,-250.28 73.28,-251.69 76.45,-257.93"/>
</g>
<!-- graphql -->
<g id="node13" class="node">
<title>graphql</title>
<ellipse fill="none" stroke="black" cx="86.43" cy="-306" rx="39.07" ry="18"/>
<text text-anchor="middle" x="86.43" y="-300.95" font-family="Times,serif" font-size="14.00">graphql</text>
</g>
<!-- @masochist/benchmark&#45;&gt;graphql -->
<g id="edge6" class="edge">
<title>@masochist/benchmark&#45;&gt;graphql</title>
<path fill="none" stroke="black" d="M223.27,-361.12C194.15,-349.6 154.95,-334.1 125.97,-322.64"/>
<polygon fill="black" stroke="black" points="127.41,-319.44 116.82,-319.02 124.83,-325.95 127.41,-319.44"/>
</g>
<!-- @masochist/client -->
<g id="node2" class="node">
<title>@masochist/client</title>
<ellipse fill="none" stroke="black" cx="462.43" cy="-378" rx="80.01" ry="18"/>
<text text-anchor="middle" x="462.43" y="-372.95" font-family="Times,serif" font-size="14.00">@masochist/client</text>
</g>
<!-- @masochist/codegen -->
<g id="node3" class="node">
<title>@masochist/codegen</title>
<ellipse fill="none" stroke="black" cx="235.43" cy="-90" rx="90.25" ry="18"/>
<text text-anchor="middle" x="235.43" y="-84.95" font-family="Times,serif" font-size="14.00">@masochist/codegen</text>
</g>
<!-- @masochist/codegen&#45;&gt;@masochist/common -->
<g id="edge7" class="edge">
<title>@masochist/codegen&#45;&gt;@masochist/common</title>
<path fill="none" stroke="black" d="M277.53,-73.81C306.44,-63.38 345.05,-49.45 376.11,-38.24"/>
<polygon fill="black" stroke="black" points="377.11,-41.6 385.33,-34.91 374.73,-35.02 377.11,-41.6"/>
</g>
<!-- @masochist/types -->
<g id="node11" class="node">
<title>@masochist/types</title>
<ellipse fill="none" stroke="black" cx="79.43" cy="-18" rx="78.99" ry="18"/>
<text text-anchor="middle" x="79.43" y="-12.95" font-family="Times,serif" font-size="14.00">@masochist/types</text>
</g>
<!-- @masochist/codegen&#45;&gt;@masochist/types -->
<g id="edge8" class="edge">
<title>@masochist/codegen&#45;&gt;@masochist/types</title>
<path fill="none" stroke="black" d="M200.04,-73.12C177.64,-63.07 148.48,-49.98 124.45,-39.2"/>
<polygon fill="black" stroke="black" points="126.09,-36.1 115.54,-35.2 123.23,-42.49 126.09,-36.1"/>
</g>
<!-- @masochist/compiler -->
<g id="node5" class="node">
<title>@masochist/compiler</title>
<ellipse fill="none" stroke="black" cx="653.43" cy="-378" rx="92.81" ry="18"/>
<text text-anchor="middle" x="653.43" y="-372.95" font-family="Times,serif" font-size="14.00">@masochist/compiler</text>
</g>
<!-- @masochist/graphql&#45;&gt;@masochist/codegen -->
<g id="edge9" class="edge">
<title>@masochist/graphql&#45;&gt;@masochist/codegen</title>
<path fill="none" stroke="black" d="M400.66,-289.66C380.67,-280.77 357.15,-268.12 339.43,-252 296.9,-213.3 264.4,-153.49 247.77,-118.7"/>
<polygon fill="black" stroke="black" points="250.98,-117.3 243.58,-109.72 244.64,-120.26 250.98,-117.3"/>
</g>
<!-- @masochist/graphql&#45;&gt;@masochist/common -->
<g id="edge10" class="edge">
<title>@masochist/graphql&#45;&gt;@masochist/common</title>
<path fill="none" stroke="black" d="M443.2,-287.66C446.81,-248.83 453.83,-152.03 443.43,-72 442.38,-63.88 440.45,-55.24 438.36,-47.34"/>
<polygon fill="black" stroke="black" points="441.78,-46.55 435.67,-37.9 435.05,-48.47 441.78,-46.55"/>
</g>
<!-- @masochist/graphql&#45;&gt;@masochist/lexer -->
<g id="edge11" class="edge">
<title>@masochist/graphql&#45;&gt;@masochist/lexer</title>
<path fill="none" stroke="black" d="M398.02,-290.03C370.1,-280.05 333.24,-266.19 301.43,-252 254.49,-231.05 202.26,-203.38 167.81,-184.48"/>
<polygon fill="black" stroke="black" points="169.92,-181.65 159.47,-179.89 166.54,-187.78 169.92,-181.65"/>
</g>
<!-- @masochist/graphql&#45;&gt;@masochist/parser -->
<g id="edge12" class="edge">
<title>@masochist/graphql&#45;&gt;@masochist/parser</title>
<path fill="none" stroke="black" d="M383.84,-292.08C330.89,-280.2 252.35,-262.58 196.56,-250.06"/>
<polygon fill="black" stroke="black" points="197.38,-246.66 186.85,-247.88 195.84,-253.49 197.38,-246.66"/>
</g>
<!-- @masochist/graphql&#45;&gt;@masochist/types -->
<g id="edge13" class="edge">
<title>@masochist/graphql&#45;&gt;@masochist/types</title>
<path fill="none" stroke="black" d="M435.74,-287.61C419.34,-238.6 370.91,-101.05 334.43,-72 307.99,-50.94 225.45,-36.4 161.36,-27.95"/>
<polygon fill="black" stroke="black" points="161.89,-24.49 151.53,-26.69 161,-31.43 161.89,-24.49"/>
</g>
<!-- @masochist/legacy&#45;&gt;@masochist/common -->
<g id="edge14" class="edge">
<title>@masochist/legacy&#45;&gt;@masochist/common</title>
<path fill="none" stroke="black" d="M570.61,-215.72C554.73,-185.3 519.42,-120.81 481.43,-72 473.75,-62.13 464.43,-52.13 455.81,-43.52"/>
<polygon fill="black" stroke="black" points="458.52,-41.27 448.92,-36.79 453.63,-46.28 458.52,-41.27"/>
</g>
<!-- @masochist/lexer&#45;&gt;@masochist/codegen -->
<g id="edge15" class="edge">
<title>@masochist/lexer&#45;&gt;@masochist/codegen</title>
<path fill="none" stroke="black" d="M154.29,-144.59C168.14,-135.44 185.61,-123.9 200.79,-113.88"/>
<polygon fill="black" stroke="black" points="202.69,-116.82 209.11,-108.39 198.83,-110.98 202.69,-116.82"/>
</g>
<!-- @masochist/lexer&#45;&gt;@masochist/common -->
<g id="edge16" class="edge">
<title>@masochist/lexer&#45;&gt;@masochist/common</title>
<path fill="none" stroke="black" d="M125.22,-143.88C121.44,-123.99 118.87,-91.43 136.43,-72 161.91,-43.83 254.69,-30.53 329.11,-24.32"/>
<polygon fill="black" stroke="black" points="329.21,-27.82 338.9,-23.54 328.65,-20.85 329.21,-27.82"/>
</g>
<!-- @masochist/lexer&#45;&gt;@masochist/types -->
<g id="edge17" class="edge">
<title>@masochist/lexer&#45;&gt;@masochist/types</title>
<path fill="none" stroke="black" d="M119.9,-143.71C114.55,-133.53 108.05,-120.28 103.43,-108 95.98,-88.19 89.83,-65.09 85.61,-47.39"/>
<polygon fill="black" stroke="black" points="89.07,-46.81 83.41,-37.85 82.25,-48.38 89.07,-46.81"/>
</g>
<!-- @masochist/parser&#45;&gt;@masochist/codegen -->
<g id="edge18" class="edge">
<title>@masochist/parser&#45;&gt;@masochist/codegen</title>
<path fill="none" stroke="black" d="M168.38,-217.8C185.59,-209.18 204.56,-196.73 216.43,-180 228.88,-162.45 233.46,-138.39 235.02,-119.71"/>
<polygon fill="black" stroke="black" points="238.51,-120.03 235.58,-109.85 231.52,-119.63 238.51,-120.03"/>
</g>
<!-- @masochist/parser&#45;&gt;@masochist/common -->
<g id="edge19" class="edge">
<title>@masochist/parser&#45;&gt;@masochist/common</title>
<path fill="none" stroke="black" d="M165.69,-217.48C187.34,-207.7 215.09,-194.25 238.43,-180 303.95,-140.01 370.18,-78.35 404.81,-44.11"/>
<polygon fill="black" stroke="black" points="407.24,-46.63 411.85,-37.09 402.29,-41.68 407.24,-46.63"/>
</g>
<!-- @masochist/parser&#45;&gt;@masochist/lexer -->
<g id="edge20" class="edge">
<title>@masochist/parser&#45;&gt;@masochist/lexer</title>
<path fill="none" stroke="black" d="M129.43,-215.7C129.43,-208.41 129.43,-199.73 129.43,-191.54"/>
<polygon fill="black" stroke="black" points="132.93,-191.62 129.43,-181.62 125.93,-191.62 132.93,-191.62"/>
</g>
<!-- @masochist/parser&#45;&gt;@masochist/types -->
<g id="edge21" class="edge">
<title>@masochist/parser&#45;&gt;@masochist/types</title>
<path fill="none" stroke="black" d="M87.49,-218.17C70.32,-209.79 52.22,-197.42 42.43,-180 18.25,-136.94 43.34,-78.97 62.36,-45.63"/>
<polygon fill="black" stroke="black" points="65.14,-47.8 67.23,-37.41 59.12,-44.23 65.14,-47.8"/>
</g>
<!-- @masochist/server -->
<g id="node10" class="node">
<title>@masochist/server</title>
<ellipse fill="none" stroke="black" cx="846.43" cy="-378" rx="82.06" ry="18"/>
<text text-anchor="middle" x="846.43" y="-372.95" font-family="Times,serif" font-size="14.00">@masochist/server</text>
</g>
<!-- @masochist/typescript -->
<g id="node12" class="node">
<title>@masochist/typescript</title>
<ellipse fill="none" stroke="black" cx="239.43" cy="-306" rx="95.88" ry="18"/>
<text text-anchor="middle" x="239.43" y="-300.95" font-family="Times,serif" font-size="14.00">@masochist/typescript</text>
</g>
<!-- @masochist/typescript&#45;&gt;@masochist/codegen -->
<g id="edge22" class="edge">
<title>@masochist/typescript&#45;&gt;@masochist/codegen</title>
<path fill="none" stroke="black" d="M239.61,-287.6C239.85,-258.07 240.07,-196.24 238.43,-144 238.18,-136.05 237.76,-127.43 237.31,-119.5"/>
<polygon fill="black" stroke="black" points="240.82,-119.46 236.72,-109.69 233.83,-119.88 240.82,-119.46"/>
</g>
<!-- @masochist/typescript&#45;&gt;@masochist/common -->
<g id="edge23" class="edge">
<title>@masochist/typescript&#45;&gt;@masochist/common</title>
<path fill="none" stroke="black" d="M250.83,-287.88C273.58,-253.69 326.25,-174.55 370.43,-108 384.45,-86.89 400.32,-62.95 412.07,-45.22"/>
<polygon fill="black" stroke="black" points="414.69,-47.6 417.29,-37.33 408.85,-43.73 414.69,-47.6"/>
</g>
<!-- @masochist/typescript&#45;&gt;@masochist/lexer -->
<g id="edge24" class="edge">
<title>@masochist/typescript&#45;&gt;@masochist/lexer</title>
<path fill="none" stroke="black" d="M175.58,-292.22C120.02,-280.45 47.04,-263.17 38.43,-252 28.67,-239.33 30.46,-229.87 38.43,-216 46.87,-201.32 61.12,-190.32 75.86,-182.27"/>
<polygon fill="black" stroke="black" points="77.36,-185.43 84.73,-177.83 74.22,-179.17 77.36,-185.43"/>
</g>
<!-- @masochist/typescript&#45;&gt;@masochist/parser -->
<g id="edge25" class="edge">
<title>@masochist/typescript&#45;&gt;@masochist/parser</title>
<path fill="none" stroke="black" d="M213.09,-288.23C198.56,-278.99 180.33,-267.39 164.6,-257.38"/>
<polygon fill="black" stroke="black" points="166.78,-254.62 156.46,-252.2 163.02,-260.52 166.78,-254.62"/>
</g>
<!-- @masochist/typescript&#45;&gt;@masochist/types -->
<g id="edge26" class="edge">
<title>@masochist/typescript&#45;&gt;@masochist/types</title>
<path fill="none" stroke="black" d="M173.26,-292.6C114.85,-280.98 37.55,-263.69 28.43,-252 -20.78,-188.89 3.37,-146.17 33.43,-72 37.6,-61.72 44.63,-52.04 51.95,-43.85"/>
<polygon fill="black" stroke="black" points="54.44,-46.31 58.84,-36.67 49.39,-41.46 54.44,-46.31"/>
</g>
</g>
</svg>
