<?xml version="1.0" encoding="UTF-8" standalone="no"?>
<!DOCTYPE svg PUBLIC "-//W3C//DTD SVG 1.1//EN"
 "http://www.w3.org/Graphics/SVG/1.1/DTD/svg11.dtd">
<!-- Generated by graphviz version 9.0.0 (20230911.1827)
 -->
<!-- Title: dependency_graph Pages: 1 -->
<svg width="784pt" height="404pt"
 viewBox="0.00 0.00 783.69 404.00" xmlns="http://www.w3.org/2000/svg" xmlns:xlink="http://www.w3.org/1999/xlink">
<g id="graph0" class="graph" transform="scale(1 1) rotate(0) translate(4 400)">
<title>dependency_graph</title>
<!-- @masochist/benchmark -->
<g id="node1" class="node">
<title>@masochist/benchmark</title>
<ellipse fill="none" stroke="white" cx="309.69" cy="-378" rx="101" ry="18"/>
<text text-anchor="middle" x="309.69" y="-372.95" font-family="Times,serif" font-size="14.00" fill="white">@masochist/benchmark</text>
</g>
<!-- @masochist/graphql -->
<g id="node4" class="node">
<title>@masochist/graphql</title>
<ellipse fill="none" stroke="white" cx="87.69" cy="-306" rx="87.69" ry="18"/>
<text text-anchor="middle" x="87.69" y="-300.95" font-family="Times,serif" font-size="14.00" fill="white">@masochist/graphql</text>
</g>
<!-- @masochist/benchmark&#45;&gt;@masochist/graphql -->
<g id="edge2" class="edge">
<title>@masochist/benchmark&#45;&gt;@masochist/graphql</title>
<path fill="none" stroke="white" d="M261.52,-361.81C227.31,-351.02 181.23,-336.5 145.11,-325.11"/>
<polygon fill="white" stroke="white" points="146.28,-321.8 135.69,-322.13 144.17,-328.48 146.28,-321.8"/>
</g>
<!-- @masochist/legacy -->
<g id="node5" class="node">
<title>@masochist/legacy</title>
<ellipse fill="none" stroke="white" cx="645.69" cy="-90" rx="83.6" ry="18"/>
<text text-anchor="middle" x="645.69" y="-84.95" font-family="Times,serif" font-size="14.00" fill="white">@masochist/legacy</text>
</g>
<!-- @masochist/benchmark&#45;&gt;@masochist/legacy -->
<g id="edge3" class="edge">
<title>@masochist/benchmark&#45;&gt;@masochist/legacy</title>
<path fill="none" stroke="white" d="M403.87,-371.23C456.09,-364.87 520.77,-351.61 572.69,-324 653.16,-281.21 683.52,-264.08 718.69,-180 724.86,-165.24 725.96,-158.25 718.69,-144 712.18,-131.23 700.99,-120.81 689.31,-112.7"/>
<polygon fill="white" stroke="white" points="691.49,-109.95 681.18,-107.51 687.72,-115.84 691.49,-109.95"/>
</g>
<!-- @masochist/lexer -->
<g id="node6" class="node">
<title>@masochist/lexer</title>
<ellipse fill="none" stroke="white" cx="313.69" cy="-162" rx="77.97" ry="18"/>
<text text-anchor="middle" x="313.69" y="-156.95" font-family="Times,serif" font-size="14.00" fill="white">@masochist/lexer</text>
</g>
<!-- @masochist/benchmark&#45;&gt;@masochist/lexer -->
<g id="edge4" class="edge">
<title>@masochist/benchmark&#45;&gt;@masochist/lexer</title>
<path fill="none" stroke="white" d="M315.93,-359.59C319.26,-349.37 323.01,-336.12 324.69,-324 331.08,-277.98 324.57,-224.03 319.2,-191.73"/>
<polygon fill="white" stroke="white" points="322.66,-191.21 317.49,-181.96 315.77,-192.42 322.66,-191.21"/>
</g>
<!-- @masochist/parser -->
<g id="node7" class="node">
<title>@masochist/parser</title>
<ellipse fill="none" stroke="white" cx="195.69" cy="-234" rx="82.06" ry="18"/>
<text text-anchor="middle" x="195.69" y="-228.95" font-family="Times,serif" font-size="14.00" fill="white">@masochist/parser</text>
</g>
<!-- @masochist/benchmark&#45;&gt;@masochist/parser -->
<g id="edge5" class="edge">
<title>@masochist/benchmark&#45;&gt;@masochist/parser</title>
<path fill="none" stroke="white" d="M274.82,-360.69C258.92,-351.76 240.95,-339.37 228.69,-324 214.63,-306.37 206.17,-282.17 201.35,-263.45"/>
<polygon fill="white" stroke="white" points="204.78,-262.74 199.08,-253.81 197.96,-264.34 204.78,-262.74"/>
</g>
<!-- @masochist/common -->
<g id="node9" class="node">
<title>@masochist/common</title>
<ellipse fill="none" stroke="white" cx="476.69" cy="-18" rx="92.81" ry="18"/>
<text text-anchor="middle" x="476.69" y="-12.95" font-family="Times,serif" font-size="14.00" fill="white">@masochist/common</text>
</g>
<!-- @masochist/benchmark&#45;&gt;@masochist/common -->
<g id="edge1" class="edge">
<title>@masochist/benchmark&#45;&gt;@masochist/common</title>
<path fill="none" stroke="white" d="M396.52,-368.44C531.34,-352.71 775.69,-313.39 775.69,-235 775.69,-235 775.69,-235 775.69,-161 775.69,-118.16 771.78,-99.21 738.69,-72 712.94,-50.82 633.55,-36.72 568.86,-28.42"/>
<polygon fill="white" stroke="white" points="569.65,-25 559.29,-27.23 568.78,-31.94 569.65,-25"/>
</g>
<!-- graphql -->
<g id="node10" class="node">
<title>graphql</title>
<ellipse fill="none" stroke="white" cx="276.69" cy="-306" rx="39.07" ry="18"/>
<text text-anchor="middle" x="276.69" y="-300.95" font-family="Times,serif" font-size="14.00" fill="white">graphql</text>
</g>
<!-- @masochist/benchmark&#45;&gt;graphql -->
<g id="edge6" class="edge">
<title>@masochist/benchmark&#45;&gt;graphql</title>
<path fill="none" stroke="white" d="M301.53,-359.7C297.94,-352.07 293.62,-342.92 289.61,-334.4"/>
<polygon fill="white" stroke="white" points="292.83,-333.03 285.4,-325.47 286.5,-336.01 292.83,-333.03"/>
</g>
<!-- @masochist/codegen -->
<g id="node2" class="node">
<title>@masochist/codegen</title>
<ellipse fill="none" stroke="white" cx="292.69" cy="-90" rx="90.25" ry="18"/>
<text text-anchor="middle" x="292.69" y="-84.95" font-family="Times,serif" font-size="14.00" fill="white">@masochist/codegen</text>
</g>
<!-- @masochist/codegen&#45;&gt;@masochist/common -->
<g id="edge7" class="edge">
<title>@masochist/codegen&#45;&gt;@masochist/common</title>
<path fill="none" stroke="white" d="M333.07,-73.64C360.2,-63.32 396.2,-49.62 425.36,-38.53"/>
<polygon fill="white" stroke="white" points="426.25,-41.93 434.35,-35.11 423.76,-35.39 426.25,-41.93"/>
</g>
<!-- @masochist/types -->
<g id="node11" class="node">
<title>@masochist/types</title>
<ellipse fill="none" stroke="white" cx="127.69" cy="-18" rx="78.99" ry="18"/>
<text text-anchor="middle" x="127.69" y="-12.95" font-family="Times,serif" font-size="14.00" fill="white">@masochist/types</text>
</g>
<!-- @masochist/codegen&#45;&gt;@masochist/types -->
<g id="edge8" class="edge">
<title>@masochist/codegen&#45;&gt;@masochist/types</title>
<path fill="none" stroke="white" d="M255.66,-73.29C231.61,-63.09 200.06,-49.7 174.31,-38.78"/>
<polygon fill="white" stroke="white" points="175.99,-35.69 165.42,-35.01 173.26,-42.13 175.99,-35.69"/>
</g>
<!-- @masochist/compiler -->
<g id="node3" class="node">
<title>@masochist/compiler</title>
<ellipse fill="none" stroke="white" cx="616.69" cy="-162" rx="92.81" ry="18"/>
<text text-anchor="middle" x="616.69" y="-156.95" font-family="Times,serif" font-size="14.00" fill="white">@masochist/compiler</text>
</g>
<!-- @masochist/compiler&#45;&gt;@masochist/legacy -->
<g id="edge10" class="edge">
<title>@masochist/compiler&#45;&gt;@masochist/legacy</title>
<path fill="none" stroke="white" d="M623.86,-143.7C626.98,-136.15 630.73,-127.12 634.22,-118.68"/>
<polygon fill="white" stroke="white" points="637.43,-120.08 638.02,-109.5 630.96,-117.4 637.43,-120.08"/>
</g>
<!-- @masochist/compiler&#45;&gt;@masochist/common -->
<g id="edge9" class="edge">
<title>@masochist/compiler&#45;&gt;@masochist/common</title>
<path fill="none" stroke="white" d="M594.56,-144.22C581.85,-134.21 565.85,-120.96 552.69,-108 532.47,-88.09 511.7,-63.41 496.99,-45.1"/>
<polygon fill="white" stroke="white" points="499.79,-43 490.82,-37.35 494.31,-47.35 499.79,-43"/>
</g>
<!-- @masochist/graphql&#45;&gt;@masochist/codegen -->
<g id="edge11" class="edge">
<title>@masochist/graphql&#45;&gt;@masochist/codegen</title>
<path fill="none" stroke="white" d="M87.3,-287.54C87.67,-268.51 90.68,-237.85 104.69,-216 137.03,-165.55 197.8,-130.78 241.51,-110.95"/>
<polygon fill="white" stroke="white" points="242.82,-114.19 250.56,-106.96 240,-107.79 242.82,-114.19"/>
</g>
<!-- @masochist/graphql&#45;&gt;@masochist/lexer -->
<g id="edge13" class="edge">
<title>@masochist/graphql&#45;&gt;@masochist/lexer</title>
<path fill="none" stroke="white" d="M172.38,-300.96C211.7,-294.87 256.35,-281.32 286.69,-252 302.94,-236.3 309.49,-211.16 312.09,-191.6"/>
<polygon fill="white" stroke="white" points="315.56,-192.09 313.1,-181.79 308.6,-191.38 315.56,-192.09"/>
</g>
<!-- @masochist/graphql&#45;&gt;@masochist/parser -->
<g id="edge14" class="edge">
<title>@masochist/graphql&#45;&gt;@masochist/parser</title>
<path fill="none" stroke="white" d="M113.28,-288.41C127.54,-279.17 145.49,-267.54 161,-257.49"/>
<polygon fill="white" stroke="white" points="162.52,-260.67 169.01,-252.29 158.71,-254.8 162.52,-260.67"/>
</g>
<!-- @masochist/graphql&#45;&gt;@masochist/common -->
<g id="edge12" class="edge">
<title>@masochist/graphql&#45;&gt;@masochist/common</title>
<path fill="none" stroke="white" d="M85,-287.57C82.8,-269.36 81.03,-240.13 87.69,-216 107.51,-144.14 112.28,-114.26 173.69,-72 206.76,-49.24 305.51,-34.93 381.37,-27"/>
<polygon fill="white" stroke="white" points="381.29,-30.53 390.88,-26.03 380.58,-23.56 381.29,-30.53"/>
</g>
<!-- @masochist/graphql&#45;&gt;@masochist/types -->
<g id="edge15" class="edge">
<title>@masochist/graphql&#45;&gt;@masochist/types</title>
<path fill="none" stroke="white" d="M63.33,-288.33C52.04,-279.09 39.79,-266.54 33.69,-252 2.73,-178.23 -6.66,-141.08 33.69,-72 42.45,-57 57.19,-45.92 72.43,-37.88"/>
<polygon fill="white" stroke="white" points="73.62,-41.19 81.1,-33.68 70.57,-34.89 73.62,-41.19"/>
</g>
<!-- @masochist/legacy&#45;&gt;@masochist/common -->
<g id="edge16" class="edge">
<title>@masochist/legacy&#45;&gt;@masochist/common</title>
<path fill="none" stroke="white" d="M608.18,-73.46C583.82,-63.38 551.83,-50.12 525.5,-39.22"/>
<polygon fill="white" stroke="white" points="526.95,-36.03 516.37,-35.43 524.27,-42.49 526.95,-36.03"/>
</g>
<!-- @masochist/lexer&#45;&gt;@masochist/codegen -->
<g id="edge17" class="edge">
<title>@masochist/lexer&#45;&gt;@masochist/codegen</title>
<path fill="none" stroke="white" d="M308.5,-143.7C306.26,-136.24 303.59,-127.32 301.08,-118.97"/>
<polygon fill="white" stroke="white" points="304.48,-118.13 298.26,-109.55 297.78,-120.14 304.48,-118.13"/>
</g>
<!-- @masochist/lexer&#45;&gt;@masochist/common -->
<g id="edge18" class="edge">
<title>@masochist/lexer&#45;&gt;@masochist/common</title>
<path fill="none" stroke="white" d="M340.7,-144.66C356.2,-134.79 375.7,-121.54 391.69,-108 414.81,-88.42 438.4,-63.23 454.84,-44.64"/>
<polygon fill="white" stroke="white" points="457.36,-47.08 461.31,-37.25 452.09,-42.47 457.36,-47.08"/>
</g>
<!-- @masochist/lexer&#45;&gt;@masochist/types -->
<g id="edge19" class="edge">
<title>@masochist/lexer&#45;&gt;@masochist/types</title>
<path fill="none" stroke="white" d="M267.89,-147.11C244.13,-138.41 215.57,-125.49 193.69,-108 172.29,-90.9 154.28,-65.28 142.5,-45.92"/>
<polygon fill="white" stroke="white" points="145.63,-44.32 137.54,-37.47 139.59,-47.87 145.63,-44.32"/>
</g>
<!-- @masochist/parser&#45;&gt;@masochist/codegen -->
<g id="edge20" class="edge">
<title>@masochist/parser&#45;&gt;@masochist/codegen</title>
<path fill="none" stroke="white" d="M198.75,-215.62C202.74,-196.65 211.12,-166.06 226.69,-144 234.62,-132.76 245.57,-122.66 256.28,-114.36"/>
<polygon fill="white" stroke="white" points="258.34,-117.19 264.32,-108.45 254.19,-111.55 258.34,-117.19"/>
</g>
<!-- @masochist/parser&#45;&gt;@masochist/lexer -->
<g id="edge22" class="edge">
<title>@masochist/parser&#45;&gt;@masochist/lexer</title>
<path fill="none" stroke="white" d="M223.36,-216.59C239.19,-207.2 259.26,-195.29 276.46,-185.09"/>
<polygon fill="white" stroke="white" points="278.08,-188.19 284.9,-180.08 274.51,-182.17 278.08,-188.19"/>
</g>
<!-- @masochist/parser&#45;&gt;@masochist/common -->
<g id="edge21" class="edge">
<title>@masochist/parser&#45;&gt;@masochist/common</title>
<path fill="none" stroke="white" d="M188.95,-215.59C177.67,-183.21 159.41,-113.3 193.69,-72 216.87,-44.07 304.83,-30.77 376.61,-24.49"/>
<polygon fill="white" stroke="white" points="376.8,-27.99 386.47,-23.67 376.21,-21.02 376.8,-27.99"/>
</g>
<!-- @masochist/parser&#45;&gt;@masochist/types -->
<g id="edge23" class="edge">
<title>@masochist/parser&#45;&gt;@masochist/types</title>
<path fill="none" stroke="white" d="M158.79,-217.62C143.14,-209.02 126.5,-196.64 117.69,-180 95.42,-137.94 107.13,-80.76 117.51,-47.08"/>
<polygon fill="white" stroke="white" points="120.82,-48.24 120.6,-37.65 114.16,-46.06 120.82,-48.24"/>
</g>
<!-- @masochist/typescript -->
<g id="node8" class="node">
<title>@masochist/typescript</title>
<ellipse fill="none" stroke="white" cx="467.69" cy="-306" rx="95.88" ry="18"/>
<text text-anchor="middle" x="467.69" y="-300.95" font-family="Times,serif" font-size="14.00" fill="white">@masochist/typescript</text>
</g>
<!-- @masochist/typescript&#45;&gt;@masochist/codegen -->
<g id="edge24" class="edge">
<title>@masochist/typescript&#45;&gt;@masochist/codegen</title>
<path fill="none" stroke="white" d="M459.71,-287.9C454.94,-277.56 448.83,-264.08 443.69,-252 423.47,-204.46 435.78,-181.92 400.69,-144 387.17,-129.39 368.75,-118.32 350.95,-110.17"/>
<polygon fill="white" stroke="white" points="352.54,-107.04 341.98,-106.3 349.78,-113.47 352.54,-107.04"/>
</g>
<!-- @masochist/typescript&#45;&gt;@masochist/lexer -->
<g id="edge26" class="edge">
<title>@masochist/typescript&#45;&gt;@masochist/lexer</title>
<path fill="none" stroke="white" d="M447.31,-288.12C435.08,-277.86 419.31,-264.39 405.69,-252 382.45,-230.86 356.83,-205.93 338.54,-187.85"/>
<polygon fill="white" stroke="white" points="341.32,-185.68 331.76,-181.12 336.39,-190.65 341.32,-185.68"/>
</g>
<!-- @masochist/typescript&#45;&gt;@masochist/parser -->
<g id="edge27" class="edge">
<title>@masochist/typescript&#45;&gt;@masochist/parser</title>
<path fill="none" stroke="white" d="M412.65,-290.83C367.95,-279.33 304.92,-263.11 258.3,-251.11"/>
<polygon fill="white" stroke="white" points="259.45,-247.79 248.89,-248.69 257.7,-254.57 259.45,-247.79"/>
</g>
<!-- @masochist/typescript&#45;&gt;@masochist/common -->
<g id="edge25" class="edge">
<title>@masochist/typescript&#45;&gt;@masochist/common</title>
<path fill="none" stroke="white" d="M469.22,-287.83C470.09,-277.46 471.11,-263.98 471.69,-252 475.25,-178.46 476.28,-91.74 476.57,-47.74"/>
<polygon fill="white" stroke="white" points="480.07,-47.79 476.63,-37.77 473.07,-47.75 480.07,-47.79"/>
</g>
<!-- @masochist/typescript&#45;&gt;@masochist/types -->
<g id="edge28" class="edge">
<title>@masochist/typescript&#45;&gt;@masochist/types</title>
<path fill="none" stroke="white" d="M468.02,-287.67C467.83,-243.4 460.56,-125.88 391.69,-72 363.89,-50.25 277.02,-35.72 210.45,-27.46"/>
<polygon fill="white" stroke="white" points="210.96,-23.99 200.61,-26.27 210.12,-30.94 210.96,-23.99"/>
</g>
</g>
</svg>
