<?xml version="1.0" encoding="UTF-8" standalone="no"?>
<!DOCTYPE svg PUBLIC "-//W3C//DTD SVG 1.1//EN"
 "http://www.w3.org/Graphics/SVG/1.1/DTD/svg11.dtd">
<!-- Generated by graphviz version 9.0.0 (20230911.1827)
 -->
<!-- Title: dependency_graph Pages: 1 -->
<svg width="981pt" height="404pt"
 viewBox="0.00 0.00 981.50 404.00" xmlns="http://www.w3.org/2000/svg" xmlns:xlink="http://www.w3.org/1999/xlink">
<g id="graph0" class="graph" transform="scale(1 1) rotate(0) translate(4 400)">
<title>dependency_graph</title>
<!-- @masochist/benchmark -->
<g id="node1" class="node">
<title>@masochist/benchmark</title>
<ellipse fill="none" stroke="white" cx="457.69" cy="-378" rx="101" ry="18"/>
<text text-anchor="middle" x="457.69" y="-372.95" font-family="Times,serif" font-size="14.00" fill="white">@masochist/benchmark</text>
</g>
<!-- @masochist/graphql -->
<g id="node4" class="node">
<title>@masochist/graphql</title>
<ellipse fill="none" stroke="white" cx="87.69" cy="-306" rx="87.69" ry="18"/>
<text text-anchor="middle" x="87.69" y="-300.95" font-family="Times,serif" font-size="14.00" fill="white">@masochist/graphql</text>
</g>
<!-- @masochist/benchmark&#45;&gt;@masochist/graphql -->
<g id="edge2" class="edge">
<title>@masochist/benchmark&#45;&gt;@masochist/graphql</title>
<path fill="none" stroke="white" d="M390.26,-364.24C325.73,-352.03 228.61,-333.66 161.91,-321.04"/>
<polygon fill="white" stroke="white" points="162.61,-317.61 152.14,-319.19 161.31,-324.49 162.61,-317.61"/>
</g>
<!-- @masochist/legacy -->
<g id="node5" class="node">
<title>@masochist/legacy</title>
<ellipse fill="none" stroke="white" cx="647.69" cy="-234" rx="83.6" ry="18"/>
<text text-anchor="middle" x="647.69" y="-228.95" font-family="Times,serif" font-size="14.00" fill="white">@masochist/legacy</text>
</g>
<!-- @masochist/benchmark&#45;&gt;@masochist/legacy -->
<g id="edge3" class="edge">
<title>@masochist/benchmark&#45;&gt;@masochist/legacy</title>
<path fill="none" stroke="white" d="M531.11,-365.29C577.12,-356.3 630.34,-342.33 644.69,-324 657.87,-307.16 657.68,-282.54 654.73,-263.46"/>
<polygon fill="white" stroke="white" points="658.22,-263.08 652.91,-253.91 651.34,-264.38 658.22,-263.08"/>
</g>
<!-- @masochist/lexer -->
<g id="node6" class="node">
<title>@masochist/lexer</title>
<ellipse fill="none" stroke="white" cx="231.69" cy="-162" rx="77.97" ry="18"/>
<text text-anchor="middle" x="231.69" y="-156.95" font-family="Times,serif" font-size="14.00" fill="white">@masochist/lexer</text>
</g>
<!-- @masochist/benchmark&#45;&gt;@masochist/lexer -->
<g id="edge4" class="edge">
<title>@masochist/benchmark&#45;&gt;@masochist/lexer</title>
<path fill="none" stroke="white" d="M397.34,-363.17C342.74,-346.95 266.21,-314.02 234.69,-252 225.31,-233.55 224.92,-210.05 226.68,-191.83"/>
<polygon fill="white" stroke="white" points="230.15,-192.33 227.93,-181.97 223.21,-191.45 230.15,-192.33"/>
</g>
<!-- @masochist/parser -->
<g id="node7" class="node">
<title>@masochist/parser</title>
<ellipse fill="none" stroke="white" cx="349.69" cy="-234" rx="82.06" ry="18"/>
<text text-anchor="middle" x="349.69" y="-228.95" font-family="Times,serif" font-size="14.00" fill="white">@masochist/parser</text>
</g>
<!-- @masochist/benchmark&#45;&gt;@masochist/parser -->
<g id="edge5" class="edge">
<title>@masochist/benchmark&#45;&gt;@masochist/parser</title>
<path fill="none" stroke="white" d="M394.26,-363.66C372.91,-355.81 351.31,-343.44 338.69,-324 326.98,-305.96 331.11,-281.48 337.39,-262.76"/>
<polygon fill="white" stroke="white" points="340.58,-264.24 340.82,-253.65 334.02,-261.78 340.58,-264.24"/>
</g>
<!-- @masochist/common -->
<g id="node9" class="node">
<title>@masochist/common</title>
<ellipse fill="none" stroke="white" cx="514.69" cy="-18" rx="92.81" ry="18"/>
<text text-anchor="middle" x="514.69" y="-12.95" font-family="Times,serif" font-size="14.00" fill="white">@masochist/common</text>
</g>
<!-- @masochist/benchmark&#45;&gt;@masochist/common -->
<g id="edge1" class="edge">
<title>@masochist/benchmark&#45;&gt;@masochist/common</title>
<path fill="none" stroke="white" d="M552,-371.33C640.61,-360.29 759.69,-328.13 759.69,-235 759.69,-235 759.69,-235 759.69,-161 759.69,-84.47 669.09,-48.5 598.08,-32.07"/>
<polygon fill="white" stroke="white" points="598.87,-28.66 588.35,-29.92 597.36,-35.5 598.87,-28.66"/>
</g>
<!-- graphql -->
<g id="node10" class="node">
<title>graphql</title>
<ellipse fill="none" stroke="white" cx="596.69" cy="-306" rx="39.07" ry="18"/>
<text text-anchor="middle" x="596.69" y="-300.95" font-family="Times,serif" font-size="14.00" fill="white">graphql</text>
</g>
<!-- @masochist/benchmark&#45;&gt;graphql -->
<g id="edge6" class="edge">
<title>@masochist/benchmark&#45;&gt;graphql</title>
<path fill="none" stroke="white" d="M490.28,-360.59C511.52,-349.89 539.24,-335.93 561.06,-324.94"/>
<polygon fill="white" stroke="white" points="562.53,-328.12 569.89,-320.5 559.39,-321.87 562.53,-328.12"/>
</g>
<!-- @masochist/codegen -->
<g id="node2" class="node">
<title>@masochist/codegen</title>
<ellipse fill="none" stroke="white" cx="303.69" cy="-90" rx="90.25" ry="18"/>
<text text-anchor="middle" x="303.69" y="-84.95" font-family="Times,serif" font-size="14.00" fill="white">@masochist/codegen</text>
</g>
<!-- @masochist/codegen&#45;&gt;@masochist/common -->
<g id="edge7" class="edge">
<title>@masochist/codegen&#45;&gt;@masochist/common</title>
<path fill="none" stroke="white" d="M348.95,-73.98C380.97,-63.36 424.11,-49.05 458.36,-37.69"/>
<polygon fill="white" stroke="white" points="459.31,-41.06 467.7,-34.59 457.11,-34.42 459.31,-41.06"/>
</g>
<!-- @masochist/types -->
<g id="node11" class="node">
<title>@masochist/types</title>
<ellipse fill="none" stroke="white" cx="303.69" cy="-18" rx="78.99" ry="18"/>
<text text-anchor="middle" x="303.69" y="-12.95" font-family="Times,serif" font-size="14.00" fill="white">@masochist/types</text>
</g>
<!-- @masochist/codegen&#45;&gt;@masochist/types -->
<g id="edge8" class="edge">
<title>@masochist/codegen&#45;&gt;@masochist/types</title>
<path fill="none" stroke="white" d="M303.69,-71.7C303.69,-64.41 303.69,-55.73 303.69,-47.54"/>
<polygon fill="white" stroke="white" points="307.19,-47.62 303.69,-37.62 300.19,-47.62 307.19,-47.62"/>
</g>
<!-- @masochist/compiler -->
<g id="node3" class="node">
<title>@masochist/compiler</title>
<ellipse fill="none" stroke="white" cx="880.69" cy="-90" rx="92.81" ry="18"/>
<text text-anchor="middle" x="880.69" y="-84.95" font-family="Times,serif" font-size="14.00" fill="white">@masochist/compiler</text>
</g>
<!-- @masochist/compiler&#45;&gt;@masochist/common -->
<g id="edge9" class="edge">
<title>@masochist/compiler&#45;&gt;@masochist/common</title>
<path fill="none" stroke="white" d="M816.52,-76.73C753.44,-64.66 657.16,-46.25 590.38,-33.48"/>
<polygon fill="white" stroke="white" points="591.06,-30.04 580.58,-31.6 589.75,-36.92 591.06,-30.04"/>
</g>
<!-- @masochist/graphql&#45;&gt;@masochist/codegen -->
<g id="edge10" class="edge">
<title>@masochist/graphql&#45;&gt;@masochist/codegen</title>
<path fill="none" stroke="white" d="M92.89,-287.64C104.84,-248.2 134.03,-154.46 144.69,-144 164.95,-124.11 192.86,-111.69 219.64,-103.92"/>
<polygon fill="white" stroke="white" points="220.42,-107.34 229.17,-101.36 218.6,-100.58 220.42,-107.34"/>
</g>
<!-- @masochist/graphql&#45;&gt;@masochist/lexer -->
<g id="edge12" class="edge">
<title>@masochist/graphql&#45;&gt;@masochist/lexer</title>
<path fill="none" stroke="white" d="M105.06,-287.87C130.39,-262.9 177.59,-216.35 206.66,-187.68"/>
<polygon fill="white" stroke="white" points="208.97,-190.32 213.63,-180.81 204.05,-185.34 208.97,-190.32"/>
</g>
<!-- @masochist/graphql&#45;&gt;@masochist/parser -->
<g id="edge13" class="edge">
<title>@masochist/graphql&#45;&gt;@masochist/parser</title>
<path fill="none" stroke="white" d="M139.77,-291.09C182.41,-279.69 242.85,-263.54 287.94,-251.5"/>
<polygon fill="white" stroke="white" points="288.83,-254.88 297.59,-248.92 287.02,-248.12 288.83,-254.88"/>
</g>
<!-- @masochist/graphql&#45;&gt;@masochist/common -->
<g id="edge11" class="edge">
<title>@masochist/graphql&#45;&gt;@masochist/common</title>
<path fill="none" stroke="white" d="M89.6,-287.79C91.79,-269.75 95.85,-240.66 101.69,-216 119.14,-142.33 125.84,-107.53 192.69,-72 203.23,-66.4 339.35,-45.22 431.2,-31.39"/>
<polygon fill="white" stroke="white" points="431.59,-34.87 440.95,-29.92 430.54,-27.95 431.59,-34.87"/>
</g>
<!-- @masochist/graphql&#45;&gt;@masochist/types -->
<g id="edge14" class="edge">
<title>@masochist/graphql&#45;&gt;@masochist/types</title>
<path fill="none" stroke="white" d="M80.83,-288.02C69.63,-257.52 50.86,-192.17 73.69,-144 103.11,-81.92 177.99,-49.57 234.38,-33.48"/>
<polygon fill="white" stroke="white" points="235.2,-36.89 243.93,-30.88 233.36,-30.13 235.2,-36.89"/>
</g>
<!-- @masochist/legacy&#45;&gt;@masochist/common -->
<g id="edge15" class="edge">
<title>@masochist/legacy&#45;&gt;@masochist/common</title>
<path fill="none" stroke="white" d="M637.59,-215.95C620.05,-186.43 582.64,-123.95 549.69,-72 544.17,-63.3 538.02,-53.89 532.43,-45.45"/>
<polygon fill="white" stroke="white" points="535.49,-43.73 527.04,-37.34 529.66,-47.61 535.49,-43.73"/>
</g>
<!-- @masochist/lexer&#45;&gt;@masochist/codegen -->
<g id="edge16" class="edge">
<title>@masochist/lexer&#45;&gt;@masochist/codegen</title>
<path fill="none" stroke="white" d="M249.12,-144.05C257.81,-135.61 268.49,-125.22 278.09,-115.89"/>
<polygon fill="white" stroke="white" points="280.36,-118.57 285.09,-109.09 275.48,-113.55 280.36,-118.57"/>
</g>
<!-- @masochist/lexer&#45;&gt;@masochist/common -->
<g id="edge17" class="edge">
<title>@masochist/lexer&#45;&gt;@masochist/common</title>
<path fill="none" stroke="white" d="M218.11,-144.03C204.29,-124.58 187.2,-92.73 204.69,-72 212,-63.33 340.39,-43.59 429.63,-30.8"/>
<polygon fill="white" stroke="white" points="429.94,-34.29 439.35,-29.41 428.96,-27.36 429.94,-34.29"/>
</g>
<!-- @masochist/lexer&#45;&gt;@masochist/types -->
<g id="edge18" class="edge">
<title>@masochist/lexer&#45;&gt;@masochist/types</title>
<path fill="none" stroke="white" d="M204.37,-144.66C191.93,-135.59 178.49,-123.08 171.69,-108 165.11,-93.41 162.73,-85.25 171.69,-72 184.94,-52.4 206.77,-40.04 228.89,-32.26"/>
<polygon fill="white" stroke="white" points="229.84,-35.63 238.3,-29.25 227.71,-28.96 229.84,-35.63"/>
</g>
<!-- @masochist/parser&#45;&gt;@masochist/codegen -->
<g id="edge19" class="edge">
<title>@masochist/parser&#45;&gt;@masochist/codegen</title>
<path fill="none" stroke="white" d="M344.05,-215.59C336.25,-191.5 322.07,-147.75 312.77,-119.03"/>
<polygon fill="white" stroke="white" points="316.11,-117.99 309.7,-109.55 309.45,-120.14 316.11,-117.99"/>
</g>
<!-- @masochist/parser&#45;&gt;@masochist/lexer -->
<g id="edge21" class="edge">
<title>@masochist/parser&#45;&gt;@masochist/lexer</title>
<path fill="none" stroke="white" d="M322.02,-216.59C306.19,-207.2 286.12,-195.29 268.92,-185.09"/>
<polygon fill="white" stroke="white" points="270.87,-182.17 260.48,-180.08 267.3,-188.19 270.87,-182.17"/>
</g>
<!-- @masochist/parser&#45;&gt;@masochist/common -->
<g id="edge20" class="edge">
<title>@masochist/parser&#45;&gt;@masochist/common</title>
<path fill="none" stroke="white" d="M371.94,-216.21C384.15,-206.4 399.11,-193.35 410.69,-180 448.07,-136.9 482.03,-79.32 500.38,-45.98"/>
<polygon fill="white" stroke="white" points="503.35,-47.85 505.05,-37.39 497.2,-44.51 503.35,-47.85"/>
</g>
<!-- @masochist/parser&#45;&gt;@masochist/types -->
<g id="edge22" class="edge">
<title>@masochist/parser&#45;&gt;@masochist/types</title>
<path fill="none" stroke="white" d="M364.17,-215.98C388.31,-185.42 431.42,-119.97 402.69,-72 393.4,-56.49 377.84,-45.26 361.79,-37.25"/>
<polygon fill="white" stroke="white" points="363.7,-34.27 353.15,-33.29 360.79,-40.64 363.7,-34.27"/>
</g>
<!-- @masochist/typescript -->
<g id="node8" class="node">
<title>@masochist/typescript</title>
<ellipse fill="none" stroke="white" cx="443.69" cy="-306" rx="95.88" ry="18"/>
<text text-anchor="middle" x="443.69" y="-300.95" font-family="Times,serif" font-size="14.00" fill="white">@masochist/typescript</text>
</g>
<!-- @masochist/typescript&#45;&gt;@masochist/codegen -->
<g id="edge23" class="edge">
<title>@masochist/typescript&#45;&gt;@masochist/codegen</title>
<path fill="none" stroke="white" d="M446.92,-287.7C449.56,-269.07 451.32,-239.02 440.69,-216 419.94,-171.03 374.66,-134.98 341.83,-113.36"/>
<polygon fill="white" stroke="white" points="344.08,-110.65 333.78,-108.2 340.31,-116.54 344.08,-110.65"/>
</g>
<!-- @masochist/typescript&#45;&gt;@masochist/lexer -->
<g id="edge25" class="edge">
<title>@masochist/typescript&#45;&gt;@masochist/lexer</title>
<path fill="none" stroke="white" d="M356.89,-298.01C322.37,-291.07 284.76,-277.67 258.69,-252 242.59,-236.15 236.02,-211.03 233.38,-191.51"/>
<polygon fill="white" stroke="white" points="236.87,-191.3 232.35,-181.72 229.91,-192.03 236.87,-191.3"/>
</g>
<!-- @masochist/typescript&#45;&gt;@masochist/parser -->
<g id="edge26" class="edge">
<title>@masochist/typescript&#45;&gt;@masochist/parser</title>
<path fill="none" stroke="white" d="M420.94,-288.05C409.04,-279.2 394.3,-268.22 381.31,-258.55"/>
<polygon fill="white" stroke="white" points="383.56,-255.86 373.45,-252.69 379.38,-261.47 383.56,-255.86"/>
</g>
<!-- @masochist/typescript&#45;&gt;@masochist/common -->
<g id="edge24" class="edge">
<title>@masochist/typescript&#45;&gt;@masochist/common</title>
<path fill="none" stroke="white" d="M475.53,-288.74C489.28,-279.89 503.97,-267.55 511.69,-252 544.96,-184.98 531.72,-93.17 521.81,-47.38"/>
<polygon fill="white" stroke="white" points="525.25,-46.7 519.61,-37.73 518.42,-48.26 525.25,-46.7"/>
</g>
<!-- @masochist/typescript&#45;&gt;@masochist/types -->
<g id="edge27" class="edge">
<title>@masochist/typescript&#45;&gt;@masochist/types</title>
<path fill="none" stroke="white" d="M449.51,-287.56C452.62,-277.33 456.12,-264.08 457.69,-252 468.21,-171.01 473.21,-134.55 420.69,-72 406.77,-55.43 386.59,-43.8 366.89,-35.75"/>
<polygon fill="white" stroke="white" points="368.37,-32.57 357.78,-32.29 365.88,-39.11 368.37,-32.57"/>
</g>
</g>
</svg>
