<?xml version="1.0" encoding="UTF-8" standalone="no"?>
<!DOCTYPE svg PUBLIC "-//W3C//DTD SVG 1.1//EN"
 "http://www.w3.org/Graphics/SVG/1.1/DTD/svg11.dtd">
<!-- Generated by graphviz version 8.1.0 (20230707.0739)
 -->
<!-- Title: dependency_graph Pages: 1 -->
<svg width="756pt" height="404pt"
 viewBox="0.00 0.00 755.88 404.00" xmlns="http://www.w3.org/2000/svg" xmlns:xlink="http://www.w3.org/1999/xlink">
<g id="graph0" class="graph" transform="scale(1 1) rotate(0) translate(4 400)">
<title>dependency_graph</title>
<!-- @masochist/benchmark -->
<g id="node1" class="node">
<title>@masochist/benchmark</title>
<ellipse fill="none" stroke="white" cx="336" cy="-378" rx="101" ry="18"/>
<text text-anchor="middle" x="336" y="-372.95" font-family="Times,serif" font-size="14.00" fill="white">@masochist/benchmark</text>
</g>
<!-- @masochist/graphql -->
<g id="node4" class="node">
<title>@masochist/graphql</title>
<ellipse fill="none" stroke="white" cx="278" cy="-306" rx="87.69" ry="18"/>
<text text-anchor="middle" x="278" y="-300.95" font-family="Times,serif" font-size="14.00" fill="white">@masochist/graphql</text>
</g>
<!-- @masochist/benchmark&#45;&gt;@masochist/graphql -->
<g id="edge2" class="edge">
<title>@masochist/benchmark&#45;&gt;@masochist/graphql</title>
<path fill="none" stroke="white" d="M321.66,-359.7C314.85,-351.47 306.57,-341.48 299.06,-332.42"/>
<polygon fill="white" stroke="white" points="301.25,-330.57 292.17,-325.1 295.86,-335.04 301.25,-330.57"/>
</g>
<!-- @masochist/legacy -->
<g id="node5" class="node">
<title>@masochist/legacy</title>
<ellipse fill="none" stroke="white" cx="130" cy="-90" rx="83.6" ry="18"/>
<text text-anchor="middle" x="130" y="-84.95" font-family="Times,serif" font-size="14.00" fill="white">@masochist/legacy</text>
</g>
<!-- @masochist/benchmark&#45;&gt;@masochist/legacy -->
<g id="edge3" class="edge">
<title>@masochist/benchmark&#45;&gt;@masochist/legacy</title>
<path fill="none" stroke="white" d="M272.91,-363.58C243.31,-355.31 208.56,-342.64 181,-324 111.04,-276.68 86.39,-259.18 57,-180 51.43,-165 49.73,-158.25 57,-144 63.57,-131.1 74.92,-120.61 86.73,-112.46"/>
<polygon fill="white" stroke="white" points="88.23,-115.02 94.78,-106.69 84.47,-109.12 88.23,-115.02"/>
</g>
<!-- @masochist/lexer -->
<g id="node6" class="node">
<title>@masochist/lexer</title>
<ellipse fill="none" stroke="white" cx="424" cy="-162" rx="77.97" ry="18"/>
<text text-anchor="middle" x="424" y="-156.95" font-family="Times,serif" font-size="14.00" fill="white">@masochist/lexer</text>
</g>
<!-- @masochist/benchmark&#45;&gt;@masochist/lexer -->
<g id="edge4" class="edge">
<title>@masochist/benchmark&#45;&gt;@masochist/lexer</title>
<path fill="none" stroke="white" d="M350.96,-359.83C359,-349.91 368.55,-336.87 375,-324 397.15,-279.85 411.41,-223.79 418.55,-190.81"/>
<polygon fill="white" stroke="white" points="422.15,-191.67 420.78,-181.17 415.3,-190.24 422.15,-191.67"/>
</g>
<!-- @masochist/parser -->
<g id="node7" class="node">
<title>@masochist/parser</title>
<ellipse fill="none" stroke="white" cx="542" cy="-234" rx="82.06" ry="18"/>
<text text-anchor="middle" x="542" y="-228.95" font-family="Times,serif" font-size="14.00" fill="white">@masochist/parser</text>
</g>
<!-- @masochist/benchmark&#45;&gt;@masochist/parser -->
<g id="edge5" class="edge">
<title>@masochist/benchmark&#45;&gt;@masochist/parser</title>
<path fill="none" stroke="white" d="M418.75,-367.48C450.32,-360.11 484.56,-347.07 509,-324 525.93,-308.02 534.22,-282.57 538.26,-262.97"/>
<polygon fill="white" stroke="white" points="541.87,-263.69 540.17,-253.23 534.97,-262.46 541.87,-263.69"/>
</g>
<!-- @masochist/common -->
<g id="node9" class="node">
<title>@masochist/common</title>
<ellipse fill="none" stroke="white" cx="299" cy="-18" rx="92.81" ry="18"/>
<text text-anchor="middle" x="299" y="-12.95" font-family="Times,serif" font-size="14.00" fill="white">@masochist/common</text>
</g>
<!-- @masochist/benchmark&#45;&gt;@masochist/common -->
<g id="edge1" class="edge">
<title>@masochist/benchmark&#45;&gt;@masochist/common</title>
<path fill="none" stroke="white" d="M235.64,-375.3C136.64,-367.66 0,-338.38 0,-235 0,-235 0,-235 0,-161 0,-118.16 3.91,-99.21 37,-72 62.81,-50.78 142.46,-36.66 207.23,-28.37"/>
<polygon fill="white" stroke="white" points="207.41,-31.75 216.9,-27.04 206.54,-24.81 207.41,-31.75"/>
</g>
<!-- graphql -->
<g id="node10" class="node">
<title>graphql</title>
<ellipse fill="none" stroke="white" cx="461" cy="-306" rx="39.07" ry="18"/>
<text text-anchor="middle" x="461" y="-300.95" font-family="Times,serif" font-size="14.00" fill="white">graphql</text>
</g>
<!-- @masochist/benchmark&#45;&gt;graphql -->
<g id="edge6" class="edge">
<title>@masochist/benchmark&#45;&gt;graphql</title>
<path fill="none" stroke="white" d="M365.62,-360.41C384.19,-350.01 408.17,-336.59 427.44,-325.8"/>
<polygon fill="white" stroke="white" points="429.02,-328.36 436.03,-320.42 425.6,-322.26 429.02,-328.36"/>
</g>
<!-- @masochist/codegen -->
<g id="node2" class="node">
<title>@masochist/codegen</title>
<ellipse fill="none" stroke="white" cx="436" cy="-90" rx="90.25" ry="18"/>
<text text-anchor="middle" x="436" y="-84.95" font-family="Times,serif" font-size="14.00" fill="white">@masochist/codegen</text>
</g>
<!-- @masochist/codegen&#45;&gt;@masochist/common -->
<g id="edge7" class="edge">
<title>@masochist/codegen&#45;&gt;@masochist/common</title>
<path fill="none" stroke="white" d="M404.23,-72.76C385.2,-63.05 360.82,-50.59 340.32,-40.11"/>
<polygon fill="white" stroke="white" points="342.1,-36.58 331.6,-35.15 338.92,-42.81 342.1,-36.58"/>
</g>
<!-- @masochist/compiler -->
<g id="node3" class="node">
<title>@masochist/compiler</title>
<ellipse fill="none" stroke="white" cx="159" cy="-162" rx="92.81" ry="18"/>
<text text-anchor="middle" x="159" y="-156.95" font-family="Times,serif" font-size="14.00" fill="white">@masochist/compiler</text>
</g>
<!-- @masochist/compiler&#45;&gt;@masochist/legacy -->
<g id="edge9" class="edge">
<title>@masochist/compiler&#45;&gt;@masochist/legacy</title>
<path fill="none" stroke="white" d="M151.83,-143.7C148.64,-135.98 144.8,-126.71 141.23,-118.11"/>
<polygon fill="white" stroke="white" points="144.15,-117 137.09,-109.1 137.68,-119.68 144.15,-117"/>
</g>
<!-- @masochist/compiler&#45;&gt;@masochist/common -->
<g id="edge8" class="edge">
<title>@masochist/compiler&#45;&gt;@masochist/common</title>
<path fill="none" stroke="white" d="M181.13,-144.22C193.84,-134.21 209.84,-120.96 223,-108 243.4,-87.9 264.37,-62.96 279.11,-44.6"/>
<polygon fill="white" stroke="white" points="282.33,-47.17 285.81,-37.16 276.85,-42.82 282.33,-47.17"/>
</g>
<!-- @masochist/graphql&#45;&gt;@masochist/codegen -->
<g id="edge10" class="edge">
<title>@masochist/graphql&#45;&gt;@masochist/codegen</title>
<path fill="none" stroke="white" d="M283.55,-287.76C296.26,-248.57 327.17,-155.32 337,-144 349.29,-129.85 366.31,-118.86 382.78,-110.64"/>
<polygon fill="white" stroke="white" points="383.81,-113.55 391.37,-106.12 380.83,-107.22 383.81,-113.55"/>
</g>
<!-- @masochist/graphql&#45;&gt;@masochist/lexer -->
<g id="edge12" class="edge">
<title>@masochist/graphql&#45;&gt;@masochist/lexer</title>
<path fill="none" stroke="white" d="M295.32,-288.15C321.01,-263.17 369.33,-216.17 398.89,-187.42"/>
<polygon fill="white" stroke="white" points="400.97,-190.31 405.7,-180.82 396.09,-185.29 400.97,-190.31"/>
</g>
<!-- @masochist/graphql&#45;&gt;@masochist/parser -->
<g id="edge13" class="edge">
<title>@masochist/graphql&#45;&gt;@masochist/parser</title>
<path fill="none" stroke="white" d="M330.16,-291.17C373.51,-279.67 435.28,-263.3 480.94,-251.19"/>
<polygon fill="white" stroke="white" points="481.53,-254.39 490.3,-248.44 479.73,-247.62 481.53,-254.39"/>
</g>
<!-- @masochist/graphql&#45;&gt;@masochist/common -->
<g id="edge11" class="edge">
<title>@masochist/graphql&#45;&gt;@masochist/common</title>
<path fill="none" stroke="white" d="M279.28,-287.54C282.81,-239.56 292.66,-105.39 296.95,-46.88"/>
<polygon fill="white" stroke="white" points="300.49,-47.46 297.73,-37.23 293.51,-46.95 300.49,-47.46"/>
</g>
<!-- @masochist/legacy&#45;&gt;@masochist/common -->
<g id="edge14" class="edge">
<title>@masochist/legacy&#45;&gt;@masochist/common</title>
<path fill="none" stroke="white" d="M167.51,-73.46C192.08,-63.29 224.43,-49.89 250.9,-38.93"/>
<polygon fill="white" stroke="white" points="251.82,-41.92 259.72,-34.86 249.14,-35.45 251.82,-41.92"/>
</g>
<!-- @masochist/lexer&#45;&gt;@masochist/codegen -->
<g id="edge15" class="edge">
<title>@masochist/lexer&#45;&gt;@masochist/codegen</title>
<path fill="none" stroke="white" d="M426.97,-143.7C428.26,-136.15 429.81,-127.12 431.25,-118.68"/>
<polygon fill="white" stroke="white" points="434.83,-119.55 433.07,-109.1 427.93,-118.37 434.83,-119.55"/>
</g>
<!-- @masochist/lexer&#45;&gt;@masochist/common -->
<g id="edge16" class="edge">
<title>@masochist/lexer&#45;&gt;@masochist/common</title>
<path fill="none" stroke="white" d="M388.19,-145.6C370.88,-136.69 350.89,-124.05 337,-108 321.74,-90.37 311.86,-65.71 306.01,-46.81"/>
<polygon fill="white" stroke="white" points="309.15,-46.09 303.02,-37.45 302.43,-48.03 309.15,-46.09"/>
</g>
<!-- @masochist/parser&#45;&gt;@masochist/codegen -->
<g id="edge17" class="edge">
<title>@masochist/parser&#45;&gt;@masochist/codegen</title>
<path fill="none" stroke="white" d="M539.26,-215.78C535.52,-196.68 527.34,-165.7 511,-144 501.82,-131.8 489.01,-121.32 476.57,-112.96"/>
<polygon fill="white" stroke="white" points="478.96,-109.69 468.64,-107.27 475.19,-115.6 478.96,-109.69"/>
</g>
<!-- @masochist/parser&#45;&gt;@masochist/lexer -->
<g id="edge19" class="edge">
<title>@masochist/parser&#45;&gt;@masochist/lexer</title>
<path fill="none" stroke="white" d="M514.33,-216.59C498.36,-207.11 478.06,-195.07 460.75,-184.8"/>
<polygon fill="white" stroke="white" points="462.88,-181.4 452.49,-179.31 459.31,-187.42 462.88,-181.4"/>
</g>
<!-- @masochist/parser&#45;&gt;@masochist/common -->
<g id="edge18" class="edge">
<title>@masochist/parser&#45;&gt;@masochist/common</title>
<path fill="none" stroke="white" d="M547.37,-215.57C556.17,-183.16 569.47,-113.2 535,-72 516.42,-49.79 449.36,-36.13 391.46,-28.25"/>
<polygon fill="white" stroke="white" points="392.13,-24.68 381.76,-26.85 391.22,-31.62 392.13,-24.68"/>
</g>
<!-- @masochist/typescript -->
<g id="node8" class="node">
<title>@masochist/typescript</title>
<ellipse fill="none" stroke="white" cx="652" cy="-306" rx="95.88" ry="18"/>
<text text-anchor="middle" x="652" y="-300.95" font-family="Times,serif" font-size="14.00" fill="white">@masochist/typescript</text>
</g>
<!-- @masochist/typescript&#45;&gt;@masochist/codegen -->
<g id="edge20" class="edge">
<title>@masochist/typescript&#45;&gt;@masochist/codegen</title>
<path fill="none" stroke="white" d="M651.89,-287.54C650.99,-268.51 647.2,-237.86 633,-216 599.25,-164.05 535.52,-129.56 489.67,-110.21"/>
<polygon fill="white" stroke="white" points="491.18,-106.63 480.6,-106.08 488.52,-113.11 491.18,-106.63"/>
</g>
<!-- @masochist/typescript&#45;&gt;@masochist/lexer -->
<g id="edge22" class="edge">
<title>@masochist/typescript&#45;&gt;@masochist/lexer</title>
<path fill="none" stroke="white" d="M560.63,-300.23C522.4,-293.76 480.17,-280.11 451,-252 434.58,-236.17 428.06,-210.71 425.51,-191.06"/>
<polygon fill="white" stroke="white" points="428.91,-190.89 424.43,-181.29 421.95,-191.59 428.91,-190.89"/>
</g>
<!-- @masochist/typescript&#45;&gt;@masochist/parser -->
<g id="edge23" class="edge">
<title>@masochist/typescript&#45;&gt;@masochist/parser</title>
<path fill="none" stroke="white" d="M625.65,-288.23C610.99,-278.9 592.55,-267.17 576.72,-257.1"/>
<polygon fill="white" stroke="white" points="579.07,-253.8 568.75,-251.39 575.31,-259.71 579.07,-253.8"/>
</g>
<!-- @masochist/typescript&#45;&gt;@masochist/common -->
<g id="edge21" class="edge">
<title>@masochist/typescript&#45;&gt;@masochist/common</title>
<path fill="none" stroke="white" d="M655.81,-287.84C659.13,-269.59 662.36,-240.1 655,-216 632.46,-142.2 622.12,-114.93 558,-72 512.16,-41.31 452.26,-27.76 401.62,-22.01"/>
<polygon fill="white" stroke="white" points="402.27,-18.46 391.96,-20.9 401.55,-25.42 402.27,-18.46"/>
</g>
</g>
</svg>
